<svg width="196" height="50" viewBox="0 0 196 50" fill="none" xmlns="http://www.w3.org/2000/svg">
<g clip-path="url(#clip0_1718_12494)">
<path d="M68.0873 19.8443H68.2222C68.3468 19.8443 68.4713 19.7924 68.5855 19.6885C68.6996 19.5847 68.7931 19.4601 68.8761 19.2939C68.9591 19.1382 69.011 18.9616 69.0525 18.7851C69.094 18.6086 69.1044 18.4424 69.1044 18.2867V10.6023H60.2614V18.2867C60.2614 18.4424 60.2718 18.5982 60.3133 18.7851C60.3548 18.9616 60.4067 19.1278 60.4793 19.2835C60.552 19.4393 60.6454 19.5743 60.7492 19.6781C60.853 19.7924 60.9775 19.8443 61.1229 19.8443H61.2578V20.135H57.3864V19.8443H57.5213C57.6458 19.8443 57.7704 19.7924 57.8846 19.6885C57.9987 19.5847 58.0921 19.4601 58.1752 19.2939C58.2582 19.1382 58.3101 18.9616 58.3516 18.7851C58.3931 18.6086 58.4035 18.4424 58.4035 18.2867V3.22954C58.4035 3.09455 58.3931 2.93878 58.3516 2.77264C58.3101 2.5961 58.2582 2.44034 58.1856 2.29496C58.1129 2.14958 58.0195 2.01459 57.9053 1.91075C57.7911 1.8069 57.6666 1.75498 57.5109 1.75498H57.376V1.47461H61.237V1.76537H61.1021C60.9568 1.76537 60.8219 1.81729 60.7077 1.92113C60.5935 2.02497 60.5105 2.14958 60.4378 2.30535C60.3756 2.45073 60.3237 2.61687 60.2821 2.78302C60.2406 2.94917 60.2302 3.09455 60.2302 3.23993V9.62622H69.0733V3.22954C69.0733 3.09455 69.0629 2.93878 69.0214 2.77264C68.9799 2.5961 68.928 2.44034 68.8553 2.29496C68.7827 2.14958 68.6893 2.01459 68.5855 1.91075C68.4713 1.8069 68.3467 1.75498 68.1911 1.75498H68.0561V1.47461H71.9276V1.76537H71.7926C71.6473 1.76537 71.5124 1.81729 71.3982 1.92113C71.284 2.02497 71.201 2.14958 71.1284 2.30535C71.0661 2.45073 71.0142 2.61687 70.9727 2.78302C70.9312 2.94917 70.9208 3.09455 70.9208 3.23993V18.3074C70.9208 18.4528 70.9415 18.619 70.9831 18.8059C71.0246 18.9824 71.0868 19.1485 71.1595 19.3043C71.2322 19.4601 71.3256 19.5951 71.4294 19.6989C71.5331 19.8131 71.6473 19.8651 71.7719 19.8651H71.9068V20.1558H68.0354V19.8651L68.0873 19.8443Z" fill="white"/>
<path d="M75.799 19.8443H75.9339C76.0792 19.8443 76.2141 19.7924 76.3283 19.6885C76.4425 19.5847 76.5359 19.4601 76.6189 19.3043C76.7019 19.1485 76.7642 18.9928 76.8057 18.8266C76.8473 18.6501 76.868 18.4943 76.868 18.349V3.22954C76.868 3.09455 76.8473 2.93878 76.8057 2.77264C76.7642 2.5961 76.6916 2.44034 76.6189 2.29496C76.5359 2.14958 76.4425 2.01459 76.3283 1.91075C76.2141 1.8069 76.0896 1.75498 75.9339 1.75498H75.799V1.47461H86.4376V4.10182H86.1574C86.1158 3.66568 85.9498 3.29185 85.6592 2.95955C85.3685 2.62726 84.9015 2.46111 84.2787 2.46111H78.7155V9.61584H83.3031C83.7183 9.61584 84.0815 9.49122 84.3618 9.22123C84.6524 8.96163 84.7873 8.6501 84.7873 8.28666H85.0572V11.8173H84.7873C84.7873 11.4746 84.6524 11.1839 84.3721 10.945C84.1023 10.7062 83.739 10.5712 83.2927 10.5712H78.7051V19.1278H84.7562C85.1091 19.1278 85.4101 19.0447 85.6695 18.8682C85.9394 18.6916 86.147 18.5047 86.3234 18.2555C86.4999 18.0271 86.6244 17.7674 86.7178 17.4975C86.8009 17.2275 86.8424 16.9886 86.8424 16.8017H87.1226V20.1039H75.7886V19.8131L75.799 19.8443Z" fill="white"/>
<path d="M105.618 19.8443H105.764C105.888 19.8443 106.013 19.7924 106.127 19.6781C106.241 19.5639 106.334 19.4289 106.418 19.2835C106.501 19.1278 106.563 18.972 106.594 18.7851C106.625 18.6086 106.646 18.4424 106.646 18.2867V3.42684L99.5154 20.4466L92.7378 4.3095V18.297C92.7378 18.4424 92.7585 18.6086 92.8001 18.7955C92.8416 18.9824 92.8935 19.1382 92.9765 19.2939C93.0595 19.4497 93.1529 19.5847 93.2671 19.6885C93.3813 19.8027 93.5058 19.8547 93.6615 19.8547H93.7965V20.1454H90.7865V19.8547H90.9214C91.0564 19.8547 91.1705 19.8027 91.2847 19.6885C91.3989 19.5743 91.4819 19.4393 91.5649 19.2939C91.6376 19.1382 91.6895 18.9824 91.731 18.7955C91.7725 18.6189 91.7829 18.4528 91.7829 18.297V3.22954C91.7829 3.09455 91.7725 2.93878 91.731 2.77264C91.6895 2.5961 91.6376 2.44034 91.5649 2.29496C91.4923 2.14958 91.3989 2.01459 91.2847 1.91075C91.1705 1.8069 91.0564 1.75498 90.9214 1.75498H90.7865V1.47461H93.6096L100.024 16.9263L106.438 1.47461H109.562V1.76537H109.427C109.282 1.76537 109.147 1.81729 109.033 1.92113C108.919 2.02497 108.825 2.14958 108.742 2.30535C108.659 2.45073 108.608 2.61687 108.566 2.78302C108.535 2.94917 108.514 3.09455 108.514 3.23993V18.3074C108.514 18.4528 108.524 18.6189 108.566 18.8059C108.608 18.9824 108.659 19.1485 108.742 19.3043C108.825 19.4601 108.919 19.5951 109.033 19.6989C109.147 19.8131 109.272 19.8651 109.427 19.8651H109.562V20.1558H105.639V19.8443H105.618Z" fill="white"/>
<path d="M113.787 19.8443H113.932C114.077 19.8443 114.212 19.7924 114.326 19.6885C114.441 19.5847 114.534 19.4601 114.617 19.3043C114.7 19.1485 114.762 18.9928 114.804 18.8266C114.845 18.6501 114.866 18.4943 114.866 18.349V3.22954C114.866 3.09455 114.845 2.93878 114.804 2.77264C114.762 2.5961 114.69 2.44034 114.617 2.29496C114.544 2.14958 114.441 2.01459 114.326 1.91075C114.212 1.8069 114.088 1.75498 113.932 1.75498H113.787V1.47461H124.425V4.10182H124.145C124.114 3.66568 123.938 3.29185 123.647 2.95955C123.356 2.62726 122.889 2.46111 122.266 2.46111H116.703V9.61584H121.291C121.706 9.61584 122.069 9.49122 122.349 9.22123C122.64 8.96163 122.775 8.6501 122.775 8.28666H123.045V11.8173H122.775C122.775 11.4746 122.64 11.1839 122.36 10.945C122.09 10.7062 121.727 10.5712 121.28 10.5712H116.693V19.1278H122.744C123.097 19.1278 123.398 19.0447 123.657 18.8682C123.917 18.6916 124.124 18.4943 124.301 18.2555C124.477 18.0271 124.602 17.7674 124.695 17.4975C124.778 17.2275 124.82 16.9886 124.82 16.8017H125.1V20.1039H113.766V19.8131L113.787 19.8443Z" fill="white"/>
<path d="M128.702 19.8443H128.847C129.013 19.8443 129.148 19.7924 129.262 19.6781C129.376 19.5639 129.459 19.4289 129.532 19.2835C129.594 19.1278 129.646 18.972 129.677 18.7851C129.708 18.6086 129.719 18.4424 129.719 18.2867V3.31262C129.719 3.17762 129.708 3.02186 129.677 2.83494C129.646 2.64803 129.605 2.47149 129.532 2.32612C129.47 2.18074 129.376 2.04574 129.262 1.93151C129.148 1.81729 129.013 1.76537 128.847 1.76537H128.702V1.47461H132.594V1.76537H132.313C132.168 1.77575 132.044 1.84844 131.94 1.96267C131.836 2.07689 131.763 2.21189 131.701 2.35727C131.639 2.50265 131.608 2.66879 131.577 2.85571C131.545 3.03224 131.535 3.18801 131.535 3.323V19.1485H139.859V3.31262C139.859 3.17762 139.849 3.02186 139.818 2.84533C139.786 2.66879 139.745 2.50265 139.672 2.34688C139.61 2.19112 139.517 2.05613 139.402 1.95228C139.288 1.83806 139.164 1.77575 139.008 1.75498H138.842V1.47461H142.693V1.76537H142.444C142.298 1.77575 142.174 1.84844 142.08 1.96267C141.987 2.07689 141.914 2.21189 141.862 2.35727C141.81 2.50265 141.769 2.66879 141.738 2.85571C141.707 3.04263 141.696 3.18801 141.696 3.323V17.6221C141.696 17.9959 141.79 18.349 141.987 18.6709C142.184 18.9928 142.495 19.1485 142.942 19.1485H144.322V22.6792H144.052C144.032 22.43 143.969 22.1704 143.876 21.8692C143.772 21.5785 143.627 21.3085 143.43 21.0489C143.243 20.7893 142.994 20.5712 142.703 20.405C142.412 20.2285 142.08 20.135 141.696 20.135H128.67V19.8443H128.702Z" fill="white"/>
<path d="M147.571 19.8443H147.706C147.851 19.8443 147.986 19.7924 148.1 19.6781C148.214 19.5639 148.308 19.4289 148.391 19.2835C148.474 19.1278 148.526 18.972 148.567 18.7851C148.609 18.5982 148.619 18.4424 148.619 18.2867V3.22954C148.619 3.09455 148.598 2.93878 148.567 2.77264C148.526 2.5961 148.474 2.44034 148.391 2.29496C148.308 2.14958 148.214 2.01459 148.1 1.91075C147.986 1.8069 147.872 1.75498 147.737 1.75498H147.602V1.47461H151.525V1.76537H151.38C151.235 1.76537 151.11 1.81729 150.986 1.92113C150.871 2.02497 150.778 2.14958 150.695 2.30535C150.612 2.45073 150.55 2.61687 150.508 2.78302C150.467 2.94917 150.446 3.09455 150.446 3.23993V9.08624L156.86 2.55457C157.006 2.40919 157.078 2.22227 157.078 2.02497C157.078 1.85883 157.006 1.76537 156.86 1.76537V1.47461H159.849V1.76537C159.486 1.77575 159.154 1.90036 158.874 2.10805C158.594 2.31573 158.282 2.58572 157.95 2.9284L151.401 9.64699C152.605 9.68852 153.57 9.94813 154.307 10.4362C155.044 10.9242 155.625 11.5992 156.04 12.4715L158.23 16.9782C158.355 17.2586 158.531 17.5701 158.739 17.8921C158.946 18.2243 159.185 18.5359 159.455 18.8266C159.725 19.1174 160.026 19.3562 160.358 19.5535C160.69 19.7508 161.043 19.8443 161.406 19.8443V20.1247H160.026C159.486 20.1247 159.029 20.0416 158.645 19.8858C158.251 19.7301 157.929 19.512 157.639 19.242C157.348 18.972 157.099 18.6605 156.891 18.3282C156.673 17.9855 156.487 17.6532 156.32 17.3105L154.079 12.7623C153.726 12.0665 153.248 11.5369 152.626 11.1631C152.003 10.7893 151.287 10.592 150.456 10.5504V18.297C150.456 18.4424 150.467 18.6086 150.508 18.7747C150.55 18.9409 150.602 19.107 150.674 19.2732C150.747 19.4289 150.84 19.5639 150.954 19.6678C151.069 19.7716 151.183 19.8339 151.318 19.8443H151.505V20.135H147.581V19.8443H147.571Z" fill="white"/>
<path d="M175.159 19.8444H175.304C175.75 19.8444 175.968 19.6367 175.968 19.2318C175.968 19.0864 175.937 18.9202 175.885 18.7541L173.394 11.8901H168.558L166.15 18.6399C166.098 18.7852 166.067 18.9306 166.067 19.0656C166.067 19.3148 166.129 19.5017 166.253 19.6471C166.388 19.7925 166.523 19.8548 166.669 19.8548H166.814V20.1456H163.742V19.8548H163.877C164.115 19.8548 164.344 19.7094 164.582 19.4187C164.811 19.1279 165.008 18.7852 165.153 18.3906L171.484 1.15283L177.681 18.2245C177.816 18.5983 177.992 18.9721 178.221 19.3252C178.449 19.6887 178.75 19.8548 179.113 19.8548H179.258V20.1456H175.159V19.8444ZM168.827 10.914H173.083L170.955 5.00538L168.827 10.914Z" fill="white"/>
<path d="M191.392 19.8442H191.527C191.651 19.8442 191.776 19.7922 191.9 19.678C192.014 19.5638 192.118 19.4288 192.191 19.2834C192.263 19.1276 192.326 18.9719 192.367 18.785C192.409 18.6084 192.43 18.4423 192.43 18.2865V10.6334C192.025 10.6749 191.641 10.7995 191.277 11.028C190.914 11.2564 190.582 11.5576 190.25 11.9314C189.928 12.3052 189.627 12.731 189.337 13.2086C189.046 13.6863 188.776 14.1744 188.517 14.6728C188.309 15.0466 188.091 15.4516 187.852 15.8774C187.614 16.3031 187.375 16.7289 187.136 17.165C186.69 17.9958 186.109 18.6915 185.403 19.273C184.687 19.8545 183.856 20.1349 182.912 20.1349H181.448V19.8442C181.874 19.8442 182.268 19.7507 182.652 19.5638C183.026 19.3769 183.379 19.138 183.69 18.8577C184.002 18.5773 184.282 18.2658 184.531 17.9231C184.78 17.5804 184.988 17.2585 185.154 16.9573L187.344 12.949C187.603 12.5025 187.883 12.056 188.184 11.6302C188.485 11.2045 188.953 10.8618 189.586 10.6022C188.818 10.5503 188.122 10.3945 187.51 10.1557C186.908 9.90646 186.379 9.59494 185.963 9.18995C185.548 8.79535 185.216 8.34883 184.998 7.85039C184.78 7.35194 184.666 6.82235 184.666 6.28237C184.666 5.58663 184.822 4.94281 185.133 4.35091C185.444 3.75901 185.88 3.25018 186.462 2.82443C187.032 2.39867 187.728 2.07676 188.548 1.83793C189.368 1.60947 190.281 1.48486 191.298 1.48486H195.284V1.76524H195.128C194.993 1.76524 194.879 1.81716 194.765 1.921C194.651 2.02484 194.557 2.14945 194.485 2.30522C194.412 2.4506 194.35 2.61674 194.319 2.78289C194.287 2.94904 194.256 3.09442 194.256 3.2398V18.3073C194.256 18.4631 194.277 18.6188 194.319 18.8057C194.36 18.9823 194.412 19.1484 194.485 19.3042C194.557 19.4599 194.651 19.5949 194.765 19.6988C194.879 19.813 194.993 19.8649 195.128 19.8649H195.273V20.1557H191.381V19.8649L191.392 19.8442ZM186.441 5.85662C186.441 6.40698 186.555 6.90542 186.773 7.37271C186.991 7.82962 187.292 8.2346 187.676 8.57728C188.06 8.91996 188.506 9.17957 189.025 9.36648C189.544 9.5534 190.105 9.65724 190.707 9.65724H192.44V2.44021H192.025C190.24 2.44021 188.87 2.74135 187.894 3.34364C186.929 3.94592 186.441 4.78704 186.441 5.85662Z" fill="white"/>
<path d="M62.9599 33.4995C62.8665 33.4995 62.7835 33.5202 62.7005 33.5618C62.6174 33.6033 62.524 33.6552 62.4202 33.7176C62.223 33.8422 61.9635 33.9564 61.6418 34.081C61.32 34.2056 60.9152 34.2679 60.4378 34.2679C59.8462 34.2679 59.3065 34.1745 58.829 33.9772C58.3412 33.7799 57.9157 33.5099 57.5628 33.1672C57.2099 32.8245 56.9297 32.4195 56.7324 31.9522C56.5352 31.4849 56.4418 30.9761 56.4418 30.4361C56.4418 29.9273 56.5352 29.4393 56.7117 28.9927C56.8881 28.5462 57.1476 28.1308 57.4797 27.7778C57.8119 27.4247 58.227 27.1443 58.7149 26.9263C59.2027 26.7186 59.7632 26.6147 60.3755 26.6147C60.8011 26.6147 61.154 26.6667 61.4134 26.7705C61.6833 26.864 61.9013 26.9678 62.0881 27.0613C62.1919 27.1236 62.2957 27.1651 62.3891 27.2066C62.4825 27.2482 62.5863 27.2586 62.6901 27.2586V28.5981H62.524C62.4617 28.3697 62.358 28.1724 62.2126 28.0062C62.0673 27.8297 61.8909 27.6947 61.6937 27.5805C61.5069 27.4663 61.2889 27.3728 61.0502 27.3209C60.8218 27.2586 60.5935 27.2274 60.3755 27.2274C59.9085 27.2274 59.4829 27.3105 59.13 27.487C58.7771 27.6636 58.4865 27.8816 58.2478 28.162C58.0195 28.4424 57.843 28.7539 57.7288 29.107C57.6147 29.46 57.5524 29.8235 57.5524 30.1973C57.5524 30.6334 57.6147 31.0592 57.7496 31.4746C57.8845 31.8899 58.0714 32.2638 58.3205 32.5961C58.5696 32.9283 58.8706 33.188 59.2338 33.3956C59.5971 33.6033 60.0123 33.6968 60.4689 33.6968C60.7907 33.6968 61.0917 33.6552 61.3719 33.5514C61.6522 33.4579 61.8909 33.3333 62.0881 33.1776C62.2853 33.0322 62.4514 32.8557 62.5759 32.6687C62.6901 32.4922 62.7627 32.3157 62.7939 32.1495H62.9703L62.9599 33.4995Z" fill="white"/>
<path d="M65.5859 30.5713C65.6274 30.9866 65.7312 31.3812 65.8765 31.7447C66.0218 32.1185 66.219 32.4404 66.4681 32.7208C66.7172 33.0116 67.0182 33.2296 67.3711 33.3958C67.7344 33.5723 68.1496 33.6554 68.6166 33.6554C68.8657 33.6554 69.1356 33.6138 69.4158 33.5411C69.696 33.4685 69.9555 33.3542 70.2046 33.2192C70.4434 33.0739 70.6613 32.9077 70.8481 32.7C71.035 32.4923 71.1699 32.2639 71.2425 32.0043H71.3982V33.3335C71.336 33.3335 71.2529 33.3542 71.1595 33.4062C71.0661 33.4477 70.9727 33.51 70.8585 33.5827C70.6302 33.7281 70.3188 33.8734 69.9244 34.0396C69.5507 34.185 69.0214 34.268 68.3883 34.268C67.8693 34.268 67.3815 34.1954 66.9041 34.0396C66.437 33.8838 66.0322 33.645 65.6689 33.3335C65.3057 33.0219 65.0254 32.6066 64.8178 32.1185C64.6103 31.6305 64.4961 31.0386 64.4961 30.3532C64.4961 29.9171 64.5687 29.4705 64.7141 29.024C64.849 28.5775 65.0773 28.1725 65.3679 27.8091C65.6586 27.4456 66.0426 27.1652 66.4993 26.9368C66.9663 26.7083 67.5164 26.6045 68.1599 26.6045C68.7308 26.6045 69.2394 26.6979 69.6649 26.9056C70.0905 27.1133 70.4537 27.3833 70.734 27.7364C71.0142 28.0894 71.2322 28.5048 71.3671 28.9825C71.502 29.4602 71.5747 30.0001 71.5747 30.5713H65.5859ZM68.0873 27.1756C67.6825 27.1756 67.34 27.2587 67.039 27.4248C66.7484 27.591 66.4889 27.7987 66.2917 28.0583C66.0841 28.3179 65.9284 28.619 65.8039 28.9409C65.6897 29.2732 65.617 29.6055 65.5755 29.9378H70.5056C70.4952 29.5951 70.433 29.2629 70.3188 28.9306C70.2046 28.5983 70.0489 28.3075 69.8621 28.0479C69.6753 27.7883 69.4158 27.5806 69.1148 27.4248C68.8242 27.2587 68.4713 27.1756 68.0873 27.1756Z" fill="white"/>
<path d="M81.4452 32.9803C81.4452 33.0738 81.4556 33.1776 81.4867 33.2918C81.5075 33.4061 81.549 33.5099 81.6009 33.6034C81.6528 33.6968 81.7151 33.7799 81.7877 33.8526C81.85 33.9253 81.933 33.9564 82.0265 33.9564V34.1329H79.7846V33.9564C79.878 33.9564 79.961 33.9253 80.0233 33.863C80.0856 33.7903 80.1478 33.7072 80.1997 33.6137C80.2516 33.5203 80.2828 33.4061 80.3035 33.3022C80.3243 33.188 80.345 33.0841 80.345 32.9907V28.2243L77.4596 34.2991L74.6988 28.5774V33.0011C74.6988 33.0945 74.7092 33.1984 74.7403 33.3126C74.761 33.4268 74.8026 33.5307 74.8441 33.6241C74.8856 33.7176 74.9479 33.8007 75.0101 33.8733C75.0724 33.946 75.1555 33.9772 75.2489 33.9772V34.1537H73.5778V33.9772C73.6712 33.9772 73.7439 33.9356 73.8165 33.8733C73.8892 33.8007 73.9411 33.7176 73.9826 33.6241C74.0241 33.5307 74.0553 33.4268 74.076 33.3126C74.0968 33.1984 74.1175 33.0945 74.1175 33.0011V27.8193C74.1175 27.6117 74.0864 27.404 74.0345 27.2067C73.9826 26.999 73.8269 26.9055 73.5778 26.9055V26.729H75.1139L77.7606 32.2534L80.4073 26.729H82.0472V26.9055C81.8708 26.9055 81.7358 27.0094 81.632 27.2274C81.5283 27.4455 81.4764 27.6428 81.4764 27.8193V33.0011L81.4452 32.9803Z" fill="white"/>
<path d="M85.1817 30.5711C85.2233 30.9865 85.327 31.3811 85.4724 31.7445C85.6177 32.1184 85.8149 32.4403 86.064 32.7207C86.3131 33.0114 86.6141 33.2295 86.967 33.3956C87.3302 33.5722 87.7454 33.6552 88.2124 33.6552C88.4615 33.6552 88.7314 33.6137 89.0116 33.541C89.2919 33.4683 89.5617 33.3541 89.8005 33.2191C90.0392 33.0737 90.2571 32.9076 90.444 32.6999C90.6308 32.4922 90.7657 32.2638 90.8384 32.0042H90.9941V33.3333C90.9318 33.3333 90.8488 33.3541 90.7553 33.406C90.6619 33.4476 90.5685 33.5099 90.4543 33.5826C90.226 33.7279 89.9146 33.8733 89.5202 34.0395C89.1258 34.1952 88.6069 34.2783 87.9634 34.2783C87.4444 34.2783 86.9566 34.2056 86.4791 34.0498C86.0121 33.8941 85.6073 33.6552 85.244 33.3437C84.8807 33.0322 84.6005 32.6168 84.3929 32.1288C84.175 31.6303 84.0712 31.0488 84.0712 30.3634C84.0712 29.9273 84.1438 29.4808 84.2891 29.0343C84.4241 28.5877 84.6524 28.1828 84.943 27.8193C85.2336 27.4559 85.6177 27.1755 86.0743 26.947C86.5414 26.7186 87.0915 26.6147 87.735 26.6147C88.3059 26.6147 88.8144 26.7082 89.24 26.9159C89.6655 27.1236 90.0288 27.3936 90.309 27.7466C90.5893 28.0997 90.8072 28.5151 90.9422 28.9927C91.0771 29.4704 91.1498 30.0104 91.1498 30.5815L85.1817 30.5711ZM87.6831 27.1755C87.2783 27.1755 86.9358 27.2586 86.6348 27.4247C86.3442 27.5909 86.0847 27.7985 85.8875 28.0582C85.6799 28.3178 85.5242 28.6189 85.3997 28.9408C85.2855 29.2731 85.2129 29.6054 85.1714 29.9377H90.1015C90.0911 29.595 90.0288 29.2627 89.9146 28.9304C89.8005 28.5981 89.6448 28.3074 89.458 28.0478C89.2711 27.7882 89.0116 27.5805 88.7107 27.4247C88.4097 27.2586 88.0671 27.1755 87.6831 27.1755Z" fill="white"/>
<path d="M100.055 32.9801C100.055 33.0736 100.065 33.1774 100.097 33.2917C100.128 33.4059 100.159 33.5097 100.211 33.6032C100.252 33.6966 100.315 33.7797 100.398 33.8524C100.47 33.9251 100.543 33.9562 100.616 33.9562V34.1328H98.3944V33.9562C98.4775 33.9562 98.5501 33.9251 98.6228 33.8628C98.685 33.7901 98.7473 33.707 98.7888 33.6136C98.8303 33.5201 98.8719 33.4059 98.8926 33.302C98.9134 33.1878 98.9341 33.084 98.9341 32.9905V28.7538L94.824 32.8763V33.0009C94.824 33.0944 94.8344 33.1982 94.8655 33.3124C94.8863 33.4267 94.9278 33.5305 94.9693 33.624C95.0108 33.7174 95.0731 33.8005 95.1354 33.8732C95.1976 33.9459 95.2703 33.977 95.3533 33.977V34.1535H93.1633V33.9562C93.2464 33.9562 93.319 33.9251 93.3813 33.8628C93.4436 33.7901 93.5058 33.707 93.5577 33.6136C93.6096 33.5201 93.6408 33.4059 93.6615 33.302C93.6823 33.1878 93.703 33.084 93.703 32.9905V27.8088C93.703 27.7257 93.6927 27.6323 93.6615 27.5284C93.6408 27.4246 93.5993 27.3207 93.5577 27.2273C93.5162 27.1338 93.4539 27.0507 93.3813 26.9884C93.319 26.9157 93.236 26.895 93.1633 26.895V26.7184H95.3533V26.895C95.2599 26.895 95.1873 26.9261 95.1146 26.9884C95.0523 27.0611 95.0004 27.1338 94.9589 27.2273C94.9174 27.3207 94.8863 27.4246 94.8655 27.5284C94.8448 27.6323 94.824 27.7361 94.824 27.8088V32.0352L98.9341 27.9126V27.8088C98.9341 27.7257 98.9238 27.6323 98.8926 27.5284C98.8615 27.4246 98.8303 27.3207 98.7888 27.2273C98.7473 27.1338 98.685 27.0507 98.6228 26.9884C98.5605 26.9157 98.4775 26.895 98.3944 26.895V26.7184H100.605V26.895C100.512 26.895 100.429 26.9261 100.356 26.9884C100.283 27.0611 100.221 27.1338 100.19 27.2273C100.148 27.3207 100.117 27.4246 100.097 27.5284C100.076 27.6323 100.055 27.7361 100.055 27.8088V32.9801ZM98.7266 24.3301C98.7266 24.517 98.685 24.7247 98.5916 24.9427C98.4982 25.1608 98.3633 25.3685 98.1972 25.545C98.0208 25.7216 97.8236 25.8773 97.5848 25.9916C97.3461 26.1162 97.0867 26.1681 96.796 26.1681C96.5262 26.1681 96.2771 26.1162 96.0487 26.0019C95.81 25.8877 95.6024 25.7423 95.4364 25.5762C95.2599 25.3997 95.125 25.2024 95.0212 24.9843C94.9174 24.7662 94.8655 24.5585 94.8655 24.3405H94.9693C94.9797 24.4132 95.0212 24.5066 95.0835 24.6312C95.1457 24.7558 95.2495 24.8804 95.3845 25.0051C95.5194 25.1297 95.7062 25.2439 95.9242 25.3477C96.1525 25.4412 96.4328 25.4931 96.7753 25.4931C97.1178 25.4931 97.4188 25.4516 97.6575 25.3477C97.8858 25.2543 98.0727 25.14 98.2076 25.0051C98.3425 24.8804 98.4463 24.7454 98.4982 24.6312C98.5605 24.5066 98.5916 24.4132 98.6124 24.3405L98.7266 24.3301Z" fill="white"/>
<path d="M104.487 32.9804C104.487 33.0739 104.497 33.1777 104.528 33.292C104.549 33.4062 104.591 33.51 104.632 33.6035C104.674 33.6969 104.736 33.78 104.798 33.8527C104.861 33.9254 104.933 33.9565 105.016 33.9565V34.1331H102.837V33.9565C102.92 33.9565 102.992 33.9254 103.055 33.8631C103.117 33.7904 103.169 33.7073 103.221 33.6139C103.262 33.5204 103.304 33.4062 103.324 33.3023C103.345 33.1881 103.366 33.0843 103.366 32.9908V27.8091C103.366 27.726 103.356 27.6326 103.324 27.5287C103.304 27.4249 103.262 27.321 103.221 27.2276C103.179 27.1341 103.117 27.051 103.055 26.9887C102.992 26.9161 102.92 26.8953 102.837 26.8953V26.7188H105.016V26.8953C104.923 26.8953 104.85 26.9264 104.778 26.9887C104.715 27.0614 104.663 27.1341 104.622 27.2276C104.58 27.321 104.549 27.4249 104.528 27.5287C104.508 27.6326 104.487 27.7364 104.487 27.8091V29.9482H108.431V27.8091C108.431 27.726 108.421 27.6326 108.4 27.5287C108.379 27.4249 108.348 27.321 108.306 27.2276C108.275 27.1341 108.213 27.051 108.151 26.9887C108.089 26.9161 108.016 26.8953 107.912 26.8953V26.7188H110.092V26.8953C109.998 26.8953 109.926 26.9264 109.853 26.9887C109.791 27.0614 109.739 27.1341 109.687 27.2276C109.645 27.321 109.604 27.4249 109.593 27.5287C109.583 27.6326 109.562 27.7364 109.562 27.8091V32.9908C109.562 33.0843 109.573 33.1881 109.604 33.3023C109.625 33.4166 109.666 33.5204 109.708 33.6139C109.749 33.7073 109.811 33.7904 109.874 33.8631C109.936 33.9358 110.009 33.9669 110.092 33.9669V34.1435H107.912V33.9565C107.995 33.9565 108.068 33.9254 108.12 33.8631C108.182 33.7904 108.234 33.7073 108.286 33.6139C108.327 33.5204 108.369 33.4062 108.39 33.3023C108.41 33.1881 108.431 33.0843 108.431 32.9908V30.5298H104.487V32.9804Z" fill="white"/>
<path d="M116.828 34.1327V33.2293L116.734 33.3227C116.444 33.6135 116.112 33.8419 115.738 34.0081C115.364 34.1742 114.918 34.2573 114.378 34.2573C113.974 34.2573 113.631 34.2158 113.34 34.1119C113.05 34.0185 112.821 33.8835 112.635 33.7173C112.448 33.5408 112.313 33.3435 112.23 33.1254C112.136 32.897 112.095 32.6685 112.095 32.4193C112.095 32.0247 112.209 31.6612 112.417 31.3601C112.624 31.0486 112.936 30.7786 113.34 30.5501C113.745 30.3217 114.243 30.0932 114.825 29.9063C115.406 29.709 116.07 29.5221 116.817 29.3352C116.797 28.8783 116.703 28.5044 116.537 28.2241C116.371 27.9333 116.184 27.7152 115.966 27.5595C115.748 27.4037 115.52 27.2999 115.271 27.248C115.032 27.196 114.825 27.1649 114.648 27.1649C114.347 27.1649 114.077 27.2064 113.849 27.2999C113.621 27.3933 113.413 27.5076 113.247 27.6529C113.071 27.7983 112.925 27.9645 112.832 28.1618C112.718 28.3487 112.645 28.5356 112.583 28.7225H112.427V27.3414C112.531 27.3414 112.645 27.2999 112.79 27.2272C112.925 27.1545 113.091 27.061 113.289 26.9676C113.486 26.8741 113.704 26.791 113.984 26.708C114.254 26.6353 114.576 26.5938 114.96 26.5938C115.593 26.5938 116.112 26.6768 116.496 26.843C116.89 27.0091 117.191 27.2272 117.399 27.4972C117.617 27.7672 117.752 28.0787 117.814 28.4214C117.876 28.7641 117.918 29.1171 117.918 29.4909V32.98C117.918 33.2085 117.98 33.4369 118.094 33.6446C118.208 33.8523 118.364 33.9562 118.561 33.9562V34.1327H116.817H116.828ZM116.828 32.4608V29.9375L116.662 29.979C116.382 30.0517 116.049 30.1452 115.655 30.2698C115.261 30.3944 114.877 30.5398 114.524 30.7267C114.16 30.9136 113.859 31.142 113.61 31.4016C113.361 31.6612 113.226 31.9624 113.226 32.3051C113.226 32.6789 113.372 32.9904 113.673 33.2396C113.974 33.4889 114.368 33.6135 114.856 33.6135C115.24 33.6135 115.572 33.5304 115.863 33.3539C116.153 33.1773 116.413 32.9593 116.662 32.6893L116.828 32.4608Z" fill="white"/>
<path d="M126.2 32.9803C126.2 33.0738 126.211 33.1776 126.231 33.2918C126.252 33.4061 126.294 33.5099 126.345 33.6034C126.397 33.6968 126.46 33.7799 126.512 33.8526C126.574 33.9253 126.646 33.946 126.75 33.946V34.1226H124.508V33.9564C124.591 33.9564 124.664 33.9149 124.726 33.8526C124.789 33.7799 124.861 33.6968 124.913 33.6034C124.965 33.5099 124.996 33.4061 125.027 33.2918C125.048 33.1776 125.069 33.0738 125.069 32.9803V30.4985C124.944 30.5192 124.799 30.5919 124.633 30.7062C124.467 30.8204 124.301 30.9658 124.135 31.1319C123.958 31.3084 123.792 31.485 123.637 31.6927C123.47 31.9003 123.325 32.0873 123.19 32.2949C123.076 32.4611 122.972 32.5961 122.9 32.6999C122.817 32.8038 122.754 32.9076 122.692 33.0011C122.578 33.1465 122.464 33.3022 122.349 33.4372C122.235 33.5722 122.111 33.6968 121.955 33.8007C121.81 33.9045 121.633 33.9876 121.447 34.0499C121.249 34.1122 121.021 34.1433 120.751 34.1433H120.108V33.9668C120.253 33.9668 120.388 33.9253 120.523 33.8422C120.668 33.7591 120.813 33.6553 120.948 33.5307C121.094 33.4061 121.218 33.2711 121.343 33.1257C121.457 32.9699 121.571 32.8349 121.664 32.7103L122.204 31.9523C122.401 31.6823 122.599 31.4123 122.806 31.1423C123.014 30.8827 123.252 30.6646 123.512 30.5192C123.097 30.5089 122.734 30.4466 122.412 30.3427C122.09 30.2389 121.82 30.0935 121.602 29.917C121.384 29.7404 121.218 29.5431 121.104 29.3043C120.99 29.0758 120.938 28.8266 120.938 28.5774C120.938 28.3178 120.99 28.0997 121.104 27.8713C121.218 27.6428 121.395 27.4455 121.633 27.2794C121.872 27.1028 122.183 26.9678 122.557 26.8744C122.931 26.7809 123.377 26.729 123.917 26.729H126.771V26.9055C126.678 26.9055 126.605 26.9367 126.532 26.999C126.47 27.0717 126.418 27.1444 126.366 27.2378C126.314 27.3313 126.283 27.4351 126.252 27.539C126.231 27.6428 126.211 27.7467 126.211 27.8193V33.0011L126.2 32.9803ZM122.059 28.4632C122.059 28.6397 122.111 28.8162 122.225 28.9928C122.339 29.1693 122.484 29.3354 122.671 29.4704C122.858 29.6054 123.076 29.73 123.315 29.8131C123.553 29.9066 123.813 29.9481 124.093 29.9481H125.058V27.2794H123.938C123.242 27.2794 122.754 27.3936 122.484 27.6117C122.204 27.8401 122.059 28.1101 122.059 28.4632Z" fill="white"/>
<path d="M139.174 32.762C139.236 32.8866 139.34 33.0216 139.454 33.167C139.569 33.3124 139.693 33.437 139.849 33.5616C139.994 33.6862 140.139 33.7797 140.295 33.8524C140.451 33.9251 140.586 33.9666 140.731 33.9666V34.1431H140.077C139.548 34.1431 139.133 34.0289 138.842 33.8005C138.551 33.572 138.323 33.3124 138.167 33.0009L137.358 31.4225C137.233 31.1733 137.015 30.9656 136.714 30.7787C136.413 30.6021 136.092 30.4983 135.759 30.4983V33.0009C135.759 33.0943 135.77 33.1982 135.791 33.302C135.811 33.4059 135.842 33.5097 135.884 33.6032C135.925 33.6966 135.988 33.7797 136.05 33.842C136.112 33.9147 136.195 33.9355 136.289 33.9355V34.112H134.057V33.9355C134.14 33.9355 134.213 33.9043 134.296 33.842C134.369 33.7693 134.431 33.6966 134.483 33.6032C134.535 33.5097 134.566 33.4059 134.587 33.302C134.607 33.1982 134.628 33.0943 134.628 33.0009V27.8088C134.628 27.7257 134.618 27.6322 134.587 27.518C134.566 27.4038 134.535 27.3103 134.493 27.2065C134.452 27.113 134.4 27.03 134.327 26.9676C134.265 26.895 134.171 26.8742 134.068 26.8742V26.6873H136.278V26.8638C136.195 26.8638 136.123 26.895 136.06 26.9573C135.998 27.03 135.946 27.1026 135.894 27.1961C135.853 27.2896 135.811 27.3934 135.791 27.5076C135.77 27.6219 135.759 27.7153 135.759 27.7984V29.6156C136.258 29.1691 136.745 28.733 137.223 28.3176C137.711 27.8918 138.198 27.4661 138.686 27.0196C138.686 27.0092 138.686 26.9988 138.697 26.978C138.707 26.9676 138.707 26.9573 138.707 26.9365C138.707 26.8742 138.676 26.843 138.624 26.843V26.6665H140.129V26.843C140.067 26.843 140.004 26.8534 139.921 26.895C139.838 26.9365 139.755 26.9676 139.683 27.0196C139.589 27.0611 139.496 27.1234 139.402 27.1961C138.883 27.6426 138.365 28.0995 137.846 28.5668C137.327 29.0341 136.808 29.491 136.289 29.9375C136.787 29.9375 137.192 30.031 137.503 30.2179C137.825 30.4048 138.084 30.706 138.302 31.1213L139.153 32.7101V32.762H139.174Z" fill="white"/>
<path d="M147.436 33.9562C147.519 33.9562 147.612 33.9147 147.716 33.8523C147.82 33.7797 147.872 33.6758 147.872 33.5512C147.872 33.5304 147.862 33.4785 147.841 33.3954C147.83 33.3228 147.789 33.2293 147.747 33.1358L145.557 27.8399L143.274 33.4058C143.077 33.8835 142.693 34.1327 142.122 34.1327H141.738V33.9562C141.904 33.9562 142.08 33.8731 142.267 33.6966C142.454 33.5201 142.61 33.3228 142.724 33.0839L145.07 27.4661C145.132 27.3207 145.163 27.1857 145.163 27.0922C145.163 26.9468 145.07 26.8845 144.883 26.8845V26.708H146.284L148.941 33.0735C149.024 33.2501 149.138 33.4474 149.294 33.6447C149.45 33.8524 149.595 33.9562 149.74 33.9562V34.1327H147.446L147.436 33.9562Z" fill="white"/>
<path d="M158.22 32.9804C158.22 33.0739 158.23 33.1777 158.261 33.292C158.293 33.4062 158.324 33.51 158.376 33.6035C158.417 33.6969 158.479 33.78 158.562 33.8527C158.635 33.9254 158.708 33.9565 158.78 33.9565V34.1331H156.57V33.9565C156.653 33.9565 156.725 33.9254 156.798 33.8631C156.86 33.7904 156.922 33.7073 156.964 33.6139C157.006 33.5204 157.047 33.4062 157.068 33.3023C157.089 33.1881 157.099 33.0843 157.099 32.9908V28.7541L152.989 32.8766V33.0012C152.989 33.0947 152.999 33.1985 153.03 33.3127C153.051 33.427 153.093 33.5308 153.134 33.6243C153.176 33.7177 153.238 33.8008 153.3 33.8735C153.362 33.9462 153.435 33.9773 153.508 33.9773V34.1538H151.318V33.9565C151.401 33.9565 151.473 33.9254 151.536 33.8631C151.598 33.7904 151.66 33.7073 151.712 33.6139C151.764 33.5204 151.795 33.4062 151.816 33.3023C151.837 33.1881 151.847 33.0843 151.847 32.9908V27.8091C151.847 27.726 151.837 27.6326 151.816 27.5287C151.795 27.4249 151.754 27.321 151.712 27.2276C151.671 27.1341 151.608 27.051 151.536 26.9887C151.473 26.9161 151.39 26.8953 151.318 26.8953V26.7188H153.508V26.8953C153.414 26.8953 153.342 26.9264 153.269 26.9887C153.207 27.0614 153.155 27.1341 153.113 27.2276C153.082 27.321 153.041 27.4249 153.02 27.5287C152.999 27.6326 152.978 27.7364 152.978 27.8091V32.0355L157.089 27.9129V27.8091C157.089 27.726 157.078 27.6326 157.057 27.5287C157.037 27.4249 156.995 27.321 156.954 27.2276C156.912 27.1341 156.85 27.051 156.788 26.9887C156.725 26.9161 156.642 26.8953 156.559 26.8953V26.7188H158.77V26.8953C158.677 26.8953 158.594 26.9264 158.521 26.9887C158.448 27.0614 158.386 27.1341 158.355 27.2276C158.313 27.321 158.282 27.4249 158.261 27.5287C158.241 27.6326 158.22 27.7364 158.22 27.8091V32.9804Z" fill="white"/>
<path d="M162.641 32.9804C162.641 33.0739 162.652 33.1777 162.673 33.292C162.693 33.4062 162.735 33.51 162.776 33.6035C162.818 33.6969 162.88 33.78 162.942 33.8527C163.005 33.9254 163.077 33.9565 163.16 33.9565V34.1331H160.981V33.9565C161.064 33.9565 161.136 33.9254 161.199 33.8631C161.261 33.7904 161.313 33.7073 161.365 33.6139C161.406 33.5204 161.448 33.4062 161.469 33.3023C161.489 33.1881 161.5 33.0843 161.5 32.9908V27.8091C161.5 27.726 161.489 27.6326 161.469 27.5287C161.448 27.4249 161.406 27.321 161.365 27.2276C161.323 27.1341 161.261 27.051 161.199 26.9887C161.136 26.9161 161.064 26.8953 160.981 26.8953V26.7188H163.16V26.8953C163.067 26.8953 162.994 26.9264 162.922 26.9887C162.859 27.0614 162.807 27.1341 162.766 27.2276C162.724 27.321 162.693 27.4249 162.673 27.5287C162.652 27.6326 162.631 27.7364 162.631 27.8091V29.9482H166.575V27.8091C166.575 27.726 166.565 27.6326 166.534 27.5287C166.513 27.4249 166.482 27.321 166.44 27.2276C166.399 27.1341 166.347 27.051 166.284 26.9887C166.222 26.9161 166.139 26.8953 166.046 26.8953V26.7188H168.225V26.8953C168.132 26.8953 168.059 26.9264 167.987 26.9887C167.924 27.0614 167.872 27.1341 167.821 27.2276C167.779 27.321 167.738 27.4249 167.727 27.5287C167.717 27.6326 167.696 27.7364 167.696 27.8091V32.9908C167.696 33.0843 167.706 33.1881 167.727 33.3023C167.748 33.4166 167.789 33.5204 167.831 33.6139C167.872 33.7073 167.935 33.7904 167.997 33.8631C168.059 33.9358 168.132 33.9669 168.215 33.9669V34.1435H166.035V33.9565C166.118 33.9565 166.191 33.9254 166.253 33.8631C166.316 33.7904 166.367 33.7073 166.419 33.6139C166.461 33.5204 166.502 33.4062 166.523 33.3023C166.544 33.1881 166.554 33.0843 166.554 32.9908V30.5298H162.61V32.9804H162.641Z" fill="white"/>
<path d="M177.369 32.9804C177.369 33.0739 177.38 33.1777 177.411 33.292C177.442 33.4062 177.473 33.51 177.525 33.6035C177.567 33.6969 177.629 33.78 177.712 33.8527C177.785 33.9254 177.857 33.9565 177.93 33.9565V34.1331H175.719V33.9565C175.802 33.9565 175.875 33.9254 175.947 33.8631C176.01 33.7904 176.072 33.7073 176.114 33.6139C176.155 33.5204 176.197 33.4062 176.217 33.3023C176.238 33.1881 176.259 33.0843 176.259 32.9908V28.7541L172.149 32.8766V33.0012C172.149 33.0947 172.159 33.1985 172.18 33.3127C172.201 33.427 172.242 33.5308 172.284 33.6243C172.325 33.7177 172.387 33.8008 172.45 33.8735C172.512 33.9462 172.585 33.9773 172.668 33.9773V34.1538H170.478V33.9565C170.561 33.9565 170.633 33.9254 170.696 33.8631C170.758 33.7904 170.82 33.7073 170.872 33.6139C170.924 33.5204 170.955 33.4062 170.976 33.3023C170.997 33.1881 171.017 33.0843 171.017 32.9908V27.8091C171.017 27.726 171.007 27.6326 170.976 27.5287C170.955 27.4249 170.914 27.321 170.872 27.2276C170.831 27.1341 170.768 27.051 170.696 26.9887C170.633 26.9161 170.55 26.8953 170.478 26.8953V26.7188H172.668V26.8953C172.574 26.8953 172.502 26.9264 172.429 26.9887C172.367 27.0614 172.315 27.1341 172.273 27.2276C172.232 27.321 172.201 27.4249 172.18 27.5287C172.159 27.6326 172.138 27.7364 172.138 27.8091V32.0355L176.248 27.9129V27.8091C176.248 27.726 176.238 27.6326 176.207 27.5287C176.186 27.4249 176.145 27.321 176.103 27.2276C176.062 27.1341 175.999 27.051 175.937 26.9887C175.875 26.9161 175.792 26.8953 175.709 26.8953V26.7188H177.92V26.8953C177.826 26.8953 177.743 26.9264 177.67 26.9887C177.598 27.0614 177.535 27.1341 177.504 27.2276C177.463 27.321 177.432 27.4249 177.411 27.5287C177.39 27.6326 177.38 27.7364 177.38 27.8091L177.369 32.9804Z" fill="white"/>
<path d="M185.33 32.762C185.393 32.8866 185.496 33.0216 185.61 33.167C185.725 33.3124 185.849 33.437 186.005 33.5616C186.15 33.6862 186.296 33.7797 186.451 33.8524C186.607 33.9251 186.742 33.9666 186.887 33.9666V34.1431H186.233C185.704 34.1431 185.289 34.0289 185.008 33.8005C184.718 33.572 184.49 33.3124 184.334 33.0009L183.524 31.4225C183.4 31.1733 183.182 30.9656 182.881 30.7787C182.58 30.6021 182.258 30.4983 181.926 30.4983V33.0009C181.926 33.0943 181.936 33.1982 181.957 33.302C181.978 33.4059 182.009 33.5097 182.05 33.6032C182.092 33.6966 182.154 33.7797 182.216 33.842C182.279 33.9147 182.362 33.9355 182.455 33.9355V34.112H180.224V33.9355C180.307 33.9355 180.379 33.9043 180.462 33.842C180.535 33.7693 180.597 33.6966 180.649 33.6032C180.701 33.5097 180.732 33.4059 180.753 33.302C180.774 33.1982 180.784 33.0943 180.784 33.0009V27.8088C180.784 27.7257 180.774 27.6322 180.753 27.518C180.732 27.4038 180.701 27.3103 180.66 27.2065C180.628 27.113 180.566 27.03 180.494 26.9676C180.431 26.895 180.338 26.8742 180.234 26.8742V26.6873H182.445V26.8638C182.362 26.8638 182.289 26.895 182.227 26.9573C182.165 27.03 182.113 27.1026 182.061 27.1961C182.019 27.2896 181.978 27.3934 181.957 27.5076C181.936 27.6219 181.916 27.7153 181.916 27.7984V29.6156C182.414 29.1691 182.902 28.733 183.379 28.3176C183.867 27.8918 184.355 27.4661 184.842 27.0196C184.842 27.0092 184.842 26.9988 184.853 26.978C184.863 26.9676 184.863 26.9573 184.863 26.9365C184.863 26.8742 184.832 26.843 184.77 26.843V26.6665H186.275V26.843C186.212 26.843 186.15 26.8534 186.067 26.895C185.984 26.9365 185.901 26.9676 185.828 27.0196C185.735 27.0611 185.642 27.1234 185.548 27.1961C185.029 27.6426 184.51 28.0995 183.991 28.5668C183.472 29.0341 182.953 29.491 182.434 29.9375C182.933 29.9375 183.327 30.031 183.649 30.2179C183.971 30.4048 184.23 30.706 184.448 31.1213L185.299 32.7101V32.762H185.33Z" fill="white"/>
<path d="M192.969 34.1327V33.2293L192.876 33.3227C192.585 33.6135 192.253 33.8419 191.879 34.0081C191.506 34.1742 191.049 34.2573 190.52 34.2573C190.115 34.2573 189.773 34.2158 189.482 34.1119C189.191 34.0185 188.963 33.8835 188.776 33.7173C188.589 33.5408 188.454 33.3435 188.371 33.1254C188.278 32.897 188.236 32.6685 188.236 32.4193C188.236 32.0247 188.351 31.6612 188.558 31.3601C188.766 31.0486 189.077 30.7786 189.482 30.5501C189.887 30.3217 190.385 30.0932 190.966 29.9063C191.547 29.709 192.212 29.5221 192.959 29.3352C192.938 28.8783 192.845 28.5044 192.679 28.2241C192.513 27.9333 192.326 27.7152 192.108 27.5595C191.89 27.4037 191.662 27.2999 191.412 27.248C191.174 27.196 190.966 27.1649 190.79 27.1649C190.489 27.1649 190.219 27.2064 189.99 27.2999C189.762 27.3933 189.555 27.5076 189.388 27.6529C189.212 27.7983 189.067 27.9645 188.973 28.1618C188.859 28.3487 188.786 28.5356 188.724 28.7225H188.569V27.3414C188.672 27.3414 188.786 27.2999 188.932 27.2272C189.077 27.1545 189.233 27.061 189.43 26.9676C189.617 26.8741 189.845 26.791 190.125 26.708C190.395 26.6353 190.727 26.5938 191.101 26.5938C191.734 26.5938 192.253 26.6768 192.637 26.843C193.032 27.0091 193.333 27.2272 193.54 27.4972C193.758 27.7672 193.893 28.0787 193.955 28.4214C194.018 28.7641 194.059 29.1171 194.059 29.4909V32.98C194.059 33.2085 194.121 33.4369 194.236 33.6446C194.35 33.8523 194.505 33.9562 194.703 33.9562V34.1327H192.959H192.969ZM192.969 32.4608V29.9375L192.803 29.979C192.523 30.0517 192.191 30.1452 191.796 30.2698C191.402 30.3944 191.028 30.5398 190.665 30.7267C190.302 30.9136 190.001 31.142 189.752 31.4016C189.503 31.6612 189.368 31.9624 189.368 32.3051C189.368 32.6789 189.513 32.9904 189.814 33.2396C190.115 33.4889 190.509 33.6135 190.997 33.6135C191.381 33.6135 191.713 33.5304 192.004 33.3539C192.295 33.1773 192.554 32.9593 192.803 32.6893L192.969 32.4608Z" fill="white"/>
<path d="M58.1544 42.887C58.7875 42.887 59.3376 42.9804 59.8047 43.1777C60.2717 43.3647 60.6662 43.6139 60.9671 43.9254C61.2681 44.2369 61.4965 44.59 61.6418 44.995C61.7975 45.4 61.8701 45.8049 61.8701 46.2307C61.8701 46.7499 61.7767 47.238 61.5795 47.6949C61.3823 48.1518 61.1228 48.5568 60.7803 48.8994C60.4378 49.2421 60.0434 49.5121 59.5867 49.7094C59.13 49.9067 58.6422 50.0002 58.1129 50.0002C57.7807 50.0002 57.5005 49.969 57.2722 49.9067C57.0542 49.8444 56.857 49.7821 56.7013 49.7302C56.6287 49.699 56.5456 49.6783 56.4626 49.6575C56.3796 49.6263 56.3069 49.616 56.2446 49.616V48.5568H56.3484C56.4315 48.7956 56.5456 48.9825 56.7013 49.1175C56.857 49.2525 57.0127 49.3667 57.1891 49.4394C57.3656 49.5121 57.5524 49.5536 57.7288 49.5744C57.9053 49.5952 58.061 49.6056 58.1855 49.6056C58.6215 49.6056 59.0159 49.5121 59.3791 49.3356C59.7424 49.159 60.0538 48.9202 60.3133 48.6191C60.5831 48.3179 60.7907 47.9649 60.936 47.5703C61.0917 47.1757 61.1643 46.7603 61.1747 46.3345H58.4865C58.3101 46.3345 58.1752 46.3761 58.0714 46.4695C57.9676 46.563 57.9157 46.6668 57.9157 46.7914H57.8223V45.4934H57.9157C57.9157 45.6284 57.9676 45.7426 58.0714 45.8361C58.1855 45.9296 58.3205 45.9815 58.4865 45.9815H61.1644C61.1228 45.6492 61.0294 45.3169 60.8737 44.995C60.7284 44.6731 60.5312 44.3823 60.2717 44.1227C60.0123 43.8631 59.7009 43.645 59.3376 43.4893C58.9743 43.3335 58.5592 43.2504 58.0817 43.2504C57.9261 43.2504 57.76 43.2608 57.5939 43.2816C57.4382 43.3023 57.2825 43.3439 57.1476 43.4166C57.0127 43.4789 56.8881 43.5723 56.7843 43.7073C56.6909 43.8423 56.6183 44.0085 56.5768 44.2265H56.473V43.1674C56.556 43.1674 56.639 43.157 56.7221 43.1466C56.8051 43.1258 56.8881 43.105 56.9816 43.0739C57.1269 43.0324 57.2929 42.9908 57.4798 42.9493C57.677 42.9077 57.8949 42.887 58.1544 42.887ZM62.6486 49.7406H62.7005C62.7524 49.7406 62.8043 49.7198 62.8458 49.6783C62.8873 49.6367 62.9184 49.5848 62.9496 49.5329C62.9807 49.481 63.0118 49.4187 63.0222 49.3563C63.0326 49.2837 63.043 49.2214 63.043 49.1694V43.6346C63.043 43.5827 63.0326 43.5308 63.0222 43.4685C63.0118 43.4062 62.9807 43.3439 62.9496 43.292C62.9184 43.24 62.8873 43.1881 62.8458 43.157C62.8043 43.1154 62.7627 43.0947 62.7108 43.0947H62.6589V42.9908H64.1328V43.0947H64.0809C64.029 43.0947 63.9771 43.1154 63.9356 43.157C63.8941 43.1881 63.8526 43.24 63.8214 43.292C63.7903 43.3439 63.7695 43.4062 63.7488 43.4685C63.7384 43.5308 63.728 43.5827 63.728 43.6346V45.7842L66.136 43.3854C66.1879 43.3335 66.219 43.2608 66.219 43.1881C66.219 43.1258 66.1879 43.0947 66.136 43.0947V42.9908H67.2569V43.0947C67.122 43.105 66.9974 43.1466 66.8833 43.2193C66.7795 43.292 66.6653 43.3958 66.5408 43.5204L64.0809 45.9815C64.5272 45.9919 64.8905 46.0957 65.1707 46.2722C65.4509 46.4488 65.6689 46.698 65.8246 47.0199L66.6445 48.6814C66.6964 48.7852 66.7587 48.8994 66.8314 49.0241C66.9144 49.1383 67.0078 49.2525 67.1012 49.3667C67.205 49.4706 67.3192 49.564 67.4437 49.6367C67.5683 49.7094 67.7032 49.7406 67.8381 49.7406V49.8444H67.3192C67.122 49.8444 66.9455 49.8133 66.8002 49.7613C66.6549 49.699 66.5304 49.616 66.4162 49.5225C66.3124 49.4187 66.219 49.3044 66.136 49.1798C66.0633 49.0552 65.9907 48.9306 65.9284 48.806L65.0877 47.1341C64.9527 46.8745 64.7763 46.6876 64.5376 46.5526C64.3092 46.4176 64.0394 46.3345 63.728 46.3242V49.1694C63.728 49.2214 63.7384 49.2837 63.7488 49.346C63.7591 49.4083 63.7799 49.4706 63.811 49.5329C63.8422 49.5848 63.8733 49.6367 63.9148 49.6783C63.9563 49.7094 63.9979 49.7302 64.0498 49.7406H64.1224V49.8444H62.6486V49.7406ZM71.2218 43.2608C70.7132 43.2608 70.2669 43.3543 69.8828 43.5412C69.5092 43.7177 69.1978 43.9566 68.9487 44.2577C68.6996 44.5485 68.5128 44.8807 68.3882 45.2442C68.2741 45.6076 68.2118 45.9711 68.2118 46.3345C68.2118 46.7395 68.2948 47.1445 68.4505 47.5391C68.6062 47.9233 68.8242 48.2764 69.1044 48.5775C69.3846 48.8787 69.7168 49.1175 70.0904 49.3044C70.4641 49.481 70.8689 49.5744 71.3048 49.5744C71.4293 49.5744 71.5746 49.564 71.7407 49.5329C71.9172 49.5017 72.0832 49.4498 72.2493 49.3771C72.4154 49.294 72.571 49.1798 72.706 49.0344C72.8513 48.8891 72.9655 48.7021 73.0381 48.4633H73.1419V49.616C73.0381 49.616 72.9239 49.6263 72.8098 49.6575C72.6956 49.6886 72.571 49.7198 72.4361 49.7509C72.2597 49.8029 72.0521 49.8444 71.8341 49.8859C71.6162 49.9275 71.3878 49.9482 71.1491 49.9482C70.5471 49.9482 70.0178 49.8444 69.5611 49.6367C69.1044 49.429 68.7204 49.159 68.4194 48.8268C68.1184 48.4945 67.89 48.1206 67.7344 47.7053C67.5787 47.2795 67.506 46.8537 67.506 46.428C67.506 46.0022 67.5787 45.5765 67.7344 45.1507C67.89 44.725 68.1184 44.3512 68.4298 44.0189C68.7411 43.6762 69.1355 43.4062 69.6026 43.1985C70.0697 42.9908 70.6301 42.887 71.2633 42.887C71.4916 42.887 71.6992 42.9077 71.8756 42.9493C72.0625 42.9908 72.2285 43.0324 72.3738 43.0739C72.4776 43.105 72.571 43.1362 72.6541 43.157C72.7475 43.1674 72.8305 43.1777 72.9136 43.1777V44.3304H72.8098C72.7682 44.1123 72.6956 43.9358 72.5814 43.8008C72.4673 43.6554 72.3427 43.5412 72.187 43.4685C72.0417 43.3958 71.886 43.3439 71.7096 43.3127C71.5435 43.2816 71.3774 43.2608 71.2218 43.2608ZM73.9307 49.7406H73.9826C74.0345 49.7406 74.0864 49.7198 74.1279 49.6886C74.1694 49.6471 74.2006 49.5952 74.2317 49.5433C74.2628 49.481 74.2836 49.4187 74.294 49.3563C74.3044 49.2837 74.3147 49.2214 74.3147 49.1694V43.6346C74.3147 43.5827 74.3044 43.5308 74.2836 43.4685C74.2732 43.4062 74.2525 43.3439 74.2213 43.292C74.1902 43.24 74.1591 43.1881 74.1175 43.157C74.076 43.1154 74.0345 43.0947 73.9826 43.0947H73.9307V42.9908H79.2448V43.0947H79.1618C79.1099 43.0947 79.0684 43.1154 79.0373 43.157C79.0061 43.1881 78.975 43.24 78.9438 43.3024C78.9231 43.3543 78.9023 43.4166 78.892 43.4789C78.8816 43.5412 78.8712 43.5931 78.8712 43.6346V49.1694C78.8712 49.2214 78.8712 49.2837 78.8816 49.346C78.892 49.4083 78.9127 49.4706 78.9335 49.5329C78.9646 49.5848 78.9957 49.6367 79.0269 49.6783C79.0684 49.7198 79.1099 49.7406 79.1618 49.7406H79.2448V49.8444H77.7918V49.7406H77.8852C77.9371 49.7406 77.9786 49.7198 78.0097 49.6783C78.0512 49.6367 78.0824 49.5848 78.1031 49.5329C78.1343 49.481 78.1447 49.4187 78.155 49.3563C78.1654 49.2837 78.1758 49.2214 78.1758 49.1694V43.3543H75.0101V49.1694C75.0101 49.2214 75.0205 49.2837 75.0309 49.3563C75.0413 49.4187 75.062 49.481 75.0828 49.5329C75.1139 49.5848 75.1451 49.6367 75.1866 49.6783C75.2281 49.7198 75.28 49.7406 75.3319 49.7406H75.3838V49.8444H73.9307V49.7406ZM80.1271 49.7406H80.179C80.2309 49.7406 80.2828 49.7198 80.3243 49.6886C80.3658 49.6471 80.3969 49.5952 80.4281 49.5433C80.4592 49.4913 80.4903 49.429 80.5007 49.3667C80.5215 49.3044 80.5319 49.2421 80.5319 49.1902V43.6346C80.5319 43.5827 80.5215 43.5308 80.5007 43.4685C80.4903 43.4062 80.4592 43.3439 80.4281 43.292C80.3969 43.24 80.3658 43.1881 80.3243 43.157C80.2828 43.1154 80.2309 43.0947 80.179 43.0947H80.1271V42.9908H84.123V43.9566H84.0193C84.0089 43.8008 83.9466 43.6554 83.8324 43.5412C83.7183 43.4166 83.5522 43.3543 83.3135 43.3543H81.2273V45.9815H82.9502C83.1059 45.9815 83.2408 45.9296 83.3446 45.8361C83.4588 45.7426 83.5107 45.6284 83.5107 45.4934H83.6145V46.7914H83.5107C83.5107 46.6668 83.4588 46.563 83.355 46.4695C83.2512 46.3761 83.1163 46.3345 82.9502 46.3345H81.2273V49.481H83.5003C83.6352 49.481 83.7494 49.4498 83.8428 49.3875C83.9362 49.3252 84.0193 49.2525 84.0815 49.1694C84.1542 49.076 84.1957 48.9825 84.2268 48.8891C84.258 48.7852 84.2787 48.7021 84.2787 48.6295H84.3825V49.8444H80.1271V49.7406ZM85.0572 42.9908H86.531C87.2991 42.9908 87.8803 43.1362 88.2747 43.4373C88.6795 43.7281 88.8767 44.1435 88.8767 44.6834C88.8767 44.9742 88.804 45.2338 88.6691 45.4623C88.5342 45.6907 88.3474 45.888 88.119 46.0438C87.9011 46.1995 87.6416 46.3138 87.3613 46.3968C87.0811 46.4799 86.8113 46.5215 86.531 46.5215H86.1366V49.1694C86.1366 49.2214 86.147 49.2837 86.1574 49.3563C86.1677 49.4187 86.1885 49.481 86.2196 49.5329C86.2508 49.5848 86.2923 49.6367 86.3234 49.6783C86.3649 49.7198 86.4168 49.7406 86.4687 49.7406H86.5206V49.8444H85.0572V49.7406H85.1091C85.161 49.7406 85.2025 49.7198 85.244 49.6783C85.2855 49.6367 85.3167 49.5848 85.3478 49.5329C85.3789 49.481 85.3997 49.4187 85.4101 49.3563C85.4204 49.2837 85.4308 49.2214 85.4308 49.1694V43.6346C85.4308 43.5412 85.3997 43.427 85.3478 43.3024C85.2959 43.1777 85.2129 43.105 85.1091 43.0947H85.0572V42.9908ZM86.1366 43.3543V46.158H86.448C86.7282 46.158 86.9669 46.1165 87.1849 46.0438C87.4029 45.9711 87.5897 45.8672 87.735 45.7426C87.8803 45.618 87.9945 45.4726 88.0671 45.3169C88.1398 45.1611 88.1813 44.995 88.1813 44.8288C88.1813 44.6315 88.1502 44.4446 88.0775 44.2681C88.0152 44.0916 87.9114 43.9358 87.7558 43.8008C87.6104 43.6658 87.4132 43.5516 87.1745 43.4789C86.9358 43.3958 86.6348 43.3543 86.2819 43.3543H86.1366ZM92.2811 49.7406H92.333V49.8444H90.8591V49.7406H90.911C90.9629 49.7406 91.0148 49.7198 91.0563 49.6783C91.0978 49.6367 91.129 49.5848 91.1601 49.5329C91.1913 49.481 91.2224 49.4187 91.2328 49.3563C91.2431 49.2837 91.2535 49.2214 91.2535 49.1694V43.375H90.0495C89.9354 43.375 89.842 43.3958 89.7589 43.4477C89.6759 43.4996 89.6032 43.562 89.5513 43.6346C89.4994 43.7073 89.4579 43.78 89.4268 43.8735C89.3957 43.9566 89.3853 44.0396 89.3853 44.1227H89.2815V42.9908H93.9417V44.1227H93.8379C93.8379 44.0396 93.8276 43.9566 93.7964 43.8735C93.7653 43.78 93.7238 43.7073 93.6719 43.6346C93.62 43.562 93.5473 43.4996 93.4643 43.4477C93.3813 43.3958 93.2878 43.375 93.1737 43.375H91.9489V49.1694C91.9489 49.2214 91.9593 49.2837 91.9697 49.3563C91.9801 49.4187 92.0008 49.481 92.032 49.5329C92.0631 49.5848 92.1046 49.6367 92.1358 49.6783C92.1773 49.7198 92.2292 49.7406 92.2811 49.7406ZM98.5501 49.7406H98.602C98.6539 49.7406 98.6954 49.7198 98.7369 49.6886C98.7784 49.6471 98.8096 49.5952 98.8407 49.5433C98.8718 49.481 98.903 49.4187 98.9133 49.3563C98.9237 49.2837 98.9341 49.2214 98.9341 49.1694V46.3449H95.6128V49.1694C95.6128 49.2214 95.6231 49.2837 95.6335 49.3563C95.6439 49.4187 95.6647 49.481 95.6958 49.5329C95.7269 49.5848 95.7581 49.6367 95.7892 49.6783C95.8307 49.7198 95.8826 49.7406 95.9345 49.7406H95.9864V49.8444H94.5333V49.7406H94.5852C94.6371 49.7406 94.6786 49.7198 94.7202 49.6886C94.7617 49.6471 94.7928 49.5952 94.824 49.5433C94.8551 49.481 94.8862 49.4187 94.8966 49.3563C94.907 49.2837 94.9174 49.2214 94.9174 49.1694V43.6346C94.9174 43.5827 94.907 43.5308 94.8966 43.4685C94.8862 43.4062 94.8655 43.3439 94.8343 43.292C94.8032 43.24 94.7721 43.1881 94.7305 43.157C94.689 43.1154 94.6371 43.0947 94.5852 43.0947H94.5333V42.9908H95.9864V43.0947H95.9345C95.8826 43.0947 95.8307 43.1154 95.7892 43.157C95.7477 43.1881 95.7166 43.24 95.6854 43.292C95.6647 43.3439 95.6439 43.4062 95.6335 43.4685C95.6231 43.5308 95.6128 43.5827 95.6128 43.6346V45.9815H98.9341V43.6346C98.9341 43.5827 98.9237 43.5308 98.9133 43.4685C98.903 43.4062 98.8822 43.3439 98.8511 43.292C98.8199 43.24 98.7888 43.1881 98.7473 43.157C98.7058 43.1154 98.6539 43.0947 98.602 43.0947H98.5501V42.9908H100.003V43.0947H99.9513C99.8994 43.0947 99.8475 43.1154 99.806 43.157C99.7644 43.1881 99.7333 43.24 99.7022 43.292C99.6814 43.3439 99.6606 43.4062 99.6503 43.4685C99.6399 43.5308 99.6295 43.5827 99.6295 43.6346V49.1694C99.6295 49.2214 99.6399 49.2837 99.6503 49.3563C99.671 49.4187 99.6918 49.481 99.7229 49.5329C99.7541 49.5848 99.7852 49.6367 99.8163 49.6783C99.8578 49.7198 99.8994 49.7406 99.9513 49.7406H100.003V49.8444H98.5501V49.7406ZM104.726 49.7406H104.778C104.944 49.7406 105.027 49.6679 105.027 49.5121C105.027 49.4602 105.016 49.3979 104.996 49.3356L104.061 46.8122H102.245L101.342 49.294C101.321 49.346 101.311 49.3979 101.311 49.4498C101.311 49.5433 101.332 49.616 101.384 49.6679C101.435 49.7198 101.487 49.7406 101.539 49.7406H101.591V49.8444H100.439V49.7406H100.491C100.584 49.7406 100.667 49.6886 100.75 49.5848C100.844 49.4706 100.917 49.346 100.968 49.2006L103.345 42.8662L105.67 49.1383C105.722 49.2733 105.784 49.4083 105.867 49.5433C105.961 49.6783 106.075 49.7406 106.21 49.7406H106.262V49.8444H104.726V49.7406ZM102.349 46.4592H103.947L103.148 44.2889L102.349 46.4592ZM110.133 49.7406H110.185C110.237 49.7406 110.279 49.7198 110.32 49.6783C110.372 49.6367 110.403 49.5848 110.434 49.5329C110.465 49.481 110.486 49.4187 110.496 49.3563C110.517 49.2837 110.528 49.2214 110.528 49.1694V46.3553C110.372 46.3657 110.227 46.4176 110.092 46.5007C109.957 46.5838 109.832 46.698 109.708 46.833C109.593 46.968 109.479 47.1237 109.365 47.3003C109.261 47.4768 109.158 47.6533 109.064 47.8403C108.992 47.9752 108.908 48.131 108.815 48.2868C108.722 48.4425 108.639 48.5983 108.545 48.7541C108.379 49.0552 108.161 49.3148 107.891 49.5329C107.621 49.7406 107.31 49.8444 106.957 49.8444H106.407V49.7406C106.563 49.7406 106.718 49.7094 106.853 49.6367C106.999 49.564 107.134 49.481 107.248 49.3771C107.362 49.2733 107.466 49.159 107.559 49.0344C107.653 48.9098 107.736 48.7956 107.798 48.6814L108.618 47.2068C108.711 47.0407 108.815 46.8849 108.929 46.7291C109.043 46.5734 109.22 46.4384 109.459 46.3449C109.168 46.3242 108.908 46.2722 108.68 46.1788C108.452 46.0853 108.255 45.9711 108.099 45.8257C107.943 45.6803 107.819 45.5142 107.736 45.3377C107.653 45.1507 107.611 44.9534 107.611 44.7561C107.611 44.4965 107.673 44.2681 107.788 44.05C107.902 43.8319 108.068 43.645 108.286 43.4893C108.504 43.3335 108.763 43.2089 109.064 43.1258C109.376 43.0324 109.718 42.9908 110.102 42.9908H111.597V43.0947H111.545C111.493 43.0947 111.451 43.1154 111.41 43.157C111.368 43.1881 111.337 43.24 111.306 43.292C111.275 43.3439 111.254 43.4062 111.244 43.4685C111.233 43.5308 111.223 43.5827 111.223 43.6346V49.1694C111.223 49.2214 111.233 49.2837 111.244 49.3563C111.254 49.4187 111.275 49.481 111.306 49.5329C111.337 49.5848 111.368 49.6367 111.41 49.6783C111.451 49.7198 111.493 49.7406 111.545 49.7406H111.597V49.8444H110.133V49.7406ZM108.265 44.6004C108.265 44.7977 108.306 44.9846 108.39 45.1611C108.473 45.3273 108.587 45.4727 108.732 45.5973C108.877 45.7219 109.043 45.8153 109.241 45.888C109.438 45.9607 109.645 45.9919 109.874 45.9919H110.528V43.3439H110.372C109.697 43.3439 109.178 43.4581 108.815 43.6762C108.441 43.8943 108.265 44.2058 108.265 44.6004ZM118.561 42.887C119.101 42.887 119.589 42.9804 120.014 43.1777C120.44 43.3647 120.803 43.6243 121.104 43.9462C121.405 44.2681 121.644 44.6419 121.799 45.0677C121.965 45.4934 122.048 45.9296 122.048 46.3968C122.048 46.9161 121.955 47.3937 121.758 47.8299C121.571 48.266 121.312 48.6398 120.979 48.9514C120.647 49.2629 120.263 49.5121 119.817 49.6886C119.381 49.8652 118.914 49.9482 118.416 49.9482C117.886 49.9482 117.399 49.8548 116.973 49.6575C116.548 49.4602 116.195 49.211 115.894 48.8891C115.603 48.5671 115.375 48.2037 115.219 47.7883C115.063 47.373 114.98 46.9368 114.98 46.4903C114.98 46.0438 115.063 45.6076 115.219 45.1819C115.375 44.7458 115.613 44.3615 115.914 44.0189C116.226 43.6762 116.599 43.4062 117.046 43.1985C117.492 42.9908 117.99 42.887 118.561 42.887ZM118.551 49.5848C119.018 49.564 119.423 49.4602 119.765 49.2733C120.118 49.076 120.409 48.8371 120.647 48.5464C120.886 48.2452 121.052 47.9233 121.166 47.5703C121.28 47.2172 121.343 46.8641 121.343 46.5215C121.343 46.1372 121.27 45.753 121.135 45.3688C121 44.9846 120.803 44.6315 120.544 44.32C120.284 43.9981 119.983 43.7489 119.62 43.5516C119.267 43.3543 118.872 43.2504 118.426 43.2504C118.001 43.2504 117.617 43.3439 117.274 43.5412C116.932 43.7281 116.641 43.9669 116.402 44.2681C116.164 44.5692 115.987 44.9015 115.863 45.265C115.738 45.6284 115.676 45.9919 115.676 46.3449C115.676 46.7291 115.748 47.1134 115.894 47.4976C116.039 47.8818 116.236 48.2245 116.496 48.536C116.755 48.8475 117.056 49.0967 117.399 49.294C117.752 49.4913 118.136 49.5848 118.551 49.5848ZM125.328 42.9908H126.792V43.0947H126.709C126.657 43.105 126.615 43.1258 126.574 43.1674C126.543 43.2089 126.512 43.2608 126.48 43.3127C126.449 43.3647 126.428 43.427 126.418 43.4996C126.408 43.562 126.397 43.6139 126.397 43.6658V43.7177C126.875 43.7281 127.311 43.8112 127.695 43.9566C128.089 44.0916 128.432 44.2889 128.712 44.5277C128.992 44.7665 129.21 45.0573 129.366 45.3792C129.521 45.7011 129.605 46.0438 129.605 46.4176C129.605 46.8226 129.511 47.1964 129.335 47.5287C129.158 47.861 128.93 48.1414 128.629 48.3802C128.328 48.6191 127.985 48.806 127.601 48.941C127.217 49.076 126.823 49.1383 126.397 49.1487V49.2006C126.397 49.2525 126.408 49.3044 126.418 49.3667C126.428 49.429 126.449 49.4913 126.48 49.5433C126.512 49.5952 126.553 49.6471 126.595 49.6886C126.636 49.7198 126.688 49.7406 126.74 49.7406H126.792V49.8444H125.328V49.7406H125.38C125.432 49.7406 125.474 49.7198 125.515 49.6886C125.567 49.6471 125.598 49.5952 125.629 49.5433C125.66 49.4913 125.681 49.429 125.692 49.3667C125.712 49.3044 125.723 49.2525 125.723 49.2006V49.1487C125.235 49.1383 124.799 49.0552 124.405 48.9202C124.01 48.7748 123.668 48.5775 123.387 48.3387C123.107 48.0895 122.889 47.7987 122.734 47.4768C122.578 47.1549 122.505 46.8018 122.505 46.4176C122.505 46.0126 122.588 45.6492 122.754 45.3273C122.931 44.995 123.159 44.7146 123.45 44.4861C123.74 44.2473 124.083 44.0708 124.467 43.9358C124.861 43.8008 125.276 43.7281 125.723 43.7177V43.6658C125.723 43.6139 125.712 43.562 125.692 43.4996C125.681 43.427 125.66 43.3647 125.629 43.3127C125.598 43.2608 125.567 43.2089 125.526 43.1674C125.484 43.1258 125.442 43.105 125.391 43.0947H125.328V42.9908ZM123.18 46.3138C123.18 46.6149 123.252 46.9161 123.387 47.2172C123.533 47.508 123.72 47.7676 123.958 48.0064C124.197 48.2349 124.467 48.4218 124.768 48.5671C125.069 48.7125 125.391 48.7956 125.723 48.806V44.0604C125.308 44.0708 124.944 44.1435 124.623 44.2785C124.301 44.4135 124.041 44.59 123.823 44.8081C123.605 45.0157 123.45 45.2546 123.336 45.5246C123.232 45.7842 123.18 46.0542 123.18 46.3138ZM128.919 46.5215C128.919 46.2203 128.857 45.9192 128.722 45.6284C128.587 45.3377 128.411 45.078 128.183 44.8496C127.954 44.6211 127.684 44.4342 127.383 44.2992C127.082 44.1539 126.75 44.0708 126.397 44.0604V48.806C126.781 48.7956 127.134 48.7229 127.446 48.5879C127.757 48.4529 128.017 48.2764 128.234 48.0687C128.452 47.8506 128.629 47.6118 128.743 47.3522C128.868 47.0822 128.919 46.8018 128.919 46.5215ZM132.376 49.7406H132.428V49.8444H130.954V49.7406H131.006C131.058 49.7406 131.109 49.7198 131.151 49.6783C131.193 49.6367 131.224 49.5848 131.255 49.5329C131.286 49.481 131.317 49.4187 131.327 49.3563C131.338 49.2837 131.348 49.2214 131.348 49.1694V43.375H130.144C130.03 43.375 129.937 43.3958 129.854 43.4477C129.771 43.4996 129.698 43.562 129.646 43.6346C129.594 43.7073 129.553 43.78 129.521 43.8735C129.49 43.9566 129.48 44.0396 129.48 44.1227H129.376V42.9908H134.036V44.1227H133.933C133.933 44.0396 133.922 43.9566 133.891 43.8735C133.86 43.78 133.818 43.7073 133.767 43.6346C133.715 43.562 133.642 43.4996 133.559 43.4477C133.476 43.3958 133.383 43.375 133.268 43.375H132.044V49.1694C132.044 49.2214 132.054 49.2837 132.064 49.3563C132.075 49.4187 132.096 49.481 132.127 49.5329C132.158 49.5848 132.199 49.6367 132.23 49.6783C132.272 49.7198 132.324 49.7406 132.376 49.7406ZM137.513 49.7406H137.565C137.731 49.7406 137.814 49.6679 137.814 49.5121C137.814 49.4602 137.804 49.3979 137.783 49.3356L136.849 46.8122H135.033L134.13 49.294C134.109 49.346 134.099 49.3979 134.099 49.4498C134.099 49.5433 134.119 49.616 134.171 49.6679C134.223 49.7198 134.275 49.7406 134.327 49.7406H134.379V49.8444H133.227V49.7406H133.279C133.372 49.7406 133.455 49.6886 133.538 49.5848C133.632 49.4706 133.704 49.346 133.756 49.2006L136.133 42.8662L138.458 49.1383C138.51 49.2733 138.572 49.4083 138.655 49.5433C138.749 49.6783 138.863 49.7406 138.998 49.7406H139.05V49.8444H137.513V49.7406ZM135.137 46.4592H136.735L135.936 44.2889L135.137 46.4592ZM140.44 49.1175C140.378 49.294 140.285 49.4602 140.15 49.616C140.015 49.7717 139.828 49.8444 139.569 49.8444H139.247V49.7406C139.288 49.7406 139.34 49.7302 139.413 49.7094C139.485 49.6783 139.558 49.6367 139.631 49.5848C139.703 49.5329 139.786 49.4602 139.859 49.3771C139.932 49.2837 140.004 49.1798 140.056 49.0448L142.018 43.6658C142.049 43.562 142.07 43.4789 142.07 43.427C142.07 43.3231 142.039 43.24 141.976 43.1881C141.925 43.1258 141.862 43.0947 141.8 43.0947V42.9908H142.651L144.976 49.346C145.007 49.4394 145.08 49.5329 145.173 49.616C145.267 49.6886 145.381 49.7302 145.495 49.7406V49.8444H144.011V49.7406C144.063 49.7406 144.125 49.7198 144.177 49.6783C144.239 49.6263 144.27 49.564 144.27 49.4913C144.27 49.4706 144.26 49.4394 144.249 49.3979L142.298 44.0189L140.44 49.1175ZM146.17 49.7406H146.222C146.273 49.7406 146.315 49.7198 146.356 49.6886C146.398 49.6471 146.429 49.5952 146.46 49.5433C146.491 49.4913 146.512 49.429 146.523 49.3667C146.543 49.3044 146.554 49.2525 146.554 49.2006V43.6658C146.554 43.6139 146.543 43.562 146.533 43.4893C146.523 43.4166 146.491 43.3543 146.46 43.3024C146.429 43.2504 146.398 43.1985 146.356 43.157C146.315 43.1154 146.273 43.0947 146.222 43.0947H146.17V42.9908H147.633V43.0947H147.56C147.467 43.105 147.384 43.1881 147.332 43.3231C147.28 43.4581 147.249 43.5723 147.249 43.6658V45.8984H147.83C148.152 45.8984 148.463 45.9296 148.764 46.0022C149.076 46.0645 149.346 46.1788 149.584 46.3345C149.823 46.4903 150.02 46.6876 150.166 46.9472C150.311 47.1964 150.384 47.508 150.384 47.8818C150.384 48.1829 150.321 48.4633 150.197 48.7021C150.072 48.941 149.906 49.1487 149.688 49.3252C149.47 49.4913 149.221 49.616 148.92 49.7094C148.63 49.8029 148.318 49.8444 147.976 49.8444H146.17V49.7406ZM147.405 49.481C148.204 49.481 148.785 49.346 149.128 49.0656C149.481 48.7852 149.657 48.4114 149.657 47.9233C149.657 47.4353 149.481 47.0303 149.128 46.7188C148.785 46.4072 148.266 46.2515 147.592 46.2515H147.249V49.481H147.405ZM156.715 49.7406H156.767C156.819 49.7406 156.86 49.7198 156.902 49.6783C156.943 49.6367 156.974 49.5848 157.005 49.5329C157.037 49.481 157.068 49.4187 157.078 49.3563C157.089 49.2837 157.099 49.2214 157.099 49.1694V43.7073L154.421 49.9586L151.878 44.0292V49.1694C151.878 49.2214 151.889 49.2837 151.899 49.3563C151.909 49.4187 151.93 49.481 151.961 49.5329C151.992 49.5848 152.034 49.6367 152.075 49.6783C152.117 49.7198 152.169 49.7406 152.221 49.7406H152.273V49.8444H151.141V49.7406H151.193C151.245 49.7406 151.287 49.7198 151.328 49.6783C151.37 49.6367 151.401 49.5848 151.432 49.5329C151.463 49.481 151.484 49.4187 151.494 49.3563C151.505 49.2837 151.515 49.2214 151.515 49.1694V43.6346C151.515 43.5827 151.505 43.5308 151.494 43.4685C151.484 43.4062 151.463 43.3439 151.432 43.292C151.401 43.24 151.37 43.1881 151.328 43.157C151.287 43.1154 151.245 43.0947 151.193 43.0947H151.141V42.9908H152.2L154.608 48.671L157.016 42.9908H158.189V43.0947H158.137C158.085 43.0947 158.033 43.1154 157.992 43.157C157.95 43.1881 157.908 43.24 157.877 43.292C157.846 43.3439 157.825 43.4062 157.815 43.4685C157.805 43.5308 157.794 43.5827 157.794 43.6346V49.1694C157.794 49.2214 157.805 49.2837 157.815 49.3563C157.825 49.4187 157.846 49.481 157.877 49.5329C157.908 49.5848 157.95 49.6367 157.992 49.6783C158.033 49.7198 158.085 49.7406 158.137 49.7406H158.189V49.8444H156.715V49.7406ZM161.936 42.887C162.475 42.887 162.963 42.9804 163.389 43.1777C163.814 43.3647 164.177 43.6243 164.478 43.9462C164.779 44.2681 165.018 44.6419 165.174 45.0677C165.34 45.4934 165.423 45.9296 165.423 46.3968C165.423 46.9161 165.33 47.3937 165.132 47.8299C164.946 48.266 164.686 48.6398 164.354 48.9514C164.022 49.2629 163.638 49.5121 163.191 49.6886C162.756 49.8652 162.288 49.9482 161.79 49.9482C161.261 49.9482 160.773 49.8548 160.348 49.6575C159.922 49.4602 159.569 49.211 159.268 48.8891C158.978 48.5671 158.749 48.2037 158.593 47.7883C158.438 47.373 158.355 46.9368 158.355 46.4903C158.355 46.0438 158.438 45.6076 158.593 45.1819C158.749 44.7458 158.988 44.3615 159.289 44.0189C159.6 43.6762 159.974 43.4062 160.42 43.1985C160.867 42.9908 161.365 42.887 161.936 42.887ZM161.925 49.5848C162.392 49.564 162.797 49.4602 163.14 49.2733C163.492 49.076 163.783 48.8371 164.022 48.5464C164.261 48.2452 164.427 47.9233 164.541 47.5703C164.655 47.2172 164.717 46.8641 164.717 46.5215C164.717 46.1372 164.645 45.753 164.51 45.3688C164.375 44.9846 164.177 44.6315 163.918 44.32C163.659 43.9981 163.358 43.7489 162.994 43.5516C162.641 43.3543 162.247 43.2504 161.801 43.2504C161.375 43.2504 160.991 43.3439 160.649 43.5412C160.306 43.7281 160.015 43.9669 159.777 44.2681C159.538 44.5692 159.362 44.9015 159.237 45.265C159.112 45.6284 159.05 45.9919 159.05 46.3449C159.05 46.7291 159.123 47.1134 159.268 47.4976C159.413 47.8818 159.611 48.2245 159.87 48.536C160.13 48.8475 160.431 49.0967 160.773 49.294C161.126 49.4913 161.51 49.5848 161.925 49.5848ZM165.942 49.1175C165.88 49.294 165.786 49.4602 165.651 49.616C165.516 49.7717 165.33 49.8444 165.07 49.8444H164.748V49.7406C164.79 49.7406 164.842 49.7302 164.914 49.7094C164.987 49.6783 165.06 49.6367 165.132 49.5848C165.205 49.5329 165.288 49.4602 165.361 49.3771C165.433 49.2837 165.506 49.1798 165.558 49.0448L167.52 43.6658C167.551 43.562 167.571 43.4789 167.571 43.427C167.571 43.3231 167.54 43.24 167.478 43.1881C167.426 43.1258 167.364 43.0947 167.302 43.0947V42.9908H168.153L170.478 49.346C170.509 49.4394 170.581 49.5329 170.675 49.616C170.768 49.6886 170.882 49.7302 170.997 49.7406V49.8444H169.512V49.7406C169.564 49.7406 169.627 49.7198 169.678 49.6783C169.741 49.6263 169.772 49.564 169.772 49.4913C169.772 49.4706 169.761 49.4394 169.751 49.3979L167.8 44.0189L165.942 49.1175ZM175.159 42.887C175.698 42.887 176.186 42.9804 176.612 43.1777C177.037 43.3647 177.401 43.6243 177.702 43.9462C178.003 44.2681 178.241 44.6419 178.397 45.0677C178.563 45.4934 178.646 45.9296 178.646 46.3968C178.646 46.9161 178.553 47.3937 178.355 47.8299C178.169 48.266 177.909 48.6398 177.577 48.9514C177.245 49.2629 176.861 49.5121 176.415 49.6886C175.979 49.8652 175.512 49.9482 175.013 49.9482C174.484 49.9482 173.996 49.8548 173.571 49.6575C173.145 49.4602 172.792 49.211 172.491 48.8891C172.201 48.5671 171.972 48.2037 171.817 47.7883C171.661 47.373 171.578 46.9368 171.578 46.4903C171.578 46.0438 171.661 45.6076 171.817 45.1819C171.972 44.7458 172.211 44.3615 172.512 44.0189C172.823 43.6762 173.197 43.4062 173.643 43.1985C174.09 42.9908 174.588 42.887 175.159 42.887ZM175.148 49.5848C175.615 49.564 176.02 49.4602 176.363 49.2733C176.715 49.076 177.006 48.8371 177.245 48.5464C177.484 48.2452 177.65 47.9233 177.764 47.5703C177.878 47.2172 177.94 46.8641 177.94 46.5215C177.94 46.1372 177.868 45.753 177.733 45.3688C177.598 44.9846 177.401 44.6315 177.141 44.32C176.882 43.9981 176.581 43.7489 176.217 43.5516C175.864 43.3543 175.47 43.2504 175.024 43.2504C174.598 43.2504 174.214 43.3439 173.872 43.5412C173.529 43.7281 173.238 43.9669 173 44.2681C172.761 44.5692 172.585 44.9015 172.46 45.265C172.336 45.6284 172.273 45.9919 172.273 46.3449C172.273 46.7291 172.346 47.1134 172.491 47.4976C172.636 47.8818 172.834 48.2245 173.093 48.536C173.353 48.8475 173.654 49.0967 173.996 49.294C174.349 49.4913 174.733 49.5848 175.148 49.5848ZM180.898 49.7406H180.95V49.8444H179.456V49.7406H179.507C179.559 49.7406 179.611 49.7198 179.653 49.6886C179.694 49.6471 179.725 49.5952 179.757 49.5433C179.788 49.4913 179.819 49.429 179.829 49.3667C179.84 49.3044 179.85 49.2421 179.85 49.1902V43.6346C179.85 43.5827 179.84 43.5308 179.829 43.4685C179.819 43.4062 179.788 43.3439 179.757 43.292C179.725 43.24 179.694 43.1881 179.653 43.157C179.611 43.1154 179.559 43.0947 179.507 43.0947H179.456V42.9908H183.452V44.0915H183.348C183.348 43.8423 183.296 43.6554 183.182 43.5412C183.078 43.4166 182.912 43.3543 182.684 43.3543H180.556V49.1902C180.556 49.2421 180.566 49.3044 180.577 49.3667C180.587 49.429 180.608 49.4913 180.639 49.5433C180.67 49.5952 180.711 49.6471 180.753 49.6886C180.795 49.7198 180.836 49.7406 180.898 49.7406ZM188.101 49.7406H188.153C188.205 49.7406 188.257 49.7198 188.299 49.6886C188.34 49.6471 188.371 49.5952 188.402 49.5433C188.434 49.481 188.465 49.4187 188.475 49.3563C188.485 49.2837 188.496 49.2214 188.496 49.1694V44.4135L185.05 49.076V49.1694C185.05 49.2214 185.06 49.2837 185.071 49.3563C185.091 49.4187 185.112 49.481 185.143 49.5329C185.175 49.5848 185.206 49.6367 185.247 49.6783C185.289 49.7198 185.341 49.7406 185.392 49.7406H185.444V49.8444H183.971V49.7406H184.022C184.074 49.7406 184.126 49.7198 184.168 49.6886C184.209 49.6471 184.24 49.5952 184.272 49.5433C184.303 49.481 184.334 49.4187 184.344 49.3563C184.355 49.2837 184.365 49.2214 184.365 49.1694V43.6346C184.365 43.5827 184.355 43.5308 184.344 43.4685C184.334 43.4062 184.303 43.3439 184.272 43.292C184.24 43.24 184.209 43.1881 184.168 43.157C184.126 43.1154 184.074 43.0947 184.022 43.0947H183.971V42.9908H185.444V43.0947H185.361C185.309 43.105 185.268 43.1258 185.226 43.1674C185.195 43.2089 185.164 43.2608 185.133 43.3127C185.102 43.3647 185.081 43.4166 185.071 43.4789C185.06 43.5308 185.05 43.5827 185.05 43.6346V48.4322L188.496 43.7696V43.6346C188.496 43.5827 188.485 43.5308 188.475 43.4685C188.465 43.4062 188.434 43.3439 188.402 43.292C188.371 43.24 188.34 43.1881 188.299 43.157C188.257 43.1154 188.205 43.0947 188.153 43.0947H188.101V42.9908H189.575V43.0947H189.523C189.471 43.0947 189.42 43.1154 189.378 43.157C189.337 43.1881 189.305 43.24 189.274 43.292C189.243 43.3439 189.222 43.4062 189.202 43.4685C189.191 43.5308 189.181 43.5827 189.181 43.6346V49.1694C189.181 49.2214 189.191 49.2837 189.202 49.346C189.222 49.4083 189.243 49.4706 189.274 49.5329C189.305 49.5848 189.337 49.6367 189.378 49.6783C189.42 49.7198 189.471 49.7406 189.523 49.7406H189.575V49.8444H188.101V49.7406ZM193.81 49.7406H193.862C193.914 49.7406 193.955 49.7198 193.997 49.6783C194.049 49.6367 194.08 49.5848 194.111 49.5329C194.142 49.481 194.163 49.4187 194.173 49.3563C194.194 49.2837 194.204 49.2214 194.204 49.1694V46.3553C194.049 46.3657 193.903 46.4176 193.768 46.5007C193.634 46.5838 193.509 46.698 193.384 46.833C193.27 46.968 193.156 47.1237 193.042 47.3003C192.938 47.4768 192.834 47.6533 192.741 47.8403C192.668 47.9752 192.585 48.131 192.492 48.2868C192.398 48.4425 192.315 48.5983 192.222 48.7541C192.056 49.0552 191.838 49.3148 191.568 49.5329C191.298 49.7406 190.987 49.8444 190.634 49.8444H190.084V49.7406C190.24 49.7406 190.395 49.7094 190.53 49.6367C190.675 49.564 190.81 49.481 190.925 49.3771C191.039 49.2733 191.143 49.159 191.236 49.0344C191.329 48.9098 191.412 48.7956 191.475 48.6814L192.295 47.2068C192.388 47.0407 192.492 46.8849 192.606 46.7291C192.72 46.5734 192.897 46.4384 193.135 46.3449C192.845 46.3242 192.585 46.2722 192.357 46.1788C192.129 46.0853 191.931 45.9711 191.776 45.8257C191.62 45.6803 191.495 45.5142 191.412 45.3377C191.329 45.1507 191.288 44.9534 191.288 44.7561C191.288 44.4965 191.35 44.2681 191.464 44.05C191.578 43.8319 191.745 43.645 191.962 43.4893C192.18 43.3335 192.44 43.2089 192.741 43.1258C193.052 43.0324 193.395 42.9908 193.779 42.9908H195.273V43.0947H195.222C195.17 43.0947 195.128 43.1154 195.087 43.157C195.045 43.1881 195.014 43.24 194.983 43.292C194.952 43.3439 194.931 43.4062 194.921 43.4685C194.91 43.5308 194.9 43.5827 194.9 43.6346V49.1694C194.9 49.2214 194.91 49.2837 194.921 49.3563C194.931 49.4187 194.952 49.481 194.983 49.5329C195.014 49.5848 195.045 49.6367 195.087 49.6783C195.128 49.7198 195.17 49.7406 195.222 49.7406H195.273V49.8444H193.81V49.7406ZM191.942 44.6004C191.942 44.7977 191.983 44.9846 192.066 45.1611C192.149 45.3273 192.263 45.4727 192.409 45.5973C192.554 45.7219 192.72 45.8153 192.917 45.888C193.115 45.9607 193.322 45.9919 193.55 45.9919H194.204V43.3439H194.049C193.374 43.3439 192.855 43.4581 192.492 43.6762C192.118 43.8943 191.942 44.2058 191.942 44.6004Z" fill="white"/>
<path d="M196 38.1826C149.678 39.6468 102.754 39.6468 56.4315 38.1826C102.743 36.7184 149.678 36.7184 196 38.1826Z" fill="white"/>
<mask id="mask0_1718_12494" style="mask-type:luminance" maskUnits="userSpaceOnUse" x="0" y="0" width="46" height="50">
<path d="M45.6683 0H0V49.8442H45.6683V0Z" fill="white"/>
</mask>
<g mask="url(#mask0_1718_12494)">
<path d="M38.5171 0V2.93873H36.0364V0H28.8852V2.93873H26.4046V0H19.2533V2.93873H16.7727V0H9.63186V2.93873H7.15124V0H0V17.9335C0.560475 32.5961 7.35882 42.7726 22.8341 49.8442C38.4236 42.7726 45.1078 32.0042 45.6683 17.9335V0H38.5171ZM42.9593 18.7227C42.4611 31.1215 36.5761 40.6127 22.8341 46.8536C9.18555 40.623 3.19678 31.6511 2.69858 18.7227V5.50363H42.949V18.7227H42.9593Z" fill="white"/>
<path d="M37.4169 18.5463C37.4376 18.4943 37.4272 18.4528 37.4169 18.432C37.3961 18.3905 37.3546 18.3697 37.3027 18.349C35.8185 18.0582 32.0197 17.539 28.8125 19.1797C25.6261 20.8204 23.3739 25.5141 23.3116 25.5764H22.4086C22.3152 25.5141 20.0629 20.8204 16.8661 19.1797C15.1328 18.2867 13.223 18.0374 11.5935 18.0374C10.2235 18.0374 9.061 18.2244 8.37597 18.3594C8.32408 18.3697 8.28256 18.4009 8.2618 18.4424C8.25142 18.4632 8.24104 18.5047 8.2618 18.5567C8.8119 19.8962 10.431 23.188 13.6278 24.8287C14.1156 25.0779 15.1328 25.3375 16.3264 25.5764H10.0159C9.64223 25.5764 9.37237 25.8256 9.5073 26.0748C10.2754 27.6221 13.1919 32.2327 21.1112 32.8453V40.1974C19.1288 40.7581 18.5787 42.0977 18.5787 42.0977H27.2141C27.2141 42.0977 27.0066 40.6335 24.6816 40.1247V32.8453C32.7047 32.2327 35.559 27.6013 36.2855 26.0644C36.3997 25.8256 36.1402 25.566 35.7666 25.566H29.3004C30.5251 25.3272 31.5734 25.0572 32.0405 24.8183C35.2372 23.188 36.8668 19.8962 37.4169 18.5463Z" fill="white"/>
<path d="M17.1567 18.6291C20.5403 20.3632 22.2425 23.8212 22.8134 25.223C22.8134 25.2334 22.8237 25.2542 22.8341 25.2646C22.8341 25.2542 22.8341 25.2334 22.8445 25.223C23.4257 23.8212 25.1279 20.3632 28.5011 18.6291C29.3937 18.1722 30.3279 17.8814 31.2516 17.6841C31.2724 17.5906 31.2931 17.5076 31.3139 17.4141C31.6979 15.5346 31.6149 13.8004 31.5319 12.9074C31.5215 12.8347 31.4903 12.7931 31.4592 12.7827C31.4488 12.7724 31.4073 12.7516 31.3658 12.7516C31.3554 12.7516 31.3346 12.7516 31.3139 12.7516C27.2868 13.8419 26.3215 15.0361 26.2696 15.0984C26.28 15.3061 26.3008 15.5242 26.3008 15.7215C26.3008 17.1545 25.9167 18.4837 25.3978 19.6259C24.9307 20.654 24.3599 21.5263 23.8928 22.1597C23.6852 22.4401 23.488 22.6789 23.3427 22.8554L23.3323 22.8658C23.2493 22.9593 23.1455 23.032 23.0313 23.0631C22.9587 23.0839 22.886 23.1047 22.803 23.1047C22.7199 23.1047 22.6473 23.0943 22.5746 23.0631C22.5124 23.0424 22.4397 23.0112 22.3878 22.9697C22.3463 22.9385 22.2944 22.897 22.2633 22.8554C22.1387 22.7101 21.983 22.5128 21.817 22.3051C21.3291 21.6613 20.7064 20.7474 20.2082 19.6363C19.6996 18.5045 19.3052 17.1545 19.3052 15.7215C19.3052 15.4826 19.3156 15.2542 19.3363 15.0154C19.2741 14.9634 18.5994 13.8419 14.4062 12.7412C14.3959 12.7412 14.3647 12.7412 14.3543 12.7412C14.3128 12.7412 14.2921 12.7516 14.2609 12.7724C14.2194 12.8035 14.1987 12.8451 14.1883 12.897C14.0949 13.8004 14.0118 15.5449 14.4062 17.4349C14.2298 17.3933 16.1188 18.0683 17.1775 18.6187H17.1567V18.6291Z" fill="white"/>
<path d="M22.3982 22.1289C22.5124 22.2639 22.6058 22.3885 22.6992 22.4923C22.7615 22.5754 22.8238 22.5754 22.8964 22.4923C23.0106 22.3573 23.1455 22.1912 23.3012 21.9939C23.4673 21.7862 23.6437 21.5474 23.8202 21.267C24.7024 19.9586 25.7196 17.9648 25.7196 15.7322C25.7196 15.4934 25.7092 15.2649 25.678 15.0261C25.6573 14.7976 25.6261 14.5692 25.5846 14.3511C25.1383 11.8485 23.6126 9.82358 22.8964 8.98245C22.8549 8.94092 22.8238 8.94092 22.803 8.94092C22.7823 8.94092 22.7407 8.94092 22.7096 8.98245C21.9934 9.81319 20.4885 11.8173 20.0318 14.2784C19.9903 14.4965 19.9591 14.7249 19.9384 14.943C19.9072 15.2026 19.8969 15.4622 19.8969 15.7322C19.8969 18.0479 20.9867 20.104 21.9 21.4124C22.0661 21.6824 22.2425 21.9212 22.3982 22.1289Z" fill="white"/>
</g>
</g>
<defs>
<clipPath id="clip0_1718_12494">
<rect width="196" height="50" fill="white"/>
</clipPath>
</defs>
</svg>
