<svg width="262" height="70" viewBox="0 0 262 70" fill="none" xmlns="http://www.w3.org/2000/svg">
<g clip-path="url(#clip0_1718_12308)">
<path d="M93.0236 24.4928H93.2107C93.3835 24.4928 93.5418 24.4353 93.6857 24.2916C93.8296 24.1622 93.9592 23.9754 94.0743 23.7741C94.1895 23.5729 94.2614 23.3429 94.3046 23.1129C94.3478 22.883 94.3766 22.653 94.3766 22.4661V12.3758H82.7613V22.4517C82.7613 22.653 82.7757 22.8686 82.8332 23.0986C82.8908 23.3429 82.9484 23.5585 83.0491 23.7454C83.1499 23.9466 83.265 24.1191 83.3946 24.2628C83.5241 24.4066 83.6824 24.4784 83.8839 24.4784H84.071V24.8522H78.9902V24.4784H79.1773C79.3501 24.4784 79.5084 24.4209 79.6523 24.2772C79.7963 24.1478 79.9258 23.961 80.0409 23.7598C80.1561 23.5585 80.2281 23.3285 80.2712 23.0986C80.3144 22.8686 80.3432 22.6386 80.3432 22.4517V2.73101C80.3432 2.55852 80.3288 2.35729 80.2712 2.14169C80.2137 1.91171 80.1561 1.71047 80.0553 1.50924C79.9546 1.30801 79.8394 1.1499 79.6955 1.02054C79.5516 0.891172 79.3789 0.819304 79.1917 0.819304H79.0046V0.431213H84.0854V0.80493H83.8983C83.7112 0.80493 83.5385 0.876799 83.3946 1.00616C83.2506 1.13553 83.1355 1.30801 83.0491 1.49487C82.9628 1.6961 82.8908 1.89733 82.8476 2.12731C82.7757 2.35729 82.7613 2.55852 82.7613 2.73101V11.0965H94.3766V2.73101C94.3766 2.55852 94.3622 2.35729 94.3046 2.14169C94.2471 1.91171 94.1895 1.71047 94.0887 1.50924C93.988 1.30801 93.8728 1.1499 93.7145 1.00616C93.5706 0.876799 93.3979 0.80493 93.2107 0.80493H93.0236V0.431213H98.1045V0.80493H97.9173C97.7302 0.80493 97.5575 0.876799 97.4136 1.00616C97.2696 1.13553 97.1545 1.30801 97.0681 1.49487C96.9818 1.6961 96.9098 1.89733 96.8666 2.12731C96.8091 2.34292 96.7947 2.54415 96.7947 2.71663V22.4374C96.7947 22.6386 96.8234 22.8542 96.881 23.0842C96.9386 23.3285 97.025 23.5441 97.1113 23.731C97.1977 23.9322 97.3272 24.1047 97.4567 24.2485C97.5863 24.3922 97.7446 24.4641 97.9173 24.4641H98.1045V24.8378H93.0236V24.4928Z" fill="white"/>
<path d="M103.156 24.4928H103.343C103.53 24.4928 103.703 24.4353 103.847 24.2916C103.991 24.1622 104.121 23.9897 104.236 23.8029C104.351 23.6016 104.423 23.386 104.495 23.1704C104.552 22.9405 104.581 22.7392 104.581 22.538V2.73101C104.581 2.55852 104.552 2.35729 104.495 2.14169C104.437 1.91171 104.351 1.71047 104.236 1.50924C104.121 1.30801 104.005 1.1499 103.847 1.02054C103.689 0.891172 103.53 0.819304 103.343 0.819304H103.156V0.431213H117.132V3.86653H116.772C116.715 3.29158 116.513 2.80288 116.125 2.37166C115.736 1.94045 115.131 1.72485 114.311 1.72485H107.014V11.0965H113.044C113.606 11.0965 114.066 10.924 114.441 10.5791C114.815 10.2341 115.002 9.83162 115.002 9.35729H115.362V13.9856H115.002C115.002 13.54 114.815 13.1663 114.455 12.8357C114.095 12.5195 113.62 12.347 113.03 12.347H106.999V23.5585H114.944C115.405 23.5585 115.808 23.4435 116.139 23.2279C116.47 22.9979 116.772 22.7392 116.988 22.4374C117.218 22.1212 117.377 21.7906 117.492 21.4312C117.607 21.0719 117.65 20.77 117.65 20.5257H118.01V24.8522H103.156V24.4928Z" fill="white"/>
<path d="M142.335 24.4928H142.522C142.695 24.4928 142.853 24.4209 142.997 24.2772C143.155 24.1335 143.27 23.961 143.386 23.7598C143.501 23.5585 143.573 23.3429 143.616 23.1129C143.659 22.8686 143.688 22.653 143.688 22.4661V2.98974L134.318 25.2834L125.423 4.12526V22.4517C125.423 22.653 125.437 22.8686 125.495 23.0986C125.552 23.3429 125.624 23.5585 125.725 23.7454C125.84 23.9466 125.955 24.1191 126.114 24.2628C126.258 24.4066 126.43 24.4784 126.617 24.4784H126.805V24.8522H122.846V24.4784H123.034C123.206 24.4784 123.365 24.4066 123.509 24.2628C123.667 24.1191 123.768 23.9466 123.868 23.7454C123.955 23.5442 124.041 23.3285 124.084 23.0986C124.127 22.8542 124.156 22.6386 124.156 22.4517V2.73101C124.156 2.55852 124.142 2.35729 124.084 2.14169C124.027 1.91171 123.969 1.71047 123.868 1.50924C123.753 1.30801 123.638 1.1499 123.494 1.00616C123.35 0.876799 123.192 0.80493 123.019 0.80493H122.832V0.431213H126.545L134.966 20.6838L143.4 0.431213H147.502V0.80493H147.315C147.128 0.80493 146.955 0.876799 146.811 1.00616C146.667 1.13553 146.538 1.30801 146.423 1.49487C146.307 1.6961 146.235 1.89733 146.192 2.12731C146.135 2.34292 146.12 2.54415 146.12 2.71663V22.4374C146.12 22.6386 146.135 22.8542 146.192 23.0842C146.25 23.3285 146.322 23.5442 146.423 23.731C146.538 23.9322 146.653 24.1047 146.811 24.2485C146.955 24.3922 147.128 24.4641 147.315 24.4641H147.502V24.8378H142.349L142.335 24.4928Z" fill="white"/>
<path d="M153.028 24.4928H153.215C153.402 24.4928 153.575 24.4353 153.719 24.2916C153.863 24.1622 153.992 23.9897 154.108 23.8029C154.223 23.6016 154.295 23.386 154.367 23.1704C154.424 22.9405 154.453 22.7392 154.453 22.538V2.73101C154.453 2.55852 154.424 2.35729 154.367 2.14169C154.309 1.91171 154.223 1.71047 154.108 1.50924C153.992 1.30801 153.877 1.1499 153.719 1.02054C153.561 0.891172 153.402 0.819304 153.215 0.819304H153.028V0.431213H167.004V3.86653H166.644C166.601 3.29158 166.385 2.80288 165.996 2.37166C165.608 1.94045 165.003 1.72485 164.183 1.72485H156.885V11.0965H162.916C163.478 11.0965 163.938 10.924 164.312 10.5791C164.687 10.2341 164.874 9.83162 164.874 9.35729H165.234V13.9856H164.874C164.874 13.54 164.687 13.1663 164.327 12.8357C163.967 12.5195 163.492 12.347 162.902 12.347H156.885V23.5585H164.831C165.291 23.5585 165.694 23.4435 166.025 23.2279C166.356 22.9979 166.658 22.7392 166.874 22.4374C167.105 22.1212 167.263 21.7906 167.378 21.4312C167.493 21.0719 167.536 20.77 167.536 20.5257H167.896V24.8522H153.014V24.4928H153.028Z" fill="white"/>
<path d="M172.633 24.4928H172.82C173.036 24.4928 173.223 24.4209 173.367 24.2772C173.511 24.1335 173.626 23.961 173.712 23.7597C173.799 23.5585 173.856 23.3429 173.899 23.1129C173.943 22.8686 173.957 22.653 173.957 22.4661V2.83161C173.957 2.65912 173.943 2.44352 173.899 2.19917C173.856 1.95481 173.813 1.73921 173.712 1.5236C173.626 1.32237 173.511 1.14988 173.367 1.00615C173.223 0.86241 173.05 0.790541 172.82 0.790541H172.633V0.416824H177.742V0.790541H177.383C177.195 0.804915 177.023 0.905531 176.893 1.04927C176.764 1.19301 176.663 1.36549 176.591 1.56672C176.519 1.76795 176.461 1.98356 176.433 2.21354C176.389 2.45789 176.389 2.64475 176.389 2.81723V23.5441H187.314V2.83161C187.314 2.65912 187.3 2.45789 187.256 2.22791C187.213 1.98356 187.17 1.76795 187.069 1.5811C186.983 1.37986 186.868 1.20738 186.724 1.06364C186.58 0.919904 186.407 0.819288 186.22 0.804915H186.004V0.416824H191.042V0.790541H190.725C190.538 0.804915 190.365 0.905531 190.25 1.04927C190.135 1.19301 190.034 1.36549 189.962 1.56672C189.89 1.76795 189.833 1.98356 189.804 2.21354C189.761 2.45789 189.746 2.64475 189.746 2.81723V21.5606C189.746 22.0493 189.876 22.5092 190.135 22.9404C190.394 23.3573 190.797 23.5729 191.387 23.5729H193.201V28.2012H192.841C192.827 27.885 192.74 27.5257 192.611 27.1519C192.481 26.7638 192.294 26.4045 192.035 26.0739C191.776 25.7433 191.474 25.4558 191.099 25.2259C190.725 24.9815 190.279 24.8809 189.775 24.8809H172.676V24.5072L172.633 24.4928Z" fill="white"/>
<path d="M197.388 24.4928H197.576C197.763 24.4928 197.935 24.4209 198.079 24.2772C198.223 24.1335 198.353 23.961 198.468 23.7598C198.583 23.5585 198.655 23.3429 198.698 23.1129C198.756 22.8686 198.77 22.653 198.77 22.4661V2.73101C198.77 2.55852 198.756 2.35729 198.698 2.14169C198.655 1.91171 198.569 1.71047 198.468 1.50924C198.367 1.30801 198.238 1.1499 198.079 1.02054C197.921 0.891172 197.777 0.819304 197.604 0.819304H197.417V0.431213H202.57V0.80493H202.383C202.196 0.80493 202.023 0.876799 201.879 1.00616C201.735 1.13553 201.606 1.30801 201.49 1.49487C201.375 1.6961 201.303 1.89733 201.231 2.12731C201.174 2.34292 201.145 2.54415 201.145 2.71663V10.3778L209.565 1.82546C209.752 1.62423 209.853 1.39425 209.853 1.12115C209.853 0.905546 209.752 0.790556 209.565 0.790556V0.431213H213.48V0.80493C212.991 0.819304 212.573 0.977415 212.199 1.25052C211.825 1.52362 211.422 1.88296 210.99 2.32854L202.383 11.1253C203.952 11.1828 205.233 11.5133 206.197 12.1602C207.161 12.807 207.924 13.6838 208.486 14.8193L211.35 20.7269C211.523 21.1006 211.738 21.5031 212.012 21.9199C212.285 22.3368 212.616 22.7536 212.947 23.1417C213.307 23.5298 213.696 23.846 214.128 24.1047C214.56 24.3635 215.02 24.4928 215.509 24.4928V24.8665H213.696C212.991 24.8665 212.386 24.7659 211.882 24.5503C211.379 24.3491 210.932 24.0616 210.558 23.7023C210.184 23.3429 209.853 22.9405 209.579 22.4949C209.292 22.0493 209.047 21.6037 208.831 21.1581L205.895 15.193C205.434 14.2875 204.801 13.5832 203.995 13.0945C203.189 12.6058 202.239 12.347 201.145 12.3039V22.4517C201.145 22.653 201.159 22.8542 201.217 23.0842C201.26 23.2998 201.332 23.5154 201.433 23.731C201.534 23.9322 201.649 24.1191 201.793 24.2485C201.937 24.3778 202.095 24.4641 202.268 24.4928H202.527V24.8665H197.374V24.4928H197.388Z" fill="white"/>
<path d="M233.617 24.4928H233.804C234.38 24.4928 234.682 24.2197 234.682 23.6735C234.682 23.4723 234.639 23.2567 234.567 23.0411L231.3 14.0431H224.952L221.786 22.8973C221.714 23.0986 221.671 23.2854 221.671 23.4579C221.671 23.7741 221.757 24.0329 221.93 24.2197C222.103 24.4066 222.29 24.4928 222.477 24.4928H222.664V24.8665H218.634V24.4928H218.821C219.138 24.4928 219.454 24.306 219.742 23.9179C220.044 23.5298 220.289 23.0842 220.476 22.5667L228.781 0L236.913 22.3655C237.086 22.8542 237.316 23.3429 237.618 23.8172C237.921 24.2772 238.324 24.5216 238.799 24.5216H238.986V24.8953H233.617V24.5216V24.4928ZM225.312 12.7782H230.897L228.105 5.04517L225.312 12.7782Z" fill="white"/>
<path d="M254.932 24.4928H255.119C255.292 24.4928 255.45 24.4209 255.608 24.2772C255.767 24.1335 255.896 23.961 255.997 23.7598C256.083 23.5585 256.17 23.3429 256.227 23.1129C256.285 22.8686 256.314 22.653 256.314 22.4661V12.4189C255.781 12.4764 255.277 12.6345 254.802 12.9363C254.327 13.2382 253.881 13.6263 253.449 14.1294C253.018 14.6181 252.629 15.1786 252.255 15.7967C251.88 16.4148 251.521 17.0616 251.175 17.7228C250.916 18.2115 250.614 18.7433 250.312 19.2895C249.995 19.8501 249.678 20.4107 249.376 20.9713C248.8 22.0493 248.023 22.9692 247.088 23.731C246.152 24.4784 245.058 24.8522 243.82 24.8522H241.892V24.4784C242.453 24.4784 242.971 24.3491 243.475 24.1047C243.979 23.8604 244.425 23.5441 244.828 23.1704C245.245 22.7967 245.605 22.3943 245.936 21.9487C246.267 21.5031 246.541 21.0862 246.757 20.6838L249.621 15.423C249.952 14.8337 250.326 14.2587 250.729 13.6982C251.132 13.1376 251.737 12.692 252.557 12.347C251.549 12.2752 250.628 12.0739 249.837 11.7577C249.031 11.4415 248.354 11.0103 247.807 10.4928C247.246 9.97536 246.828 9.38604 246.541 8.73922C246.253 8.0924 246.109 7.40247 246.109 6.68378C246.109 5.77824 246.31 4.93019 246.728 4.15401C247.145 3.37783 247.721 2.70226 248.469 2.15606C249.218 1.59548 250.125 1.16427 251.218 0.862425C252.298 0.546203 253.493 0.402466 254.831 0.402466H260.056V0.776182H259.869C259.696 0.776182 259.552 0.848051 259.394 0.977414C259.235 1.10678 259.135 1.27926 259.034 1.46612C258.933 1.66735 258.861 1.86858 258.818 2.09856C258.775 2.31417 258.746 2.5154 258.746 2.68789V22.4086C258.746 22.6099 258.76 22.8255 258.818 23.0554C258.876 23.2998 258.933 23.5154 259.034 23.7023C259.12 23.9035 259.25 24.076 259.394 24.2197C259.538 24.3635 259.696 24.4353 259.869 24.4353H260.056V24.809H254.946V24.4353L254.932 24.4928ZM248.426 6.16633C248.426 6.88501 248.57 7.5462 248.858 8.1499C249.146 8.75359 249.549 9.27105 250.053 9.71663C250.556 10.1622 251.146 10.5072 251.823 10.7515C252.499 10.9959 253.233 11.1253 254.025 11.1253H256.299V1.68173H255.752C253.406 1.68173 251.607 2.06982 250.34 2.87475C249.074 3.6653 248.441 4.7577 248.426 6.16633Z" fill="white"/>
<path d="M86.302 44.0842C86.1869 44.0842 86.0717 44.1129 85.9566 44.1704C85.8414 44.2279 85.7407 44.2998 85.5967 44.3717C85.3377 44.5298 84.9922 44.6879 84.5748 44.846C84.143 45.0041 83.6249 45.0904 82.9916 45.0904C82.2287 45.0904 81.5091 44.961 80.8757 44.7023C80.2424 44.4435 79.6811 44.0986 79.2061 43.6386C78.7456 43.1786 78.3713 42.6468 78.1266 42.0431C77.8532 41.4251 77.7236 40.7639 77.7236 40.0596C77.7236 39.3984 77.8388 38.7515 78.0835 38.1622C78.3138 37.5585 78.6448 37.0267 79.091 36.5667C79.5228 36.1068 80.0697 35.7331 80.7174 35.46C81.3507 35.1869 82.0848 35.0431 82.9052 35.0431C83.4665 35.0431 83.9127 35.1006 84.2582 35.2444C84.6036 35.3737 84.8915 35.5031 85.1361 35.6324C85.2657 35.7043 85.3952 35.7618 85.5248 35.8193C85.6543 35.8768 85.7838 35.8912 85.9134 35.8912V37.6448H85.6975C85.6111 37.3573 85.4816 37.0986 85.2945 36.8686C85.1074 36.6386 84.8627 36.4517 84.618 36.2936C84.3589 36.1355 84.0854 36.0205 83.7832 35.9487C83.4809 35.8624 83.1787 35.8337 82.9052 35.8337C82.2863 35.8337 81.7393 35.9487 81.2788 36.1643C80.8182 36.3943 80.4296 36.6817 80.1273 37.0411C79.825 37.4004 79.5948 37.8172 79.4508 38.2772C79.2925 38.7372 79.2349 39.2115 79.2349 39.7146C79.2349 40.2895 79.3213 40.8357 79.494 41.3819C79.6667 41.9281 79.9258 42.4168 80.2424 42.848C80.5735 43.2793 80.9765 43.6242 81.4515 43.8973C81.9265 44.1704 82.459 44.2854 83.0779 44.2854C83.5097 44.2854 83.8983 44.2279 84.2582 44.0986C84.618 43.9692 84.9346 43.8111 85.1937 43.6099C85.4528 43.4086 85.6687 43.193 85.827 42.9487C85.9853 42.7043 86.0861 42.4887 86.1149 42.2731H86.3308V44.0842H86.302Z" fill="white"/>
<path d="M89.756 40.232C89.8136 40.7639 89.9431 41.2813 90.1446 41.77C90.3317 42.2587 90.6052 42.6899 90.9218 43.0493C91.2529 43.423 91.6415 43.7248 92.1165 43.9405C92.5771 44.1704 93.124 44.2854 93.7429 44.2854C94.074 44.2854 94.4338 44.2279 94.7936 44.1273C95.1534 44.0267 95.4989 43.883 95.8299 43.7105C96.161 43.5236 96.4344 43.2936 96.6791 43.0349C96.9382 42.7618 97.1109 42.46 97.1829 42.1294H97.3844V43.8686C97.298 43.8686 97.1973 43.8973 97.0821 43.9548C96.967 44.0123 96.8375 44.0842 96.6935 44.1848C96.3913 44.3717 95.9883 44.5729 95.4701 44.7741C94.9519 44.9754 94.2755 45.0904 93.4263 45.0904C92.7498 45.0904 92.1021 44.9897 91.4976 44.7885C90.8931 44.5873 90.3461 44.2854 89.8711 43.8542C89.4105 43.4374 89.0363 42.9055 88.7485 42.2587C88.4606 41.6119 88.3311 40.8501 88.3311 39.9446C88.3311 39.3696 88.4174 38.7947 88.6189 38.2053C88.806 37.616 89.0939 37.0842 89.4825 36.6242C89.8711 36.1499 90.3605 35.7618 90.965 35.4743C91.5695 35.1869 92.2892 35.0431 93.1384 35.0431C93.9012 35.0431 94.5633 35.1725 95.1247 35.4312C95.686 35.6899 96.161 36.0493 96.5352 36.5092C96.9094 36.9692 97.1829 37.5154 97.37 38.1478C97.5571 38.7803 97.6435 39.4702 97.6435 40.232H89.756ZM93.052 35.7906C92.5195 35.7906 92.0733 35.9055 91.6847 36.1068C91.2961 36.3224 90.965 36.5955 90.7059 36.9405C90.4325 37.2854 90.2166 37.6591 90.0726 38.0904C89.9143 38.5216 89.8136 38.9528 89.7848 39.3984H96.2617C96.2473 38.9528 96.1754 38.5072 96.017 38.076C95.8731 37.6448 95.6716 37.2567 95.4125 36.9261C95.1534 36.5955 94.8368 36.3224 94.4338 36.1068C94.0452 35.9055 93.5846 35.7906 93.0808 35.7906H93.052Z" fill="white"/>
<path d="M110.584 43.4086C110.584 43.538 110.598 43.6674 110.641 43.8111C110.67 43.9548 110.728 44.0842 110.799 44.2136C110.871 44.3429 110.943 44.4435 111.03 44.5298C111.116 44.616 111.217 44.6735 111.346 44.6735V44.9035H108.381V44.6735C108.497 44.6735 108.597 44.6304 108.698 44.5441C108.784 44.4579 108.856 44.3429 108.914 44.2279C108.972 44.0986 109.015 43.9548 109.043 43.8111C109.072 43.6674 109.101 43.538 109.101 43.4086V37.1561L105.316 45.1047L101.689 37.6016V43.3799C101.689 43.5092 101.703 43.6386 101.746 43.7823C101.775 43.9261 101.818 44.0554 101.876 44.1848C101.933 44.3142 102.005 44.4148 102.092 44.501C102.178 44.5873 102.279 44.6448 102.408 44.6448V44.8747H100.206V44.6448C100.321 44.6448 100.422 44.5873 100.523 44.501C100.609 44.4148 100.681 44.2998 100.739 44.1848C100.796 44.0554 100.825 43.9261 100.854 43.7823C100.883 43.6386 100.911 43.5092 100.911 43.3799V36.6099C100.911 36.3368 100.883 36.0637 100.811 35.8049C100.739 35.5462 100.537 35.4168 100.206 35.4168V35.1869H102.221L105.69 42.4312L109.159 35.1869H111.318V35.4168C111.102 35.4168 110.915 35.5606 110.771 35.8337C110.641 36.1212 110.569 36.3799 110.569 36.6099V43.4086H110.584Z" fill="white"/>
<path d="M115.477 40.232C115.534 40.7639 115.664 41.2813 115.865 41.77C116.052 42.2587 116.326 42.6899 116.643 43.0493C116.974 43.423 117.362 43.7248 117.837 43.9405C118.298 44.1704 118.845 44.2854 119.464 44.2854C119.795 44.2854 120.154 44.2279 120.514 44.1273C120.874 44.0267 121.22 43.883 121.551 43.7105C121.882 43.5236 122.155 43.2936 122.4 43.0349C122.659 42.7618 122.832 42.46 122.904 42.1294H123.105V43.8686C123.019 43.8686 122.918 43.8973 122.803 43.9548C122.688 44.0123 122.558 44.0842 122.414 44.1848C122.112 44.3717 121.709 44.5729 121.191 44.7741C120.673 44.9754 119.996 45.0904 119.147 45.0904C118.47 45.0904 117.823 44.9897 117.218 44.7885C116.614 44.5873 116.067 44.2854 115.592 43.8542C115.131 43.4374 114.757 42.9055 114.469 42.2587C114.181 41.6119 114.052 40.8501 114.052 39.9446C114.052 39.3696 114.138 38.7947 114.34 38.2053C114.527 37.616 114.815 37.0842 115.203 36.6242C115.592 36.1499 116.081 35.7618 116.686 35.4743C117.29 35.1869 118.01 35.0431 118.859 35.0431C119.622 35.0431 120.284 35.1725 120.845 35.4312C121.407 35.6899 121.882 36.0493 122.256 36.5092C122.63 36.9692 122.904 37.5154 123.091 38.1478C123.278 38.7803 123.364 39.4702 123.364 40.232H115.477ZM118.773 35.7906C118.24 35.7906 117.794 35.9055 117.405 36.1068C117.017 36.3224 116.686 36.5955 116.427 36.9405C116.153 37.2854 115.937 37.6591 115.793 38.0904C115.635 38.5216 115.534 38.9528 115.505 39.3984H121.982C121.968 38.9528 121.896 38.5072 121.738 38.076C121.594 37.6448 121.392 37.2567 121.133 36.9261C120.874 36.5811 120.558 36.3224 120.154 36.1068C119.766 35.9055 119.305 35.7906 118.802 35.7906H118.773Z" fill="white"/>
<path d="M135.023 43.4086C135.023 43.538 135.037 43.6674 135.08 43.8111C135.124 43.9548 135.167 44.0842 135.239 44.2136C135.296 44.3429 135.383 44.4435 135.469 44.5298C135.57 44.616 135.656 44.6735 135.757 44.6735V44.9035H132.849V44.6735C132.965 44.6735 133.051 44.6304 133.137 44.5442C133.224 44.4579 133.296 44.3429 133.353 44.2279C133.411 44.0986 133.468 43.9548 133.483 43.8111C133.512 43.6674 133.54 43.538 133.54 43.4086V37.846L128.143 43.2361V43.3943C128.143 43.5236 128.157 43.653 128.2 43.7967C128.229 43.9405 128.272 44.0698 128.33 44.1992C128.388 44.3285 128.459 44.4292 128.546 44.5154C128.632 44.6016 128.733 44.6591 128.834 44.6591V44.8891H125.955V44.6591C126.056 44.6591 126.157 44.616 126.243 44.5298C126.329 44.4435 126.401 44.3285 126.459 44.2136C126.516 44.0842 126.56 43.9405 126.588 43.7967C126.617 43.653 126.646 43.5236 126.646 43.3943V36.653C126.646 36.5524 126.632 36.423 126.588 36.2793C126.56 36.1355 126.516 36.0062 126.459 35.8912C126.401 35.7618 126.329 35.6612 126.243 35.575C126.157 35.4887 126.056 35.4456 125.955 35.4456V35.2156H128.834V35.4456C128.719 35.4456 128.618 35.4887 128.531 35.575C128.445 35.6612 128.373 35.7618 128.33 35.8912C128.272 36.0205 128.244 36.1499 128.215 36.2793C128.186 36.4086 128.157 36.538 128.157 36.653V42.1725L133.555 36.7823V36.6386C133.555 36.538 133.54 36.4086 133.497 36.2649C133.468 36.1212 133.425 35.9918 133.368 35.8768C133.31 35.7474 133.238 35.6468 133.152 35.5606C133.065 35.4743 132.965 35.4312 132.864 35.4312V35.2156H135.771V35.4456C135.656 35.4456 135.541 35.4887 135.44 35.575C135.339 35.6612 135.267 35.7618 135.224 35.8912C135.167 36.0205 135.138 36.1499 135.109 36.2793C135.08 36.4086 135.066 36.538 135.066 36.653L135.023 43.4086ZM133.267 32.0678C133.267 32.3121 133.209 32.5852 133.08 32.8583C132.965 33.1458 132.792 33.4045 132.562 33.6489C132.346 33.8932 132.072 34.0801 131.756 34.2382C131.439 34.3963 131.093 34.4682 130.719 34.4682C130.374 34.4682 130.043 34.3963 129.726 34.2526C129.409 34.1088 129.15 33.9076 128.92 33.6776C128.704 33.4476 128.517 33.1889 128.373 32.9014C128.244 32.614 128.172 32.3265 128.172 32.0534H128.301C128.316 32.1396 128.359 32.269 128.459 32.4415C128.546 32.5996 128.675 32.7721 128.848 32.9302C129.035 33.0883 129.266 33.2464 129.568 33.3758C129.87 33.5051 130.23 33.5626 130.69 33.5626C131.151 33.5626 131.54 33.5051 131.842 33.3758C132.144 33.2464 132.389 33.1027 132.576 32.9302C132.763 32.7721 132.893 32.5852 132.965 32.4415C133.037 32.2834 133.094 32.154 133.123 32.0534L133.267 32.0678Z" fill="white"/>
<path d="M140.823 43.4086C140.823 43.538 140.837 43.6674 140.881 43.8111C140.909 43.9548 140.953 44.0842 141.01 44.2136C141.068 44.3429 141.14 44.4435 141.226 44.5298C141.312 44.616 141.413 44.6735 141.514 44.6735V44.9035H138.664V44.6735C138.765 44.6735 138.866 44.6304 138.952 44.5441C139.038 44.4579 139.11 44.3429 139.168 44.2279C139.225 44.0986 139.269 43.9548 139.297 43.8111C139.326 43.6674 139.355 43.538 139.355 43.4086V36.6386C139.355 36.538 139.341 36.4086 139.297 36.2649C139.269 36.1212 139.225 35.9918 139.168 35.8768C139.11 35.7474 139.038 35.6468 138.952 35.5606C138.866 35.4743 138.765 35.4312 138.664 35.4312V35.2156H141.514V35.4456C141.399 35.4456 141.298 35.4887 141.212 35.5749C141.125 35.6612 141.053 35.7618 141.01 35.8912C140.953 36.0205 140.924 36.1499 140.895 36.2793C140.866 36.4086 140.837 36.538 140.837 36.653V39.4559H146.019V36.653C146.019 36.5524 146.005 36.423 145.961 36.2793C145.933 36.1355 145.889 36.0062 145.846 35.8912C145.789 35.7618 145.731 35.6612 145.645 35.5749C145.558 35.4887 145.458 35.4456 145.343 35.4456V35.2156H148.192V35.4456C148.077 35.4456 147.976 35.4887 147.89 35.5749C147.804 35.6612 147.732 35.7618 147.674 35.8912C147.617 36.0205 147.573 36.1499 147.559 36.2793C147.545 36.4086 147.53 36.538 147.53 36.653V43.423C147.53 43.5524 147.545 43.6817 147.588 43.8255C147.617 43.9692 147.66 44.0986 147.717 44.2279C147.775 44.3573 147.847 44.4579 147.933 44.5441C148.02 44.6304 148.12 44.6879 148.221 44.6879V44.9179H145.371V44.6879C145.472 44.6879 145.573 44.6448 145.659 44.5585C145.746 44.4723 145.818 44.3573 145.875 44.2423C145.933 44.1129 145.976 43.9692 146.005 43.8255C146.033 43.6817 146.062 43.5524 146.062 43.423V40.2177H140.881V43.423L140.823 43.4086Z" fill="white"/>
<path d="M157.044 44.9035V43.7248L156.929 43.8398C156.555 44.2279 156.123 44.5154 155.619 44.7454C155.116 44.961 154.54 45.0616 153.835 45.0616C153.302 45.0616 152.856 45.0041 152.482 44.8747C152.107 44.7454 151.791 44.5729 151.546 44.3573C151.301 44.1273 151.129 43.8686 151.014 43.5811C150.898 43.2936 150.841 42.9774 150.841 42.6468C150.841 42.115 150.985 41.655 151.258 41.2669C151.532 40.8788 151.949 40.5195 152.467 40.2033C153 39.8871 153.647 39.614 154.396 39.3552C155.159 39.0965 156.037 38.8522 157.016 38.6078C156.987 38.0041 156.857 37.5298 156.656 37.1561C156.44 36.7823 156.195 36.4949 155.907 36.2936C155.619 36.0924 155.317 35.9487 155 35.8768C154.669 35.8193 154.41 35.7762 154.18 35.7762C153.791 35.7762 153.446 35.8337 153.129 35.9487C152.827 36.0637 152.568 36.2218 152.338 36.4086C152.122 36.6099 151.92 36.8255 151.776 37.0698C151.632 37.3142 151.517 37.5585 151.445 37.8172H151.244V36.0062C151.373 36.0062 151.532 35.9487 151.719 35.848C151.906 35.7474 152.122 35.6324 152.366 35.5031C152.626 35.3737 152.928 35.2587 153.273 35.1581C153.633 35.0575 154.051 35.0144 154.554 35.0144C155.389 35.0144 156.066 35.115 156.569 35.3306C157.087 35.5462 157.476 35.8193 157.764 36.193C158.052 36.538 158.225 36.9548 158.325 37.4148C158.412 37.8747 158.455 38.3347 158.455 38.8234V43.4086C158.455 43.7248 158.527 44.0123 158.671 44.271C158.829 44.5441 159.031 44.6735 159.29 44.6735V44.9035H157.001H157.044ZM157.044 42.7043V39.3984L156.828 39.4415C156.469 39.5277 156.022 39.6571 155.504 39.8152C154.986 39.9733 154.497 40.1602 154.022 40.4189C153.561 40.6632 153.158 40.9507 152.813 41.2957C152.482 41.6407 152.309 42.0287 152.309 42.4743C152.309 42.963 152.496 43.3799 152.899 43.6961C153.288 44.0123 153.806 44.1848 154.439 44.1848C154.943 44.1848 155.375 44.0698 155.763 43.8398C156.138 43.6099 156.497 43.3224 156.8 42.9774L157.044 42.7043Z" fill="white"/>
<path d="M169.336 43.4086C169.336 43.538 169.35 43.6674 169.393 43.8111C169.422 43.9548 169.48 44.0986 169.552 44.2279C169.624 44.3573 169.696 44.4723 169.768 44.5441C169.854 44.6304 169.955 44.6735 170.07 44.6735V44.9035H167.119V44.6735C167.22 44.6735 167.321 44.616 167.407 44.5298C167.494 44.4435 167.58 44.3285 167.652 44.2136C167.724 44.0842 167.767 43.9548 167.81 43.8111C167.839 43.6674 167.853 43.538 167.853 43.4086V40.1602C167.695 40.1889 167.494 40.2895 167.292 40.4333C167.076 40.577 166.86 40.7639 166.63 40.9938C166.414 41.2238 166.184 41.4538 165.968 41.7269C165.752 41.9856 165.565 42.2587 165.378 42.5175C165.219 42.7331 165.09 42.9055 164.989 43.0493C164.874 43.1786 164.802 43.3224 164.716 43.4374C164.557 43.6386 164.413 43.8255 164.255 44.0123C164.097 44.1848 163.938 44.3429 163.751 44.4867C163.564 44.6304 163.334 44.731 163.089 44.8029C162.83 44.8891 162.528 44.9179 162.182 44.9179H161.348V44.6879C161.535 44.6879 161.707 44.6304 161.909 44.5298C162.096 44.4292 162.283 44.2854 162.47 44.1273C162.657 43.9692 162.83 43.7823 162.974 43.5955C163.132 43.3943 163.262 43.2218 163.391 43.0493L164.097 42.0575C164.356 41.7125 164.615 41.3532 164.888 41.0082C165.162 40.6632 165.464 40.3901 165.824 40.1889C165.277 40.1745 164.788 40.1027 164.37 39.9589C163.938 39.8296 163.593 39.6427 163.305 39.3984C163.017 39.1684 162.801 38.9097 162.657 38.6078C162.514 38.306 162.442 37.9897 162.442 37.6448C162.442 37.2998 162.514 37.0123 162.657 36.7105C162.801 36.423 163.032 36.1643 163.348 35.9343C163.665 35.7043 164.068 35.5318 164.557 35.4025C165.061 35.2731 165.637 35.2012 166.342 35.2012H170.084V35.4312C169.969 35.4312 169.868 35.4743 169.782 35.5606C169.696 35.6468 169.624 35.7474 169.566 35.8768C169.494 36.0062 169.451 36.1355 169.422 36.2649C169.393 36.3943 169.365 36.5236 169.365 36.6386V43.4086H169.336ZM163.895 37.4867C163.895 37.7166 163.967 37.9466 164.111 38.1766C164.255 38.4066 164.457 38.6222 164.701 38.809C164.946 38.9959 165.234 39.154 165.55 39.269C165.867 39.384 166.213 39.4415 166.572 39.4415H167.839V35.9487H166.357C165.45 35.9487 164.802 36.0924 164.442 36.3799C164.068 36.6674 163.881 37.0411 163.895 37.4867Z" fill="white"/>
<path d="M186.378 43.1068C186.465 43.2649 186.594 43.4517 186.738 43.6386C186.897 43.8255 187.055 43.9836 187.242 44.1417C187.429 44.2998 187.631 44.4148 187.818 44.5298C188.005 44.6304 188.206 44.6879 188.379 44.6879V44.9179H187.515C186.81 44.9179 186.278 44.7741 185.903 44.4723C185.529 44.1848 185.227 43.8255 185.025 43.423L183.96 41.3676C183.802 41.0513 183.514 40.7639 183.125 40.5195C182.737 40.2752 182.319 40.1602 181.873 40.1602V43.4374C181.873 43.5667 181.888 43.6961 181.902 43.8255C181.916 43.9548 181.96 44.0986 182.017 44.2136C182.075 44.3429 182.147 44.4435 182.233 44.5298C182.319 44.616 182.42 44.6591 182.55 44.6591V44.8891H179.628V44.6591C179.729 44.6591 179.829 44.616 179.93 44.5298C180.031 44.4435 180.117 44.3429 180.16 44.2136C180.218 44.0842 180.276 43.9548 180.304 43.8255C180.333 43.6961 180.348 43.5524 180.348 43.4374V36.6386C180.348 36.5236 180.333 36.3942 180.304 36.2505C180.276 36.1068 180.232 35.9774 180.189 35.848C180.132 35.7187 180.074 35.6181 179.973 35.5318C179.887 35.4456 179.772 35.4025 179.628 35.4025V35.1725H182.535V35.4025C182.42 35.4025 182.334 35.4456 182.247 35.5318C182.161 35.6181 182.104 35.7187 182.032 35.848C181.974 35.9774 181.916 36.1068 181.902 36.2505C181.873 36.3942 181.844 36.5236 181.844 36.6386V39.0246C182.492 38.4353 183.14 37.8747 183.773 37.3142C184.406 36.768 185.054 36.193 185.702 35.6037C185.702 35.5893 185.702 35.5749 185.716 35.5462C185.731 35.5318 185.731 35.5175 185.731 35.4887C185.731 35.4168 185.687 35.3737 185.616 35.3737V35.1437H187.587V35.3737C187.515 35.3737 187.429 35.3881 187.314 35.4456C187.199 35.4887 187.098 35.5462 186.997 35.6181C186.882 35.6756 186.753 35.7474 186.637 35.848C185.961 36.4374 185.284 37.0411 184.594 37.6448C183.917 38.2485 183.241 38.8522 182.55 39.4415C183.197 39.4415 183.73 39.5708 184.147 39.8152C184.565 40.0595 184.925 40.462 185.198 40.9938L186.306 43.078L186.378 43.1068Z" fill="white"/>
<path d="M197.216 44.6735C197.331 44.6735 197.432 44.616 197.576 44.5298C197.706 44.4435 197.778 44.2998 197.778 44.1417C197.778 44.1129 197.763 44.0554 197.749 43.9405C197.734 43.8398 197.691 43.7248 197.634 43.5955L194.755 36.653L191.761 43.9405C191.502 44.5729 190.998 44.8891 190.235 44.8891H189.746V44.6591C189.962 44.6591 190.192 44.5442 190.437 44.3142C190.682 44.0842 190.883 43.8255 191.041 43.5236L194.136 36.1643C194.208 35.963 194.251 35.8049 194.251 35.6756C194.251 35.4887 194.136 35.4025 193.891 35.4025V35.1725H195.719L199.217 43.5092C199.318 43.7392 199.476 43.9979 199.677 44.2567C199.879 44.5298 200.066 44.6591 200.253 44.6591V44.8891H197.231L197.216 44.6735Z" fill="white"/>
<path d="M211.379 43.4086C211.379 43.538 211.393 43.6674 211.436 43.8111C211.48 43.9548 211.523 44.0842 211.58 44.2136C211.638 44.3429 211.724 44.4435 211.811 44.5298C211.911 44.616 211.998 44.6735 212.098 44.6735V44.9035H209.191V44.6735C209.306 44.6735 209.392 44.6304 209.479 44.5441C209.565 44.4579 209.637 44.3429 209.695 44.2279C209.752 44.0986 209.81 43.9548 209.824 43.8111C209.853 43.6674 209.867 43.538 209.867 43.4086V37.846L204.47 43.2361V43.3943C204.47 43.5236 204.484 43.653 204.528 43.7967C204.556 43.9405 204.6 44.0698 204.657 44.1992C204.715 44.3285 204.787 44.4292 204.873 44.5154C204.959 44.6016 205.06 44.6591 205.161 44.6591V44.8891H202.282V44.6591C202.383 44.6591 202.484 44.616 202.57 44.5298C202.656 44.4435 202.728 44.3285 202.786 44.2136C202.844 44.0842 202.887 43.9405 202.916 43.7967C202.944 43.653 202.973 43.5236 202.973 43.3943V36.653C202.973 36.5524 202.959 36.423 202.916 36.2793C202.887 36.1355 202.844 36.0062 202.786 35.8912C202.728 35.7618 202.656 35.6612 202.57 35.5749C202.484 35.4887 202.383 35.4456 202.282 35.4456V35.2156H205.161V35.4456C205.046 35.4456 204.945 35.4887 204.859 35.5749C204.772 35.6612 204.7 35.7618 204.657 35.8912C204.614 36.0205 204.571 36.1499 204.542 36.2793C204.513 36.4086 204.484 36.538 204.484 36.653V42.1725L209.882 36.7823V36.6386C209.882 36.538 209.867 36.4086 209.839 36.2649C209.81 36.1212 209.767 35.9918 209.709 35.8768C209.652 35.7474 209.58 35.6468 209.493 35.5606C209.407 35.4743 209.306 35.4312 209.205 35.4312V35.2156H212.113V35.4456C211.998 35.4456 211.883 35.4887 211.782 35.5749C211.681 35.6612 211.609 35.7618 211.566 35.8912C211.523 36.0205 211.48 36.1499 211.451 36.2793C211.422 36.4086 211.408 36.538 211.408 36.653L211.379 43.4086Z" fill="white"/>
<path d="M217.194 43.4086C217.194 43.538 217.209 43.6674 217.252 43.8111C217.281 43.9548 217.324 44.0842 217.381 44.2136C217.439 44.3429 217.511 44.4435 217.597 44.5298C217.684 44.616 217.784 44.6735 217.885 44.6735V44.9035H215.035V44.6735C215.136 44.6735 215.237 44.6304 215.323 44.5441C215.409 44.4579 215.481 44.3429 215.539 44.2279C215.597 44.0986 215.64 43.9548 215.668 43.8111C215.697 43.6674 215.726 43.538 215.726 43.4086V36.6386C215.726 36.538 215.712 36.4086 215.668 36.2649C215.64 36.1212 215.597 35.9918 215.539 35.8768C215.481 35.7474 215.409 35.6468 215.323 35.5606C215.237 35.4743 215.136 35.4312 215.035 35.4312V35.2156H217.885V35.4456C217.77 35.4456 217.669 35.4887 217.583 35.5749C217.496 35.6612 217.424 35.7618 217.381 35.8912C217.338 36.0205 217.295 36.1499 217.266 36.2793C217.237 36.4086 217.209 36.538 217.209 36.653V39.4559H222.39V36.653C222.39 36.5524 222.376 36.423 222.347 36.2793C222.318 36.1355 222.275 36.0062 222.232 35.8912C222.174 35.7618 222.117 35.6612 222.03 35.5749C221.944 35.4887 221.843 35.4456 221.728 35.4456V35.2156H224.578V35.4456C224.463 35.4456 224.362 35.4887 224.276 35.5749C224.189 35.6612 224.132 35.7618 224.06 35.8912C224.002 36.0205 223.959 36.1499 223.945 36.2793C223.93 36.4086 223.916 36.538 223.916 36.653V43.423C223.916 43.5524 223.93 43.6817 223.973 43.8255C224.002 43.9692 224.045 44.0986 224.103 44.2279C224.16 44.3573 224.232 44.4579 224.319 44.5441C224.405 44.6304 224.506 44.6879 224.607 44.6879V44.9179H221.757V44.6879C221.858 44.6879 221.958 44.6448 222.045 44.5585C222.131 44.4723 222.203 44.3573 222.261 44.2423C222.318 44.1129 222.361 43.9692 222.39 43.8255C222.419 43.6817 222.448 43.5524 222.448 43.423V40.2177H217.266V43.423L217.194 43.4086Z" fill="white"/>
<path d="M236.525 43.4086C236.525 43.538 236.539 43.6674 236.582 43.8111C236.626 43.9548 236.669 44.0842 236.741 44.2136C236.798 44.3429 236.885 44.4435 236.971 44.5298C237.072 44.616 237.158 44.6735 237.259 44.6735V44.9035H234.351V44.6735C234.467 44.6735 234.553 44.6304 234.639 44.5441C234.726 44.4579 234.798 44.3429 234.855 44.2279C234.913 44.0986 234.97 43.9548 234.985 43.8111C235.013 43.6674 235.042 43.538 235.042 43.4086V37.846L229.645 43.2361V43.3943C229.645 43.5236 229.659 43.653 229.702 43.7967C229.731 43.9405 229.774 44.0698 229.832 44.1992C229.889 44.3285 229.961 44.4292 230.048 44.5154C230.134 44.6016 230.235 44.6591 230.336 44.6591V44.8891H227.457V44.6591C227.558 44.6591 227.659 44.616 227.745 44.5298C227.831 44.4435 227.903 44.3285 227.961 44.2136C228.018 44.0842 228.062 43.9405 228.09 43.7967C228.119 43.653 228.148 43.5236 228.148 43.3943V36.653C228.148 36.5524 228.134 36.423 228.09 36.2793C228.062 36.1355 228.018 36.0062 227.961 35.8912C227.903 35.7618 227.831 35.6612 227.745 35.5749C227.659 35.4887 227.558 35.4456 227.457 35.4456V35.2156H230.336V35.4456C230.221 35.4456 230.12 35.4887 230.033 35.5749C229.947 35.6612 229.875 35.7618 229.832 35.8912C229.774 36.0205 229.746 36.1499 229.717 36.2793C229.688 36.4086 229.659 36.538 229.659 36.653V42.1725L235.057 36.7823V36.6386C235.057 36.538 235.042 36.4086 234.999 36.2649C234.97 36.1212 234.927 35.9918 234.87 35.8768C234.812 35.7474 234.74 35.6468 234.654 35.5606C234.567 35.4743 234.467 35.4312 234.366 35.4312V35.2156H237.273V35.4456C237.158 35.4456 237.043 35.4887 236.942 35.5749C236.841 35.6612 236.769 35.7618 236.726 35.8912C236.669 36.0205 236.64 36.1499 236.611 36.2793C236.582 36.4086 236.568 36.538 236.568 36.653L236.525 43.4086Z" fill="white"/>
<path d="M246.988 43.1068C247.074 43.2649 247.204 43.4517 247.348 43.6386C247.506 43.8255 247.679 43.9836 247.851 44.1417C248.038 44.2998 248.24 44.4148 248.427 44.5298C248.614 44.6304 248.816 44.6879 248.988 44.6879V44.9179H248.125C247.42 44.9179 246.887 44.7741 246.513 44.4723C246.139 44.1848 245.836 43.8255 245.635 43.423L244.57 41.3676C244.411 41.0513 244.123 40.7639 243.735 40.5195C243.346 40.2752 242.929 40.1602 242.483 40.1602V43.4374C242.483 43.5667 242.497 43.6961 242.511 43.8255C242.526 43.9548 242.569 44.0986 242.627 44.2136C242.684 44.3429 242.756 44.4435 242.842 44.5298C242.929 44.616 243.03 44.6591 243.159 44.6591V44.8891H240.237V44.6591C240.338 44.6591 240.439 44.616 240.54 44.5298C240.64 44.4435 240.727 44.3429 240.77 44.2136C240.827 44.0842 240.885 43.9548 240.914 43.8255C240.943 43.6961 240.957 43.5524 240.957 43.4374V36.6386C240.957 36.5236 240.943 36.3942 240.914 36.2505C240.885 36.1068 240.842 35.9774 240.799 35.848C240.741 35.7187 240.683 35.6181 240.583 35.5318C240.496 35.4456 240.381 35.4025 240.237 35.4025V35.1725H243.145V35.4025C243.03 35.4025 242.943 35.4456 242.857 35.5318C242.771 35.6181 242.699 35.7187 242.641 35.848C242.583 35.9774 242.526 36.1068 242.511 36.2505C242.483 36.3942 242.454 36.5236 242.454 36.6386V39.0246C243.102 38.4353 243.749 37.8747 244.383 37.3142C245.016 36.768 245.664 36.193 246.311 35.6037C246.311 35.5893 246.311 35.5749 246.326 35.5462C246.34 35.5318 246.34 35.5175 246.34 35.4887C246.34 35.4168 246.297 35.3737 246.225 35.3737V35.1437H248.197V35.3737C248.125 35.3737 248.038 35.3881 247.923 35.4456C247.808 35.4887 247.707 35.5462 247.607 35.6181C247.491 35.6756 247.362 35.7474 247.247 35.848C246.57 36.4374 245.894 37.0411 245.203 37.6448C244.526 38.2485 243.85 38.8522 243.159 39.4415C243.807 39.4415 244.339 39.5708 244.757 39.8152C245.174 40.0595 245.52 40.462 245.807 40.9938L246.916 43.078L246.988 43.1068Z" fill="white"/>
<path d="M257.005 44.9035V43.7248L256.89 43.8398C256.516 44.2279 256.084 44.5154 255.58 44.7454C255.077 44.961 254.501 45.0616 253.796 45.0616C253.263 45.0616 252.817 45.0041 252.443 44.8747C252.068 44.7454 251.752 44.5729 251.507 44.3573C251.262 44.1273 251.09 43.8686 250.974 43.5811C250.859 43.2936 250.802 42.9774 250.802 42.6468C250.802 42.115 250.946 41.655 251.219 41.2669C251.493 40.8788 251.91 40.5195 252.428 40.2033C252.961 39.8871 253.608 39.614 254.357 39.3552C255.12 39.0965 255.998 38.8522 256.976 38.6078C256.948 38.0041 256.818 37.5298 256.617 37.1561C256.401 36.7823 256.156 36.4949 255.868 36.2936C255.58 36.0924 255.278 35.9487 254.961 35.8768C254.63 35.8193 254.371 35.7762 254.141 35.7762C253.752 35.7762 253.407 35.8337 253.09 35.9487C252.788 36.0637 252.529 36.2218 252.299 36.4086C252.083 36.6099 251.881 36.8255 251.737 37.0698C251.593 37.3142 251.478 37.5585 251.406 37.8172H251.205V36.0062C251.334 36.0062 251.493 35.9487 251.68 35.848C251.867 35.7474 252.068 35.6324 252.327 35.5031C252.587 35.3737 252.889 35.2587 253.234 35.1581C253.594 35.0575 254.011 35.0144 254.515 35.0144C255.35 35.0144 256.026 35.115 256.53 35.3306C257.048 35.5462 257.437 35.8193 257.725 36.193C258.013 36.538 258.185 36.9548 258.286 37.4148C258.373 37.8747 258.416 38.3347 258.416 38.8234V43.4086C258.416 43.7248 258.488 44.0123 258.632 44.271C258.776 44.5441 258.991 44.6735 259.251 44.6735V44.9035H256.962H257.005ZM257.005 42.7043V39.3984L256.789 39.4415C256.43 39.5277 255.983 39.6571 255.465 39.8152C254.947 39.9733 254.458 40.1602 253.983 40.4189C253.522 40.6632 253.119 40.9507 252.774 41.2957C252.443 41.6407 252.27 42.0287 252.27 42.4743C252.27 42.963 252.457 43.3799 252.86 43.6961C253.249 44.0123 253.767 44.1848 254.4 44.1848C254.904 44.1848 255.336 44.0698 255.724 43.8398C256.098 43.6099 256.458 43.3224 256.761 42.9774L257.005 42.7043Z" fill="white"/>
<path d="M78.3718 68.5051H78.4438C78.5157 68.5051 78.5877 68.4764 78.6453 68.4333C78.7029 68.3758 78.7604 68.3039 78.7892 68.232C78.8324 68.1458 78.8612 68.0595 78.8756 67.9733C78.89 67.8727 78.9044 67.7864 78.9044 67.7146V59.8665C78.9044 59.7947 78.89 59.7228 78.8612 59.6365C78.8468 59.5503 78.818 59.4641 78.7748 59.3922C78.7316 59.3203 78.6885 59.2485 78.6309 59.2053C78.5733 59.1478 78.5014 59.1191 78.4438 59.1191H78.3718V58.9754H85.9139V59.1191H85.7987C85.7268 59.1191 85.6692 59.1478 85.626 59.2053C85.5828 59.2485 85.5396 59.3203 85.4965 59.4066C85.4677 59.4784 85.4389 59.5647 85.4245 59.6509C85.4101 59.7372 85.3957 59.809 85.3957 59.8665V67.7146C85.3957 67.7864 85.3957 67.8727 85.4101 67.9589C85.4245 68.0452 85.4533 68.1314 85.4821 68.2177C85.5253 68.2895 85.5684 68.3614 85.6116 68.4189C85.6692 68.4764 85.7412 68.5051 85.7987 68.5051H85.9139V68.6489H83.8556V68.5051H83.9852C84.0571 68.5051 84.1147 68.4764 84.1579 68.4189C84.2155 68.3614 84.2587 68.2895 84.2874 68.2177C84.3306 68.1458 84.345 68.0595 84.3594 67.9733C84.3738 67.8727 84.3882 67.7864 84.3882 67.7146V59.4784H79.8975V67.7146C79.8975 67.7864 79.9119 67.8871 79.9263 67.9733C79.9407 68.0595 79.9695 68.1458 79.9983 68.2177C80.0414 68.2895 80.0846 68.3614 80.1422 68.4189C80.1998 68.4764 80.2717 68.5051 80.3437 68.5051H80.4157V68.6489H78.3574V68.5051H78.3718ZM87.7562 58.9466H89.8432C90.9371 58.9466 91.7575 59.1622 92.3189 59.5791C92.8946 59.9959 93.1681 60.5852 93.1681 61.347C93.1681 61.7639 93.0673 62.1232 92.8802 62.4538C92.6787 62.7844 92.4196 63.0575 92.103 63.2731C91.7863 63.4887 91.4265 63.6612 91.0235 63.7762C90.6349 63.8912 90.2318 63.9487 89.8432 63.9487H89.2819V67.7002C89.2819 67.7721 89.2963 67.8727 89.3107 67.9589C89.3251 68.0452 89.3539 68.1314 89.397 68.2033C89.4402 68.2752 89.4978 68.347 89.541 68.4045C89.5985 68.462 89.6705 68.4908 89.7425 68.4908H89.8144V68.6345H87.7418V68.4908H87.8138C87.8857 68.4908 87.9433 68.462 88.0009 68.4045C88.0585 68.347 88.116 68.2752 88.1448 68.2033C88.188 68.1314 88.2168 68.0452 88.2312 67.9589C88.2456 67.8583 88.26 67.7721 88.26 67.7002V59.8522C88.26 59.7084 88.2168 59.5647 88.1448 59.3778C88.0729 59.2053 87.9577 59.1047 87.7994 59.0903H87.7274V58.9466H87.7562ZM89.2963 59.4641V63.4312H89.7425C90.1311 63.4312 90.4909 63.3737 90.7932 63.2731C91.1098 63.1581 91.3689 63.0287 91.5704 62.8419C91.7719 62.6694 91.9302 62.4682 92.0454 62.2382C92.1605 62.0082 92.2037 61.7782 92.2037 61.5482C92.2037 61.2608 92.1605 61.002 92.0598 60.7577C91.9734 60.499 91.8151 60.2834 91.5992 60.0965C91.3977 59.8953 91.1242 59.7515 90.7788 59.6365C90.4333 59.5216 90.0159 59.4641 89.5122 59.4641H89.2963ZM94.8809 68.5051H94.9528C95.0248 68.5051 95.0968 68.4764 95.1543 68.4333C95.2119 68.3758 95.2551 68.3039 95.2983 68.232C95.3414 68.1602 95.3846 68.0739 95.399 67.9877C95.4278 67.9014 95.4422 67.8152 95.4422 67.7433V59.8665C95.4422 59.7947 95.4278 59.7228 95.399 59.6365C95.3846 59.5503 95.3414 59.4641 95.2983 59.3922C95.2551 59.3203 95.2119 59.2485 95.1543 59.2053C95.0968 59.1478 95.0248 59.1191 94.9528 59.1191H94.8809V58.9754H100.552V60.3409H100.408C100.393 60.1109 100.293 59.924 100.149 59.7515C99.9905 59.5791 99.7458 59.4928 99.4147 59.4928H96.4353V63.2156H98.8822C99.1125 63.2156 99.2996 63.1437 99.4435 63.0144C99.6018 62.8706 99.6738 62.7125 99.6738 62.5257H99.8177V64.3655H99.6738C99.6738 64.193 99.6018 64.0349 99.4579 63.9055C99.314 63.7762 99.1125 63.7187 98.8822 63.7187H96.4353V68.1745H99.6594C99.8465 68.1745 100.005 68.1314 100.149 68.0452C100.293 67.9589 100.393 67.8583 100.494 67.7289C100.595 67.5996 100.667 67.4702 100.696 67.3265C100.739 67.1827 100.768 67.0534 100.768 66.9528H100.912V68.6776H94.8665V68.5051H94.8809ZM102.48 68.5051H102.552C102.624 68.5051 102.682 68.4764 102.74 68.4189C102.797 68.3614 102.855 68.2895 102.883 68.2177C102.927 68.1458 102.97 68.0595 102.984 67.9733C102.999 67.8727 103.013 67.7864 103.013 67.7146V59.8809C103.013 59.809 102.999 59.7372 102.984 59.6509C102.97 59.5647 102.927 59.4784 102.883 59.4066C102.84 59.3203 102.797 59.2485 102.725 59.2053C102.668 59.1478 102.596 59.1191 102.524 59.1191H102.452V58.9754H104.87C105.777 58.9754 106.496 59.1766 107 59.5791C107.518 59.9815 107.777 60.5133 107.777 61.1889C107.777 61.4764 107.734 61.7351 107.633 61.9507C107.533 62.1807 107.403 62.3819 107.245 62.5544C107.101 62.7269 106.942 62.885 106.755 63.0144C106.583 63.1294 106.41 63.23 106.252 63.3018C106.669 63.3737 107.014 63.5174 107.288 63.7043C107.561 63.8912 107.777 64.1068 107.95 64.3511C108.123 64.5811 108.252 64.8398 108.324 65.1129C108.396 65.386 108.425 65.6591 108.425 65.9179C108.425 66.4353 108.339 66.8665 108.151 67.2115C107.964 67.5565 107.72 67.8439 107.403 68.0595C107.101 68.2751 106.741 68.4333 106.338 68.5339C105.949 68.6345 105.532 68.6776 105.114 68.6776H102.48V68.5051ZM107.432 65.9754C107.36 65.2136 107.101 64.6386 106.669 64.2218C106.237 63.8049 105.633 63.6037 104.841 63.6037H104.021V68.1602H104.87C105.661 68.1602 106.295 67.9877 106.741 67.6283C107.201 67.269 107.432 66.7659 107.432 66.1335V65.9754ZM106.827 61.2895C106.798 60.7146 106.597 60.269 106.223 59.9384C105.863 59.6078 105.374 59.4353 104.755 59.4353H104.021V63.1437H104.783C105.201 63.1437 105.532 63.0862 105.791 62.9856C106.05 62.8706 106.266 62.7413 106.424 62.5688C106.583 62.3963 106.683 62.1951 106.755 61.9938C106.813 61.7926 106.842 61.5914 106.842 61.3901V61.2895H106.827ZM110.123 68.5051H110.195C110.267 68.5051 110.339 68.4764 110.397 68.4333C110.454 68.3758 110.512 68.3039 110.541 68.232C110.584 68.1602 110.627 68.0739 110.641 67.9877C110.67 67.9014 110.685 67.8152 110.685 67.7433V59.8665C110.685 59.7947 110.67 59.7228 110.641 59.6365C110.627 59.5503 110.584 59.4641 110.541 59.3922C110.498 59.3203 110.454 59.2485 110.397 59.2053C110.339 59.1478 110.267 59.1191 110.195 59.1191H110.123V58.9754H115.794V60.3409H115.65C115.636 60.1109 115.535 59.924 115.391 59.7515C115.233 59.5791 114.988 59.4928 114.657 59.4928H111.692V63.2156H114.139C114.369 63.2156 114.556 63.1437 114.7 63.0144C114.859 62.8706 114.931 62.7125 114.931 62.5257H115.075V64.3655H114.931C114.931 64.193 114.859 64.0349 114.715 63.9055C114.571 63.7762 114.369 63.7187 114.139 63.7187H111.692V68.1745H114.916C115.103 68.1745 115.262 68.1314 115.406 68.0452C115.55 67.9589 115.65 67.8583 115.751 67.7289C115.852 67.5996 115.924 67.4702 115.953 67.3265C115.996 67.1827 116.025 67.0534 116.025 66.9528H116.168V68.6776H110.123V68.5051ZM123.61 68.5051H123.682C123.754 68.5051 123.811 68.4764 123.869 68.4333C123.926 68.3758 123.984 68.3039 124.013 68.232C124.056 68.1458 124.099 68.0595 124.114 67.9733C124.128 67.8727 124.142 67.7864 124.142 67.7146V63.7043H119.421V67.7146C119.421 67.7864 119.436 67.8871 119.45 67.9733C119.464 68.0595 119.493 68.1458 119.536 68.2177C119.58 68.2895 119.623 68.3614 119.666 68.4189C119.724 68.4764 119.796 68.5051 119.868 68.5051H119.939V68.6489H117.881V68.5051H117.953C118.025 68.5051 118.083 68.4764 118.14 68.4333C118.198 68.3758 118.255 68.3039 118.284 68.232C118.327 68.1458 118.371 68.0595 118.385 67.9733C118.399 67.8727 118.414 67.7864 118.414 67.7146V59.8665C118.414 59.7947 118.399 59.7228 118.385 59.6365C118.371 59.5503 118.342 59.4641 118.299 59.3922C118.255 59.3203 118.212 59.2485 118.155 59.2053C118.097 59.1478 118.025 59.1191 117.953 59.1191H117.881V58.9754H119.939V59.1191H119.896C119.824 59.1191 119.752 59.1478 119.695 59.2053C119.637 59.2485 119.58 59.3203 119.551 59.3922C119.522 59.4641 119.493 59.5503 119.479 59.6365C119.464 59.7228 119.45 59.809 119.45 59.8665V63.1869H124.171V59.8665C124.171 59.7947 124.157 59.7228 124.142 59.6365C124.128 59.5503 124.099 59.4641 124.056 59.3922C124.013 59.3203 123.97 59.2485 123.912 59.2053C123.854 59.1478 123.782 59.1191 123.71 59.1191H123.639V58.9754H125.697V59.1191H125.625C125.553 59.1191 125.481 59.1478 125.423 59.2053C125.366 59.2485 125.308 59.3203 125.279 59.3922C125.251 59.4641 125.222 59.5503 125.207 59.6365C125.193 59.7228 125.179 59.809 125.179 59.8665V67.7146C125.179 67.7864 125.193 67.8871 125.207 67.9733C125.236 68.0595 125.265 68.1458 125.308 68.2177C125.351 68.2895 125.395 68.3614 125.438 68.4189C125.495 68.4764 125.567 68.5051 125.625 68.5051H125.697V68.6489H123.639V68.5051H123.61ZM131.065 68.5051H131.137V68.6489H129.05V68.5051H129.122C129.194 68.5051 129.266 68.4764 129.324 68.4189C129.381 68.3614 129.439 68.2895 129.468 68.2177C129.511 68.1458 129.554 68.0595 129.569 67.9733C129.583 67.8727 129.597 67.7864 129.597 67.7146V59.5072H127.885C127.726 59.5072 127.597 59.5359 127.467 59.6078C127.352 59.6797 127.251 59.7659 127.179 59.8665C127.107 59.9671 127.035 60.0821 127.007 60.2115C126.963 60.3265 126.949 60.4415 126.949 60.5708H126.805V58.961H133.426V60.5708H133.282C133.282 60.4558 133.268 60.3409 133.224 60.2115C133.181 60.0821 133.124 59.9671 133.052 59.8665C132.98 59.7515 132.879 59.6653 132.764 59.6078C132.649 59.5359 132.505 59.5072 132.346 59.5072H130.605V67.7146C130.605 67.7864 130.619 67.8871 130.634 67.9733C130.648 68.0595 130.677 68.1458 130.72 68.2177C130.763 68.2895 130.821 68.3614 130.864 68.4189C130.922 68.4764 130.979 68.5051 131.065 68.5051ZM140.536 68.5051H140.608C140.68 68.5051 140.752 68.4764 140.81 68.4333C140.867 68.3758 140.925 68.3039 140.954 68.232C140.997 68.1458 141.04 68.0595 141.054 67.9733C141.069 67.8727 141.083 67.7864 141.083 67.7146V60.9733L136.189 67.5852V67.7146C136.189 67.7864 136.204 67.8871 136.218 67.9733C136.247 68.0595 136.276 68.1458 136.319 68.2177C136.362 68.2895 136.405 68.3614 136.463 68.4189C136.52 68.4764 136.592 68.5051 136.664 68.5051H136.736V68.6489H134.649V68.5051H134.721C134.793 68.5051 134.865 68.4764 134.923 68.4333C134.98 68.3758 135.038 68.3039 135.067 68.232C135.11 68.1458 135.153 68.0595 135.168 67.9733C135.182 67.8727 135.196 67.7864 135.196 67.7146V59.8665C135.196 59.7947 135.182 59.7228 135.168 59.6365C135.153 59.5503 135.11 59.4641 135.067 59.3922C135.024 59.3203 134.98 59.2485 134.923 59.2053C134.865 59.1478 134.793 59.1191 134.721 59.1191H134.649V58.9754H136.736V59.1191H136.621C136.549 59.1335 136.492 59.1622 136.434 59.2197C136.391 59.2772 136.348 59.3491 136.305 59.4209C136.261 59.4928 136.233 59.5647 136.218 59.6509C136.204 59.7228 136.189 59.809 136.189 59.8665V66.6653L141.083 60.0534V59.8665C141.083 59.7947 141.069 59.7228 141.054 59.6365C141.04 59.5503 140.997 59.4641 140.954 59.3922C140.91 59.3203 140.867 59.2485 140.81 59.2053C140.752 59.1478 140.68 59.1191 140.608 59.1191H140.536V58.9754H142.623V59.1191H142.551C142.479 59.1191 142.407 59.1478 142.35 59.2053C142.292 59.2485 142.249 59.3203 142.206 59.3922C142.163 59.4641 142.134 59.5503 142.105 59.6365C142.091 59.7228 142.076 59.809 142.076 59.8665V67.7146C142.076 67.7864 142.091 67.8727 142.105 67.9589C142.134 68.0452 142.163 68.1314 142.206 68.2177C142.249 68.2895 142.292 68.3614 142.35 68.4189C142.407 68.4764 142.479 68.5051 142.551 68.5051H142.623V68.6489H140.536V68.5051ZM144.466 68.5051H144.537C144.609 68.5051 144.667 68.4764 144.725 68.4189C144.782 68.3614 144.84 68.2895 144.869 68.2177C144.912 68.1458 144.955 68.0595 144.969 67.9733C144.984 67.8727 144.998 67.7864 144.998 67.7146V59.8809C144.998 59.809 144.984 59.7372 144.969 59.6509C144.955 59.5647 144.912 59.4784 144.869 59.4066C144.825 59.3203 144.782 59.2485 144.71 59.2053C144.653 59.1478 144.581 59.1191 144.509 59.1191H144.437V58.9754H146.855C147.762 58.9754 148.481 59.1766 148.985 59.5791C149.503 59.9815 149.762 60.5133 149.762 61.1889C149.762 61.4764 149.719 61.7351 149.618 61.9507C149.518 62.1807 149.388 62.3819 149.23 62.5544C149.086 62.7269 148.927 62.885 148.74 63.0144C148.568 63.1294 148.395 63.23 148.237 63.3018C148.654 63.3737 148.999 63.5174 149.273 63.7043C149.546 63.8912 149.777 64.1068 149.935 64.3511C150.108 64.5811 150.237 64.8398 150.309 65.1129C150.381 65.386 150.41 65.6591 150.41 65.9179C150.41 66.4353 150.324 66.8665 150.136 67.2115C149.949 67.5565 149.705 67.8439 149.388 68.0595C149.086 68.2751 148.726 68.4333 148.323 68.5339C147.934 68.6345 147.517 68.6776 147.099 68.6776H144.466V68.5051ZM149.417 65.9754C149.345 65.2136 149.086 64.6386 148.654 64.2218C148.222 63.8049 147.618 63.6037 146.826 63.6037H146.006V68.1602H146.855C147.646 68.1602 148.28 67.9877 148.726 67.6283C149.187 67.269 149.417 66.7659 149.417 66.1335V65.9754ZM148.812 61.2895C148.784 60.7146 148.582 60.269 148.208 59.9384C147.848 59.6078 147.359 59.4353 146.74 59.4353H146.006V63.1437H146.768C147.186 63.1437 147.517 63.0862 147.776 62.9856C148.035 62.8706 148.251 62.7413 148.409 62.5688C148.568 62.3963 148.668 62.1951 148.74 61.9938C148.798 61.7926 148.827 61.5914 148.827 61.3901V61.2895H148.812ZM158.01 68.5051H158.082C158.154 68.5051 158.211 68.4764 158.269 68.4333C158.326 68.3758 158.369 68.3039 158.413 68.232C158.456 68.1458 158.499 68.0595 158.513 67.9733C158.528 67.8727 158.542 67.7864 158.542 67.7146V63.7043H153.821V67.7146C153.821 67.7864 153.836 67.8871 153.85 67.9733C153.864 68.0595 153.893 68.1458 153.936 68.2177C153.979 68.2895 154.023 68.3614 154.066 68.4189C154.123 68.4764 154.195 68.5051 154.267 68.5051H154.339V68.6489H152.281V68.5051H152.353C152.425 68.5051 152.483 68.4764 152.54 68.4333C152.598 68.3758 152.641 68.3039 152.684 68.232C152.727 68.1458 152.77 68.0595 152.785 67.9733C152.799 67.8727 152.814 67.7864 152.814 67.7146V59.8665C152.814 59.7947 152.799 59.7228 152.785 59.6365C152.77 59.5503 152.742 59.4641 152.698 59.3922C152.655 59.3203 152.612 59.2485 152.555 59.2053C152.497 59.1478 152.425 59.1191 152.353 59.1191H152.281V58.9754H154.339V59.1191H154.267C154.195 59.1191 154.123 59.1478 154.066 59.2053C154.008 59.2485 153.965 59.3203 153.922 59.3922C153.893 59.4641 153.864 59.5503 153.85 59.6365C153.836 59.7228 153.821 59.809 153.821 59.8665V63.1869H158.542V59.8665C158.542 59.7947 158.528 59.7228 158.513 59.6365C158.499 59.5503 158.47 59.4641 158.427 59.3922C158.384 59.3203 158.341 59.2485 158.283 59.2053C158.225 59.1478 158.154 59.1191 158.082 59.1191H158.01V58.9754H160.068V59.1191H159.996C159.924 59.1191 159.852 59.1478 159.794 59.2053C159.737 59.2485 159.694 59.3203 159.65 59.3922C159.622 59.4641 159.593 59.5503 159.578 59.6365C159.564 59.7228 159.55 59.809 159.55 59.8665V67.7146C159.55 67.7864 159.564 67.8871 159.578 67.9733C159.607 68.0595 159.636 68.1458 159.679 68.2177C159.722 68.2895 159.766 68.3614 159.809 68.4189C159.866 68.4764 159.924 68.5051 159.996 68.5051H160.068V68.6489H158.01V68.5051ZM167.365 68.5051H167.437C167.667 68.5051 167.797 68.3901 167.797 68.1745C167.797 68.1027 167.783 68.0164 167.754 67.9302L166.43 64.3511H163.853L162.572 67.8727C162.543 67.9446 162.529 68.0308 162.529 68.0883C162.529 68.2177 162.558 68.3183 162.63 68.4045C162.702 68.4764 162.774 68.5051 162.846 68.5051H162.918V68.6489H161.277V68.5051H161.349C161.478 68.5051 161.593 68.4333 161.723 68.2895C161.853 68.1314 161.953 67.9446 162.025 67.7433L165.408 58.7598L168.704 67.6571C168.776 67.8583 168.862 68.0452 168.977 68.232C169.107 68.4189 169.265 68.5051 169.467 68.5051H169.539V68.6489H167.351V68.5051H167.365ZM163.983 63.8624H166.257L165.12 60.7864L163.983 63.8624ZM175.627 68.5051H175.699C175.771 68.5051 175.828 68.4764 175.886 68.4189C175.958 68.3614 176.001 68.2895 176.044 68.2177C176.087 68.1458 176.116 68.0595 176.131 67.9733C176.159 67.8727 176.174 67.7864 176.174 67.7146V63.7187C175.958 63.7331 175.756 63.8049 175.555 63.9199C175.368 64.0349 175.181 64.193 175.008 64.3942C174.835 64.5955 174.677 64.8111 174.519 65.0554C174.375 65.2998 174.231 65.5585 174.087 65.8172C173.986 66.0185 173.857 66.2197 173.727 66.4497C173.597 66.6653 173.468 66.8809 173.338 67.1109C173.108 67.5421 172.791 67.9158 172.403 68.2177C172.014 68.5051 171.582 68.6632 171.079 68.6632H170.301V68.5195C170.532 68.5195 170.733 68.4764 170.935 68.3758C171.136 68.2751 171.323 68.1602 171.496 68.0021C171.669 67.8583 171.813 67.6858 171.942 67.5133C172.086 67.3409 172.187 67.1684 172.288 67.0103L173.454 64.9261C173.597 64.6961 173.741 64.4661 173.9 64.2505C174.072 64.0205 174.317 63.848 174.648 63.7043C174.231 63.6756 173.871 63.5893 173.54 63.4743C173.209 63.345 172.935 63.1869 172.719 62.9713C172.489 62.77 172.316 62.54 172.201 62.2813C172.086 62.0226 172.029 61.7351 172.029 61.462C172.029 61.1027 172.115 60.7721 172.273 60.4558C172.446 60.1396 172.676 59.8809 172.979 59.6653C173.281 59.4353 173.655 59.2628 174.087 59.1478C174.533 59.0185 175.022 58.961 175.555 58.961H177.671V59.1047H177.599C177.527 59.1047 177.469 59.1335 177.412 59.191C177.354 59.2341 177.311 59.306 177.268 59.3778C177.225 59.4497 177.196 59.5359 177.181 59.6222C177.167 59.7084 177.153 59.7947 177.153 59.8522V67.7002C177.153 67.7721 177.167 67.8727 177.181 67.9589C177.196 68.0452 177.225 68.1314 177.268 68.2033C177.311 68.2752 177.354 68.347 177.412 68.4045C177.469 68.462 177.541 68.4908 177.599 68.4908H177.671V68.6345H175.598V68.5051H175.627ZM172.979 61.2177C172.979 61.5051 173.036 61.7639 173.151 62.0082C173.266 62.2382 173.425 62.4538 173.641 62.6263C173.842 62.7988 174.087 62.9425 174.36 63.0431C174.634 63.1437 174.936 63.1869 175.253 63.1869H176.188V59.4353H175.972C175.022 59.4353 174.288 59.5934 173.756 59.9096C173.238 60.2259 172.979 60.6715 172.979 61.2177ZM191.747 68.5051H191.819C191.891 68.5051 191.949 68.4764 192.006 68.4189C192.064 68.3614 192.107 68.2895 192.15 68.2177C192.193 68.1458 192.237 68.0595 192.251 67.9733C192.265 67.8727 192.28 67.7864 192.28 67.7146V59.9671L188.48 68.8214L184.867 60.4127V67.7002C184.867 67.7721 184.882 67.8727 184.896 67.9589C184.911 68.0452 184.939 68.1314 184.982 68.2033C185.026 68.2752 185.083 68.347 185.141 68.4045C185.198 68.462 185.27 68.4908 185.342 68.4908H185.414V68.6345H183.802V68.4908H183.874C183.946 68.4908 184.004 68.462 184.061 68.4045C184.119 68.347 184.162 68.2752 184.205 68.2033C184.248 68.1314 184.277 68.0452 184.292 67.9589C184.306 67.8583 184.32 67.7721 184.32 67.7002V59.8522C184.32 59.7803 184.306 59.7084 184.292 59.6222C184.277 59.5359 184.248 59.4497 184.205 59.3778C184.162 59.306 184.119 59.2341 184.061 59.191C184.004 59.1335 183.932 59.1047 183.874 59.1047H183.802V58.961H185.299L188.725 67.0103L192.15 58.961H193.82V59.1047H193.748C193.662 59.1047 193.604 59.1335 193.546 59.191C193.489 59.2341 193.431 59.306 193.388 59.3778C193.345 59.4497 193.316 59.5359 193.302 59.6222C193.287 59.7084 193.273 59.7947 193.273 59.8522V67.7002C193.273 67.7721 193.287 67.8727 193.302 67.9589C193.316 68.0452 193.345 68.1314 193.388 68.2033C193.431 68.2752 193.489 68.347 193.546 68.4045C193.604 68.462 193.676 68.4908 193.748 68.4908H193.82V68.6345H191.733V68.5051H191.747ZM195.72 68.5051H195.792C195.864 68.5051 195.936 68.4764 195.993 68.4333C196.051 68.3758 196.094 68.3039 196.137 68.232C196.18 68.1602 196.224 68.0739 196.238 67.9877C196.267 67.9014 196.281 67.8152 196.281 67.7433V59.8665C196.281 59.7947 196.267 59.7228 196.238 59.6365C196.224 59.5503 196.18 59.4641 196.137 59.3922C196.094 59.3203 196.051 59.2485 195.993 59.2053C195.936 59.1478 195.864 59.1191 195.792 59.1191H195.72V58.9754H201.391V60.3409H201.247C201.232 60.1109 201.146 59.924 200.988 59.7515C200.829 59.5791 200.585 59.4928 200.254 59.4928H197.289V63.2156H199.736C199.966 63.2156 200.153 63.1437 200.297 63.0144C200.455 62.8706 200.527 62.7125 200.527 62.5257H200.671V64.3655H200.527C200.527 64.193 200.455 64.0349 200.311 63.9055C200.167 63.7762 199.966 63.7187 199.736 63.7187H197.289V68.1745H200.513C200.7 68.1745 200.858 68.1314 201.002 68.0452C201.146 67.9589 201.247 67.8583 201.348 67.7289C201.448 67.5996 201.52 67.4702 201.549 67.3265C201.592 67.1827 201.621 67.0534 201.621 66.9528H201.765V68.6776H195.72V68.5051ZM212.373 68.1458V69.9856H212.229C212.214 69.8563 212.186 69.7125 212.128 69.5544C212.071 69.3963 211.984 69.2526 211.883 69.1088C211.783 68.9795 211.668 68.8788 211.524 68.7782C211.38 68.692 211.236 68.6489 211.063 68.6489H204.269C204.097 68.6489 203.953 68.692 203.809 68.7782C203.665 68.8788 203.55 68.9938 203.435 69.1232C203.334 69.2669 203.247 69.4107 203.19 69.5688C203.132 69.7269 203.089 69.8563 203.089 69.9856H202.945V68.1458H203.593C203.91 68.1458 204.125 67.9589 204.255 67.5996L207.652 58.731L211.077 67.5565C211.149 67.7002 211.236 67.8439 211.351 67.9733C211.466 68.0883 211.61 68.1458 211.768 68.1458H212.373ZM204.586 68.1458H210.257L207.407 60.8296L204.586 68.1458ZM219.886 68.5051H219.958C220.03 68.5051 220.102 68.4764 220.16 68.4333C220.217 68.3758 220.26 68.3039 220.303 68.232C220.347 68.1458 220.39 68.0595 220.404 67.9733C220.419 67.8727 220.433 67.7864 220.433 67.7146V60.9733L215.539 67.5852V67.7146C215.539 67.7864 215.554 67.8871 215.568 67.9733C215.597 68.0595 215.626 68.1458 215.669 68.2177C215.712 68.2895 215.755 68.3614 215.813 68.4189C215.87 68.4764 215.942 68.5051 216.014 68.5051H216.086V68.6489H213.999V68.5051H214.071C214.143 68.5051 214.215 68.4764 214.273 68.4333C214.33 68.3758 214.373 68.3039 214.417 68.232C214.46 68.1458 214.503 68.0595 214.517 67.9733C214.532 67.8727 214.546 67.7864 214.546 67.7146V59.8665C214.546 59.7947 214.532 59.7228 214.517 59.6365C214.503 59.5503 214.46 59.4641 214.417 59.3922C214.373 59.3203 214.33 59.2485 214.273 59.2053C214.215 59.1478 214.143 59.1191 214.071 59.1191H213.999V58.9754H216.086V59.1191H215.971C215.899 59.1335 215.842 59.1622 215.784 59.2197C215.741 59.2772 215.683 59.3491 215.654 59.4209C215.611 59.4928 215.583 59.5647 215.568 59.6509C215.554 59.7228 215.539 59.809 215.539 59.8665V66.6653L220.433 60.0534V59.8665C220.433 59.7947 220.419 59.7228 220.404 59.6365C220.39 59.5503 220.347 59.4641 220.303 59.3922C220.26 59.3203 220.217 59.2485 220.16 59.2053C220.102 59.1478 220.03 59.1191 219.958 59.1191H219.886V58.9754H221.973V59.1191H221.901C221.815 59.1191 221.757 59.1478 221.7 59.2053C221.642 59.2485 221.584 59.3203 221.556 59.3922C221.512 59.4641 221.484 59.5503 221.455 59.6365C221.441 59.7228 221.426 59.809 221.426 59.8665V67.7146C221.426 67.7864 221.441 67.8727 221.455 67.9589C221.484 68.0452 221.512 68.1314 221.556 68.2177C221.599 68.2895 221.642 68.3614 221.7 68.4189C221.757 68.4764 221.829 68.5051 221.901 68.5051H221.973V68.6489H219.886V68.5051ZM223.801 68.5051H223.873C223.959 68.5051 224.031 68.4764 224.089 68.4189C224.146 68.3614 224.19 68.2895 224.218 68.2177C224.262 68.1458 224.29 68.0595 224.29 67.9733C224.305 67.8727 224.319 67.7864 224.319 67.7146V59.9096C224.319 59.8378 224.305 59.7515 224.29 59.6653C224.276 59.5647 224.262 59.4784 224.218 59.4066C224.19 59.3347 224.146 59.2628 224.089 59.2053C224.031 59.1478 223.959 59.1191 223.873 59.1191H223.801V58.9754H225.874V59.1191H225.73C225.658 59.1335 225.586 59.1622 225.528 59.2197C225.485 59.2772 225.442 59.3491 225.413 59.4209C225.384 59.4928 225.355 59.5934 225.341 59.6797C225.327 59.7659 225.327 59.8522 225.327 59.9096V68.1458H229.76V59.9096C229.76 59.8378 229.745 59.7659 229.731 59.6797C229.717 59.5791 229.702 59.4928 229.659 59.4209C229.63 59.3491 229.587 59.2772 229.53 59.2197C229.472 59.1622 229.4 59.1335 229.328 59.1191H229.242V58.9754H231.286V59.1191H231.156C231.084 59.1335 231.012 59.1622 230.969 59.2197C230.926 59.2772 230.882 59.3491 230.854 59.4209C230.825 59.4928 230.796 59.5934 230.782 59.6797C230.767 59.7659 230.767 59.8522 230.767 59.9096V67.3552C230.767 67.5565 230.811 67.729 230.911 67.9014C231.026 68.0739 231.185 68.1458 231.429 68.1458H232.163V69.9856H232.02C232.005 69.8563 231.976 69.7125 231.919 69.5544C231.876 69.4107 231.789 69.2669 231.689 69.1232C231.588 68.9938 231.458 68.8788 231.3 68.7782C231.156 68.692 230.969 68.6489 230.767 68.6489H223.83V68.5051H223.801ZM239.331 68.5051H239.403C239.49 68.5051 239.547 68.4764 239.605 68.4333C239.662 68.3758 239.72 68.3039 239.749 68.232C239.792 68.1458 239.835 68.0595 239.849 67.9733C239.864 67.8727 239.878 67.7864 239.878 67.7146V60.9733L234.985 67.5852V67.7146C234.985 67.7864 234.999 67.8871 235.013 67.9733C235.042 68.0595 235.071 68.1458 235.114 68.2177C235.157 68.2895 235.2 68.3614 235.258 68.4189C235.316 68.4764 235.388 68.5051 235.46 68.5051H235.532V68.6489H233.444V68.5051H233.516C233.603 68.5051 233.66 68.4764 233.718 68.4333C233.776 68.3758 233.833 68.3039 233.862 68.232C233.905 68.1458 233.948 68.0595 233.963 67.9733C233.977 67.8727 233.991 67.7864 233.991 67.7146V59.8665C233.991 59.7947 233.977 59.7228 233.963 59.6365C233.948 59.5503 233.905 59.4641 233.862 59.3922C233.819 59.3203 233.776 59.2485 233.718 59.2053C233.66 59.1478 233.588 59.1191 233.516 59.1191H233.444V58.9754H235.532V59.1191H235.416C235.344 59.1335 235.287 59.1622 235.229 59.2197C235.186 59.2772 235.143 59.3491 235.1 59.4209C235.057 59.4928 235.028 59.5647 235.013 59.6509C234.999 59.7228 234.985 59.809 234.985 59.8665V66.6653L239.878 60.0534V59.8665C239.878 59.7947 239.864 59.7228 239.849 59.6365C239.835 59.5503 239.792 59.4641 239.749 59.3922C239.706 59.3203 239.662 59.2485 239.605 59.2053C239.547 59.1478 239.475 59.1191 239.403 59.1191H239.331V58.9754H241.418V59.1191H241.346C241.274 59.1191 241.202 59.1478 241.145 59.2053C241.087 59.2485 241.044 59.3203 241.001 59.3922C240.958 59.4641 240.929 59.5503 240.9 59.6365C240.886 59.7228 240.871 59.809 240.871 59.8665V67.7146C240.871 67.7864 240.886 67.8727 240.9 67.9589C240.929 68.0452 240.972 68.1314 241.001 68.2177C241.044 68.2895 241.087 68.3614 241.145 68.4189C241.202 68.4764 241.274 68.5051 241.346 68.5051H241.418V68.6489H239.331V68.5051ZM249.148 68.5051H249.219C249.291 68.5051 249.349 68.4764 249.407 68.4333C249.464 68.3758 249.507 68.3039 249.551 68.232C249.594 68.1458 249.637 68.0595 249.651 67.9733C249.666 67.8727 249.68 67.7864 249.68 67.7146V63.7043H244.959V67.7146C244.959 67.7864 244.973 67.8871 244.988 67.9733C245.002 68.0595 245.031 68.1458 245.074 68.2177C245.117 68.2895 245.161 68.3614 245.204 68.4189C245.261 68.4764 245.333 68.5051 245.405 68.5051H245.477V68.6489H243.419V68.5051H243.491C243.563 68.5051 243.621 68.4764 243.678 68.4333C243.736 68.3758 243.779 68.3039 243.822 68.232C243.865 68.1458 243.908 68.0595 243.923 67.9733C243.937 67.8727 243.952 67.7864 243.952 67.7146V59.8665C243.952 59.7947 243.937 59.7228 243.923 59.6365C243.908 59.5503 243.88 59.4641 243.836 59.3922C243.793 59.3203 243.75 59.2485 243.692 59.2053C243.635 59.1478 243.563 59.1191 243.491 59.1191H243.419V58.9754H245.477V59.1191H245.405C245.333 59.1191 245.261 59.1478 245.204 59.2053C245.146 59.2485 245.103 59.3203 245.06 59.3922C245.031 59.4641 245.002 59.5503 244.988 59.6365C244.973 59.7228 244.959 59.809 244.959 59.8665V63.1869H249.68V59.8665C249.68 59.7947 249.666 59.7228 249.651 59.6365C249.637 59.5503 249.608 59.4641 249.565 59.3922C249.522 59.3203 249.479 59.2485 249.421 59.2053C249.363 59.1478 249.291 59.1191 249.219 59.1191H249.148V58.9754H251.206V59.1191H251.134C251.062 59.1191 250.99 59.1478 250.932 59.2053C250.875 59.2485 250.832 59.3203 250.788 59.3922C250.76 59.4641 250.731 59.5503 250.716 59.6365C250.702 59.7228 250.688 59.809 250.688 59.8665V67.7146C250.688 67.7864 250.702 67.8871 250.716 67.9733C250.745 68.0595 250.774 68.1458 250.817 68.2177C250.86 68.2895 250.903 68.3614 250.947 68.4189C251.004 68.4764 251.076 68.5051 251.134 68.5051H251.206V68.6489H249.148V68.5051ZM258.503 68.5051H258.575C258.805 68.5051 258.935 68.3901 258.935 68.1745C258.935 68.1027 258.921 68.0164 258.892 67.9302L257.568 64.3511H254.991L253.71 67.8727C253.681 67.9446 253.667 68.0308 253.667 68.0883C253.667 68.2177 253.696 68.3183 253.768 68.4045C253.84 68.4764 253.912 68.5051 253.984 68.5051H254.056V68.6489H252.415V68.5051H252.487C252.616 68.5051 252.731 68.4333 252.861 68.2895C252.99 68.1314 253.091 67.9446 253.178 67.7433L256.56 58.7598L259.856 67.6571C259.928 67.8583 260.014 68.0452 260.13 68.232C260.259 68.4189 260.417 68.5051 260.619 68.5051H260.691V68.6489H258.503V68.5051ZM255.135 63.8624H257.409L256.272 60.7864L255.135 63.8624Z" fill="white"/>
<path d="M262 51.9322C200.628 53.9589 138.449 53.9589 77.0762 51.9322C138.435 49.9055 200.628 49.9199 262 51.9322Z" fill="white"/>
<mask id="mask0_1718_12308" style="mask-type:luminance" maskUnits="userSpaceOnUse" x="0" y="1" width="64" height="69">
<path d="M63.3302 1.00616H0V70H63.3302V1.00616Z" fill="white"/>
</mask>
<g mask="url(#mask0_1718_12308)">
<path d="M53.4133 1.00616V5.07393H49.9733V1.00616H40.0564V5.07393H36.6164V1.00616H26.6994V5.07393H23.2595V1.00616H13.3569V5.07393H9.91694V1.00616H0V25.8296C0.777235 46.1253 10.2048 60.2115 31.6651 70C53.2837 60.2115 62.553 45.306 63.3302 25.8296V1.00616H53.4133ZM59.5736 26.9076C58.8827 44.0698 50.7217 57.2218 31.6651 65.846C12.738 57.2218 4.43312 44.8029 3.74224 26.9076V8.62424H59.5592V26.9076H59.5736Z" fill="white"/>
<path d="M51.8876 26.6776C51.9164 26.6058 51.902 26.5483 51.8876 26.5195C51.8589 26.462 51.8013 26.4333 51.7293 26.4045C49.6711 26.0021 44.4032 25.2834 39.9557 27.5544C35.5369 29.8255 32.4136 36.3224 32.3272 36.4086H31.075C30.9455 36.3224 27.8222 29.8255 23.389 27.5544C20.9854 26.3183 18.337 25.9733 16.0773 25.9733C14.1774 25.9733 12.5653 26.232 11.6154 26.4189C11.5434 26.4333 11.4858 26.4764 11.457 26.5339C11.4427 26.5626 11.4283 26.6201 11.457 26.692C12.2199 28.5462 14.4652 33.1027 18.8984 35.3737C19.5748 35.7187 20.9854 36.078 22.6406 36.4086H13.8895C13.3713 36.4086 12.9971 36.7536 13.1842 37.0986C14.2493 39.2403 18.2938 45.6222 29.2759 46.4702V56.6468C26.5268 57.423 25.7639 59.2772 25.7639 59.2772H37.7391C37.7391 59.2772 37.4512 57.2505 34.2271 56.5462V46.4702C45.3531 45.6222 49.3112 39.2115 50.3188 37.0842C50.4771 36.7536 50.1173 36.3943 49.5991 36.3943H40.6321C42.3305 36.0637 43.7843 35.6899 44.4319 35.3594C48.8651 33.0883 51.1248 28.5318 51.8876 26.6776Z" fill="white"/>
<path d="M23.7915 26.7782C28.4837 29.1786 30.8442 33.9651 31.6358 35.9055C31.6358 35.9199 31.6502 35.9487 31.6646 35.963C31.6646 35.9487 31.6646 35.9199 31.679 35.9055C32.485 33.9651 34.8455 29.1786 39.5233 26.7782C40.7611 26.1458 42.0565 25.7433 43.3375 25.4702C43.3663 25.3409 43.3951 25.2259 43.4239 25.0965C43.9564 22.4949 43.8413 20.0944 43.7261 18.8583C43.7117 18.7577 43.6685 18.7002 43.6254 18.6858C43.611 18.6714 43.5534 18.6427 43.4958 18.6427C43.4814 18.6427 43.4526 18.6427 43.4239 18.6427C37.8393 20.1519 36.5007 21.8049 36.4287 21.8912C36.4431 22.1786 36.4719 22.4805 36.4719 22.7536C36.4719 24.7372 35.9394 26.577 35.2197 28.1581C34.572 29.5811 33.7804 30.7885 33.1327 31.6653C32.8448 32.0534 32.5714 32.384 32.3699 32.6283L32.3555 32.6427C32.2403 32.7721 32.0964 32.8727 31.9381 32.9158C31.8373 32.9445 31.7366 32.9733 31.6214 32.9733C31.5063 32.9733 31.4055 32.9589 31.3048 32.9158C31.2184 32.8871 31.1176 32.8439 31.0457 32.7864C30.9881 32.7433 30.9161 32.6858 30.873 32.6283C30.7002 32.4271 30.4843 32.154 30.2541 31.8665C29.5776 30.9753 28.714 29.7105 28.0231 28.1725C27.3178 26.6057 26.7709 24.7372 26.7709 22.7536C26.7709 22.423 26.7853 22.1068 26.8141 21.7762C26.7277 21.7043 25.7921 20.1519 19.9773 18.6283C19.9629 18.6283 19.9197 18.6283 19.9053 18.6283C19.8477 18.6283 19.819 18.6427 19.7758 18.6714C19.7182 18.7146 19.6894 18.7721 19.675 18.8439C19.5455 20.0944 19.4303 22.5092 19.9773 25.1252C19.7326 25.0678 22.3522 26.002 23.8203 26.7639H23.7915V26.7782Z" fill="white"/>
<path d="M31.0603 31.6365C31.2186 31.8234 31.3482 31.9959 31.4777 32.1396C31.5641 32.2546 31.6504 32.2546 31.7512 32.1396C31.9095 31.9528 32.0966 31.7228 32.3125 31.4497C32.5428 31.1622 32.7875 30.8316 33.0322 30.4435C34.2556 28.6324 35.6661 25.8727 35.6661 22.7823C35.6661 22.4517 35.6518 22.1355 35.6086 21.8049C35.5798 21.4887 35.5366 21.1725 35.479 20.8706C34.8601 17.4066 32.7443 14.6037 31.7512 13.4394C31.6936 13.3676 31.636 13.3676 31.6073 13.3676C31.5785 13.3676 31.5209 13.3676 31.4777 13.425C30.4846 14.5749 28.3976 17.3491 27.7643 20.7556C27.7067 21.0575 27.6635 21.3737 27.6347 21.6756C27.5915 22.0349 27.5771 22.3942 27.5771 22.768C27.5771 25.9733 29.0884 28.8193 30.355 30.6304C30.5997 31.0185 30.8444 31.3491 31.0603 31.6365Z" fill="white"/>
</g>
</g>
<defs>
<clipPath id="clip0_1718_12308">
<rect width="262" height="70" fill="white"/>
</clipPath>
</defs>
</svg>
