<svg width="24" height="22" viewBox="0 0 24 22" fill="none" xmlns="http://www.w3.org/2000/svg">
<path d="M10.791 0.25C13.5881 0.250044 16.2693 1.38323 18.2461 3.40039C20.2215 5.41642 21.3311 8.15078 21.3311 11C21.3311 11.09 21.4006 11.1541 21.4766 11.1543H23.0137L22.6963 11.5586L20.8818 13.8721L20.6846 14.1221L20.4883 13.8721L18.6729 11.5586L18.3555 11.1543H19.8936C19.9305 11.1543 19.9676 11.1393 19.9951 11.1113C20.0229 11.083 20.0391 11.0424 20.0391 11C20.0391 8.49406 19.0637 6.09236 17.3281 4.32129C15.5936 2.55134 13.2413 1.55766 10.791 1.55762C8.33969 1.55762 5.98744 2.55138 4.25293 4.32129C2.51814 6.0924 1.54199 8.49401 1.54199 11C1.54199 13.506 2.51818 15.9076 4.25293 17.6787C5.98744 19.4487 8.33969 20.4424 10.791 20.4424C11.1521 20.4425 11.4365 20.7405 11.4365 21.0967C11.4365 21.4524 11.1517 21.7499 10.791 21.75C7.99391 21.75 5.31181 20.6168 3.33496 18.5996C1.35943 16.5836 0.250004 13.8495 0.25 11C0.25 8.15047 1.35933 5.41644 3.33496 3.40039C5.31183 1.38328 7.99414 0.25 10.791 0.25Z" fill="white" stroke="white" stroke-width="0.5"/>
</svg>
