<svg width="267" height="70" viewBox="0 0 267 70" fill="none" xmlns="http://www.w3.org/2000/svg">
<g clip-path="url(#clip0_2273_5047)">
<path d="M94.7904 24.9059H94.9783C95.1517 24.9059 95.3107 24.8481 95.4552 24.7033C95.5997 24.5731 95.7298 24.385 95.8454 24.1679C95.961 23.9653 96.0333 23.7337 96.0911 23.4877C96.1344 23.2417 96.1633 23.0246 96.1633 22.8365V12.6049H84.4572V22.8365C84.4572 23.0391 84.4717 23.2562 84.5295 23.4877C84.5729 23.7337 84.6451 23.9508 84.7463 24.1389C84.8474 24.3415 84.9631 24.5152 85.0931 24.6744C85.2232 24.8336 85.3822 24.9059 85.5845 24.9059H85.7724V25.2822H80.6564V24.9059H80.8442C81.0177 24.9059 81.1766 24.8481 81.3212 24.7033C81.4657 24.5731 81.5957 24.385 81.7114 24.1679C81.827 23.9653 81.8992 23.7337 81.957 23.4877C82.0004 23.2417 82.0293 23.0246 82.0293 22.8365V2.79306C82.0293 2.6194 82.0149 2.41679 81.957 2.18525C81.8992 1.9537 81.8414 1.75109 81.7403 1.54849C81.6391 1.34588 81.5235 1.17222 81.379 1.04198C81.22 0.911729 81.061 0.839371 80.8587 0.839371H80.6708V0.463104H85.7868V0.839371H85.5989C85.4111 0.839371 85.2376 0.911729 85.0787 1.04198C84.9341 1.17222 84.8185 1.36035 84.7318 1.54849C84.6451 1.75109 84.5873 1.96817 84.5295 2.18525C84.4861 2.41679 84.4572 2.60493 84.4572 2.79306V11.288H96.1633V2.79306C96.1633 2.6194 96.1489 2.41679 96.0911 2.18525C96.0333 1.9537 95.9754 1.75109 95.8743 1.54849C95.7731 1.34588 95.6575 1.17222 95.513 1.04198C95.354 0.911729 95.195 0.839371 94.9927 0.839371H94.8048V0.463104H99.9208V0.839371H99.7185C99.5306 0.839371 99.3572 0.911729 99.1982 1.04198C99.0537 1.17222 98.9381 1.36035 98.8514 1.54849C98.7647 1.75109 98.6924 1.96817 98.6491 2.18525C98.6057 2.41679 98.5768 2.60493 98.5768 2.79306V22.8365C98.5768 23.0391 98.6057 23.2562 98.6635 23.4877C98.7213 23.7337 98.808 23.9508 98.9092 24.1389C99.0104 24.3415 99.126 24.5152 99.256 24.6744C99.3861 24.8336 99.5451 24.9059 99.7041 24.9059H99.8919V25.2822H94.7759V24.9059H94.7904Z" fill="white"/>
<path d="M104.994 24.9059H105.181C105.369 24.9059 105.543 24.8481 105.702 24.7033C105.846 24.5731 105.976 24.3994 106.092 24.1968C106.207 23.9942 106.28 23.7771 106.338 23.5601C106.395 23.3285 106.424 23.1259 106.424 22.9233V2.79306C106.424 2.6194 106.395 2.41679 106.338 2.18525C106.28 1.9537 106.193 1.75109 106.092 1.54849C105.976 1.34588 105.846 1.17222 105.702 1.04198C105.557 0.911729 105.384 0.839371 105.181 0.839371H104.994V0.463104H119.07V3.9508H118.708C118.665 3.37193 118.434 2.86542 118.058 2.41679C117.668 1.98264 117.061 1.76556 116.223 1.76556H108.867V11.288H114.936C115.486 11.288 115.963 11.1143 116.338 10.7525C116.714 10.4052 116.902 9.98554 116.902 9.50797H117.263V14.2113H116.902C116.902 13.7627 116.714 13.3719 116.353 13.0536C115.991 12.7352 115.515 12.5615 114.922 12.5615H108.852V23.9508H116.859C117.321 23.9508 117.711 23.835 118.058 23.6035C118.405 23.3719 118.68 23.097 118.911 22.7931C119.142 22.4747 119.315 22.1418 119.431 21.78C119.547 21.4182 119.59 21.1143 119.59 20.8538H119.951V25.2533H104.994V24.877V24.9059Z" fill="white"/>
<path d="M144.447 24.9059H144.635C144.809 24.9059 144.968 24.8336 145.112 24.6744C145.257 24.5152 145.387 24.356 145.502 24.1389C145.618 23.9363 145.69 23.7193 145.748 23.4877C145.806 23.2417 145.82 23.0246 145.82 22.8365V3.05355L136.383 25.7019L127.423 4.22577V22.8509C127.423 23.0536 127.452 23.2706 127.495 23.5022C127.539 23.7482 127.625 23.9653 127.726 24.1534C127.842 24.356 127.972 24.5297 128.117 24.6889C128.276 24.8336 128.435 24.9204 128.637 24.9204H128.825V25.2967H124.836V24.9204H125.024C125.197 24.9204 125.356 24.8481 125.501 24.6889C125.645 24.5297 125.761 24.3705 125.862 24.1534C125.963 23.9508 126.036 23.7337 126.079 23.5022C126.122 23.2562 126.151 23.0391 126.151 22.8509V2.79306C126.151 2.6194 126.137 2.41679 126.079 2.18525C126.036 1.9537 125.963 1.75109 125.862 1.54849C125.761 1.34588 125.645 1.17222 125.501 1.04198C125.356 0.911729 125.197 0.839371 125.024 0.839371H124.836V0.463104H128.565L137.048 21.042L145.531 0.463104H149.665V0.839371H149.477C149.289 0.839371 149.115 0.911729 148.956 1.04198C148.797 1.17222 148.682 1.36035 148.566 1.54849C148.451 1.75109 148.378 1.96817 148.32 2.18525C148.277 2.41679 148.248 2.60493 148.248 2.79306V22.8365C148.248 23.0391 148.263 23.2562 148.32 23.4877C148.378 23.7337 148.451 23.9508 148.566 24.1389C148.682 24.3415 148.797 24.5152 148.956 24.6744C149.101 24.8191 149.274 24.9059 149.477 24.9059H149.665V25.2822H144.476L144.447 24.9059Z" fill="white"/>
<path d="M155.229 24.9059H155.416C155.604 24.9059 155.778 24.8481 155.937 24.7033C156.081 24.5731 156.211 24.3994 156.327 24.1968C156.443 23.9942 156.515 23.7771 156.587 23.5601C156.645 23.3285 156.674 23.1259 156.674 22.9233V2.79306C156.674 2.6194 156.645 2.41679 156.587 2.18525C156.529 1.9537 156.443 1.75109 156.327 1.54849C156.211 1.34588 156.081 1.17222 155.937 1.04198C155.792 0.911729 155.619 0.839371 155.416 0.839371H155.229V0.463104H169.305V3.9508H168.943C168.886 3.37193 168.669 2.86542 168.279 2.41679C167.888 1.98264 167.281 1.76556 166.443 1.76556H159.087V11.288H165.157C165.721 11.288 166.183 11.1143 166.559 10.7525C166.935 10.4052 167.123 9.98554 167.123 9.50797H167.484V14.2113H167.123C167.123 13.7627 166.935 13.3719 166.573 13.0536C166.212 12.7352 165.735 12.5615 165.143 12.5615H159.073V23.9508H167.079C167.542 23.9508 167.932 23.835 168.279 23.6035C168.626 23.3719 168.9 23.097 169.131 22.7931C169.363 22.4747 169.536 22.1418 169.652 21.78C169.767 21.4182 169.811 21.1143 169.811 20.8538H170.172V25.2533H155.185V24.877V24.9059H155.229Z" fill="white"/>
<path d="M174.984 24.9059H175.172C175.389 24.9059 175.577 24.8336 175.721 24.6744C175.866 24.5152 175.982 24.356 176.068 24.1389C176.155 23.9363 176.227 23.7193 176.256 23.4877C176.299 23.2417 176.314 23.0246 176.314 22.8365V2.90884C176.314 2.73517 176.299 2.5181 176.256 2.27208C176.213 2.02606 176.155 1.79451 176.068 1.5919C175.982 1.3893 175.866 1.21564 175.721 1.05645C175.577 0.911729 175.389 0.824899 175.172 0.824899H174.984V0.463104H180.144V0.839371H179.782C179.595 0.853842 179.421 0.955145 179.291 1.09986C179.161 1.24458 179.045 1.41824 178.973 1.63532C178.901 1.83792 178.843 2.055 178.814 2.28655C178.771 2.53257 178.771 2.73517 178.771 2.90884V23.9653H189.769V2.90884C189.769 2.73517 189.754 2.5181 189.725 2.28655C189.682 2.04053 189.624 1.82345 189.537 1.63532C189.451 1.43271 189.335 1.25905 189.191 1.09986C189.046 0.940673 188.873 0.853842 188.67 0.839371H188.454V0.463104H193.541V0.839371H193.208C193.02 0.853842 192.861 0.955145 192.731 1.09986C192.601 1.24458 192.515 1.41824 192.442 1.63532C192.37 1.83792 192.312 2.055 192.283 2.28655C192.226 2.5181 192.211 2.7207 192.211 2.90884V21.9392C192.211 22.4457 192.341 22.9088 192.601 23.3285C192.861 23.7482 193.281 23.9653 193.859 23.9653H195.694V28.6686H195.333C195.304 28.3502 195.232 27.9884 195.087 27.5977C194.957 27.207 194.755 26.8452 194.495 26.5123C194.234 26.165 193.916 25.89 193.541 25.644C193.15 25.398 192.717 25.2967 192.211 25.2967H174.984V24.9059Z" fill="white"/>
<path d="M199.914 24.9059H200.102C200.29 24.9059 200.463 24.8336 200.622 24.6744C200.767 24.5152 200.897 24.356 201.012 24.1389C201.128 23.9363 201.2 23.7192 201.258 23.4877C201.316 23.2417 201.33 23.0246 201.33 22.8365V2.79305C201.33 2.61939 201.301 2.41679 201.258 2.18524C201.215 1.95369 201.128 1.75108 201.012 1.54848C200.897 1.34587 200.767 1.17221 200.622 1.04197C200.478 0.911721 200.319 0.839362 200.145 0.839362H199.957V0.463095H205.146V0.839362H204.958C204.77 0.839362 204.597 0.911721 204.438 1.04197C204.293 1.17221 204.163 1.36035 204.062 1.54848C203.946 1.75108 203.874 1.96816 203.802 2.18524C203.744 2.41679 203.715 2.60492 203.715 2.79305V10.5644L212.198 1.88133C212.386 1.67872 212.487 1.44718 212.487 1.15774C212.487 0.926192 212.386 0.810418 212.198 0.810418V0.448624H216.158V0.82489C215.667 0.839362 215.233 0.998551 214.857 1.28799C214.482 1.56295 214.063 1.93922 213.629 2.37337L204.958 11.3169C206.548 11.3748 207.819 11.7077 208.802 12.3734C209.77 13.0246 210.536 13.9219 211.114 15.0796L214.005 21.0854C214.178 21.4616 214.395 21.8669 214.684 22.301C214.973 22.7352 215.277 23.1548 215.638 23.5456C215.985 23.9363 216.389 24.2547 216.837 24.5297C217.285 24.8046 217.733 24.9204 218.225 24.9204V25.2967H216.389C215.681 25.2967 215.074 25.1954 214.554 24.9783C214.034 24.7757 213.586 24.4718 213.224 24.11C212.849 23.7482 212.516 23.343 212.227 22.8799C211.938 22.4313 211.692 21.9682 211.476 21.534L208.513 15.4848C208.051 14.5586 207.415 13.8495 206.591 13.3575C205.767 12.8654 204.828 12.6049 203.715 12.547V22.8509C203.715 23.0535 203.729 23.2706 203.787 23.4877C203.831 23.7192 203.903 23.9363 204.004 24.1389C204.105 24.3415 204.221 24.5297 204.365 24.6744C204.51 24.8191 204.669 24.8915 204.842 24.9204H205.102V25.2967H199.914V24.9059Z" fill="white"/>
<path d="M236.42 24.9059H236.608C237.2 24.9059 237.489 24.631 237.489 24.081C237.489 23.8784 237.446 23.6614 237.373 23.4443L234.093 14.2981H227.691L224.511 23.2851C224.439 23.4877 224.396 23.6758 224.396 23.8495C224.396 24.1679 224.482 24.4284 224.656 24.6165C224.829 24.8046 225.003 24.8915 225.205 24.8915H225.393V25.2677H221.332V24.8915H221.52C221.838 24.8915 222.141 24.6889 222.445 24.3126C222.748 23.9219 222.994 23.4732 223.196 22.9378L231.535 0L239.729 22.7207C239.903 23.2272 240.134 23.7048 240.452 24.1823C240.755 24.6599 241.145 24.9059 241.637 24.9059H241.825V25.2822H236.42V24.9059ZM228.037 13.0101H233.674L230.856 5.15195L228.037 13.0101Z" fill="white"/>
<path d="M257.881 24.9059H258.069C258.242 24.9059 258.401 24.8336 258.56 24.6744C258.719 24.5297 258.849 24.356 258.95 24.1389C259.051 23.9363 259.124 23.7192 259.181 23.4877C259.239 23.2417 259.268 23.0246 259.268 22.8365V12.6339C258.733 12.6917 258.228 12.8654 257.751 13.1693C257.274 13.4732 256.826 13.8784 256.392 14.3705C255.973 14.877 255.568 15.4414 255.193 16.0637C254.803 16.686 254.456 17.3372 254.109 18.0174C253.834 18.5239 253.545 19.0449 253.227 19.6237C252.909 20.1881 252.591 20.7525 252.273 21.3314C251.681 22.4313 250.915 23.3719 249.961 24.1245C249.007 24.877 247.909 25.2677 246.666 25.2677H244.729V24.8915C245.279 24.8915 245.828 24.7612 246.319 24.5152C246.811 24.2692 247.273 23.9508 247.692 23.5745C248.111 23.1983 248.487 22.7786 248.805 22.33C249.137 21.8813 249.412 21.4616 249.629 21.0564L252.519 15.7164C252.866 15.1085 253.227 14.5297 253.632 13.9653C254.037 13.4009 254.658 12.9522 255.482 12.5904C254.456 12.5181 253.545 12.3155 252.736 11.9826C251.941 11.6643 251.247 11.2301 250.698 10.7091C250.135 10.1737 249.701 9.58032 249.412 8.91461C249.123 8.24891 248.978 7.55427 248.978 6.83068C248.978 5.90448 249.181 5.03618 249.6 4.2547C250.019 3.45875 250.597 2.79305 251.348 2.22865C252.1 1.66425 253.025 1.2301 254.109 0.911721C255.193 0.593341 256.407 0.448624 257.751 0.448624H263.026V0.82489H262.838C262.664 0.82489 262.505 0.897249 262.361 1.02749C262.216 1.15774 262.086 1.34587 262 1.53401C261.898 1.73661 261.826 1.95369 261.783 2.17077C261.725 2.40231 261.711 2.59045 261.711 2.77858V22.822C261.711 23.0246 261.739 23.2417 261.783 23.4732C261.841 23.7192 261.898 23.9363 262 24.1245C262.101 24.3271 262.216 24.5007 262.361 24.6599C262.505 24.8191 262.664 24.8915 262.838 24.8915H263.026V25.2677H257.866L257.881 24.9059ZM251.334 6.28075C251.334 7.00434 251.479 7.67004 251.768 8.29233C252.057 8.90014 252.461 9.4356 252.967 9.8987C253.473 10.3473 254.065 10.6946 254.745 10.9551C255.424 11.2156 256.161 11.3314 256.97 11.3314H259.268V1.72214H258.719C256.363 1.72214 254.542 2.12735 253.256 2.9233C251.984 3.73372 251.334 4.84804 251.334 6.28075Z" fill="white"/>
<path d="M88.0124 44.8046C87.8968 44.8046 87.7812 44.8336 87.6655 44.8915C87.5499 44.9494 87.4343 45.0217 87.3042 45.0941C87.0441 45.2533 86.6973 45.4124 86.2782 45.5716C85.8591 45.7308 85.3243 45.8177 84.674 45.8177C83.8936 45.8177 83.1854 45.6874 82.5351 45.4269C81.8848 45.1809 81.3356 44.8191 80.8587 44.3415C80.3818 43.8784 80.0205 43.343 79.7603 42.7207C79.5002 42.1129 79.3701 41.4327 79.3701 40.7091C79.3701 40.0289 79.4857 39.3922 79.717 38.7844C79.9482 38.1766 80.295 37.6266 80.7431 37.1635C81.1911 36.7004 81.7258 36.3242 82.3761 36.0347C83.0265 35.7598 83.7635 35.6151 84.5873 35.6151C85.1509 35.6151 85.6134 35.6729 85.9602 35.8177C86.3071 35.9479 86.6106 36.0781 86.8562 36.2084C87.0008 36.2952 87.1308 36.3531 87.2464 36.3965C87.3765 36.4544 87.5066 36.4689 87.6511 36.4689V38.2634H87.4343C87.3476 37.9595 87.2175 37.699 87.0152 37.4674C86.8129 37.2359 86.5961 37.0478 86.3215 36.8886C86.0614 36.7294 85.7868 36.6136 85.4688 36.5412C85.1654 36.4544 84.8619 36.4255 84.5728 36.4255C83.9514 36.4255 83.4022 36.5412 82.9253 36.7728C82.4484 37.0043 82.0726 37.3082 81.7691 37.67C81.4657 38.0318 81.2344 38.466 81.0754 38.9291C80.9309 39.3922 80.8442 39.8842 80.8442 40.3907C80.8442 40.9696 80.9309 41.534 81.1044 42.0984C81.2778 42.6483 81.5235 43.1548 81.8559 43.589C82.1738 44.0232 82.5785 44.385 83.0698 44.6454C83.5612 44.9204 84.0959 45.0507 84.7029 45.0507C85.122 45.0507 85.5267 44.9928 85.9024 44.8625C86.2782 44.7323 86.5816 44.5731 86.8562 44.3705C87.1308 44.1679 87.3476 43.9508 87.4921 43.7048C87.6511 43.4588 87.7378 43.2417 87.7812 43.0101H88.0124V44.848V44.8046Z" fill="white"/>
<path d="M91.4954 40.9117C91.5532 41.4617 91.6833 41.9826 91.8856 42.4747C92.0735 42.9667 92.3481 43.4009 92.6804 43.7771C92.9984 44.1534 93.403 44.4573 93.88 44.6889C94.3569 44.9204 94.9061 45.0362 95.5275 45.0362C95.8599 45.0362 96.2212 44.9783 96.5825 44.877C96.9582 44.7757 97.3051 44.631 97.623 44.4428C97.941 44.2547 98.23 44.0232 98.4757 43.7482C98.7214 43.4732 98.8948 43.1693 98.996 42.822H99.1983V44.5731C99.1116 44.5731 99.0104 44.602 98.8948 44.6599C98.7792 44.7178 98.6491 44.8046 98.4901 44.9059C98.1867 45.0941 97.7675 45.2967 97.2617 45.5138C96.7415 45.7164 96.0622 45.8321 95.2095 45.8321C94.5158 45.8321 93.88 45.7308 93.2585 45.5282C92.6371 45.3256 92.1024 45.0072 91.6255 44.5876C91.1485 44.1679 90.7728 43.618 90.4982 42.9667C90.2092 42.3155 90.0791 41.5195 90.0791 40.6223C90.0791 40.0434 90.1658 39.4501 90.3681 38.8712C90.556 38.2779 90.8595 37.7424 91.2353 37.2648C91.6255 36.7873 92.1313 36.3965 92.7383 36.0926C93.3452 35.7887 94.0823 35.644 94.935 35.644C95.6865 35.644 96.3657 35.7742 96.9438 36.0347C97.5219 36.2952 97.9843 36.6715 98.3601 37.1346C98.7358 37.5977 99.0104 38.1621 99.1983 38.7988C99.3862 39.4501 99.4729 40.1447 99.4729 40.9117H91.4954ZM94.8049 36.3965C94.2702 36.3965 93.8077 36.5123 93.4175 36.7294C93.0273 36.9465 92.6949 37.2359 92.4203 37.5687C92.1457 37.9161 91.9289 38.3068 91.7844 38.741C91.6399 39.1751 91.5387 39.6093 91.4954 40.0579H98.0132C97.9988 39.5948 97.9265 39.1462 97.7675 38.712C97.623 38.2779 97.4207 37.8727 97.1606 37.5398C96.9004 37.1925 96.568 36.9175 96.1778 36.7149C95.7876 36.5123 95.3396 36.3965 94.8049 36.3965Z" fill="white"/>
<path d="M112.465 44.1245C112.465 44.2547 112.48 44.3849 112.509 44.5441C112.537 44.6889 112.595 44.8336 112.668 44.9493C112.74 45.0796 112.812 45.1954 112.913 45.2822C113 45.369 113.116 45.4269 113.231 45.4269V45.6729H110.254V45.4269C110.37 45.4269 110.485 45.3835 110.572 45.2967C110.659 45.2098 110.745 45.0941 110.803 44.9638C110.861 44.8336 110.904 44.6889 110.948 44.5441C110.977 44.3994 110.991 44.2547 110.991 44.1245V37.7713L107.176 45.8466L103.519 38.2344V44.11C103.519 44.2402 103.534 44.3705 103.563 44.5297C103.592 44.6744 103.65 44.8191 103.707 44.9349C103.765 45.0651 103.852 45.1809 103.939 45.2677C104.025 45.3546 104.141 45.4124 104.256 45.4124V45.6585H102.045V45.4124C102.161 45.4124 102.277 45.3546 102.363 45.2677C102.45 45.1809 102.522 45.0651 102.58 44.9349C102.623 44.8046 102.667 44.6744 102.696 44.5297C102.725 44.3849 102.739 44.2402 102.739 44.11V37.2214C102.739 36.9465 102.71 36.6715 102.638 36.3965C102.566 36.1216 102.363 36.0058 102.031 36.0058V35.7598H104.069L107.566 43.1114L111.063 35.7598H113.231V36.0058C113 36.0058 112.812 36.1505 112.682 36.4399C112.537 36.7294 112.48 36.9899 112.48 37.2359V44.1245H112.465Z" fill="white"/>
<path d="M117.408 40.9117C117.466 41.4617 117.596 41.9826 117.798 42.4747C117.986 42.9667 118.26 43.4009 118.593 43.7771C118.911 44.1534 119.315 44.4573 119.792 44.6889C120.269 44.9204 120.818 45.0362 121.44 45.0362C121.772 45.0362 122.134 44.9783 122.495 44.877C122.871 44.7757 123.217 44.631 123.535 44.4428C123.853 44.2547 124.142 44.0232 124.388 43.7482C124.634 43.4732 124.807 43.1693 124.908 42.822H125.111V44.5731C125.024 44.5731 124.923 44.602 124.807 44.6599C124.692 44.7178 124.547 44.8046 124.402 44.9059C124.099 45.0941 123.68 45.2967 123.174 45.5138C122.654 45.7164 121.975 45.8321 121.122 45.8321C120.428 45.8321 119.792 45.7308 119.171 45.5282C118.549 45.3256 118.015 45.0072 117.538 44.5876C117.061 44.1679 116.685 43.618 116.411 42.9667C116.122 42.3155 115.991 41.5195 115.991 40.6223C115.991 40.0434 116.078 39.4501 116.28 38.8712C116.468 38.2779 116.772 37.7424 117.148 37.2648C117.538 36.7873 118.044 36.3965 118.651 36.0926C119.258 35.7887 119.995 35.644 120.847 35.644C121.599 35.644 122.278 35.7742 122.856 36.0347C123.434 36.2952 123.897 36.6715 124.272 37.1346C124.648 37.5977 124.923 38.1621 125.111 38.7988C125.299 39.4501 125.385 40.1447 125.385 40.9117H117.408ZM120.717 36.3965C120.183 36.3965 119.72 36.5123 119.33 36.7294C118.94 36.9465 118.607 37.2359 118.333 37.5687C118.058 37.9161 117.841 38.3068 117.697 38.741C117.552 39.1751 117.451 39.6093 117.408 40.0579H123.926C123.911 39.5948 123.839 39.1462 123.68 38.712C123.535 38.2779 123.333 37.8727 123.073 37.5398C122.813 37.1925 122.48 36.9175 122.09 36.7149C121.7 36.5123 121.252 36.3965 120.717 36.3965Z" fill="white"/>
<path d="M137.077 44.1245C137.077 44.2547 137.091 44.3849 137.135 44.5441C137.178 44.6889 137.221 44.8336 137.294 44.9493C137.351 45.0796 137.438 45.1954 137.539 45.2822C137.641 45.369 137.727 45.4269 137.828 45.4269V45.6729H134.909V45.4269C135.025 45.4269 135.111 45.3835 135.198 45.2967C135.285 45.2098 135.357 45.0941 135.429 44.9638C135.502 44.8336 135.545 44.6889 135.574 44.5441C135.603 44.3994 135.617 44.2547 135.617 44.1245V38.4805L130.169 43.9653V44.1245C130.169 44.2547 130.183 44.3849 130.227 44.5441C130.256 44.6889 130.313 44.8336 130.371 44.9493C130.429 45.0796 130.501 45.1954 130.588 45.2822C130.675 45.369 130.776 45.4269 130.877 45.4269V45.6729H127.972V45.4269C128.073 45.4269 128.174 45.3835 128.261 45.2967C128.348 45.2098 128.435 45.0941 128.492 44.9638C128.55 44.8336 128.594 44.6889 128.637 44.5441C128.666 44.3994 128.695 44.2547 128.695 44.1245V37.2359C128.695 37.1346 128.68 36.9899 128.637 36.8596C128.608 36.7149 128.55 36.5847 128.492 36.4544C128.435 36.3242 128.348 36.2229 128.261 36.136C128.174 36.0492 128.073 36.0058 127.972 36.0058V35.7598H130.877V36.0058C130.761 36.0058 130.66 36.0492 130.574 36.136C130.487 36.2229 130.429 36.3386 130.371 36.4544C130.328 36.5847 130.284 36.7149 130.241 36.8596C130.212 37.0043 130.183 37.1346 130.183 37.2359V42.8509L135.632 37.3806V37.2359C135.632 37.1346 135.617 36.9899 135.588 36.8596C135.559 36.7149 135.502 36.5847 135.444 36.4544C135.386 36.3242 135.299 36.2229 135.213 36.136C135.126 36.0492 135.025 36.0058 134.924 36.0058V35.7598H137.843V36.0058C137.727 36.0058 137.612 36.0492 137.51 36.136C137.409 36.2229 137.337 36.3386 137.279 36.4544C137.221 36.5847 137.193 36.7149 137.149 36.8596C137.12 37.0043 137.106 37.1346 137.106 37.2359V44.1245H137.077ZM135.328 32.6049C135.328 32.8509 135.27 33.1259 135.14 33.4153C135.025 33.7048 134.851 33.9797 134.62 34.2113C134.389 34.4573 134.129 34.6599 133.811 34.8191C133.493 34.9783 133.16 35.0651 132.77 35.0651C132.423 35.0651 132.077 34.9928 131.773 34.848C131.47 34.7033 131.181 34.5007 130.964 34.2692C130.732 34.0232 130.545 33.7627 130.415 33.4732C130.27 33.1838 130.212 32.8944 130.212 32.6049H130.357C130.371 32.6918 130.415 32.822 130.501 32.9957C130.588 33.1548 130.718 33.3285 130.906 33.5022C131.094 33.6758 131.325 33.8205 131.629 33.9508C131.918 34.081 132.308 34.1389 132.756 34.1389C133.204 34.1389 133.608 34.081 133.912 33.9508C134.215 33.8205 134.461 33.6758 134.635 33.5022C134.822 33.343 134.952 33.1548 135.025 32.9957C135.111 32.822 135.155 32.7062 135.184 32.6049H135.328Z" fill="white"/>
<path d="M142.93 44.1245C142.93 44.2547 142.944 44.3849 142.973 44.5441C143.002 44.6889 143.06 44.8336 143.118 44.9493C143.176 45.0796 143.248 45.1954 143.335 45.2822C143.421 45.369 143.522 45.4269 143.624 45.4269V45.6729H140.748V45.4269C140.849 45.4269 140.95 45.3835 141.037 45.2967C141.123 45.2098 141.181 45.0941 141.253 44.9638C141.311 44.8336 141.355 44.6889 141.398 44.5441C141.427 44.3994 141.456 44.2547 141.456 44.1245V37.2359C141.456 37.1346 141.441 36.9899 141.398 36.8596C141.369 36.7149 141.311 36.5847 141.253 36.4544C141.196 36.3242 141.123 36.2229 141.037 36.136C140.95 36.0492 140.849 36.0058 140.748 36.0058V35.7598H143.624V36.0058C143.508 36.0058 143.407 36.0492 143.32 36.136C143.233 36.2229 143.176 36.3386 143.118 36.4544C143.06 36.5847 143.031 36.7149 142.988 36.8596C142.959 37.0043 142.944 37.1346 142.944 37.2359V40.0724H148.147V37.2359C148.147 37.1346 148.133 36.9899 148.104 36.8596C148.075 36.7149 148.031 36.5847 147.974 36.4544C147.93 36.3242 147.858 36.2229 147.771 36.136C147.685 36.0492 147.583 36.0058 147.468 36.0058V35.7598H150.344V36.0058C150.228 36.0058 150.127 36.0492 150.04 36.136C149.954 36.2229 149.881 36.3386 149.824 36.4544C149.766 36.5847 149.722 36.7149 149.693 36.8596C149.679 37.0043 149.665 37.1346 149.665 37.2359V44.1245C149.665 44.2547 149.679 44.3849 149.708 44.5441C149.737 44.6889 149.795 44.8336 149.852 44.9493C149.91 45.0796 149.982 45.1954 150.069 45.2822C150.156 45.369 150.243 45.4269 150.344 45.4269V45.6729H147.468V45.4269C147.569 45.4269 147.67 45.3835 147.757 45.2967C147.844 45.2098 147.901 45.0941 147.974 44.9638C148.031 44.8336 148.075 44.6889 148.118 44.5441C148.147 44.3994 148.176 44.2547 148.176 44.1245V40.8538H142.973V44.1245H142.93Z" fill="white"/>
<path d="M159.275 45.6585V44.4573L159.159 44.5731C158.769 44.9638 158.336 45.2677 157.844 45.4848C157.353 45.7019 156.746 45.8177 156.052 45.8177C155.518 45.8177 155.055 45.7598 154.694 45.6295C154.318 45.4993 154 45.3256 153.754 45.0941C153.509 44.8625 153.335 44.602 153.22 44.2981C153.104 43.9942 153.046 43.6903 153.046 43.3575C153.046 42.822 153.191 42.3589 153.465 41.9537C153.74 41.5485 154.159 41.1867 154.694 40.8683C155.229 40.5499 155.879 40.2605 156.645 40.0145C157.411 39.754 158.292 39.508 159.29 39.2475C159.261 38.6397 159.131 38.1476 158.928 37.7714C158.711 37.3951 158.466 37.1056 158.177 36.8886C157.888 36.686 157.584 36.5413 157.266 36.4689C156.948 36.3965 156.674 36.3676 156.442 36.3676C156.052 36.3676 155.691 36.4255 155.387 36.5412C155.084 36.657 154.824 36.8162 154.593 37.0043C154.361 37.207 154.174 37.424 154.029 37.67C153.884 37.9161 153.769 38.1621 153.697 38.4226H153.494V36.5847C153.639 36.5847 153.783 36.5268 153.971 36.4255C154.159 36.3242 154.376 36.2084 154.622 36.0782C154.867 35.9479 155.185 35.8321 155.532 35.7308C155.879 35.6295 156.327 35.5716 156.833 35.5716C157.671 35.5716 158.35 35.6729 158.87 35.9045C159.391 36.1216 159.795 36.411 160.07 36.7728C160.359 37.1346 160.532 37.5398 160.634 38.0174C160.72 38.4805 160.778 38.958 160.778 39.4356V44.081C160.778 44.3994 160.865 44.6889 161.009 44.9638C161.154 45.2388 161.356 45.3835 161.631 45.3835V45.6295H159.333L159.275 45.6585ZM159.275 43.4153V40.0579L159.044 40.1013C158.683 40.1881 158.235 40.3184 157.714 40.4776C157.194 40.6368 156.688 40.8394 156.211 41.0854C155.734 41.3314 155.33 41.6353 154.997 41.9826C154.665 42.33 154.491 42.7352 154.491 43.1838C154.491 43.6758 154.694 44.0955 155.084 44.4284C155.474 44.7612 155.994 44.9204 156.645 44.9204C157.151 44.9204 157.584 44.8046 157.974 44.5731C158.365 44.3415 158.697 44.0521 159.029 43.6903L159.275 43.4153Z" fill="white"/>
<path d="M171.66 44.1245C171.66 44.2547 171.675 44.3849 171.704 44.5441C171.733 44.6889 171.79 44.8336 171.863 44.9638C171.935 45.0941 172.007 45.2098 172.094 45.2967C172.181 45.3835 172.282 45.4269 172.412 45.4269V45.6729H169.435V45.4414C169.536 45.4414 169.637 45.3835 169.724 45.2967C169.811 45.2098 169.897 45.0941 169.97 44.9638C170.042 44.8336 170.085 44.7033 170.114 44.5586C170.143 44.4139 170.157 44.2692 170.157 44.1389V40.8538C169.984 40.8828 169.811 40.9841 169.594 41.1288C169.377 41.2735 169.16 41.4616 168.929 41.6932C168.698 41.9247 168.481 42.1708 168.264 42.4313C168.047 42.7062 167.845 42.9667 167.672 43.2272C167.527 43.4443 167.397 43.6179 167.296 43.7627C167.18 43.9074 167.094 44.0376 167.021 44.1534C166.862 44.356 166.718 44.5441 166.559 44.7323C166.4 44.9059 166.241 45.0796 166.039 45.2098C165.851 45.3546 165.619 45.4559 165.359 45.5427C165.099 45.6295 164.796 45.6585 164.449 45.6585H163.596V45.4124C163.784 45.4124 163.957 45.3546 164.145 45.2533C164.333 45.152 164.521 45.0072 164.709 44.8336C164.897 44.6599 165.07 44.4863 165.229 44.2981C165.388 44.0955 165.533 43.9219 165.648 43.7482L166.357 42.7352C166.617 42.3734 166.877 42.0116 167.151 41.6643C167.426 41.3169 167.729 41.0275 168.091 40.8394C167.542 40.8249 167.05 40.7525 166.631 40.5933C166.212 40.4486 165.836 40.2605 165.562 40.0289C165.273 39.7829 165.056 39.5224 164.911 39.2185C164.767 38.9146 164.695 38.5818 164.695 38.2344C164.695 37.8871 164.767 37.5832 164.911 37.2938C165.056 36.9899 165.287 36.7294 165.605 36.4978C165.923 36.2663 166.328 36.0926 166.833 35.9624C167.325 35.8321 167.917 35.7598 168.625 35.7598H172.397V36.0058C172.282 36.0058 172.181 36.0492 172.079 36.136C171.993 36.2229 171.921 36.3386 171.848 36.4544C171.776 36.5847 171.733 36.7149 171.689 36.8596C171.66 37.0043 171.646 37.1346 171.646 37.2359V44.1245H171.66ZM166.169 38.1187C166.169 38.3647 166.241 38.5818 166.385 38.8278C166.53 39.0738 166.732 39.2764 166.978 39.4645C167.224 39.6527 167.513 39.8119 167.831 39.9276C168.149 40.0434 168.495 40.1013 168.857 40.1013H170.143V36.5557H168.654C167.744 36.5557 167.094 36.7004 166.718 37.0043C166.371 37.2938 166.183 37.67 166.169 38.1187Z" fill="white"/>
<path d="M188.815 43.8206C188.902 43.9942 189.032 44.1679 189.176 44.356C189.321 44.5441 189.494 44.7178 189.696 44.877C189.884 45.0362 190.087 45.1664 190.289 45.2677C190.491 45.3546 190.679 45.4269 190.853 45.4269V45.6729H189.985C189.292 45.6729 188.743 45.5282 188.352 45.2243C187.962 44.9204 187.673 44.5731 187.456 44.1679L186.387 42.0839C186.213 41.7511 185.939 41.4761 185.534 41.2301C185.144 40.9841 184.71 40.8683 184.277 40.8683V44.2113C184.277 44.3415 184.291 44.4718 184.306 44.602C184.32 44.7323 184.364 44.877 184.436 44.9928C184.494 45.123 184.58 45.2243 184.667 45.3112C184.754 45.398 184.869 45.4414 184.985 45.4414V45.6874H182.037V45.4414C182.138 45.4414 182.254 45.398 182.34 45.3112C182.442 45.2243 182.514 45.123 182.586 44.9928C182.644 44.8625 182.702 44.7323 182.731 44.602C182.759 44.4573 182.774 44.3271 182.774 44.2113V37.3083C182.774 37.1925 182.759 37.0622 182.731 36.9175C182.702 36.7728 182.658 36.6426 182.6 36.4978C182.543 36.3676 182.485 36.2663 182.384 36.1795C182.297 36.0926 182.181 36.0492 182.037 36.0492V35.8032H184.985V36.0492C184.869 36.0492 184.783 36.0926 184.696 36.1795C184.609 36.2663 184.537 36.3821 184.479 36.4978C184.421 36.6281 184.364 36.7583 184.335 36.9175C184.306 37.0622 184.291 37.1925 184.291 37.3083V39.725C184.942 39.1317 185.592 38.5528 186.228 38.0029C186.864 37.4385 187.514 36.8741 188.164 36.2808C188.164 36.2663 188.165 36.2518 188.179 36.2229C188.193 36.2084 188.193 36.1939 188.193 36.165C188.193 36.0782 188.15 36.0492 188.078 36.0492V35.8032H190.072V36.0492C189.985 36.0492 189.913 36.0637 189.798 36.1216C189.682 36.165 189.581 36.2229 189.48 36.2808C189.364 36.3386 189.234 36.4255 189.118 36.5268C188.425 37.1201 187.745 37.7279 187.066 38.3502C186.372 38.9725 185.693 39.5803 185.014 40.1737C185.679 40.1737 186.213 40.3039 186.618 40.5499C187.023 40.796 187.399 41.2012 187.688 41.7511L188.815 43.8206Z" fill="white"/>
<path d="M199.755 45.4124C199.871 45.4124 199.986 45.3546 200.116 45.2677C200.261 45.1809 200.319 45.0362 200.319 44.877C200.319 44.848 200.304 44.7902 200.29 44.6744C200.275 44.5731 200.232 44.4573 200.174 44.3271L197.269 37.2793L194.249 44.6889C193.989 45.3401 193.483 45.6585 192.717 45.6585H192.211V45.4124C192.428 45.4124 192.659 45.2967 192.905 45.0651C193.165 44.8336 193.367 44.5731 193.512 44.2547L196.619 36.7728C196.706 36.5702 196.735 36.411 196.735 36.2808C196.735 36.0926 196.619 36.0058 196.373 36.0058V35.7598H198.223L201.749 44.2258C201.851 44.4718 202.01 44.7178 202.212 44.9783C202.414 45.2533 202.617 45.398 202.804 45.398V45.644H199.755V45.4124Z" fill="white"/>
<path d="M214.005 44.1245C214.005 44.2547 214.019 44.3849 214.062 44.5441C214.106 44.6889 214.149 44.8336 214.207 44.9493C214.265 45.0796 214.351 45.1954 214.453 45.2822C214.554 45.369 214.64 45.4269 214.742 45.4269V45.6729H211.822V45.4269C211.938 45.4269 212.025 45.3835 212.111 45.2967C212.198 45.2098 212.27 45.0941 212.343 44.9638C212.415 44.8336 212.458 44.6889 212.487 44.5441C212.516 44.3994 212.545 44.2547 212.545 44.1245V38.4805L207.111 43.9653V44.1245C207.111 44.2547 207.125 44.3849 207.169 44.5441C207.198 44.6889 207.256 44.8336 207.313 44.9493C207.371 45.0796 207.443 45.1954 207.53 45.2822C207.617 45.369 207.718 45.4269 207.819 45.4269V45.6729H204.914V45.4269C205.015 45.4269 205.117 45.3835 205.203 45.2967C205.29 45.2098 205.377 45.0941 205.435 44.9638C205.492 44.8336 205.536 44.6889 205.579 44.5441C205.608 44.3994 205.637 44.2547 205.637 44.1245V37.2359C205.637 37.1346 205.622 36.9899 205.579 36.8596C205.55 36.7149 205.492 36.5847 205.435 36.4544C205.377 36.3242 205.29 36.2229 205.203 36.136C205.117 36.0492 205.015 36.0058 204.914 36.0058V35.7598H207.819V36.0058C207.704 36.0058 207.602 36.0492 207.516 36.136C207.429 36.2229 207.357 36.3386 207.313 36.4544C207.27 36.5847 207.227 36.7149 207.183 36.8596C207.154 37.0043 207.125 37.1346 207.125 37.2359V42.8509L212.559 37.3806V37.2359C212.559 37.1346 212.545 36.9899 212.502 36.8596C212.473 36.7149 212.415 36.5847 212.357 36.4544C212.299 36.3242 212.213 36.2229 212.126 36.136C212.039 36.0492 211.938 36.0058 211.837 36.0058V35.7598H214.756V36.0058C214.64 36.0058 214.525 36.0492 214.424 36.136C214.323 36.2229 214.25 36.3386 214.192 36.4544C214.135 36.5847 214.106 36.7149 214.062 36.8596C214.033 37.0043 214.019 37.1346 214.019 37.2359V44.1245H214.005Z" fill="white"/>
<path d="M219.858 44.1245C219.858 44.2547 219.872 44.3849 219.901 44.5441C219.93 44.6889 219.988 44.8336 220.045 44.9493C220.103 45.0796 220.176 45.1954 220.262 45.2822C220.349 45.369 220.45 45.4269 220.551 45.4269V45.6729H217.661V45.4269C217.762 45.4269 217.863 45.3835 217.95 45.2967C218.037 45.2098 218.094 45.0941 218.167 44.9638C218.225 44.8336 218.268 44.6889 218.311 44.5441C218.34 44.3994 218.369 44.2547 218.369 44.1245V37.2359C218.369 37.1346 218.355 36.9899 218.311 36.8596C218.282 36.7149 218.225 36.5847 218.167 36.4544C218.109 36.3242 218.037 36.2229 217.95 36.136C217.863 36.0492 217.762 36.0058 217.661 36.0058V35.7598H220.551V36.0058C220.436 36.0058 220.334 36.0492 220.248 36.136C220.161 36.2229 220.103 36.3386 220.045 36.4544C219.988 36.5847 219.959 36.7149 219.915 36.8596C219.886 37.0043 219.872 37.1346 219.872 37.2359V40.0724H225.075V37.2359C225.075 37.1346 225.06 36.9899 225.031 36.8596C225.002 36.7149 224.959 36.5847 224.901 36.4544C224.844 36.3242 224.786 36.2229 224.699 36.136C224.612 36.0492 224.511 36.0058 224.396 36.0058V35.7598H227.286V36.0058C227.17 36.0058 227.069 36.0492 226.982 36.136C226.896 36.2229 226.838 36.3386 226.766 36.4544C226.708 36.5847 226.664 36.7149 226.636 36.8596C226.621 37.0043 226.607 37.1346 226.607 37.2359V44.1245C226.607 44.2547 226.621 44.3849 226.664 44.5441C226.693 44.6889 226.751 44.8336 226.809 44.9493C226.867 45.0796 226.939 45.1954 227.026 45.2822C227.112 45.369 227.214 45.4269 227.315 45.4269V45.6729H224.439V45.4269C224.54 45.4269 224.641 45.3835 224.728 45.2967C224.815 45.2098 224.872 45.0941 224.945 44.9638C225.002 44.8336 225.046 44.6889 225.089 44.5441C225.118 44.3994 225.147 44.2547 225.147 44.1245V40.8538H219.944V44.1245H219.858Z" fill="white"/>
<path d="M239.324 44.1245C239.324 44.2547 239.339 44.3849 239.382 44.5441C239.426 44.6889 239.469 44.8336 239.541 44.9493C239.599 45.0796 239.686 45.1954 239.787 45.2822C239.888 45.369 239.975 45.4269 240.076 45.4269V45.6729H237.157V45.4269C237.272 45.4269 237.359 45.3835 237.446 45.2967C237.532 45.2098 237.605 45.0941 237.677 44.9638C237.749 44.8336 237.793 44.6889 237.821 44.5441C237.85 44.3994 237.879 44.2547 237.879 44.1245V38.4805L232.445 43.9653V44.1245C232.445 44.2547 232.46 44.3849 232.489 44.5441C232.518 44.6889 232.575 44.8336 232.633 44.9493C232.691 45.0796 232.763 45.1954 232.85 45.2822C232.937 45.369 233.038 45.4269 233.139 45.4269V45.6729H230.234V45.4269C230.335 45.4269 230.436 45.3835 230.523 45.2967C230.61 45.2098 230.697 45.0941 230.754 44.9638C230.812 44.8336 230.856 44.6889 230.899 44.5441C230.928 44.3994 230.942 44.2547 230.942 44.1245V37.2359C230.942 37.1346 230.928 36.9899 230.899 36.8596C230.87 36.7149 230.812 36.5847 230.754 36.4544C230.697 36.3242 230.61 36.2229 230.523 36.136C230.436 36.0492 230.335 36.0058 230.234 36.0058V35.7598H233.139V36.0058C233.023 36.0058 232.922 36.0492 232.835 36.136C232.749 36.2229 232.691 36.3386 232.633 36.4544C232.575 36.5847 232.546 36.7149 232.503 36.8596C232.474 37.0043 232.46 37.1346 232.46 37.2359V42.8509L237.894 37.3806V37.2359C237.894 37.1346 237.879 36.9899 237.836 36.8596C237.807 36.7149 237.749 36.5847 237.691 36.4544C237.634 36.3242 237.547 36.2229 237.46 36.136C237.373 36.0492 237.272 36.0058 237.171 36.0058V35.7598H240.09V36.0058C239.975 36.0058 239.859 36.0492 239.758 36.136C239.657 36.2229 239.585 36.3386 239.527 36.4544C239.469 36.5847 239.44 36.7149 239.397 36.8596C239.368 37.0043 239.353 37.1346 239.353 37.2359V44.1245H239.324Z" fill="white"/>
<path d="M249.874 43.8206C249.961 43.9942 250.091 44.1679 250.236 44.356C250.395 44.5441 250.554 44.7178 250.756 44.877C250.944 45.0362 251.146 45.1664 251.348 45.2677C251.551 45.3546 251.724 45.4269 251.912 45.4269V45.6729H251.045C250.351 45.6729 249.802 45.5282 249.412 45.2243C249.022 44.9204 248.733 44.5731 248.516 44.1679L247.446 42.0839C247.273 41.7511 246.998 41.4761 246.594 41.2301C246.204 40.9841 245.77 40.8683 245.336 40.8683V44.2113C245.336 44.3415 245.351 44.4718 245.365 44.602C245.38 44.7323 245.423 44.877 245.495 44.9928C245.553 45.123 245.64 45.2243 245.727 45.3112C245.813 45.398 245.929 45.4414 246.045 45.4414V45.6874H243.096V45.4414C243.198 45.4414 243.313 45.398 243.4 45.3112C243.501 45.2243 243.588 45.123 243.646 44.9928C243.703 44.8625 243.761 44.7323 243.79 44.602C243.819 44.4573 243.833 44.3271 243.833 44.2113V37.3083C243.833 37.1925 243.819 37.0622 243.79 36.9175C243.761 36.7728 243.718 36.6426 243.66 36.4978C243.602 36.3676 243.544 36.2663 243.443 36.1795C243.357 36.0926 243.241 36.0492 243.096 36.0492V35.8032H246.016V36.0492C245.9 36.0492 245.813 36.0926 245.727 36.1795C245.64 36.2663 245.582 36.3821 245.51 36.4978C245.452 36.6281 245.394 36.7583 245.365 36.9175C245.336 37.0622 245.308 37.1925 245.308 37.3083V39.725C245.972 39.1317 246.608 38.5528 247.244 38.0029C247.88 37.4385 248.53 36.8741 249.181 36.2808C249.181 36.2663 249.181 36.2518 249.195 36.2229C249.21 36.2084 249.21 36.1939 249.21 36.165C249.21 36.0782 249.166 36.0492 249.094 36.0492V35.8032H251.088V36.0492C251.002 36.0492 250.929 36.0637 250.814 36.1216C250.698 36.165 250.597 36.2229 250.496 36.2808C250.38 36.3386 250.25 36.4255 250.135 36.5268C249.441 37.1201 248.776 37.7279 248.082 38.3502C247.389 38.9725 246.709 39.5803 246.03 40.1737C246.695 40.1737 247.23 40.3039 247.634 40.5499C248.053 40.796 248.415 41.2012 248.704 41.7511L249.874 43.8206Z" fill="white"/>
<path d="M259.976 45.6585V44.4573L259.861 44.5731C259.471 44.9638 259.037 45.2677 258.546 45.4848C258.054 45.7019 257.462 45.8177 256.754 45.8177C256.219 45.8177 255.756 45.7598 255.381 45.6295C255.005 45.4993 254.687 45.3256 254.441 45.0941C254.196 44.8625 254.022 44.602 253.907 44.2981C253.791 43.9942 253.733 43.6903 253.733 43.3575C253.733 42.822 253.878 42.3589 254.152 41.9537C254.427 41.5485 254.846 41.1867 255.381 40.8683C255.915 40.5499 256.566 40.2605 257.332 40.0145C258.098 39.754 258.979 39.508 259.976 39.2475C259.947 38.6397 259.832 38.1476 259.615 37.7714C259.398 37.3951 259.153 37.1056 258.864 36.8886C258.575 36.686 258.271 36.5413 257.953 36.4689C257.635 36.3965 257.361 36.3676 257.129 36.3676C256.739 36.3676 256.378 36.4255 256.074 36.5412C255.771 36.657 255.511 36.8162 255.28 37.0043C255.048 37.207 254.86 37.424 254.716 37.67C254.571 37.9161 254.47 38.1621 254.383 38.4226H254.181V36.5847C254.326 36.5847 254.47 36.5268 254.658 36.4255C254.846 36.3242 255.063 36.2084 255.308 36.0782C255.554 35.9479 255.858 35.8321 256.219 35.7308C256.566 35.6295 257.014 35.5716 257.52 35.5716C258.358 35.5716 259.037 35.6729 259.557 35.9045C260.078 36.1216 260.482 36.411 260.757 36.7728C261.046 37.1346 261.219 37.5398 261.306 38.0174C261.393 38.4805 261.45 38.958 261.45 39.4356V44.081C261.45 44.3994 261.537 44.6889 261.682 44.9638C261.841 45.2388 262.043 45.3835 262.303 45.3835V45.6295H259.991L259.976 45.6585ZM259.976 43.4153V40.0579L259.745 40.1013C259.384 40.1881 258.936 40.3184 258.416 40.4776C257.895 40.6368 257.389 40.8394 256.913 41.0854C256.436 41.3314 256.031 41.6353 255.699 41.9826C255.366 42.33 255.193 42.7352 255.193 43.1838C255.193 43.6758 255.395 44.0955 255.785 44.4284C256.176 44.7612 256.696 44.9204 257.346 44.9204C257.852 44.9204 258.286 44.8046 258.676 44.5731C259.066 44.3415 259.398 44.0521 259.731 43.6903L259.976 43.4153Z" fill="white"/>
<path d="M81.2634 57.9016C82.2316 57.9016 83.0843 58.0463 83.7925 58.3502C84.5151 58.6396 85.1076 59.0159 85.57 59.4935C86.0325 59.971 86.3794 60.521 86.6106 61.1288C86.8418 61.7511 86.9574 62.3734 86.9574 63.0246C86.9574 63.8205 86.8129 64.5731 86.5094 65.2677C86.2059 65.9624 85.8013 66.5847 85.281 67.1201C84.7607 67.6411 84.1538 68.0608 83.4601 68.3647C82.7664 68.6686 82.0149 68.8133 81.2056 68.8133C80.6997 68.8133 80.2662 68.7699 79.9193 68.6686C79.5869 68.5673 79.2834 68.4805 79.0522 68.3936C78.9366 68.3502 78.8065 68.3068 78.6909 68.2779C78.5608 68.2344 78.4597 68.22 78.3585 68.22V66.5991H78.5175C78.6476 66.9609 78.821 67.2504 79.0522 67.453C79.2834 67.67 79.5291 67.8292 79.8037 67.945C80.0783 68.0463 80.3529 68.1187 80.6275 68.1476C80.9021 68.1765 81.1333 68.191 81.3212 68.191C81.986 68.191 82.5929 68.0463 83.1421 67.7713C83.6913 67.4964 84.1682 67.1346 84.5729 66.6715C84.992 66.2084 85.3099 65.6729 85.5267 65.0651C85.7579 64.4573 85.888 63.835 85.888 63.1693H81.7692C81.509 63.1693 81.2923 63.2417 81.1333 63.3719C80.9743 63.5166 80.8876 63.6758 80.8876 63.864H80.7431V61.8669H80.8876C80.8876 62.0695 80.9743 62.2431 81.1333 62.3878C81.3067 62.5326 81.509 62.6049 81.7692 62.6049H85.8735C85.8157 62.0984 85.6568 61.5919 85.4255 61.0854C85.2087 60.5933 84.8908 60.1447 84.5006 59.754C84.1104 59.3488 83.6335 59.0304 83.0699 58.7844C82.5207 58.5383 81.8703 58.4226 81.1477 58.4226C80.9021 58.4226 80.6564 58.437 80.3962 58.466C80.1506 58.4949 79.9193 58.5673 79.717 58.6686C79.5002 58.7699 79.3123 58.9146 79.1534 59.1172C79.0089 59.3198 78.8932 59.5803 78.8354 59.9132H78.6765V58.2923C78.8065 58.2923 78.9366 58.2778 79.0522 58.2634C79.1823 58.2344 79.3123 58.191 79.4569 58.1476C79.6736 58.0897 79.9338 58.0174 80.2228 57.9595C80.5263 57.945 80.8732 57.9016 81.2634 57.9016ZM93.4897 58.4805C92.7093 58.4805 92.0156 58.6252 91.4375 58.9146C90.8595 59.1896 90.3825 59.5514 90.0068 60.0145C89.631 60.4631 89.342 60.9696 89.1541 61.5195C88.9807 62.0839 88.8795 62.6339 88.8795 63.1983C88.8795 63.8205 88.9952 64.4428 89.2408 65.0506C89.4865 65.644 89.8189 66.1794 90.238 66.6425C90.6716 67.1056 91.1774 67.4674 91.741 67.7569C92.3191 68.0318 92.9405 68.1765 93.6053 68.1765C93.7932 68.1765 94.0245 68.1621 94.2701 68.1187C94.5303 68.0752 94.7904 68.0029 95.0505 67.8726C95.3107 67.7424 95.5419 67.5687 95.7442 67.3517C95.961 67.1346 96.1344 66.8307 96.25 66.4689H96.409V68.2344C96.25 68.2344 96.0766 68.2489 95.9032 68.2923C95.7298 68.3357 95.5419 68.3792 95.3251 68.437C95.0505 68.5094 94.747 68.5818 94.4002 68.6396C94.0678 68.6975 93.7209 68.7409 93.3452 68.7409C92.4203 68.7409 91.611 68.5818 90.9173 68.2634C90.2236 67.945 89.6311 67.5253 89.1686 67.0188C88.7061 66.5123 88.3593 65.9334 88.1136 65.2967C87.8824 64.6454 87.7667 63.9942 87.7667 63.343C87.7667 62.6917 87.8824 62.026 88.1136 61.3893C88.3448 60.7381 88.7061 60.1592 89.183 59.6527C89.66 59.1317 90.2525 58.712 90.9751 58.3936C91.6977 58.0752 92.5503 57.9161 93.5186 57.9161C93.8655 57.9161 94.1834 57.945 94.458 58.0174C94.747 58.0752 94.9927 58.1476 95.224 58.2055C95.3829 58.2634 95.5275 58.3068 95.6575 58.3357C95.802 58.3502 95.9321 58.3647 96.0622 58.3647V60.1302H95.9032C95.8454 59.7974 95.7298 59.5369 95.5564 59.3198C95.3829 59.1027 95.1806 58.9291 94.9494 58.8133C94.7326 58.6975 94.4869 58.6107 94.2123 58.5818C93.9955 58.5094 93.7354 58.4805 93.4897 58.4805ZM101.655 68.4081H101.742V68.5673H99.4873V68.4081H99.5595C99.6463 68.4081 99.7185 68.3792 99.7763 68.3068C99.8341 68.2489 99.8919 68.1621 99.9353 68.0897C99.9931 68.0029 100.022 67.9161 100.051 67.8148C100.065 67.7135 100.08 67.6121 100.08 67.5253V58.6396H98.23C98.0565 58.6396 97.912 58.6831 97.782 58.7554C97.6519 58.8278 97.5507 58.9291 97.464 59.0449C97.3773 59.1462 97.3195 59.2764 97.2761 59.4066C97.2328 59.5369 97.2183 59.6671 97.2183 59.7829H97.0594V58.0463H104.199V59.7829H104.04C104.04 59.6527 104.025 59.5224 103.982 59.4066C103.938 59.2619 103.881 59.1462 103.794 59.0449C103.707 58.9291 103.606 58.8278 103.476 58.7554C103.346 58.6831 103.201 58.6396 103.028 58.6396H101.149V67.5253C101.149 67.6121 101.164 67.699 101.178 67.8148C101.193 67.9161 101.236 68.0029 101.279 68.0897C101.337 68.1765 101.38 68.2489 101.438 68.3068C101.496 68.3792 101.568 68.4081 101.655 68.4081ZM105.066 68.4081H105.152C105.239 68.4081 105.311 68.3792 105.369 68.3213C105.427 68.2634 105.485 68.1765 105.528 68.1042C105.586 68.0174 105.615 67.9305 105.644 67.8292C105.673 67.7279 105.687 67.6411 105.687 67.5543V59.0304C105.687 58.958 105.673 58.8712 105.644 58.7699C105.629 58.6686 105.586 58.5818 105.528 58.4949C105.485 58.4081 105.427 58.3357 105.369 58.2923C105.311 58.2344 105.225 58.191 105.152 58.191H105.066V58.0318H111.193V59.5079H111.034C111.02 59.2619 110.919 59.0449 110.745 58.8712C110.572 58.6831 110.312 58.5818 109.951 58.5818H106.757V62.6049H109.401C109.647 62.6049 109.849 62.5326 110.008 62.3878C110.182 62.2431 110.268 62.0695 110.268 61.8669H110.427V63.864H110.268C110.268 63.6758 110.182 63.5022 110.023 63.3719C109.864 63.2272 109.661 63.1693 109.401 63.1693H106.757V68.0174H110.24C110.442 68.0174 110.615 67.9739 110.76 67.8726C110.904 67.7713 111.034 67.67 111.121 67.5398C111.222 67.3951 111.295 67.2648 111.338 67.1056C111.396 66.9464 111.425 66.8162 111.425 66.7149H111.584V68.5818H105.066V68.4081ZM116.801 68.4081H116.887V68.5673H114.633V68.4081H114.72C114.806 68.4081 114.879 68.3792 114.936 68.3068C114.994 68.2489 115.052 68.1621 115.095 68.0897C115.153 68.0029 115.182 67.9161 115.211 67.8148C115.225 67.7135 115.24 67.6121 115.24 67.5253V58.6396H113.39C113.217 58.6396 113.072 58.6831 112.942 58.7554C112.812 58.8278 112.711 58.9291 112.624 59.0449C112.537 59.1462 112.48 59.2764 112.436 59.4066C112.393 59.5369 112.378 59.6671 112.378 59.7829H112.219V58.0463H119.359V59.7829H119.2C119.2 59.6527 119.185 59.5224 119.142 59.4066C119.099 59.2619 119.041 59.1462 118.954 59.0449C118.867 58.9291 118.766 58.8278 118.636 58.7554C118.506 58.6831 118.362 58.6396 118.188 58.6396H116.309V67.5253C116.309 67.6121 116.324 67.699 116.338 67.8148C116.353 67.9161 116.396 68.0029 116.439 68.0897C116.497 68.1765 116.541 68.2489 116.598 68.3068C116.642 68.3792 116.728 68.4081 116.801 68.4081ZM126.556 68.4081H126.643C126.729 68.4081 126.801 68.3792 126.859 68.3213C126.917 68.2634 126.975 68.1765 127.018 68.1042C127.076 68.0029 127.105 67.9161 127.134 67.8148C127.148 67.7135 127.163 67.6121 127.163 67.5253V60.2315L121.888 67.3806V67.5253C121.888 67.6121 121.902 67.699 121.917 67.8148C121.946 67.9161 121.989 68.0029 122.032 68.0897C122.076 68.1765 122.134 68.2489 122.191 68.3068C122.249 68.3647 122.336 68.4081 122.408 68.4081H122.495V68.5673H120.24V68.4081H120.327C120.414 68.4081 120.486 68.3792 120.544 68.3213C120.602 68.2634 120.659 68.1765 120.703 68.1042C120.761 68.0029 120.789 67.9161 120.818 67.8148C120.833 67.7135 120.847 67.6121 120.847 67.5253V59.0449C120.847 58.9725 120.833 58.8857 120.818 58.7844C120.804 58.6831 120.761 58.5962 120.703 58.5094C120.659 58.4226 120.602 58.3502 120.544 58.3068C120.486 58.2489 120.399 58.2055 120.327 58.2055H120.24V58.0463H122.495V58.2055H122.365C122.292 58.22 122.22 58.2489 122.162 58.3213C122.105 58.3792 122.061 58.466 122.018 58.5383C121.975 58.6107 121.946 58.6975 121.917 58.7988C121.902 58.8857 121.888 58.958 121.888 59.0449V66.3965L127.163 59.2475V59.0449C127.163 58.9725 127.148 58.8857 127.134 58.7844C127.119 58.6831 127.076 58.5962 127.018 58.5094C126.975 58.4226 126.917 58.3502 126.859 58.3068C126.801 58.2489 126.715 58.2055 126.643 58.2055H126.556V58.0463H128.81V58.2055H128.724C128.637 58.2055 128.565 58.2344 128.507 58.3068C128.449 58.3647 128.391 58.4226 128.348 58.5094C128.304 58.5962 128.261 58.6831 128.232 58.7844C128.218 58.8857 128.203 58.958 128.203 59.0449V67.5253C128.203 67.6121 128.218 67.699 128.232 67.8003C128.261 67.9016 128.304 67.9884 128.348 68.0897C128.391 68.1765 128.449 68.2489 128.507 68.3068C128.565 68.3647 128.651 68.4081 128.724 68.4081H128.81V68.5673H126.556V68.4081ZM135.285 68.4081H135.372C135.444 68.4081 135.516 68.3792 135.574 68.3213C135.632 68.2634 135.689 68.1765 135.733 68.1042C135.791 68.0174 135.82 67.9305 135.848 67.8292C135.863 67.7279 135.877 67.6411 135.877 67.5543V63.314C135.661 63.4732 135.386 63.6324 135.025 63.7771C134.663 63.9218 134.288 63.9942 133.883 63.9942C133.406 63.9942 132.972 63.9074 132.582 63.7482C132.207 63.5745 131.874 63.343 131.6 63.068C131.339 62.7786 131.123 62.4457 130.978 62.0839C130.834 61.7077 130.776 61.3025 130.776 60.8683V59.0159C130.776 58.9436 130.761 58.8567 130.747 58.7554C130.732 58.6541 130.689 58.5673 130.646 58.4805C130.617 58.3936 130.559 58.3213 130.501 58.2779C130.443 58.22 130.386 58.1765 130.328 58.1765H130.241V58.0174H132.452V58.1765H132.365C132.279 58.1765 132.207 58.2055 132.149 58.2779C132.091 58.3357 132.033 58.3936 131.975 58.4805C131.932 58.5673 131.889 58.6541 131.86 58.7554C131.845 58.8567 131.831 58.9291 131.831 59.0159V60.9551C131.831 61.3025 131.903 61.6208 132.033 61.9103C132.178 62.1997 132.351 62.4457 132.568 62.6628C132.785 62.8654 133.045 63.0246 133.319 63.1404C133.608 63.2417 133.897 63.2996 134.172 63.2996C134.461 63.2996 134.75 63.2272 135.054 63.097C135.357 62.9522 135.632 62.793 135.877 62.6194V59.0159C135.877 58.9436 135.863 58.8567 135.848 58.7699C135.834 58.6686 135.791 58.5962 135.747 58.5094C135.718 58.4226 135.675 58.3502 135.617 58.2923C135.559 58.2344 135.502 58.191 135.429 58.1765H135.299V58.0174H137.554V58.1765H137.438C137.366 58.191 137.294 58.22 137.236 58.2923C137.178 58.3502 137.12 58.437 137.077 58.5094C137.033 58.5818 137.005 58.6686 136.976 58.7699C136.961 58.8567 136.947 58.9291 136.947 59.0159V67.5398C136.947 67.6121 136.961 67.699 136.976 67.8003C136.99 67.9016 137.033 67.9884 137.077 68.0752C137.12 68.1476 137.178 68.22 137.236 68.2779C137.294 68.3357 137.366 68.3792 137.438 68.3936H137.568V68.5528H135.299V68.4081H135.285ZM139.057 68.4081H139.143C139.23 68.4081 139.302 68.3792 139.36 68.3213C139.418 68.2634 139.476 68.1765 139.519 68.1042C139.577 68.0174 139.606 67.9305 139.635 67.8292C139.664 67.7279 139.678 67.6411 139.678 67.5543V59.0304C139.678 58.958 139.664 58.8712 139.635 58.7699C139.62 58.6686 139.577 58.5818 139.519 58.4949C139.476 58.4081 139.418 58.3357 139.36 58.2923C139.302 58.2344 139.216 58.191 139.143 58.191H139.057V58.0318H145.184V59.5079H145.025C145.011 59.2619 144.91 59.0449 144.736 58.8712C144.563 58.6831 144.303 58.5818 143.942 58.5818H140.748V62.6049H143.392C143.638 62.6049 143.84 62.5326 143.999 62.3878C144.173 62.2431 144.259 62.0695 144.259 61.8669H144.418V63.864H144.231C144.231 63.6758 144.144 63.5022 143.985 63.3719C143.826 63.2272 143.624 63.1693 143.363 63.1693H140.719V68.0174H144.202C144.404 68.0174 144.577 67.9739 144.722 67.8726C144.866 67.7713 144.997 67.67 145.083 67.5398C145.184 67.3951 145.257 67.2648 145.3 67.1056C145.358 66.9464 145.372 66.8162 145.372 66.7149H145.531V68.5818H139.013V68.4081H139.057ZM151.832 58.4805C151.052 58.4805 150.358 58.6252 149.78 58.9146C149.202 59.1896 148.725 59.5514 148.349 60.0145C147.974 60.4631 147.685 60.9696 147.497 61.5195C147.323 62.0839 147.222 62.6339 147.222 63.1983C147.222 63.8205 147.338 64.4428 147.583 65.0506C147.829 65.644 148.161 66.1794 148.581 66.6425C149.014 67.1056 149.52 67.4674 150.084 67.7569C150.662 68.0318 151.283 68.1765 151.948 68.1765C152.136 68.1765 152.367 68.1621 152.613 68.1187C152.873 68.0752 153.133 68.0029 153.393 67.8726C153.653 67.7424 153.884 67.5687 154.087 67.3517C154.304 67.1346 154.477 66.8307 154.593 66.4689H154.752V68.2344C154.593 68.2344 154.419 68.2489 154.246 68.2923C154.072 68.3357 153.884 68.3792 153.668 68.437C153.393 68.5094 153.09 68.5818 152.743 68.6396C152.41 68.6975 152.064 68.7409 151.688 68.7409C150.763 68.7409 149.954 68.5818 149.26 68.2634C148.566 67.945 147.974 67.5253 147.511 67.0188C147.049 66.5123 146.702 65.9334 146.456 65.2967C146.225 64.6454 146.109 63.9942 146.109 63.343C146.109 62.6917 146.225 62.026 146.456 61.3893C146.687 60.7381 147.049 60.1592 147.526 59.6527C148.003 59.1317 148.61 58.712 149.318 58.3936C150.04 58.0752 150.893 57.9161 151.861 57.9161C152.208 57.9161 152.526 57.945 152.801 58.0174C153.09 58.0752 153.335 58.1476 153.567 58.2055C153.726 58.2634 153.87 58.3068 154 58.3357C154.145 58.3502 154.275 58.3647 154.405 58.3647V60.1302H154.246C154.188 59.7974 154.072 59.5369 153.899 59.3198C153.725 59.1027 153.523 58.9291 153.292 58.8133C153.075 58.6975 152.829 58.6107 152.555 58.5818C152.324 58.5094 152.078 58.4805 151.832 58.4805ZM156.139 68.4081H156.226C156.312 68.4081 156.385 68.3792 156.442 68.3068C156.5 68.2489 156.558 68.1621 156.601 68.0897C156.659 68.0029 156.688 67.9161 156.717 67.8148C156.732 67.7135 156.746 67.6121 156.746 67.5253V59.0449C156.746 58.9725 156.732 58.8857 156.717 58.7844C156.703 58.6831 156.659 58.5962 156.601 58.5094C156.558 58.4226 156.5 58.3502 156.442 58.3068C156.385 58.2489 156.312 58.2055 156.24 58.2055H156.153V58.0463H158.408V58.2055H158.336C158.249 58.2055 158.177 58.2344 158.119 58.3068C158.061 58.3647 158.003 58.4226 157.945 58.5094C157.902 58.5962 157.859 58.6831 157.83 58.7844C157.815 58.8857 157.801 58.958 157.801 59.0449V62.3444L161.486 58.6686C161.573 58.5818 161.616 58.4805 161.616 58.3647C161.616 58.2634 161.573 58.22 161.486 58.22V58.0608H163.206V58.22C162.989 58.2344 162.801 58.2923 162.628 58.4081C162.469 58.5239 162.296 58.6831 162.108 58.8712L158.336 62.6483C159.029 62.6628 159.579 62.822 159.998 63.097C160.417 63.3719 160.749 63.7482 160.995 64.2402L162.252 66.7873C162.324 66.9464 162.426 67.1201 162.541 67.3082C162.671 67.4819 162.801 67.67 162.96 67.8292C163.119 67.9884 163.293 68.1331 163.481 68.2489C163.668 68.3502 163.871 68.4081 164.088 68.4081V68.5673H163.307C163.004 68.5673 162.729 68.5239 162.512 68.437C162.296 68.3357 162.093 68.22 161.92 68.0752C161.761 67.9161 161.616 67.7424 161.486 67.5543C161.371 67.3661 161.269 67.178 161.168 66.9754L159.882 64.4139C159.68 64.0231 159.405 63.7192 159.044 63.5166C158.697 63.2996 158.278 63.1838 157.801 63.1693V67.5253C157.801 67.6121 157.815 67.699 157.83 67.8003C157.844 67.9016 157.888 67.9884 157.931 68.0897C157.974 68.1765 158.032 68.2489 158.09 68.3068C158.148 68.3647 158.22 68.3936 158.292 68.4081H158.408V68.5673H156.153V68.4081H156.139ZM171.111 68.4081H171.198C171.458 68.4081 171.574 68.2923 171.574 68.0608C171.574 67.9739 171.559 67.8871 171.53 67.7858L170.1 63.9218H167.325L165.937 67.7279C165.909 67.8148 165.894 67.8871 165.894 67.9739C165.894 68.1187 165.937 68.22 166.01 68.3068C166.082 68.3792 166.169 68.4226 166.255 68.4226H166.342V68.5818H164.579V68.4226H164.666C164.81 68.4226 164.94 68.3357 165.07 68.191C165.2 68.0174 165.316 67.8292 165.403 67.5977L169.045 57.8871L172.6 67.4964C172.672 67.7134 172.773 67.9161 172.903 68.1187C173.048 68.3213 173.221 68.4226 173.424 68.4226H173.51V68.5818H171.155V68.4081H171.111ZM167.469 63.3864H169.912L168.683 60.0579L167.469 63.3864ZM179.551 68.4081H179.638C179.71 68.4081 179.782 68.3792 179.84 68.3068C179.912 68.2489 179.97 68.1621 180.014 68.0897C180.057 68.0029 180.086 67.9161 180.115 67.8148C180.144 67.7135 180.158 67.6121 180.158 67.5253V63.2127C179.927 63.2272 179.71 63.314 179.493 63.4298C179.291 63.5601 179.089 63.7337 178.901 63.9363C178.727 64.1534 178.54 64.3849 178.381 64.6454C178.222 64.9059 178.063 65.1809 177.918 65.4703C177.802 65.6874 177.672 65.9045 177.542 66.1505C177.398 66.382 177.268 66.6281 177.123 66.8596C176.863 67.3227 176.531 67.7279 176.126 68.0608C175.707 68.3792 175.23 68.5383 174.695 68.5383H173.857V68.3792C174.103 68.3792 174.334 68.3213 174.536 68.22C174.753 68.1187 174.955 67.9884 175.143 67.8292C175.317 67.67 175.49 67.4964 175.62 67.3082C175.765 67.1201 175.895 66.932 175.982 66.7728L177.239 64.5152C177.383 64.2547 177.542 64.0231 177.716 63.7771C177.889 63.5311 178.164 63.343 178.525 63.1838C178.077 63.1548 177.687 63.068 177.326 62.9233C176.979 62.7786 176.675 62.6049 176.43 62.3878C176.184 62.1708 175.996 61.9103 175.866 61.6353C175.736 61.3459 175.678 61.0564 175.678 60.7381C175.678 60.3473 175.765 59.9855 175.953 59.6527C176.126 59.3198 176.386 59.0304 176.719 58.7988C177.051 58.5528 177.441 58.3647 177.918 58.2344C178.395 58.0897 178.93 58.0318 179.508 58.0318H181.791V58.191H181.704C181.632 58.191 181.56 58.22 181.502 58.2923C181.444 58.3502 181.387 58.4081 181.343 58.4949C181.3 58.5818 181.271 58.6686 181.242 58.7699C181.228 58.8712 181.213 58.9436 181.213 59.0304V67.5108C181.213 67.5977 181.228 67.6845 181.242 67.8003C181.256 67.9016 181.3 67.9884 181.343 68.0752C181.387 68.1621 181.444 68.2344 181.502 68.2923C181.56 68.3502 181.632 68.3936 181.704 68.3936H181.791V68.5528H179.551V68.4081ZM176.69 60.5355C176.69 60.8394 176.747 61.1288 176.878 61.3893C177.008 61.6498 177.181 61.8669 177.398 62.055C177.615 62.2431 177.875 62.3878 178.178 62.5036C178.482 62.6049 178.8 62.6628 179.146 62.6628H180.144V58.6107H179.912C178.886 58.6107 178.091 58.7844 177.528 59.1172C176.979 59.4645 176.69 59.9276 176.69 60.5355ZM195.983 68.4081H196.055C196.128 68.4081 196.2 68.3792 196.258 68.3068C196.315 68.2489 196.373 68.1621 196.417 68.0897C196.474 68.0029 196.503 67.9161 196.532 67.8148C196.547 67.7135 196.561 67.6121 196.561 67.5253V59.1462L192.457 68.7265L188.555 59.6382V67.5253C188.555 67.6121 188.569 67.699 188.584 67.8148C188.598 67.9161 188.641 68.0029 188.685 68.0897C188.743 68.1765 188.8 68.2489 188.858 68.3068C188.916 68.3647 189.003 68.4081 189.075 68.4081H189.147V68.5673H187.413V68.4081H187.485C187.558 68.4081 187.63 68.3792 187.688 68.3068C187.745 68.2489 187.803 68.1621 187.847 68.0897C187.89 68.0029 187.919 67.9161 187.948 67.8148C187.962 67.7135 187.977 67.6121 187.977 67.5253V59.0449C187.977 58.9725 187.962 58.8857 187.948 58.7844C187.933 58.6831 187.89 58.5962 187.847 58.5094C187.803 58.4226 187.745 58.3502 187.688 58.3068C187.63 58.2489 187.558 58.2055 187.485 58.2055H187.413V58.0463H189.032L192.717 66.7583L196.402 58.0463H198.194V58.2055H198.122C198.035 58.2055 197.963 58.2344 197.905 58.3068C197.847 58.3647 197.79 58.4226 197.732 58.5094C197.688 58.5962 197.659 58.6831 197.631 58.7844C197.616 58.8857 197.602 58.958 197.602 59.0449V67.5253C197.602 67.6121 197.616 67.699 197.631 67.8148C197.645 67.9161 197.688 68.0029 197.732 68.0897C197.79 68.1765 197.847 68.2489 197.905 68.3068C197.963 68.3647 198.05 68.4081 198.122 68.4081H198.194V68.5673H195.94V68.4081H195.983ZM199.784 68.4081H199.871C199.957 68.4081 200.03 68.3792 200.087 68.3213C200.145 68.2634 200.203 68.1765 200.246 68.1042C200.304 68.0174 200.333 67.9305 200.362 67.8292C200.391 67.7279 200.405 67.6411 200.405 67.5543V59.0304C200.405 58.958 200.391 58.8712 200.362 58.7699C200.348 58.6686 200.304 58.5818 200.246 58.4949C200.203 58.4081 200.145 58.3357 200.087 58.2923C200.03 58.2344 199.943 58.191 199.871 58.191H199.784V58.0318H205.912V59.5079H205.753C205.738 59.2619 205.637 59.0449 205.464 58.8712C205.29 58.6831 205.03 58.5818 204.669 58.5818H201.475V62.6049H204.119C204.365 62.6049 204.568 62.5326 204.726 62.3878C204.9 62.2431 204.987 62.0695 204.987 61.8669H205.146V63.864H204.987C204.987 63.6758 204.914 63.5022 204.755 63.3719C204.596 63.2272 204.394 63.1693 204.134 63.1693H201.489V68.0174H204.972C205.174 68.0174 205.348 67.9739 205.492 67.8726C205.637 67.7713 205.767 67.67 205.854 67.5398C205.955 67.3951 206.027 67.2648 206.07 67.1056C206.128 66.9464 206.157 66.8162 206.157 66.7149H206.316V68.5818H199.798V68.4081H199.784ZM217.285 68.0174V70.0145H217.126C217.112 69.8697 217.083 69.725 217.011 69.5514C216.953 69.3777 216.852 69.2185 216.736 69.0738C216.635 68.9291 216.505 68.8133 216.36 68.7265C216.216 68.6252 216.042 68.5818 215.869 68.5818H208.542C208.368 68.5818 208.195 68.6252 208.05 68.7265C207.906 68.8278 207.776 68.958 207.66 69.0883C207.559 69.233 207.458 69.3922 207.386 69.5658C207.328 69.7395 207.284 69.8842 207.27 70.0145H207.111V68.0174H207.805C208.152 68.0174 208.383 67.8148 208.513 67.424L212.169 57.8292L215.854 67.3806C215.927 67.5398 216.028 67.6845 216.158 67.8292C216.288 67.9595 216.433 68.0174 216.606 68.0174H217.285ZM208.874 68.0174H215.002L211.938 60.1013L208.874 68.0174ZM224.901 68.4081H224.974C225.06 68.4081 225.133 68.3792 225.19 68.3213C225.248 68.2634 225.306 68.1765 225.349 68.1042C225.407 68.0029 225.436 67.9161 225.465 67.8148C225.479 67.7135 225.494 67.6121 225.494 67.5253V60.2315L220.219 67.3806V67.5253C220.219 67.6121 220.233 67.699 220.248 67.8148C220.277 67.9161 220.32 68.0029 220.363 68.0897C220.407 68.1765 220.465 68.2489 220.522 68.3068C220.58 68.3647 220.667 68.4081 220.739 68.4081H220.811V68.5673H218.557V68.4081H218.644C218.73 68.4081 218.803 68.3792 218.86 68.3213C218.918 68.2634 218.976 68.1765 219.019 68.1042C219.077 68.0029 219.106 67.9161 219.135 67.8148C219.15 67.7135 219.164 67.6121 219.164 67.5253V59.0449C219.164 58.9725 219.15 58.8857 219.135 58.7844C219.121 58.6831 219.077 58.5962 219.019 58.5094C218.976 58.4226 218.918 58.3502 218.86 58.3068C218.803 58.2489 218.716 58.2055 218.644 58.2055H218.557V58.0463H220.811V58.2055H220.681C220.609 58.22 220.537 58.2489 220.479 58.3213C220.421 58.3792 220.378 58.466 220.335 58.5383C220.291 58.6107 220.262 58.6975 220.233 58.7988C220.219 58.8857 220.205 58.958 220.205 59.0449V66.3965L225.479 59.2475V59.0449C225.479 58.9725 225.465 58.8857 225.451 58.7844C225.436 58.6831 225.393 58.5962 225.335 58.5094C225.292 58.4226 225.234 58.3502 225.176 58.3068C225.118 58.2489 225.031 58.2055 224.959 58.2055H224.887V58.0463H227.141V58.2055H227.055C226.968 58.2055 226.896 58.2344 226.838 58.3068C226.78 58.3647 226.722 58.4226 226.679 58.5094C226.636 58.5962 226.592 58.6831 226.563 58.7844C226.549 58.8857 226.534 58.958 226.534 59.0449V67.5253C226.534 67.6121 226.549 67.699 226.563 67.8003C226.592 67.9016 226.636 67.9884 226.679 68.0897C226.722 68.1765 226.78 68.2489 226.838 68.3068C226.896 68.3647 226.982 68.4081 227.055 68.4081H227.141V68.5673H224.887V68.4081H224.901ZM228.644 68.4081H228.731C228.832 68.4081 228.905 68.3792 228.962 68.3068C229.02 68.2489 229.078 68.1621 229.107 68.0897C229.15 68.0029 229.179 67.9161 229.194 67.8148C229.208 67.7135 229.223 67.6121 229.223 67.5253V59.0883C229.223 59.0159 229.208 58.9291 229.194 58.8133C229.179 58.712 229.15 58.6107 229.107 58.5239C229.078 58.437 229.035 58.3647 228.962 58.3068C228.89 58.2489 228.818 58.2055 228.731 58.2055H228.644V58.0463H230.885V58.2055H230.726C230.639 58.22 230.567 58.2489 230.509 58.3213C230.451 58.3792 230.408 58.466 230.379 58.5383C230.35 58.6252 230.321 58.712 230.292 58.8278C230.278 58.9291 230.278 59.0014 230.278 59.0883V68.0174H235.061V59.1027C235.061 59.0304 235.047 58.9436 235.032 58.8422C235.018 58.7409 234.989 58.6396 234.96 58.5528C234.931 58.466 234.873 58.3936 234.815 58.3357C234.758 58.2779 234.671 58.2344 234.599 58.22H234.497V58.0608H236.709V58.22H236.564C236.477 58.2344 236.405 58.2634 236.362 58.3357C236.304 58.3936 236.261 58.4805 236.232 58.5528C236.203 58.6396 236.174 58.7265 236.159 58.8422C236.145 58.9436 236.145 59.0159 236.145 59.1027V67.1635C236.145 67.3806 236.203 67.5687 236.304 67.7569C236.42 67.9305 236.607 68.0318 236.853 68.0318H237.648V70.0289H237.489C237.475 69.8842 237.446 69.7395 237.373 69.5658C237.316 69.4066 237.229 69.2475 237.113 69.1027C237.012 68.958 236.868 68.8422 236.694 68.7409C236.535 68.6396 236.347 68.5962 236.116 68.5962H228.63V68.4081H228.644ZM244.932 68.4081H245.004C245.091 68.4081 245.163 68.3792 245.221 68.3213C245.279 68.2634 245.336 68.1765 245.38 68.1042C245.438 68.0029 245.467 67.9161 245.495 67.8148C245.51 67.7135 245.524 67.6121 245.524 67.5253V60.2315L240.249 67.3806V67.5253C240.249 67.6121 240.264 67.699 240.278 67.8148C240.307 67.9161 240.351 68.0029 240.394 68.0897C240.437 68.1765 240.495 68.2489 240.553 68.3068C240.611 68.3647 240.697 68.4081 240.77 68.4081H240.842V68.5673H238.587V68.4081H238.66C238.746 68.4081 238.819 68.3792 238.876 68.3213C238.934 68.2634 238.992 68.1765 239.035 68.1042C239.093 68.0029 239.122 67.9161 239.151 67.8148C239.165 67.7135 239.18 67.6121 239.18 67.5253V59.0449C239.18 58.9725 239.165 58.8857 239.151 58.7844C239.137 58.6831 239.093 58.5962 239.035 58.5094C238.992 58.4226 238.934 58.3502 238.876 58.3068C238.819 58.2489 238.732 58.2055 238.66 58.2055H238.587V58.0463H240.842V58.2055H240.712C240.64 58.22 240.567 58.2489 240.51 58.3213C240.452 58.3792 240.408 58.466 240.365 58.5383C240.322 58.6107 240.293 58.6975 240.264 58.7988C240.249 58.8857 240.235 58.958 240.235 59.0449V66.3965L245.51 59.2475V59.0449C245.51 58.9725 245.495 58.8857 245.481 58.7844C245.467 58.6831 245.423 58.5962 245.365 58.5094C245.322 58.4226 245.264 58.3502 245.206 58.3068C245.149 58.2489 245.062 58.2055 244.99 58.2055H244.917V58.0463H247.172V58.2055H247.085C246.998 58.2055 246.926 58.2344 246.868 58.3068C246.811 58.3647 246.753 58.4226 246.709 58.5094C246.666 58.5962 246.623 58.6831 246.594 58.7844C246.579 58.8857 246.565 58.958 246.565 59.0449V67.5253C246.565 67.6121 246.579 67.699 246.594 67.8003C246.623 67.9016 246.666 67.9884 246.709 68.0897C246.753 68.1765 246.811 68.2489 246.868 68.3068C246.926 68.3647 247.013 68.4081 247.085 68.4081H247.172V68.5673H244.917V68.4081H244.932ZM255.034 68.4081H255.106C255.178 68.4081 255.251 68.3792 255.308 68.3213C255.366 68.2634 255.424 68.1765 255.467 68.1042C255.525 68.0029 255.554 67.9161 255.583 67.8148C255.597 67.7135 255.612 67.6121 255.612 67.5253V63.1983H250.525V67.5253C250.525 67.6121 250.539 67.699 250.554 67.8148C250.568 67.9161 250.611 68.0029 250.655 68.0897C250.698 68.1765 250.742 68.2489 250.799 68.3068C250.857 68.3647 250.929 68.4081 251.016 68.4081H251.103V68.5673H248.877V68.4081H248.964C249.036 68.4081 249.108 68.3792 249.166 68.3213C249.224 68.2634 249.282 68.1765 249.325 68.1042C249.383 68.0029 249.412 67.9161 249.441 67.8148C249.455 67.7135 249.47 67.6121 249.47 67.5253V59.0449C249.47 58.9725 249.455 58.8857 249.441 58.7844C249.426 58.6831 249.383 58.5962 249.34 58.5094C249.296 58.4226 249.239 58.3502 249.181 58.3068C249.123 58.2489 249.036 58.2055 248.964 58.2055H248.877V58.0463H251.103V58.2055H251.016C250.929 58.2055 250.857 58.2344 250.799 58.3068C250.742 58.3647 250.684 58.4226 250.64 58.5094C250.611 58.5962 250.583 58.6831 250.554 58.7844C250.539 58.8857 250.525 58.958 250.525 59.0449V62.6483H255.612V59.0449C255.612 58.9725 255.597 58.8857 255.583 58.7844C255.568 58.6831 255.525 58.5962 255.482 58.5094C255.438 58.4226 255.381 58.3502 255.323 58.3068C255.265 58.2489 255.178 58.2055 255.106 58.2055H255.034V58.0463H257.259V58.2055H257.187C257.1 58.2055 257.028 58.2344 256.97 58.3068C256.913 58.3647 256.855 58.4226 256.811 58.5094C256.782 58.5962 256.754 58.6831 256.739 58.7844C256.725 58.8857 256.71 58.958 256.71 59.0449V67.5253C256.71 67.6121 256.725 67.699 256.739 67.8148C256.768 67.9161 256.811 68.0029 256.855 68.0897C256.898 68.1765 256.941 68.2489 256.999 68.3068C257.057 68.3647 257.129 68.4081 257.202 68.4081H257.274V68.5673H255.048V68.4081H255.034ZM264.644 68.4081H264.731C264.991 68.4081 265.107 68.2923 265.107 68.0608C265.107 67.9739 265.092 67.8871 265.063 67.7858L263.633 63.9218H260.843L259.456 67.7279C259.427 67.8148 259.413 67.8871 259.413 67.9739C259.413 68.1187 259.442 68.22 259.528 68.3068C259.601 68.3792 259.687 68.4226 259.76 68.4226H259.846V68.5818H258.083V68.4226H258.17C258.314 68.4226 258.444 68.3357 258.56 68.191C258.705 68.0174 258.806 67.8292 258.892 67.5977L262.534 57.8871L266.089 67.4964C266.162 67.7134 266.263 67.9161 266.393 68.1187C266.538 68.3213 266.711 68.4226 266.913 68.4226H266.986V68.5818H264.63V68.4081H264.644ZM261.002 63.3864H263.445L262.216 60.0579L261.002 63.3864Z" fill="white"/>
<path d="M264.254 51.1288C202.458 53.1693 139.837 53.1693 78.0406 51.1288C139.837 49.0738 202.458 49.0883 264.254 51.1288Z" fill="white"/>
<mask id="mask0_2273_5047" style="mask-type:luminance" maskUnits="userSpaceOnUse" x="0" y="0" width="64" height="70">
<path d="M63.5886 0H0V69.4645H63.5886V0Z" fill="white"/>
</mask>
<g mask="url(#mask0_2273_5047)">
<path d="M53.6312 0V4.09551H50.1772V0H40.2198V4.09551H36.7658V0H26.8084V4.09551H23.3544V0H13.4114V4.09551H9.9574V0H0V24.9928C0.780406 45.4269 10.2464 59.6093 31.7943 69.4645C53.5012 59.6093 62.8082 44.602 63.5886 24.9928V0H53.6312ZM59.8167 26.0926C59.123 43.3719 50.9287 56.5991 31.7943 65.2967C12.79 56.6136 4.4512 44.11 3.75751 26.0926V7.67004H59.8022V26.0926H59.8167Z" fill="white"/>
<path d="M52.0993 25.8466C52.1282 25.7742 52.1138 25.7163 52.0993 25.6874C52.0704 25.6295 52.0126 25.6006 51.9403 25.5716C49.8737 25.1664 44.5843 24.4428 40.1186 26.7294C35.6819 29.0159 32.5458 35.5572 32.4591 35.644H31.2018C31.0717 35.5572 27.9356 29.0159 23.4844 26.7294C21.0709 25.4848 18.4118 25.1375 16.1428 25.1375C14.2352 25.1375 12.6165 25.398 11.6627 25.5861C11.5905 25.6006 11.5327 25.644 11.5037 25.7019C11.4893 25.7308 11.4748 25.7887 11.5037 25.8611C12.2697 27.7279 14.5242 32.3155 18.9754 34.602C19.6547 34.9493 21.0709 35.3111 22.7329 35.644H13.9461C13.4259 35.644 13.0501 35.9913 13.238 36.3386C14.3074 38.4949 18.3684 44.9204 29.3953 45.7742V56.0203C26.635 56.8017 25.869 58.6686 25.869 58.6686H37.893C37.893 58.6686 37.604 56.6281 34.3668 55.919V45.7742C45.5381 44.9204 49.5124 38.466 50.524 36.3242C50.683 35.9913 50.3217 35.6295 49.8014 35.6295H40.7979C42.5032 35.2967 43.9629 34.9204 44.6132 34.5875C49.0644 32.3155 51.3334 27.7279 52.0993 25.8466Z" fill="white"/>
<path d="M23.889 25.9624C28.6004 28.3792 30.9705 33.1983 31.7654 35.152C31.7654 35.1664 31.7798 35.1954 31.7943 35.2098C31.7943 35.1954 31.7943 35.1664 31.8087 35.152C32.618 33.1983 34.9882 28.3792 39.685 25.9624C40.9279 25.3256 42.2286 24.9204 43.5148 24.6454C43.5437 24.5152 43.5726 24.3994 43.6015 24.2692C44.1362 21.6498 44.0206 19.233 43.905 17.9884C43.8906 17.8871 43.8472 17.8292 43.8039 17.8148C43.7894 17.8003 43.7316 17.7714 43.6738 17.7714C43.6593 17.7714 43.6304 17.7714 43.6015 17.7714C37.9942 19.2909 36.6501 20.9551 36.5779 21.042C36.5923 21.3314 36.6212 21.6353 36.6212 21.9103C36.6212 23.9074 36.0865 25.7598 35.3639 27.3517C34.7136 28.7844 33.9187 30 33.2684 30.8828C32.9793 31.2735 32.7047 31.6064 32.5024 31.8524L32.488 31.8669C32.3723 31.9971 32.2278 32.0984 32.0689 32.1418C31.9677 32.1708 31.8665 32.1997 31.7509 32.1997C31.6353 32.1997 31.5341 32.1852 31.433 32.1418C31.3463 32.1129 31.2451 32.0695 31.1728 32.0116C31.115 31.9682 31.0428 31.9103 30.9994 31.8524C30.826 31.6498 30.6092 31.3748 30.378 31.0854C29.6987 30.1881 28.8316 28.9146 28.1379 27.3661C27.4298 25.7887 26.8806 23.9074 26.8806 21.9103C26.8806 21.5774 26.8951 21.2591 26.924 20.9262C26.8372 20.8538 25.8979 19.2909 20.0593 17.7569C20.0448 17.7569 20.0015 17.7569 19.987 17.7569C19.9292 17.7569 19.9003 17.7714 19.857 17.8003C19.7991 17.8437 19.7702 17.9016 19.7558 17.974C19.6257 19.233 19.5101 21.6643 20.0593 24.2981C19.8136 24.2402 22.4439 25.1809 23.918 25.9479H23.889V25.9624Z" fill="white"/>
<path d="M31.1874 30.8394C31.3464 31.0275 31.4764 31.2012 31.6065 31.3459C31.6932 31.4617 31.7799 31.4617 31.8811 31.3459C32.0401 31.1577 32.2279 30.9262 32.4447 30.6512C32.6759 30.3618 32.9216 30.0289 33.1673 29.6382C34.3957 27.8148 35.812 25.0362 35.812 21.9248C35.812 21.5919 35.7976 21.2735 35.7542 20.9407C35.7253 20.6223 35.682 20.3039 35.6241 20C35.0027 16.5123 32.8783 13.6903 31.8811 12.5181C31.8233 12.4602 31.7799 12.4602 31.751 12.4602C31.7221 12.4602 31.6643 12.4602 31.6209 12.5181C30.6238 13.6758 28.5282 16.4689 27.8923 19.8987C27.8345 20.2026 27.7912 20.521 27.7623 20.8249C27.7189 21.1867 27.7045 21.5485 27.7045 21.9248C27.7045 25.152 29.2219 28.0174 30.4937 29.8408C30.7249 30.2171 30.9706 30.5499 31.1874 30.8394Z" fill="white"/>
</g>
</g>
<defs>
<clipPath id="clip0_2273_5047">
<rect width="267" height="70" fill="white"/>
</clipPath>
</defs>
</svg>
