<svg width="16" height="18" viewBox="0 0 16 18" fill="none" xmlns="http://www.w3.org/2000/svg">
<path d="M13.4982 0V1.06125H12.6291V0H10.1236V1.06125H9.25455V0H6.74909V1.06125H5.88V0H3.37455V1.06125H2.50546V0H0V6.47625C0.196364 11.7713 2.57818 15.4463 8 18C13.4618 15.4463 15.8036 11.5575 16 6.47625V0H13.4945H13.4982ZM15.0545 6.76125C14.88 11.2388 12.8182 14.6663 8.00364 16.92C3.22182 14.67 1.12364 11.43 0.949091 6.76125V1.9875H15.0509V6.76125H15.0545Z" fill="#CB542D"/>
<path d="M13.1123 6.69727C13.1123 6.69727 13.1123 6.66352 13.1123 6.65602C13.105 6.64102 13.0905 6.63352 13.0723 6.62602C12.5523 6.52102 11.2214 6.33352 10.0978 6.92602C8.98139 7.51852 8.1923 9.21352 8.17048 9.23602H7.85412C7.82139 9.21352 7.0323 7.51852 5.9123 6.92602C5.30503 6.60352 4.63594 6.51352 4.06503 6.51352C3.58503 6.51352 3.17775 6.58102 2.93775 6.62977C2.91957 6.62977 2.90503 6.64477 2.89775 6.65977C2.89412 6.66727 2.89048 6.68227 2.89775 6.70102C3.09048 7.18477 3.65775 8.37352 4.77775 8.96602C4.94866 9.05602 5.30503 9.14977 5.72321 9.23602H3.5123C3.38139 9.23602 3.28684 9.32602 3.33412 9.41602C3.60321 9.97477 4.62503 11.6398 7.39957 11.861V14.516C6.70503 14.7185 6.5123 15.2023 6.5123 15.2023H9.53775C9.53775 15.2023 9.46503 14.6735 8.65048 14.4898V11.861C11.4614 11.6398 12.4614 9.96727 12.7159 9.41227C12.7559 9.32602 12.665 9.23227 12.5341 9.23227H10.2687C10.6978 9.14602 11.065 9.04852 11.2287 8.96227C12.345 8.36977 12.9159 7.18102 13.1087 6.69727H13.1123Z" fill="#CB542D"/>
<path d="M6.01453 6.72751C7.19998 7.35376 7.79635 8.60251 7.99635 9.10876C7.99635 9.11251 7.99998 9.12001 8.00362 9.12376C8.00362 9.12001 8.00362 9.11251 8.00726 9.10876C8.21089 8.60251 8.80726 7.35376 9.98908 6.72751C10.3018 6.56251 10.6291 6.45751 10.9527 6.38626C10.96 6.35251 10.9673 6.32251 10.9745 6.28876C11.1091 5.61001 11.08 4.98376 11.0509 4.66126C11.0509 4.63501 11.0363 4.62001 11.0254 4.61626C11.0218 4.61251 11.0073 4.60501 10.9927 4.60501H10.9745C9.56362 4.99876 9.22544 5.43001 9.20726 5.45251C9.21089 5.52751 9.21817 5.60626 9.21817 5.67751C9.21817 6.19501 9.08362 6.67501 8.9018 7.08751C8.73817 7.45876 8.53817 7.77376 8.37453 8.00251C8.3018 8.10376 8.23271 8.19001 8.1818 8.25376C8.1818 8.25376 8.1818 8.25376 8.17817 8.25751C8.14908 8.29126 8.11271 8.31751 8.07271 8.32876C8.04726 8.33626 8.0218 8.34376 7.99271 8.34376C7.96362 8.34376 7.93817 8.34001 7.91271 8.32876C7.89089 8.32126 7.86544 8.31001 7.84726 8.29501C7.83271 8.28376 7.81453 8.26876 7.80362 8.25376C7.75998 8.20126 7.70544 8.13001 7.64726 8.05501C7.47635 7.82251 7.25817 7.49251 7.08362 7.09126C6.90544 6.68251 6.76726 6.19501 6.76726 5.67751C6.76726 5.59126 6.77089 5.50876 6.77817 5.42251C6.75635 5.40376 6.51998 4.99876 5.05089 4.60126H5.03271C5.03271 4.60126 5.01089 4.60126 4.99998 4.61251C4.98544 4.62376 4.97817 4.63876 4.97453 4.65751C4.9418 4.98376 4.91271 5.61376 5.05089 6.29626C4.98907 6.28126 5.65089 6.52501 6.0218 6.72376H6.03271L6.01453 6.72751Z" fill="#CB542D"/>
<path d="M7.8509 7.99126C7.8909 8.04001 7.92363 8.08501 7.95636 8.12251C7.97818 8.15251 8 8.15251 8.02545 8.12251C8.06545 8.07376 8.11272 8.01376 8.16727 7.94251C8.22545 7.86751 8.28727 7.78126 8.34909 7.68001C8.65818 7.20751 9.01454 6.48751 9.01454 5.68126C9.01454 5.59501 9.0109 5.51251 9 5.42626C8.99272 5.34376 8.98181 5.26126 8.96727 5.18251C8.8109 4.27876 8.27636 3.54751 8.02545 3.24376C8.0109 3.22876 8 3.22876 7.99272 3.22876C7.98545 3.22876 7.9709 3.22876 7.96 3.24376C7.70909 3.54376 7.18181 4.26751 7.02181 5.15626C7.00727 5.23501 6.99636 5.31751 6.98909 5.39626C6.97818 5.49001 6.97454 5.58376 6.97454 5.68126C6.97454 6.51751 7.35636 7.26001 7.67636 7.73251C7.74181 7.83001 7.80363 7.91626 7.86181 7.99126H7.8509Z" fill="#CB542D"/>
</svg>
