<svg width="11" height="12" viewBox="0 0 11 12" fill="none" xmlns="http://www.w3.org/2000/svg">
<path d="M1.17773 0.753906V1.44629H3.02637V0.753906H3.44238V1.44629H5.29102V0.753906H5.70801V1.44629H7.55566V0.753906H7.97266V1.44629H9.82031V0.753906H10.2373V4.3418C10.1703 5.95295 9.73322 7.30413 8.93164 8.43262C8.15975 9.51926 7.02847 10.4267 5.50098 11.1602C3.92109 10.4007 2.79006 9.50986 2.03125 8.44238C1.24201 7.332 0.826806 5.99251 0.763672 4.3291V0.753906H1.17773Z" fill="#515940" stroke="#515940"/>
<path d="M3.65247 2.89506C3.87271 2.95293 4.30243 3.09147 4.71106 3.36479L4.74036 3.38432L4.73254 3.41752C4.72198 3.46428 4.7128 3.51261 4.7052 3.56108L4.6925 3.64018L4.62708 3.59525C4.24129 3.326 3.82242 3.18613 3.60364 3.12748C3.58355 3.31735 3.56899 3.66531 3.64563 4.04447L3.65442 4.04643V4.09037L3.60168 4.09525L3.59485 4.13725C3.54617 4.12842 3.49752 4.12068 3.45032 4.11479L3.41418 4.1099L3.40735 4.07475C3.32692 3.66097 3.34587 3.28589 3.36633 3.08744V3.08647C3.37421 3.02165 3.40842 2.96248 3.46497 2.92533C3.51919 2.88879 3.5881 2.87808 3.65247 2.89506Z" fill="white" stroke="white" stroke-width="0.1"/>
<path d="M5.46997 2.07452C5.52713 2.07463 5.587 2.09606 5.62817 2.14288C5.79178 2.32868 6.13436 2.77123 6.25513 3.32648H6.25415C6.2654 3.37331 6.27423 3.42101 6.28052 3.46808L6.29419 3.59405C6.29739 3.63621 6.29907 3.67871 6.29907 3.72198C6.29907 4.04107 6.20941 4.33718 6.09399 4.58819C5.98951 4.81654 5.86146 5.00776 5.75415 5.14679C5.7071 5.20752 5.6651 5.26009 5.63013 5.30011L5.62427 5.30597L5.62329 5.30499C5.59767 5.33271 5.56668 5.35032 5.53833 5.36065H5.53735C5.51541 5.36837 5.49288 5.37232 5.46997 5.37237C5.44689 5.37237 5.42371 5.36843 5.40161 5.36065L5.40063 5.35968C5.38469 5.35351 5.36491 5.34633 5.34692 5.33331L5.34497 5.33136C5.33598 5.3241 5.32194 5.31208 5.31079 5.29913H5.30981C5.28244 5.26674 5.24887 5.22678 5.21216 5.18097L5.20728 5.17608V5.17511C5.09699 5.03467 4.95863 4.83273 4.84497 4.58819C4.72959 4.33722 4.63994 4.04148 4.63989 3.72101C4.63989 3.62937 4.64771 3.53902 4.6604 3.45148V3.4505C4.66813 3.40412 4.67647 3.35768 4.68774 3.31085L4.74341 3.11163C4.89318 2.65876 5.16898 2.30416 5.31079 2.14288L5.34497 2.11261C5.38197 2.08661 5.42693 2.07452 5.46997 2.07452ZM5.46899 2.31183C5.3071 2.5002 4.99965 2.91306 4.90161 3.41437C4.89249 3.46148 4.88556 3.50801 4.8811 3.55401C4.87504 3.60845 4.87037 3.66326 4.87036 3.71905C4.87036 4.08333 5.00161 4.41937 5.15161 4.68292L5.30396 4.92023V4.9212C5.34473 4.97967 5.38402 5.02962 5.41919 5.07257H5.42017C5.43726 5.09353 5.45251 5.11304 5.46704 5.13019C5.48826 5.10554 5.51328 5.07755 5.53833 5.04523L5.53931 5.04425C5.57536 5.00062 5.61368 4.94884 5.65356 4.89093L5.80005 4.65558C5.94377 4.39707 6.06757 4.07307 6.06763 3.72101C6.06763 3.67185 6.06437 3.6221 6.05981 3.57355C6.05527 3.52517 6.04917 3.47888 6.04028 3.43292V3.43194C5.94656 2.92161 5.63251 2.5017 5.46899 2.31183Z" fill="white" stroke="white" stroke-width="0.1"/>
<path d="M7.30969 2.89807C7.37483 2.88087 7.44293 2.89206 7.49817 2.92834C7.55337 2.9647 7.58942 3.02306 7.59583 3.08948C7.61765 3.28567 7.63579 3.6527 7.55872 4.0592C8.05009 3.99983 8.49767 4.06248 8.71985 4.10608H8.71887C8.78551 4.11761 8.84261 4.15815 8.87512 4.21643H8.8761C8.90093 4.26002 8.90764 4.30784 8.89954 4.35412L8.88684 4.40002C8.75819 4.70684 8.37238 5.46793 7.60559 5.85217C7.59487 5.85754 7.58411 5.86269 7.57336 5.8678H8.33215C8.42037 5.8678 8.50809 5.90592 8.55383 5.97522L8.57629 6.01916C8.58701 6.04972 8.58953 6.08234 8.58313 6.11389L8.56653 6.15979C8.41002 6.48115 7.77745 7.50216 6.0304 7.67541V9.01916C6.51738 9.1638 6.58157 9.49295 6.58508 9.52502H6.58411L6.59875 9.61487L6.60754 9.67248H4.3595L4.38879 9.60315L4.43372 9.49573C4.44296 9.46951 4.57109 9.18956 4.97668 9.04162V7.67834C3.25429 7.50348 2.60512 6.48741 2.4425 6.16662V6.16565C2.41271 6.10586 2.41715 6.03822 2.45227 5.98205L2.49329 5.9342C2.54146 5.89276 2.60811 5.87073 2.67493 5.87073H3.37708C3.36654 5.86568 3.35534 5.86134 3.34485 5.85608C2.57817 5.47327 2.19318 4.70966 2.06458 4.40295C2.04009 4.34355 2.04428 4.2766 2.07434 4.22034L2.07532 4.21936C2.10788 4.16228 2.16563 4.12215 2.23157 4.10901C2.57709 4.04089 3.47401 3.92202 4.2384 4.30432C4.9339 4.65284 5.3148 5.3123 5.47571 5.66076C5.63663 5.31229 6.01755 4.65282 6.71301 4.30432C6.90619 4.20789 7.10649 4.14477 7.30481 4.10315C7.30691 4.09467 7.30862 4.0863 7.31067 4.07776L7.33801 3.92932C7.38913 3.59666 7.37436 3.29948 7.35754 3.12951C7.13212 3.18986 6.70166 3.33216 6.31067 3.61389L6.24524 3.66174L6.23254 3.58069C6.22476 3.53098 6.21754 3.48315 6.20715 3.43713L6.19934 3.40393L6.22766 3.3844C6.64401 3.10051 7.08466 2.95751 7.30969 2.89807ZM8.65344 4.33264C8.31316 4.26814 7.50349 4.17144 6.82336 4.51135C6.13156 4.85798 5.77698 5.55679 5.6554 5.84436L5.65442 5.84338C5.65117 5.85138 5.64769 5.85765 5.64661 5.85901C5.64422 5.86197 5.64184 5.86473 5.63977 5.86682C5.63885 5.86775 5.63784 5.8688 5.63684 5.86975H6.57629C6.68524 5.85479 6.85317 5.8292 7.02551 5.79162C7.19877 5.75385 7.37309 5.70494 7.49622 5.64319C8.17043 5.30529 8.5234 4.63269 8.65344 4.33264ZM2.98254 4.26819C2.69517 4.26819 2.44956 4.30365 2.29895 4.33264C2.42894 4.63264 2.78271 5.30526 3.45715 5.64319L3.45618 5.64416C3.72056 5.77682 4.00576 5.84319 4.27551 5.86975H5.31946C5.31713 5.86794 5.31414 5.86622 5.31165 5.86389C5.31039 5.86272 5.30275 5.85595 5.29797 5.84534V5.84436C5.1764 5.55682 4.82167 4.85802 4.13 4.51135C3.75417 4.32355 3.33839 4.26821 2.98254 4.26819ZM5.24622 9.23205L5.20911 9.24182L5.14856 9.25842C5.00845 9.29735 4.90762 9.35552 4.83606 9.41174H6.22571C6.16055 9.35113 6.05303 9.28408 5.87219 9.24573L5.80676 9.23205L5.7677 9.22424V7.43909L5.8136 7.43518L5.88977 7.42932L6.1925 7.39709C7.54216 7.20433 8.10004 6.4595 8.28528 6.12854H2.72961C2.93563 6.48299 3.57565 7.30949 5.12415 7.42737L5.20032 7.4342L5.24622 7.43713V9.23205Z" fill="white" stroke="white" stroke-width="0.1"/>
<path d="M10.177 1.40902V4.60238C10.1169 6.14068 9.7087 7.45619 8.9397 8.56137C8.21888 9.59718 7.18269 10.4453 5.82544 11.1209L5.55005 11.2547L5.52075 11.2674L5.50708 11.2401L5.50122 11.2723H5.49927L5.49243 11.2401L5.47974 11.2674L5.45044 11.2547V11.2537C3.93319 10.5419 2.8048 9.65746 2.04126 8.56039C1.27757 7.46307 0.881251 6.15682 0.823486 4.60531V1.40902H10.177ZM1.05688 4.60043L1.07153 4.88266C1.16164 6.28126 1.53202 7.4468 2.21509 8.43148C2.94042 9.47702 4.02092 10.3222 5.50122 11.0252C6.93829 10.3476 8.01845 9.48564 8.75415 8.42465C9.4931 7.35891 9.88737 6.08958 9.94556 4.60043V1.63949H1.05688V4.60043Z" fill="white" stroke="white" stroke-width="0.1"/>
</svg>
