<svg width="17" height="19" viewBox="0 0 17 19" fill="none" xmlns="http://www.w3.org/2000/svg">
<path d="M8.5012 19L8.41477 18.9595C2.88335 16.3687 0.208869 12.5349 0 6.89372V0H3.00819V1.09537H3.49795V0H6.50614V1.09537H6.9959V0H10.0041V1.09537H10.4939V0H13.502V1.09537H13.9918V0H17V6.88658C16.7815 12.4825 14.0302 16.4282 8.58283 18.9595L8.4964 19H8.5012ZM0.408135 0.404812V6.8842C0.612202 12.3944 3.11143 15.9972 8.5012 18.5476C13.7373 16.0853 16.3854 12.2658 16.5943 6.87467V0.402431H14.4047V1.49781H13.0939V0.402431H10.9044V1.49781H9.59356V0.402431H7.40404V1.49781H6.09321V0.402431H3.90369V1.49781H2.59285V0.402431H0.403333L0.408135 0.404812Z" fill="white"/>
<path d="M0.408135 0.404812V6.8842C0.612202 12.3944 3.11143 15.9972 8.5012 18.5476C13.7373 16.0853 16.3854 12.2658 16.5943 6.87467V0.402431H14.4047V1.49781H13.0939V0.402431H10.9044V1.49781H9.59356V0.402431H7.40404V1.49781H6.09321V0.402431H3.90369V1.49781H2.59285V0.402431H0.403333L0.408135 0.404812Z" fill="white"/>
<path d="M5.54822 4.91986C5.5465 4.92144 5.54575 4.92304 5.54529 4.92377V4.92768C5.51269 5.22811 5.48529 5.80263 5.61169 6.42865L5.61951 6.4306V6.47748L5.56775 6.48236L5.56091 6.52143C5.48506 6.50732 5.40886 6.49568 5.33533 6.48627L5.29919 6.48139L5.29236 6.44623C5.16871 5.79453 5.19837 5.20288 5.22986 4.89057V4.88959C5.24109 4.79575 5.28876 4.71114 5.36853 4.65717L5.43005 4.62396C5.49501 4.59767 5.56823 4.59337 5.63806 4.61225C5.97708 4.70352 6.63875 4.92184 7.26697 5.35248L7.29431 5.37103L7.28748 5.40424C7.27093 5.47927 7.25636 5.55709 7.24451 5.63471L7.23279 5.71478L7.16638 5.66791C6.55766 5.23263 5.89613 5.01066 5.56091 4.91986H5.54822Z" fill="#515940" stroke="#515940" stroke-width="0.1"/>
<path d="M8.27515 3.36938C8.39555 3.2823 8.57912 3.2971 8.67847 3.41332C8.93021 3.70629 9.45424 4.40167 9.6394 5.2727L9.67944 5.49633H9.67847C9.69798 5.62719 9.70776 5.75819 9.70776 5.89379C9.70773 6.39323 9.57142 6.85743 9.39429 7.25219C9.23394 7.61125 9.03674 7.9122 8.87183 8.1311C8.79941 8.22686 8.73399 8.30853 8.68042 8.37133L8.67847 8.37524L8.67749 8.37426C8.67629 8.37545 8.67546 8.37728 8.67456 8.37817L8.67358 8.37914C8.67358 8.37914 8.67296 8.37951 8.67163 8.37817C8.65409 8.39783 8.63566 8.41501 8.61499 8.42797L8.54956 8.4602C8.51806 8.47156 8.48543 8.4768 8.45288 8.4768C8.42051 8.47679 8.38852 8.47146 8.35718 8.4602L8.35522 8.45922C8.33082 8.44954 8.30379 8.43852 8.27905 8.42016L8.2771 8.41821L8.22729 8.37133C8.18497 8.32002 8.1335 8.2562 8.0769 8.18383L8.07007 8.177C7.90038 7.9558 7.68729 7.63756 7.51245 7.25219H7.51147C7.33432 6.85737 7.198 6.3927 7.198 5.89086C7.19802 5.7477 7.20982 5.60732 7.22925 5.46996V5.46899C7.24125 5.3952 7.25399 5.32161 7.27124 5.24828C7.46124 4.38957 7.97795 3.70393 8.22729 3.41332L8.27515 3.36938ZM8.45288 3.6145C8.20829 3.90098 7.70602 4.57555 7.54858 5.40063C7.53439 5.47572 7.52336 5.55024 7.51636 5.62426C7.50693 5.71099 7.49976 5.79905 7.49976 5.88891C7.49978 6.66681 7.86494 7.36129 8.17456 7.80785V7.80883C8.23839 7.90263 8.30045 7.98251 8.35522 8.05102L8.44995 8.16723C8.48737 8.1231 8.53328 8.06896 8.58081 8.0061L8.58179 8.00512C8.6382 7.93518 8.6976 7.85311 8.75952 7.76098C9.06199 7.31452 9.40405 6.64317 9.40405 5.89086C9.40404 5.81202 9.39942 5.73285 9.39233 5.65551L9.36206 5.42895C9.21167 4.58986 8.69989 3.90336 8.45288 3.6145Z" fill="#515940" stroke="#515940" stroke-width="0.1"/>
<path d="M11.3041 4.61701C11.3975 4.59177 11.4936 4.60876 11.5726 4.66193C11.6518 4.71522 11.7035 4.79933 11.7123 4.89533L11.7347 5.17853C11.7514 5.5064 11.7444 5.95934 11.6517 6.44611L11.6478 6.46174C12.418 6.3602 13.1236 6.46023 13.4711 6.5301H13.4701C13.5662 6.54712 13.649 6.60628 13.6947 6.69123H13.6937C13.74 6.77453 13.743 6.86863 13.7094 6.9549L13.7084 6.95588C13.5102 7.43994 12.919 8.63739 11.7435 9.24103C11.6871 9.27 11.6296 9.29552 11.5726 9.32014H12.8773C13.0081 9.32014 13.1347 9.37844 13.1986 9.47932H13.1976C13.2503 9.55844 13.2563 9.65556 13.2152 9.74006C12.9757 10.2439 11.9996 11.861 9.29236 12.1268V14.3006C10.0529 14.523 10.1457 15.0453 10.1498 15.0848H10.1488L10.1703 15.2283L10.1791 15.285H6.77869L6.80798 15.2156L6.87927 15.0418C6.89956 14.9892 7.10055 14.5594 7.71814 14.3358V12.1307C5.04847 11.8622 4.04672 10.2524 3.79822 9.74982V9.74885C3.75704 9.66392 3.76359 9.56764 3.81287 9.48713C3.87675 9.38344 4.00327 9.32502 4.13416 9.32502H5.35095C5.29439 9.30026 5.2378 9.27456 5.18201 9.24592C4.00624 8.64471 3.41437 7.44483 3.21619 6.96076V6.95978C3.18181 6.87444 3.18746 6.77857 3.22986 6.69709L3.23083 6.69514C3.27671 6.613 3.35868 6.55445 3.45349 6.53498H3.45447C3.98767 6.42735 5.36572 6.24072 6.53845 6.84162C7.643 7.4087 8.2307 8.50066 8.46228 9.03205C8.69383 8.50071 9.2816 7.40874 10.3861 6.84162H10.3871C10.6885 6.68753 11.001 6.58568 11.3109 6.52033C11.3121 6.51539 11.3136 6.51056 11.3148 6.50568C11.3184 6.49077 11.322 6.47599 11.3256 6.46076C11.4559 5.82276 11.4278 5.23366 11.3969 4.92951L11.3949 4.92365L11.3929 4.9217H11.3842C11.0402 5.01438 10.3575 5.2405 9.73767 5.69807L9.67126 5.74689L9.65857 5.66584C9.64652 5.58699 9.63492 5.50968 9.61853 5.43537L9.61169 5.40217L9.63904 5.38361C10.2794 4.93614 10.9578 4.71068 11.3041 4.61701ZM13.4076 6.83674C12.8989 6.7347 11.6119 6.56418 10.5326 7.11701C9.45471 7.67056 8.90382 8.78498 8.71521 9.24201L8.71326 9.24103C8.70998 9.24913 8.70693 9.25572 8.70544 9.25764C8.70264 9.26122 8.69948 9.26448 8.69666 9.2674C8.69066 9.27357 8.68321 9.28097 8.67517 9.28791C8.66272 9.29866 8.64733 9.31085 8.63123 9.32307H10.1674C10.336 9.29933 10.5964 9.25873 10.8636 9.19904C11.1315 9.13919 11.4028 9.06094 11.5961 8.96174H11.597C12.6731 8.40926 13.2228 7.29735 13.4125 6.83869C13.4113 6.83825 13.4094 6.83816 13.4076 6.83771V6.83674ZM4.60876 6.72932C4.1432 6.72934 3.74851 6.78964 3.51794 6.83674L3.51892 6.83771C3.5165 6.83833 3.51438 6.83813 3.51306 6.83869C3.70249 7.29704 4.25384 8.40908 5.33044 8.96174L5.32947 8.96369C5.74147 9.17544 6.18491 9.28076 6.60388 9.32307H8.31677C8.29829 9.31205 8.28058 9.30147 8.26599 9.29182C8.25574 9.28503 8.24613 9.27811 8.23865 9.27228C8.23496 9.26941 8.2305 9.26595 8.22693 9.26252L8.21228 9.24201C8.02364 8.78491 7.47211 7.67048 6.39392 7.11701C5.80802 6.81709 5.16107 6.72932 4.60876 6.72932ZM8.08044 14.5946L8.04333 14.6043L7.94958 14.6297L7.95056 14.6307C7.68798 14.7054 7.51124 14.8236 7.39685 14.9305H9.68884C9.59251 14.818 9.41383 14.6826 9.08044 14.6102L8.97986 14.5887L8.9408 14.5809V11.8055L8.98669 11.8016L9.10388 11.7918H9.10486C11.6064 11.6013 12.5681 10.2156 12.851 9.67463H4.17029C4.46399 10.2145 5.44767 11.5973 7.91638 11.7899L8.03455 11.7996L8.08044 11.8026V14.5946Z" fill="#515940" stroke="#515940" stroke-width="0.1"/>
<path d="M15.7013 2.26001V7.28637C15.6085 9.71688 14.9788 11.7929 13.7941 13.5374C12.6093 15.2817 10.8714 16.6915 8.56653 17.7922L8.52063 17.8137L8.50793 17.7883L8.50208 17.8186H8.49915L8.49231 17.7883L8.48059 17.8137L8.43469 17.7922C6.09286 16.6667 4.3524 15.2692 3.1759 13.5374C1.99946 11.8055 1.38908 9.74283 1.29993 7.29126V2.26001H15.7013ZM1.60657 7.28442L1.62805 7.73364C1.76768 9.95229 2.34231 11.8032 3.40149 13.3674C4.52775 15.0306 6.20519 16.373 8.5011 17.4885C10.7312 16.4132 12.4085 15.0437 13.5509 13.3557C14.6966 11.6628 15.3076 9.64747 15.3976 7.28442V2.56665H1.60657V7.28442Z" fill="#515940" stroke="#515940" stroke-width="0.1"/>
</svg>
