<svg width="66" height="24" viewBox="0 0 66 24" fill="none" xmlns="http://www.w3.org/2000/svg">
<g clip-path="url(#clip0_369_998)">
<path fill-rule="evenodd" clip-rule="evenodd" d="M23.4382 9.33104C22.7329 6.28966 20.7735 3.56276 18.1129 1.94483C15.4687 0.277247 12.144 -0.206891 9.11623 0.517247C6.39785 1.1669 3.93523 2.82621 2.30585 5.10621C0.416603 7.68828 -0.330022 11.0607 0.251603 14.2055C0.824978 17.4786 2.85035 20.4497 5.67598 22.1793C8.2871 23.8303 11.5582 24.3393 14.5571 23.6524C17.5684 22.9779 20.2744 21.0538 21.9161 18.4303C23.6239 15.7697 24.1642 12.4055 23.4382 9.33104ZM18.6615 13.1503C17.0816 13.5807 15.5884 14.3959 14.5117 15.6497C12.9772 17.3545 12.2636 19.6097 11.913 21.8317C11.5747 19.9986 11.1127 18.1283 10.0237 16.5807C8.92235 14.8552 7.11973 13.6552 5.1521 13.1545C4.69423 10.0304 6.9836 7.03035 9.92885 6.19863C13.266 5.0938 17.2507 7.06759 18.3892 10.4028C18.7234 11.2759 18.711 12.2317 18.6656 13.1503H18.6615Z" fill="white"/>
<path fill-rule="evenodd" clip-rule="evenodd" d="M28.5125 5.49498C29.2302 4.7874 30.2491 4.42326 31.2473 4.43981C32.3198 4.43153 33.4336 4.81636 34.1637 5.63153C34.6051 6.11153 34.865 6.7405 34.9186 7.39016C34.2586 7.39016 33.6027 7.39016 32.9427 7.39016C32.6127 6.24395 31.0328 5.87567 30.1212 6.54602C29.2013 7.20395 29.0157 8.61912 29.6262 9.54602C30.0098 10.1584 30.7565 10.535 31.4783 10.415C32.1796 10.3529 32.8231 9.82326 32.9427 9.11154C33.5945 9.09912 34.2462 9.11153 34.898 9.10326C34.9062 10.0302 34.4195 10.9281 33.6728 11.466C32.9551 11.9998 32.0476 12.2191 31.1648 12.2067C30.2037 12.2067 29.2302 11.855 28.5372 11.1805C26.9986 9.71981 26.9903 6.96809 28.5042 5.48671L28.5125 5.49498Z" fill="white"/>
<path fill-rule="evenodd" clip-rule="evenodd" d="M43.5357 7.4274C43.3047 6.43016 42.6653 5.5405 41.7908 5.01085C40.9245 4.46464 39.8355 4.3074 38.8455 4.54326C37.9545 4.7543 37.1502 5.3005 36.618 6.04533C35.9993 6.88947 35.7559 7.9943 35.9457 9.02464C36.1313 10.0964 36.7954 11.0688 37.7194 11.6357C38.5733 12.1777 39.6458 12.3433 40.6275 12.1198C41.6134 11.9005 42.5003 11.2674 43.0365 10.4108C43.5975 9.53774 43.7708 8.43705 43.5357 7.43154V7.4274ZM41.9723 8.67706C41.4567 8.81775 40.9658 9.08671 40.6152 9.49637C40.1119 10.055 39.8809 10.7915 39.7654 11.5198C39.654 10.9198 39.5055 10.3074 39.1467 9.80257C38.7837 9.23567 38.1979 8.84671 37.5503 8.68119C37.4018 7.65912 38.1484 6.6743 39.1137 6.40533C40.2068 6.04119 41.5103 6.69085 41.8815 7.78326C41.9888 8.06878 41.9847 8.38326 41.9723 8.68119V8.67706Z" fill="white"/>
<path fill-rule="evenodd" clip-rule="evenodd" d="M59.8628 5.26757C60.531 4.72136 61.4179 4.53516 62.2635 4.53516C63.072 4.54343 63.93 4.67585 64.59 5.18481C65.0809 5.55723 65.3655 6.17792 65.3243 6.79447C65.3078 7.41102 64.9407 7.98619 64.4085 8.28826C64.8747 8.4786 65.2995 8.85102 65.4357 9.35171C65.6295 10.0883 65.3862 10.9365 64.7839 11.4124C64.1033 11.9586 63.1958 12.1034 62.346 12.1158C61.4097 12.1283 60.399 11.9586 59.6772 11.3214C59.0955 10.8165 58.8274 10.0262 58.8522 9.26895C59.5163 9.26895 60.1845 9.26895 60.8487 9.26895C60.8569 9.64136 60.9518 10.0469 61.2612 10.2869C61.6695 10.6096 62.2388 10.6262 62.7297 10.531C63.1298 10.4565 63.4887 10.1007 63.4557 9.67033C63.4969 9.28964 63.1917 8.95861 62.8245 8.91309C62.3419 8.84688 61.851 8.87171 61.3643 8.88826C61.3478 8.45378 61.3602 8.01516 61.356 7.58067C61.818 7.58067 62.28 7.58895 62.7379 7.56412C63.1422 7.53102 63.4227 7.1255 63.3525 6.73654C63.3237 6.35585 62.94 6.15723 62.6018 6.11998C62.1769 6.07861 61.6943 6.07033 61.3395 6.35171C61.0549 6.57102 60.9642 6.94757 60.9559 7.29102C60.2877 7.30757 59.6194 7.29102 58.947 7.29929C58.9264 6.53378 59.2605 5.75585 59.8628 5.27585V5.26757Z" fill="white"/>
<path fill-rule="evenodd" clip-rule="evenodd" d="M57.7054 11.921C57.7013 9.52515 57.7054 7.12928 57.7054 4.73756C57.0165 4.73756 56.3277 4.7417 55.6429 4.73756C55.6429 4.99411 55.6429 5.25066 55.6429 5.50721C55.2964 5.1017 54.8427 4.7748 54.3188 4.66308C53.2339 4.42308 52.0294 4.76239 51.2415 5.56101C50.5898 6.19825 50.2392 7.10032 50.1855 8.00239C50.103 9.0948 50.4207 10.2534 51.1962 11.052C51.852 11.7389 52.809 12.1072 53.7537 12.0658C54.4797 12.0658 55.1892 11.7224 55.6388 11.1472C55.6388 11.4079 55.6388 11.6645 55.6388 11.9251C56.3277 11.9251 57.0165 11.9251 57.7054 11.9251V11.921ZM55.5934 9.20652C55.3459 9.75273 54.822 10.1707 54.2239 10.2658C53.5392 10.39 52.809 10.0672 52.4213 9.4879C51.885 8.73066 51.9593 7.59687 52.611 6.93066C52.8255 6.71135 53.0937 6.5417 53.3907 6.44652C54.03 6.23549 54.7725 6.43411 55.2304 6.92239C55.8079 7.50997 55.944 8.46583 55.5934 9.20652Z" fill="white"/>
<path fill-rule="evenodd" clip-rule="evenodd" d="M44.6541 4.7334C46.3371 4.74581 48.0242 4.7334 49.7072 4.74167C49.7072 5.31685 49.7113 5.88788 49.7072 6.46305C48.7089 6.46305 47.7107 6.46305 46.7166 6.46305C46.7166 8.28374 46.7166 10.1044 46.7166 11.9251C46.0277 11.9251 45.3388 11.9251 44.6541 11.9251C44.6541 9.52926 44.6458 7.1334 44.6582 4.73754L44.6541 4.7334Z" fill="white"/>
<path d="M27.881 16.2991H28.4791V18.2853C28.7514 18.2853 28.9452 18.2315 29.0566 18.1239C29.168 18.0163 29.3082 17.7639 29.4815 17.3584C29.6052 17.0604 29.7084 16.8494 29.7909 16.7294C29.8734 16.6053 29.9889 16.5018 30.1374 16.4191C30.2859 16.3363 30.4509 16.2949 30.6324 16.2949C30.8634 16.2949 30.983 16.2949 30.9954 16.2991V16.8204C30.9747 16.8204 30.9335 16.8204 30.8757 16.8204C30.8097 16.8204 30.7685 16.8204 30.7561 16.8204C30.5664 16.8204 30.422 16.866 30.3312 16.9611C30.2364 17.0522 30.1291 17.2508 30.0054 17.557C29.8527 17.9418 29.7249 18.1818 29.6217 18.2811C29.5186 18.3804 29.3907 18.4632 29.2464 18.5211C29.5392 18.5997 29.828 18.8729 30.1085 19.3322L31.0407 20.8425H30.2982L29.5434 19.6094C29.3371 19.2701 29.1639 19.0342 29.0236 18.9101C28.8834 18.7818 28.7019 18.7197 28.4791 18.7197V20.8425H27.881V16.3073V16.2991Z" fill="white"/>
<path d="M31.7505 17.5488H34.3286V20.8343H33.7759V18.0081H32.3032V19.6468C32.3032 20.0274 32.2909 20.2799 32.2661 20.3999C32.2414 20.5199 32.1754 20.6274 32.064 20.7185C31.9526 20.8095 31.7917 20.855 31.5814 20.855C31.4535 20.855 31.3009 20.8468 31.1359 20.8302V20.3668H31.3792C31.4947 20.3668 31.5772 20.3543 31.6267 20.3295C31.6762 20.3047 31.7092 20.2674 31.7257 20.2178C31.7422 20.164 31.7505 19.9985 31.7505 19.713V17.5488Z" fill="white"/>
<path d="M35.1661 17.5488H35.723V20.0564L37.2616 17.5488H37.8598V20.8343H37.3029V18.3433L35.7643 20.8343H35.1661V17.5488Z" fill="white"/>
<path d="M38.6964 17.5488H39.2533V18.9185H40.7919V17.5488H41.3488V20.8343H40.7919V19.3778H39.2533V20.8343H38.6964V17.5488Z" fill="white"/>
<path d="M42.1827 17.5488H42.7396V20.0564L44.2782 17.5488H44.8764V20.8343H44.3195V18.3433L42.7809 20.8343H42.1827V17.5488Z" fill="white"/>
<path d="M45.7092 17.5487H46.2661V18.968C46.4435 18.968 46.5672 18.9349 46.6373 18.8646C46.7075 18.7984 46.8147 18.5998 46.9508 18.2687C47.0581 18.008 47.1488 17.8384 47.2148 17.7556C47.2808 17.6729 47.3592 17.6191 47.45 17.5901C47.5366 17.5611 47.681 17.5487 47.8748 17.5487H47.9862V18.008H47.8336C47.6892 18.008 47.5943 18.0246 47.5531 18.0701C47.5118 18.1156 47.4458 18.2522 47.3551 18.4756C47.2726 18.6908 47.1942 18.8398 47.1241 18.9225C47.054 19.0053 46.9467 19.0798 46.7982 19.1501C47.0375 19.2122 47.2726 19.4356 47.5036 19.8204L48.11 20.8384H47.4994L46.9055 19.8204C46.7858 19.6177 46.6786 19.4811 46.5878 19.4149C46.4971 19.3487 46.3898 19.3198 46.262 19.3198V20.8384H45.7051V17.5529L45.7092 17.5487Z" fill="white"/>
<path d="M50.7543 20.4289C50.548 20.6027 50.35 20.7268 50.1603 20.8013C49.9705 20.8717 49.7643 20.9089 49.5498 20.9089C49.1909 20.9089 48.9145 20.822 48.7206 20.6441C48.5268 20.4661 48.4319 20.2427 48.4319 19.9696C48.4319 19.8082 48.469 19.6634 48.5433 19.5268C48.6175 19.3944 48.7124 19.2868 48.8279 19.2082C48.9475 19.1296 49.0795 19.0675 49.228 19.0261C49.3353 18.9972 49.5003 18.9682 49.723 18.9434C50.1726 18.8896 50.5026 18.8275 50.713 18.753C50.713 18.6785 50.713 18.6289 50.713 18.6082C50.713 18.3806 50.6594 18.2192 50.5563 18.1282C50.416 18.0041 50.2056 17.9379 49.9251 17.9379C49.6653 17.9379 49.4714 17.9834 49.3476 18.0744C49.2239 18.1654 49.1331 18.3268 49.0713 18.5627L48.5268 18.4882C48.5763 18.2565 48.6588 18.0661 48.7701 17.9213C48.8815 17.7765 49.0465 17.6689 49.261 17.5903C49.4755 17.5117 49.723 17.4744 50.0035 17.4744C50.284 17.4744 50.5109 17.5075 50.6841 17.5737C50.8574 17.6399 50.9894 17.7227 51.0678 17.822C51.1503 17.9213 51.208 18.0496 51.241 18.2027C51.2575 18.2979 51.2699 18.4675 51.2699 18.7158V19.4565C51.2699 19.9737 51.2823 20.3006 51.307 20.4372C51.3318 20.5737 51.3771 20.7061 51.4473 20.8303H50.8656C50.8079 20.7144 50.7708 20.5779 50.7543 20.4248V20.4289ZM50.7089 19.1834C50.5068 19.2661 50.2056 19.3365 49.8014 19.3944C49.5745 19.4275 49.4136 19.4648 49.3188 19.5061C49.2239 19.5475 49.1496 19.6054 49.1001 19.6882C49.0506 19.7668 49.0218 19.8537 49.0218 19.953C49.0218 20.102 49.0795 20.2261 49.1909 20.3254C49.3023 20.4248 49.4673 20.4744 49.6818 20.4744C49.8963 20.4744 50.086 20.4289 50.251 20.3337C50.416 20.2385 50.5398 20.1103 50.6181 19.9489C50.6759 19.8248 50.7089 19.6385 50.7089 19.3903V19.1875V19.1834Z" fill="white"/>
<path d="M53.885 17.5487H55.7701V18.008H54.4419V20.8342H53.885V17.5487Z" fill="white"/>
<path d="M55.8439 19.1919C55.8439 18.5836 56.013 18.1325 56.3512 17.8387C56.6317 17.5946 56.9782 17.4746 57.3825 17.4746C57.8321 17.4746 58.1992 17.6236 58.488 17.9174C58.7726 18.2153 58.917 18.6208 58.917 19.1422C58.917 19.5643 58.8551 19.8994 58.7272 20.1394C58.5994 20.3836 58.4179 20.5698 58.1745 20.7063C57.9311 20.8387 57.6712 20.9091 57.3825 20.9091C56.9246 20.9091 56.5534 20.7601 56.2687 20.4663C55.9841 20.1725 55.8439 19.7463 55.8439 19.1919ZM56.4131 19.1919C56.4131 19.6139 56.5039 19.9284 56.6895 20.1353C56.871 20.3463 57.102 20.4498 57.3825 20.4498C57.663 20.4498 57.8857 20.3463 58.0714 20.1353C58.257 19.9243 58.3477 19.6056 58.3477 19.1712C58.3477 18.7656 58.257 18.4553 58.0714 18.2484C57.8857 18.0374 57.6589 17.9339 57.3866 17.9339C57.1144 17.9339 56.8792 18.0374 56.6936 18.2443C56.5121 18.4512 56.4172 18.7656 56.4172 19.1877L56.4131 19.1919Z" fill="white"/>
<path d="M59.8622 17.5487H62.1433V20.3791H62.498V21.7694H62.0402V20.8384H59.462V21.7694H59.0042V20.3791H59.297C59.6889 19.8453 59.8745 18.906 59.858 17.5487H59.8622ZM60.3242 18.008C60.2829 19.0756 60.1179 19.8618 59.8292 20.3749H61.5905V18.008H60.3242Z" fill="white"/>
<path d="M65.2494 20.4289C65.0431 20.6027 64.8451 20.7268 64.6554 20.8013C64.4656 20.8717 64.2594 20.9089 64.0449 20.9089C63.686 20.9089 63.4096 20.822 63.2158 20.6441C63.0219 20.4661 62.927 20.2427 62.927 19.9696C62.927 19.8082 62.9641 19.6634 63.0384 19.5268C63.1126 19.3944 63.2075 19.2868 63.323 19.2082C63.4426 19.1296 63.5746 19.0675 63.7231 19.0261C63.8304 18.9972 63.9954 18.9682 64.2181 18.9434C64.6677 18.8896 64.9978 18.8275 65.2081 18.753C65.2081 18.6785 65.2081 18.6289 65.2081 18.6082C65.2081 18.3806 65.1545 18.2192 65.0514 18.1282C64.9111 18.0041 64.7007 17.9379 64.4202 17.9379C64.1604 17.9379 63.9665 17.9834 63.8428 18.0744C63.719 18.1654 63.6283 18.3268 63.5664 18.5627L63.0219 18.4882C63.0714 18.2565 63.1539 18.0661 63.2652 17.9213C63.3766 17.7765 63.5416 17.6689 63.7561 17.5903C63.9706 17.5117 64.2181 17.4744 64.4986 17.4744C64.7791 17.4744 65.006 17.5075 65.1792 17.5737C65.3525 17.6399 65.4845 17.7227 65.5629 17.822C65.6454 17.9213 65.7031 18.0496 65.7361 18.2027C65.7526 18.2979 65.765 18.4675 65.765 18.7158V19.4565C65.765 19.9737 65.7774 20.3006 65.8021 20.4372C65.8269 20.5737 65.8723 20.7061 65.9424 20.8303H65.3607C65.303 20.7144 65.2659 20.5779 65.2494 20.4248V20.4289ZM65.204 19.1834C65.0019 19.2661 64.7007 19.3365 64.2965 19.3944C64.0696 19.4275 63.9087 19.4648 63.8139 19.5061C63.719 19.5475 63.6447 19.6054 63.5952 19.6882C63.5457 19.7668 63.5169 19.8537 63.5169 19.953C63.5169 20.102 63.5746 20.2261 63.686 20.3254C63.7974 20.4248 63.9624 20.4744 64.1769 20.4744C64.3914 20.4744 64.5811 20.4289 64.7461 20.3337C64.9111 20.2385 65.0349 20.1103 65.1133 19.9489C65.171 19.8248 65.204 19.6385 65.204 19.3903V19.1875V19.1834Z" fill="white"/>
</g>
<defs>
<clipPath id="clip0_369_998">
<rect width="66" height="24" fill="white"/>
</clipPath>
</defs>
</svg>
