<svg width="185" height="40" viewBox="0 0 185 40" fill="none" xmlns="http://www.w3.org/2000/svg">
<g clip-path="url(#clip0_172_3546)">
<path d="M54.7367 19.515H54.8681C54.9894 19.515 55.1057 19.47 55.2118 19.37C55.318 19.275 55.4089 19.155 55.4898 19.005C55.5707 18.855 55.6263 18.7 55.6617 18.535C55.6971 18.37 55.7173 18.22 55.7173 18.08V10.98H47.271V18.08C47.271 18.22 47.2861 18.37 47.3266 18.535C47.3619 18.7 47.4125 18.855 47.4833 18.99C47.554 19.13 47.6349 19.25 47.736 19.355C47.832 19.46 47.9533 19.51 48.0949 19.51H48.2263V19.77H44.5313V19.51H44.6628C44.7841 19.51 44.9003 19.465 45.0065 19.365C45.1126 19.27 45.2036 19.15 45.2845 19C45.3654 18.85 45.421 18.695 45.4563 18.53C45.4917 18.365 45.5119 18.215 45.5119 18.075V4.16004C45.5119 4.04004 45.4917 3.90004 45.4563 3.74004C45.421 3.58504 45.3704 3.43504 45.2996 3.29504C45.2289 3.15504 45.143 3.04004 45.0368 2.94504C44.9307 2.85004 44.8093 2.80004 44.6678 2.80004H44.5364V2.54004H48.2313V2.80004H48.0999C47.9584 2.80004 47.8371 2.85004 47.7309 2.94504C47.6248 3.04004 47.5439 3.16004 47.4782 3.29504C47.4175 3.43504 47.367 3.58004 47.3316 3.74004C47.2962 3.89504 47.276 4.03504 47.276 4.16004V10.06H55.7223V4.16004C55.7223 4.04004 55.7021 3.90004 55.6667 3.74004C55.6313 3.58504 55.5808 3.43504 55.51 3.29504C55.4393 3.15504 55.3533 3.04004 55.2472 2.94504C55.141 2.85004 55.0197 2.80004 54.8782 2.80004H54.7468V2.54004H58.4417V2.80004H58.3103C58.1688 2.80004 58.0475 2.85004 57.9413 2.94504C57.8352 3.04004 57.7543 3.16004 57.6886 3.29504C57.6279 3.43504 57.5774 3.58004 57.542 3.74004C57.5066 3.89504 57.4864 4.03504 57.4864 4.16004V18.075C57.4864 18.215 57.5066 18.365 57.5521 18.53C57.5976 18.695 57.6532 18.85 57.724 18.985C57.7947 19.125 57.8756 19.245 57.9767 19.35C58.0727 19.455 58.1839 19.505 58.3053 19.505H58.4367V19.765H54.7417V19.505L54.7367 19.515Z" fill="white"/>
<path d="M63.2638 19.5161H63.3953C63.5368 19.5161 63.6581 19.4711 63.7643 19.3711C63.8704 19.2761 63.9614 19.1561 64.0423 19.0161C64.1231 18.8761 64.1838 18.7311 64.2293 18.5711C64.2748 18.4161 64.295 18.2661 64.295 18.1261V4.15613C64.295 4.03613 64.2748 3.89613 64.2293 3.73613C64.1838 3.58113 64.1231 3.43113 64.0423 3.29113C63.9614 3.15113 63.8704 3.03613 63.7643 2.94113C63.6581 2.84613 63.5368 2.79613 63.3953 2.79613H63.2638V2.53613H73.4237V4.96613H73.1608C73.1255 4.56613 72.9688 4.21613 72.6857 3.91113C72.4026 3.60613 71.9629 3.45613 71.3664 3.45613H66.0591V10.0611H70.4414C70.8458 10.0611 71.1845 9.94113 71.4574 9.69613C71.7304 9.45113 71.8668 9.16613 71.8668 8.83613H72.1297V12.1011H71.8668C71.8668 11.7861 71.7354 11.5161 71.4726 11.2911C71.2097 11.0661 70.866 10.9511 70.4414 10.9511H66.0591V18.8611H71.8416C72.1752 18.8611 72.4684 18.7811 72.711 18.6261C72.9587 18.4711 73.1659 18.2811 73.3327 18.0661C73.4995 17.8461 73.6208 17.6111 73.7017 17.3611C73.7826 17.1111 73.8179 16.8961 73.8179 16.7211H74.0808V19.7761H63.2588V19.5161H63.2638Z" fill="white"/>
<path d="M92.9047 19.5158H93.0361C93.1574 19.5158 93.2737 19.4658 93.3798 19.3608C93.486 19.2558 93.5769 19.1358 93.6578 18.9958C93.7387 18.8558 93.7943 18.7058 93.8297 18.5408C93.8651 18.3758 93.8802 18.2258 93.8802 18.0858V4.35078L87.0716 20.0708L80.6067 5.16078V18.0858C80.6067 18.2258 80.6219 18.3758 80.6573 18.5408C80.6927 18.7058 80.7483 18.8608 80.8291 18.9958C80.91 19.1358 81.001 19.2558 81.1071 19.3608C81.2133 19.4658 81.3346 19.5158 81.4761 19.5158H81.6075V19.7758H78.7314V19.5158H78.8629C78.9842 19.5158 79.1004 19.4658 79.2066 19.3608C79.3127 19.2558 79.3987 19.1358 79.4694 18.9958C79.5402 18.8558 79.5907 18.7058 79.6261 18.5408C79.6615 18.3758 79.6767 18.2258 79.6767 18.0858V4.17078C79.6767 4.05078 79.6615 3.91078 79.6261 3.75078C79.5907 3.59578 79.5402 3.44578 79.4694 3.30578C79.3987 3.16578 79.3127 3.05078 79.2066 2.95578C79.1004 2.86078 78.9842 2.81078 78.8629 2.81078H78.7314V2.55078H81.4256L87.5467 16.8308L93.6679 2.55078H96.6502V2.81078H96.5187C96.3772 2.81078 96.2559 2.86078 96.1498 2.95578C96.0436 3.05078 95.9526 3.17078 95.8717 3.30578C95.7909 3.44578 95.7353 3.59078 95.6999 3.75078C95.6645 3.90578 95.6493 4.04578 95.6493 4.17078V18.0858C95.6493 18.2258 95.6645 18.3758 95.6999 18.5408C95.7353 18.7058 95.7909 18.8608 95.8717 18.9958C95.9526 19.1358 96.0436 19.2558 96.1498 19.3608C96.2559 19.4658 96.3772 19.5158 96.5187 19.5158H96.6502V19.7758H92.9047V19.5158Z" fill="white"/>
<path d="M101.851 19.5161H101.982C102.124 19.5161 102.245 19.4711 102.351 19.3711C102.457 19.2761 102.548 19.1561 102.629 19.0161C102.71 18.8761 102.771 18.7311 102.816 18.5711C102.862 18.4161 102.882 18.2661 102.882 18.1261V4.15613C102.882 4.03613 102.862 3.89613 102.816 3.73613C102.771 3.58113 102.71 3.43113 102.629 3.29113C102.548 3.15113 102.457 3.03613 102.351 2.94113C102.245 2.84613 102.124 2.79613 101.982 2.79613H101.851V2.53613H112.011V4.96613H111.748C111.712 4.56613 111.556 4.21613 111.273 3.91113C110.989 3.60613 110.55 3.45613 109.953 3.45613H104.646V10.0611H109.028C109.433 10.0611 109.771 9.94113 110.044 9.69613C110.317 9.45113 110.454 9.16613 110.454 8.83613H110.717V12.1011H110.454C110.454 11.7861 110.322 11.5161 110.059 11.2911C109.797 11.0661 109.453 10.9511 109.028 10.9511H104.646V18.8611H110.428C110.762 18.8611 111.055 18.7811 111.298 18.6261C111.546 18.4711 111.753 18.2811 111.92 18.0661C112.086 17.8461 112.208 17.6111 112.289 17.3611C112.369 17.1111 112.405 16.8961 112.405 16.7211H112.668V19.7761H101.846V19.5161H101.851Z" fill="white"/>
<path d="M117.263 19.5158H117.394C117.551 19.5158 117.682 19.4658 117.789 19.3608C117.895 19.2558 117.976 19.1358 118.041 18.9958C118.102 18.8558 118.147 18.7058 118.173 18.5408C118.198 18.3758 118.213 18.2258 118.213 18.0858V4.24578C118.213 4.12578 118.198 3.97578 118.173 3.80078C118.147 3.62578 118.102 3.47078 118.041 3.33078C117.981 3.19078 117.895 3.07078 117.789 2.96578C117.682 2.86078 117.551 2.81078 117.394 2.81078H117.263V2.55078H120.983V2.81078H120.72C120.579 2.83078 120.462 2.89078 120.361 2.99578C120.265 3.10078 120.189 3.22078 120.139 3.36078C120.088 3.50078 120.048 3.65078 120.018 3.81578C119.992 3.98078 119.977 4.12578 119.977 4.24578V18.8658H127.923V4.24578C127.923 4.12578 127.908 3.98078 127.883 3.81578C127.857 3.65078 127.812 3.50078 127.751 3.36078C127.691 3.22078 127.605 3.10078 127.499 2.99578C127.392 2.89078 127.271 2.83078 127.13 2.81078H126.973V2.55078H130.643V2.81078H130.405C130.263 2.83078 130.152 2.89078 130.061 2.99578C129.975 3.10078 129.905 3.22078 129.849 3.36078C129.793 3.50078 129.758 3.65078 129.728 3.81578C129.702 3.98078 129.687 4.12578 129.687 4.24578V17.4558C129.687 17.8058 129.778 18.1258 129.965 18.4208C130.152 18.7158 130.455 18.8658 130.875 18.8658H132.194V22.1308H131.931C131.911 21.9058 131.856 21.6558 131.76 21.3858C131.664 21.1158 131.522 20.8658 131.34 20.6308C131.153 20.3958 130.926 20.1958 130.653 20.0308C130.38 19.8658 130.061 19.7808 129.687 19.7808H117.258V19.5208L117.263 19.5158Z" fill="white"/>
<path d="M136.431 19.5158H136.562C136.704 19.5158 136.825 19.4658 136.931 19.3608C137.037 19.2558 137.128 19.1358 137.209 18.9958C137.29 18.8558 137.346 18.7058 137.381 18.5408C137.416 18.3758 137.437 18.2258 137.437 18.0858V4.17078C137.437 4.05078 137.416 3.91078 137.381 3.75078C137.346 3.59578 137.29 3.44578 137.209 3.30578C137.128 3.16578 137.037 3.05078 136.931 2.95578C136.825 2.86078 136.709 2.81078 136.587 2.81078H136.456V2.55078H140.201V2.81078H140.07C139.928 2.81078 139.807 2.86078 139.701 2.95578C139.595 3.05078 139.504 3.17078 139.423 3.30578C139.342 3.44578 139.281 3.59078 139.236 3.75078C139.19 3.90578 139.17 4.04578 139.17 4.17078V9.57578L145.291 3.54578C145.433 3.40578 145.504 3.24078 145.504 3.05078C145.504 2.89578 145.433 2.81578 145.291 2.81578V2.55578H148.142V2.81578C147.788 2.83578 147.48 2.94078 147.207 3.13078C146.934 3.32078 146.641 3.57578 146.323 3.89078L140.065 10.1008C141.207 10.1358 142.132 10.3808 142.835 10.8308C143.537 11.2808 144.094 11.9058 144.498 12.7058L146.585 16.8708C146.707 17.1308 146.874 17.4158 147.076 17.7158C147.278 18.0208 147.505 18.3058 147.763 18.5758C148.016 18.8458 148.304 19.0708 148.622 19.2508C148.941 19.4308 149.275 19.5258 149.623 19.5258V19.7858H148.304C147.794 19.7858 147.354 19.7108 146.985 19.5658C146.616 19.4158 146.292 19.2158 146.019 18.9658C145.746 18.7158 145.509 18.4308 145.307 18.1158C145.104 17.8008 144.922 17.4908 144.766 17.1758L142.628 12.9708C142.294 12.3258 141.829 11.8358 141.243 11.4958C140.651 11.1558 139.964 10.9708 139.17 10.9358V18.0908C139.17 18.2308 139.185 18.3758 139.226 18.5358C139.261 18.6908 139.312 18.8458 139.383 18.9908C139.453 19.1408 139.539 19.2608 139.645 19.3558C139.752 19.4508 139.863 19.5108 139.989 19.5258H140.176V19.7858H136.431V19.5258V19.5158Z" fill="white"/>
<path d="M163.932 19.5156H164.064C164.488 19.5156 164.696 19.3256 164.696 18.9406C164.696 18.8006 164.67 18.6556 164.615 18.4956L162.239 12.1506H157.619L155.324 18.3906C155.269 18.5306 155.243 18.6606 155.243 18.7806C155.243 19.0056 155.304 19.1856 155.43 19.3156C155.552 19.4456 155.683 19.5106 155.825 19.5106H155.956V19.7706H153.024V19.5106H153.156C153.383 19.5106 153.611 19.3756 153.828 19.1056C154.051 18.8356 154.227 18.5206 154.369 18.1506L160.414 2.22559L166.328 17.9956C166.45 18.3456 166.621 18.6856 166.844 19.0156C167.061 19.3456 167.349 19.5106 167.703 19.5106H167.835V19.7706H163.927V19.5106L163.932 19.5156ZM157.887 11.2656H161.951L159.919 5.81059L157.887 11.2656Z" fill="white"/>
<path d="M180.588 19.515H180.719C180.841 19.515 180.962 19.465 181.073 19.36C181.189 19.255 181.28 19.135 181.351 18.995C181.422 18.855 181.477 18.705 181.523 18.54C181.568 18.375 181.589 18.225 181.589 18.085V11.01C181.199 11.045 180.835 11.165 180.492 11.375C180.148 11.585 179.825 11.86 179.516 12.21C179.208 12.56 178.92 12.95 178.647 13.385C178.374 13.82 178.116 14.275 177.868 14.745C177.676 15.095 177.464 15.465 177.237 15.855C177.009 16.245 176.777 16.645 176.549 17.045C176.125 17.81 175.574 18.46 174.886 18.99C174.199 19.52 173.41 19.785 172.51 19.785H171.11V19.525C171.515 19.525 171.899 19.44 172.258 19.265C172.617 19.09 172.95 18.875 173.248 18.61C173.547 18.35 173.815 18.06 174.052 17.75C174.29 17.435 174.487 17.14 174.644 16.86L176.731 13.15C176.979 12.73 177.247 12.325 177.535 11.935C177.823 11.545 178.268 11.225 178.869 10.98C178.131 10.93 177.469 10.79 176.888 10.56C176.307 10.335 175.816 10.04 175.412 9.67004C175.007 9.30504 174.699 8.89004 174.487 8.43004C174.275 7.97004 174.168 7.48504 174.168 6.98004C174.168 6.33504 174.32 5.74004 174.618 5.19004C174.917 4.64004 175.341 4.17004 175.887 3.78004C176.433 3.39004 177.095 3.08504 177.879 2.86504C178.662 2.65004 179.536 2.54004 180.507 2.54004H184.308V2.80004H184.177C184.055 2.80004 183.939 2.85004 183.833 2.94504C183.727 3.04004 183.641 3.16004 183.57 3.29504C183.499 3.43504 183.449 3.58004 183.413 3.74004C183.378 3.89504 183.358 4.03504 183.358 4.16004V18.075C183.358 18.215 183.373 18.365 183.413 18.53C183.449 18.695 183.499 18.85 183.57 18.985C183.641 19.125 183.727 19.245 183.833 19.35C183.939 19.455 184.055 19.505 184.177 19.505H184.308V19.765H180.588V19.505V19.515ZM175.862 6.59004C175.862 7.09504 175.968 7.56004 176.175 7.98504C176.387 8.41004 176.676 8.78004 177.045 9.09504C177.414 9.41004 177.843 9.65004 178.333 9.82504C178.824 10 179.36 10.085 179.936 10.085H181.594V3.42504H181.199C179.501 3.42504 178.187 3.70504 177.257 4.26004C176.327 4.81504 175.867 5.59004 175.867 6.58504L175.862 6.59004Z" fill="white"/>
<path d="M48.3529 24.4907C47.6857 24.4907 47.1094 24.6107 46.6242 24.8457C46.1339 25.0807 45.7295 25.3857 45.406 25.7657C45.0825 26.1407 44.8449 26.5657 44.6882 27.0357C44.5316 27.5057 44.4507 27.9707 44.4507 28.4357C44.4507 28.9607 44.5518 29.4707 44.759 29.9757C44.9663 30.4757 45.2493 30.9207 45.6132 31.3057C45.9772 31.6907 46.4018 32.0007 46.887 32.2357C47.3723 32.4707 47.8979 32.5907 48.4641 32.5907C48.6258 32.5907 48.8179 32.5707 49.0352 32.5357C49.2526 32.5007 49.475 32.4307 49.6873 32.3307C49.9046 32.2307 50.1018 32.0857 50.2888 31.8957C50.4708 31.7107 50.6123 31.4657 50.7134 31.1607H50.8499V32.6407C50.7134 32.6407 50.5719 32.6607 50.4253 32.6957C50.2787 32.7307 50.1119 32.7707 49.935 32.8157C49.7025 32.8757 49.4447 32.9357 49.1616 32.9907C48.8785 33.0457 48.5803 33.0707 48.2669 33.0707C47.4885 33.0707 46.8011 32.9357 46.2046 32.6707C45.6132 32.4057 45.1179 32.0607 44.7236 31.6307C44.3294 31.2057 44.0362 30.7257 43.8391 30.1857C43.6419 29.6457 43.5459 29.1057 43.5459 28.5557C43.5459 28.0057 43.6419 27.4607 43.8391 26.9157C44.0362 26.3757 44.3344 25.8857 44.7337 25.4557C45.1381 25.0257 45.6436 24.6757 46.2552 24.4107C46.8668 24.1457 47.5846 24.0107 48.4085 24.0107C48.7067 24.0107 48.9695 24.0357 49.2122 24.0907C49.4497 24.1457 49.662 24.1957 49.8541 24.2507C49.9906 24.2957 50.1119 24.3307 50.2231 24.3507C50.3343 24.3707 50.4455 24.3857 50.5516 24.3857V25.8657H50.4152C50.3596 25.5907 50.2635 25.3607 50.1169 25.1807C49.9754 25.0007 49.8035 24.8607 49.6115 24.7607C49.4194 24.6607 49.2122 24.5957 48.9948 24.5557C48.7724 24.5157 48.5601 24.4957 48.3529 24.4957V24.4907Z" fill="white"/>
<path d="M53.1455 32.8006H53.2112C53.282 32.8006 53.3477 32.7756 53.3982 32.7256C53.4538 32.6756 53.4993 32.6156 53.5398 32.5456C53.5802 32.4756 53.6105 32.4006 53.6358 32.3206C53.656 32.2406 53.6712 32.1656 53.6712 32.0956V24.9706C53.6712 24.9106 53.6611 24.8356 53.6358 24.7556C53.6156 24.6756 53.5802 24.6006 53.5398 24.5306C53.4993 24.4606 53.4538 24.4006 53.3982 24.3506C53.3426 24.3006 53.282 24.2756 53.2112 24.2756H53.1455V24.1406H58.3316V25.3806H58.1951C58.1749 25.1756 58.094 24.9956 57.9525 24.8406C57.8109 24.6856 57.5835 24.6056 57.2802 24.6056H54.576V27.9756H56.8101C57.0174 27.9756 57.1892 27.9156 57.3308 27.7906C57.4672 27.6656 57.538 27.5206 57.538 27.3506H57.6745V29.0156H57.538C57.538 28.8556 57.4723 28.7156 57.3358 28.6006C57.1993 28.4856 57.0275 28.4256 56.8101 28.4256H54.576V32.4606H57.5228C57.6947 32.4606 57.8413 32.4206 57.9676 32.3406C58.094 32.2606 58.2002 32.1656 58.2861 32.0556C58.372 31.9456 58.4327 31.8256 58.4731 31.6956C58.5135 31.5656 58.5338 31.4606 58.5338 31.3706H58.6702V32.9306H53.1506V32.7956L53.1455 32.8006Z" fill="white"/>
<path d="M68.0517 32.8006H68.1174C68.1781 32.8006 68.2388 32.7756 68.2944 32.7206C68.35 32.6656 68.3954 32.6056 68.4359 32.5356C68.4763 32.4656 68.5066 32.3856 68.5218 32.3006C68.542 32.2156 68.5471 32.1406 68.5471 32.0656V25.0606L65.0745 33.0806L61.7739 25.4756V32.0706C61.7739 32.1406 61.784 32.2206 61.7991 32.3056C61.8193 32.3906 61.8446 32.4656 61.8851 32.5406C61.9255 32.6106 61.971 32.6756 62.0266 32.7256C62.0822 32.7756 62.1429 32.8056 62.2136 32.8056H62.2793V32.9406H60.8135V32.8056H60.8792C60.9398 32.8056 61.0005 32.7806 61.0561 32.7256C61.1117 32.6706 61.1572 32.6106 61.1926 32.5406C61.228 32.4706 61.2532 32.3906 61.2735 32.3056C61.2937 32.2206 61.2987 32.1456 61.2987 32.0706V24.9706C61.2987 24.9106 61.2886 24.8356 61.2735 24.7556C61.2532 24.6756 61.228 24.6006 61.1926 24.5306C61.1572 24.4606 61.1117 24.4006 61.0561 24.3506C61.0005 24.3006 60.9449 24.2756 60.8792 24.2756H60.8135V24.1406H62.1883L65.3121 31.4256L68.4359 24.1406H69.9573V24.2756H69.8916C69.8209 24.2756 69.7551 24.3006 69.7046 24.3506C69.649 24.4006 69.6035 24.4606 69.5631 24.5306C69.5226 24.6006 69.4923 24.6756 69.4771 24.7556C69.4569 24.8356 69.4519 24.9056 69.4519 24.9706V32.0706C69.4519 32.1406 69.462 32.2206 69.4771 32.3056C69.4974 32.3906 69.5226 32.4656 69.5631 32.5406C69.6035 32.6106 69.649 32.6756 69.7046 32.7256C69.7602 32.7756 69.8209 32.8056 69.8916 32.8056H69.9573V32.9406H68.0467V32.8056L68.0517 32.8006Z" fill="white"/>
<path d="M72.4033 32.8006H72.469C72.5398 32.8006 72.6055 32.7756 72.6561 32.7256C72.7117 32.6756 72.7571 32.6156 72.7976 32.5456C72.838 32.4756 72.8683 32.4006 72.8936 32.3206C72.9138 32.2406 72.929 32.1656 72.929 32.0956V24.9706C72.929 24.9106 72.9189 24.8356 72.8936 24.7556C72.8734 24.6756 72.838 24.6006 72.7976 24.5306C72.7571 24.4606 72.7117 24.4006 72.6561 24.3506C72.6005 24.3006 72.5398 24.2756 72.469 24.2756H72.4033V24.1406H77.5894V25.3806H77.4529C77.4327 25.1756 77.3518 24.9956 77.2103 24.8406C77.0688 24.6856 76.8413 24.6056 76.538 24.6056H73.8338V27.9756H76.0679C76.2752 27.9756 76.447 27.9156 76.5886 27.7906C76.725 27.6656 76.7958 27.5206 76.7958 27.3506H76.9323V29.0156H76.7958C76.7958 28.8556 76.7301 28.7156 76.5936 28.6006C76.4571 28.4856 76.2853 28.4256 76.0679 28.4256H73.8338V32.4606H76.7806C76.9525 32.4606 77.0991 32.4206 77.2254 32.3406C77.3518 32.2606 77.458 32.1656 77.5439 32.0556C77.6298 31.9456 77.6905 31.8256 77.7309 31.6956C77.7713 31.5656 77.7916 31.4606 77.7916 31.3706H77.928V32.9306H72.4084V32.7956L72.4033 32.8006Z" fill="white"/>
<path d="M85.4237 32.8005H85.4894C85.5602 32.8005 85.6259 32.7755 85.6764 32.7255C85.732 32.6755 85.7775 32.6155 85.818 32.5405C85.8584 32.4655 85.8887 32.3855 85.9039 32.3005C85.9241 32.2155 85.9292 32.1405 85.9292 32.0655V25.9655L81.4558 31.9455V32.0655C81.4558 32.1355 81.4659 32.2155 81.4912 32.3005C81.5114 32.3855 81.5417 32.4605 81.5771 32.5355C81.6125 32.6055 81.658 32.6705 81.7136 32.7205C81.7692 32.7755 81.8298 32.8005 81.9006 32.8005H81.9663V32.9355H80.0557V32.8005H80.1214C80.1921 32.8005 80.2578 32.7755 80.3084 32.7255C80.364 32.6755 80.4095 32.6155 80.4499 32.5405C80.4904 32.4655 80.5207 32.3855 80.5359 32.3005C80.5561 32.2155 80.5611 32.1405 80.5611 32.0655V24.9655C80.5611 24.9055 80.551 24.8305 80.5359 24.7505C80.5156 24.6705 80.4904 24.5955 80.4499 24.5255C80.4095 24.4555 80.364 24.3955 80.3084 24.3455C80.2528 24.2955 80.1921 24.2705 80.1214 24.2705H80.0557V24.1355H81.9663V24.2705H81.8602C81.7995 24.2805 81.7389 24.3105 81.6934 24.3655C81.6428 24.4205 81.6024 24.4805 81.567 24.5455C81.5316 24.6105 81.5063 24.6855 81.4861 24.7605C81.4659 24.8355 81.4609 24.9055 81.4609 24.9655V31.1205L85.9342 25.1405V24.9655C85.9342 24.9055 85.9241 24.8305 85.9089 24.7505C85.8887 24.6705 85.8634 24.5955 85.823 24.5255C85.7826 24.4555 85.7371 24.3955 85.6815 24.3455C85.6259 24.2955 85.5652 24.2705 85.4945 24.2705H85.4287V24.1355H87.3394V24.2705H87.2737C87.2029 24.2705 87.1372 24.2955 87.0867 24.3455C87.0311 24.3955 86.9856 24.4555 86.9502 24.5255C86.9148 24.5955 86.8845 24.6705 86.8643 24.7505C86.8441 24.8305 86.8289 24.9005 86.8289 24.9655V32.0655C86.8289 32.1355 86.839 32.2105 86.8643 32.2905C86.8845 32.3705 86.9148 32.4505 86.9502 32.5255C86.9856 32.6005 87.0311 32.6655 87.0867 32.7205C87.1423 32.7755 87.2029 32.8005 87.2737 32.8005H87.3394V32.9355H85.4287V32.8005H85.4237ZM85.1962 22.3955C85.1962 22.5455 85.1609 22.7005 85.0901 22.8605C85.0193 23.0205 84.9182 23.1705 84.7868 23.3155C84.6554 23.4555 84.4987 23.5755 84.3167 23.6605C84.1348 23.7505 83.9275 23.7955 83.7051 23.7955C83.4827 23.7955 83.2906 23.7555 83.1036 23.6705C82.9216 23.5855 82.7599 23.4755 82.6234 23.3455C82.4869 23.2105 82.3808 23.0605 82.2999 22.8905C82.2191 22.7205 82.1786 22.5555 82.1786 22.3955H82.2595C82.2696 22.4505 82.2949 22.5255 82.3454 22.6205C82.396 22.7205 82.4718 22.8155 82.583 22.9155C82.6891 23.0155 82.8357 23.0955 83.0126 23.1705C83.1946 23.2405 83.417 23.2755 83.6849 23.2755C83.9528 23.2755 84.1904 23.2405 84.3673 23.1705C84.5442 23.1005 84.6857 23.0155 84.7919 22.9155C84.898 22.8155 84.9738 22.7205 85.0193 22.6205C85.0648 22.5205 85.0951 22.4455 85.1154 22.3955H85.1962Z" fill="white"/>
<path d="M95.1179 32.8007H95.1836C95.2443 32.8007 95.305 32.7757 95.3606 32.7257C95.4162 32.6757 95.4616 32.6157 95.5021 32.5407C95.5425 32.4657 95.5728 32.3857 95.588 32.3007C95.6082 32.2157 95.6133 32.1407 95.6133 32.0657V28.4407H91.3017V32.0657C91.3017 32.1357 91.3118 32.2157 91.3269 32.3007C91.3472 32.3857 91.3724 32.4607 91.4078 32.5357C91.4432 32.6057 91.4887 32.6707 91.5342 32.7207C91.5847 32.7757 91.6454 32.8007 91.7162 32.8007H91.7819V32.9357H89.8965V32.8007H89.9622C90.0228 32.8007 90.0835 32.7757 90.1391 32.7257C90.1947 32.6757 90.2402 32.6157 90.2806 32.5407C90.3211 32.4657 90.3514 32.3857 90.3666 32.3007C90.3868 32.2157 90.3918 32.1407 90.3918 32.0657V24.9657C90.3918 24.9057 90.3817 24.8307 90.3666 24.7507C90.3463 24.6707 90.3211 24.5957 90.2857 24.5257C90.2503 24.4557 90.2048 24.3957 90.1492 24.3457C90.0936 24.2957 90.033 24.2707 89.9622 24.2707H89.8965V24.1357H91.7819V24.2707H91.7162C91.6454 24.2707 91.5797 24.2957 91.5291 24.3457C91.4735 24.3957 91.4331 24.4557 91.4028 24.5257C91.3724 24.5957 91.3472 24.6707 91.3269 24.7507C91.3067 24.8307 91.3017 24.9007 91.3017 24.9657V27.9757H95.6133V24.9657C95.6133 24.9057 95.6032 24.8307 95.588 24.7507C95.5678 24.6707 95.5425 24.5957 95.5071 24.5257C95.4718 24.4557 95.4263 24.3957 95.3707 24.3457C95.3151 24.2957 95.2544 24.2707 95.1836 24.2707H95.1179V24.1357H97.0033V24.2707H96.9376C96.8668 24.2707 96.8011 24.2957 96.7506 24.3457C96.695 24.3957 96.6545 24.4557 96.6242 24.5257C96.5939 24.5957 96.5686 24.6707 96.5484 24.7507C96.5282 24.8307 96.5231 24.9007 96.5231 24.9657V32.0657C96.5231 32.1357 96.5332 32.2157 96.5585 32.3007C96.5787 32.3857 96.609 32.4607 96.6444 32.5357C96.6798 32.6057 96.7253 32.6707 96.7708 32.7207C96.8213 32.7757 96.8769 32.8007 96.9376 32.8007H97.0033V32.9357H95.1179V32.8007Z" fill="white"/>
<path d="M104.398 32.8012H104.464C104.681 32.8012 104.787 32.7062 104.787 32.5062C104.787 32.4362 104.772 32.3612 104.747 32.2812L103.534 29.0462H101.178L100.006 32.2312C99.9804 32.3012 99.9653 32.3712 99.9653 32.4312C99.9653 32.5462 99.9956 32.6362 100.061 32.7062C100.122 32.7712 100.193 32.8062 100.263 32.8062H100.329V32.9412H98.833V32.8062H98.8987C99.015 32.8062 99.1312 32.7362 99.2424 32.6012C99.3536 32.4662 99.4446 32.3012 99.5204 32.1162L102.604 23.9912L105.621 32.0362C105.682 32.2162 105.773 32.3862 105.884 32.5562C105.995 32.7262 106.142 32.8112 106.324 32.8112H106.39V32.9462H104.398V32.8112V32.8012ZM101.315 28.5912H103.387L102.351 25.8062L101.315 28.5912Z" fill="white"/>
<path d="M112.684 32.801H112.75C112.811 32.801 112.871 32.776 112.932 32.721C112.992 32.666 113.038 32.606 113.073 32.536C113.109 32.466 113.139 32.386 113.159 32.301C113.179 32.216 113.195 32.141 113.195 32.066V28.456C112.998 28.476 112.811 28.536 112.634 28.641C112.457 28.746 112.29 28.891 112.133 29.066C111.976 29.246 111.83 29.446 111.688 29.666C111.547 29.886 111.415 30.121 111.289 30.361C111.188 30.541 111.082 30.726 110.966 30.926C110.849 31.126 110.733 31.326 110.617 31.531C110.399 31.921 110.116 32.251 109.768 32.521C109.419 32.791 109.014 32.926 108.554 32.926H107.842V32.791C108.049 32.791 108.246 32.746 108.428 32.656C108.61 32.566 108.782 32.456 108.934 32.321C109.085 32.186 109.222 32.041 109.343 31.881C109.464 31.721 109.565 31.571 109.646 31.426L110.708 29.536C110.834 29.321 110.971 29.116 111.117 28.916C111.264 28.716 111.491 28.556 111.8 28.431C111.42 28.406 111.087 28.331 110.789 28.216C110.49 28.101 110.243 27.951 110.036 27.761C109.828 27.576 109.672 27.361 109.565 27.126C109.459 26.891 109.404 26.646 109.404 26.386C109.404 26.056 109.479 25.751 109.631 25.476C109.783 25.196 110 24.956 110.278 24.756C110.556 24.556 110.895 24.401 111.294 24.291C111.693 24.181 112.138 24.126 112.634 24.126H114.575V24.261H114.509C114.448 24.261 114.388 24.286 114.332 24.336C114.276 24.386 114.231 24.446 114.195 24.516C114.16 24.586 114.135 24.661 114.115 24.741C114.094 24.821 114.089 24.891 114.089 24.956V32.056C114.089 32.126 114.099 32.206 114.115 32.291C114.135 32.376 114.16 32.451 114.195 32.526C114.231 32.596 114.276 32.661 114.332 32.711C114.388 32.766 114.443 32.791 114.509 32.791H114.575V32.926H112.674V32.791L112.684 32.801ZM110.273 26.206C110.273 26.466 110.329 26.701 110.435 26.921C110.541 27.136 110.688 27.326 110.88 27.486C111.067 27.646 111.284 27.771 111.537 27.861C111.784 27.951 112.057 27.996 112.356 27.996H113.2V24.601H112.998C112.128 24.601 111.461 24.741 110.986 25.026C110.511 25.311 110.273 25.706 110.273 26.211V26.206Z" fill="white"/>
<path d="M121.625 32.8007H121.691C121.761 32.8007 121.827 32.7757 121.878 32.7207C121.928 32.6657 121.979 32.6057 122.019 32.5357C122.06 32.4657 122.09 32.3857 122.105 32.3007C122.125 32.2157 122.13 32.1407 122.13 32.0657V24.9657C122.13 24.9057 122.12 24.8307 122.105 24.7507C122.085 24.6707 122.06 24.5957 122.019 24.5257C121.979 24.4557 121.933 24.3957 121.878 24.3457C121.822 24.2957 121.767 24.2707 121.701 24.2707H121.635V24.1357H123.546V24.2707H123.48C123.409 24.2707 123.344 24.2957 123.293 24.3457C123.237 24.3957 123.192 24.4557 123.152 24.5257C123.111 24.5957 123.081 24.6707 123.055 24.7507C123.035 24.8307 123.02 24.9007 123.02 24.9657V27.7257L126.144 24.6507C126.215 24.5807 126.25 24.4957 126.25 24.3957C126.25 24.3157 126.215 24.2757 126.144 24.2757V24.1407H127.6V24.2757C127.423 24.2857 127.261 24.3357 127.124 24.4357C126.983 24.5357 126.836 24.6607 126.675 24.8257L123.485 27.9957C124.066 28.0157 124.542 28.1357 124.9 28.3657C125.259 28.5957 125.542 28.9157 125.75 29.3207L126.811 31.4457C126.872 31.5807 126.958 31.7207 127.059 31.8757C127.16 32.0307 127.276 32.1757 127.408 32.3157C127.539 32.4507 127.686 32.5657 127.847 32.6607C128.009 32.7557 128.181 32.8007 128.358 32.8007V32.9357H127.686C127.423 32.9357 127.2 32.9007 127.013 32.8207C126.826 32.7457 126.659 32.6407 126.523 32.5157C126.381 32.3857 126.26 32.2407 126.159 32.0807C126.058 31.9207 125.962 31.7607 125.881 31.6007L124.789 29.4557C124.617 29.1257 124.385 28.8757 124.082 28.7007C123.778 28.5257 123.43 28.4307 123.025 28.4157V32.0657C123.025 32.1357 123.035 32.2107 123.05 32.2907C123.071 32.3707 123.096 32.4507 123.131 32.5257C123.167 32.6007 123.212 32.6657 123.268 32.7107C123.323 32.7607 123.379 32.7907 123.445 32.7957H123.541V32.9307H121.63V32.7957L121.625 32.8007Z" fill="white"/>
<path d="M131.44 32.0007C131.36 32.2307 131.233 32.4457 131.061 32.6407C130.889 32.8357 130.642 32.9357 130.308 32.9357H129.889V32.8007C129.944 32.8007 130.015 32.7857 130.106 32.7557C130.197 32.7257 130.288 32.6757 130.389 32.6007C130.49 32.5307 130.586 32.4407 130.687 32.3257C130.788 32.2157 130.869 32.0757 130.945 31.9057L133.488 25.0057C133.533 24.8707 133.553 24.7707 133.553 24.7007C133.553 24.5657 133.513 24.4657 133.437 24.3857C133.361 24.3107 133.28 24.2707 133.199 24.2707V24.1357H134.301L137.319 32.2857C137.364 32.4107 137.45 32.5257 137.577 32.6257C137.703 32.7307 137.84 32.7857 137.996 32.7907V32.9257H136.071V32.7907C136.141 32.7907 136.217 32.7607 136.293 32.7057C136.369 32.6457 136.409 32.5707 136.409 32.4707C136.409 32.4457 136.399 32.4057 136.384 32.3507L133.852 25.4507L131.44 31.9907V32.0007Z" fill="white"/>
<path d="M145.482 32.8007H145.548C145.619 32.8007 145.684 32.7757 145.735 32.7257C145.791 32.6757 145.836 32.6157 145.877 32.5407C145.917 32.4657 145.947 32.3857 145.962 32.3007C145.983 32.2157 145.988 32.1407 145.988 32.0657V25.9657L141.514 31.9457V32.0657C141.514 32.1357 141.525 32.2157 141.55 32.3007C141.57 32.3857 141.6 32.4607 141.636 32.5357C141.671 32.6057 141.717 32.6707 141.772 32.7207C141.828 32.7757 141.888 32.8007 141.959 32.8007H142.025V32.9357H140.114V32.8007H140.18C140.251 32.8007 140.316 32.7757 140.367 32.7257C140.423 32.6757 140.468 32.6157 140.509 32.5407C140.549 32.4657 140.579 32.3857 140.594 32.3007C140.615 32.2157 140.62 32.1407 140.62 32.0657V24.9657C140.62 24.9057 140.61 24.8307 140.594 24.7507C140.574 24.6707 140.549 24.5957 140.509 24.5257C140.468 24.4557 140.423 24.3957 140.367 24.3457C140.311 24.2957 140.251 24.2707 140.18 24.2707H140.114V24.1357H142.025V24.2707H141.919C141.858 24.2807 141.797 24.3107 141.752 24.3657C141.701 24.4207 141.661 24.4807 141.626 24.5457C141.59 24.6107 141.565 24.6857 141.545 24.7607C141.524 24.8357 141.519 24.9057 141.519 24.9657V31.1207L145.993 25.1407V24.9657C145.993 24.9057 145.983 24.8307 145.968 24.7507C145.947 24.6707 145.922 24.5957 145.882 24.5257C145.841 24.4557 145.796 24.3957 145.74 24.3457C145.684 24.2957 145.624 24.2707 145.553 24.2707H145.487V24.1357H147.398V24.2707H147.332C147.262 24.2707 147.196 24.2957 147.145 24.3457C147.09 24.3957 147.044 24.4557 147.009 24.5257C146.973 24.5957 146.943 24.6707 146.923 24.7507C146.903 24.8307 146.887 24.9007 146.887 24.9657V32.0657C146.887 32.1357 146.898 32.2107 146.923 32.2907C146.943 32.3707 146.973 32.4507 147.009 32.5257C147.044 32.6007 147.09 32.6657 147.145 32.7207C147.201 32.7757 147.262 32.8007 147.332 32.8007H147.398V32.9357H145.487V32.8007H145.482Z" fill="white"/>
<path d="M155.182 32.8007H155.248C155.309 32.8007 155.369 32.7757 155.425 32.7257C155.481 32.6757 155.526 32.6157 155.567 32.5407C155.607 32.4657 155.637 32.3857 155.652 32.3007C155.673 32.2157 155.678 32.1407 155.678 32.0657V28.4407H151.366V32.0657C151.366 32.1357 151.376 32.2157 151.391 32.3007C151.412 32.3857 151.437 32.4607 151.472 32.5357C151.508 32.6057 151.553 32.6707 151.599 32.7207C151.649 32.7757 151.71 32.8007 151.781 32.8007H151.846V32.9357H149.961V32.8007H150.027C150.087 32.8007 150.148 32.7757 150.204 32.7257C150.259 32.6757 150.305 32.6157 150.345 32.5407C150.386 32.4657 150.416 32.3857 150.431 32.3007C150.451 32.2157 150.456 32.1407 150.456 32.0657V24.9657C150.456 24.9057 150.446 24.8307 150.431 24.7507C150.411 24.6707 150.386 24.5957 150.35 24.5257C150.315 24.4557 150.269 24.3957 150.214 24.3457C150.158 24.2957 150.097 24.2707 150.027 24.2707H149.961V24.1357H151.846V24.2707H151.781C151.71 24.2707 151.644 24.2957 151.594 24.3457C151.538 24.3957 151.498 24.4557 151.467 24.5257C151.437 24.5957 151.412 24.6707 151.391 24.7507C151.371 24.8307 151.366 24.9007 151.366 24.9657V27.9757H155.678V24.9657C155.678 24.9057 155.668 24.8307 155.652 24.7507C155.632 24.6707 155.607 24.5957 155.572 24.5257C155.536 24.4557 155.491 24.3957 155.435 24.3457C155.38 24.2957 155.319 24.2707 155.248 24.2707H155.182V24.1357H157.068V24.2707H157.002C156.931 24.2707 156.866 24.2957 156.815 24.3457C156.759 24.3957 156.719 24.4557 156.689 24.5257C156.658 24.5957 156.633 24.6707 156.613 24.7507C156.593 24.8307 156.588 24.9007 156.588 24.9657V32.0657C156.588 32.1357 156.598 32.2157 156.623 32.3007C156.643 32.3857 156.674 32.4607 156.709 32.5357C156.744 32.6057 156.79 32.6707 156.835 32.7207C156.886 32.7757 156.941 32.8007 157.002 32.8007H157.068V32.9357H155.182V32.8007Z" fill="white"/>
<path d="M164.676 32.8007H164.741C164.812 32.8007 164.878 32.7757 164.928 32.7257C164.984 32.6757 165.029 32.6157 165.07 32.5407C165.11 32.4657 165.141 32.3857 165.156 32.3007C165.176 32.2157 165.181 32.1407 165.181 32.0657V25.9657L160.708 31.9457V32.0657C160.708 32.1357 160.718 32.2157 160.743 32.3007C160.763 32.3857 160.794 32.4607 160.829 32.5357C160.864 32.6057 160.91 32.6707 160.966 32.7207C161.021 32.7757 161.082 32.8007 161.153 32.8007H161.218V32.9357H159.308V32.8007H159.373C159.444 32.8007 159.51 32.7757 159.56 32.7257C159.616 32.6757 159.661 32.6157 159.702 32.5407C159.742 32.4657 159.773 32.3857 159.788 32.3007C159.808 32.2157 159.813 32.1407 159.813 32.0657V24.9657C159.813 24.9057 159.803 24.8307 159.788 24.7507C159.768 24.6707 159.742 24.5957 159.702 24.5257C159.661 24.4557 159.616 24.3957 159.56 24.3457C159.505 24.2957 159.444 24.2707 159.373 24.2707H159.308V24.1357H161.218V24.2707H161.112C161.051 24.2807 160.991 24.3107 160.945 24.3657C160.895 24.4207 160.854 24.4807 160.819 24.5457C160.784 24.6107 160.758 24.6857 160.738 24.7607C160.718 24.8357 160.713 24.9057 160.713 24.9657V31.1207L165.186 25.1407V24.9657C165.186 24.9057 165.176 24.8307 165.161 24.7507C165.141 24.6707 165.115 24.5957 165.075 24.5257C165.035 24.4557 164.989 24.3957 164.933 24.3457C164.878 24.2957 164.817 24.2707 164.746 24.2707H164.681V24.1357H166.591V24.2707H166.526C166.455 24.2707 166.389 24.2957 166.339 24.3457C166.283 24.3957 166.238 24.4557 166.202 24.5257C166.167 24.5957 166.136 24.6707 166.116 24.7507C166.096 24.8307 166.081 24.9007 166.081 24.9657V32.0657C166.081 32.1357 166.091 32.2107 166.116 32.2907C166.136 32.3707 166.167 32.4507 166.202 32.5257C166.238 32.6007 166.283 32.6657 166.339 32.7207C166.394 32.7757 166.455 32.8007 166.526 32.8007H166.591V32.9357H164.681V32.8007H164.676Z" fill="white"/>
<path d="M168.997 32.8007H169.063C169.134 32.8007 169.199 32.7757 169.25 32.7207C169.305 32.6657 169.351 32.6057 169.391 32.5357C169.432 32.4657 169.462 32.3857 169.477 32.3007C169.497 32.2157 169.503 32.1407 169.503 32.0657V24.9657C169.503 24.9057 169.492 24.8307 169.477 24.7507C169.457 24.6707 169.432 24.5957 169.391 24.5257C169.351 24.4557 169.305 24.3957 169.25 24.3457C169.194 24.2957 169.139 24.2707 169.073 24.2707H169.007V24.1357H170.918V24.2707H170.852C170.781 24.2707 170.716 24.2957 170.665 24.3457C170.61 24.3957 170.564 24.4557 170.524 24.5257C170.483 24.5957 170.453 24.6707 170.428 24.7507C170.407 24.8307 170.392 24.9007 170.392 24.9657V27.7257L173.516 24.6507C173.587 24.5807 173.622 24.4957 173.622 24.3957C173.622 24.3157 173.587 24.2757 173.516 24.2757V24.1407H174.972V24.2757C174.795 24.2857 174.633 24.3357 174.497 24.4357C174.355 24.5357 174.208 24.6607 174.047 24.8257L170.857 27.9957C171.438 28.0157 171.914 28.1357 172.272 28.3657C172.631 28.5957 172.914 28.9157 173.122 29.3207L174.183 31.4457C174.244 31.5807 174.33 31.7207 174.431 31.8757C174.532 32.0307 174.653 32.1757 174.78 32.3157C174.911 32.4507 175.058 32.5657 175.219 32.6607C175.381 32.7557 175.553 32.8007 175.73 32.8007V32.9357H175.058C174.795 32.9357 174.572 32.9007 174.385 32.8207C174.198 32.7457 174.031 32.6407 173.895 32.5157C173.753 32.3857 173.632 32.2407 173.531 32.0807C173.43 31.9207 173.334 31.7607 173.253 31.6007L172.161 29.4557C171.989 29.1257 171.757 28.8757 171.454 28.7007C171.15 28.5257 170.802 28.4307 170.397 28.4157V32.0657C170.397 32.1357 170.407 32.2107 170.422 32.2907C170.443 32.3707 170.468 32.4507 170.503 32.5257C170.539 32.6007 170.584 32.6657 170.64 32.7107C170.695 32.7607 170.751 32.7907 170.817 32.7957H170.913V32.9307H169.002V32.7957L168.997 32.8007Z" fill="white"/>
<path d="M182.817 32.8012H182.883C183.1 32.8012 183.206 32.7062 183.206 32.5062C183.206 32.4362 183.191 32.3612 183.166 32.2812L181.953 29.0462H179.597L178.425 32.2312C178.399 32.3012 178.384 32.3712 178.384 32.4312C178.384 32.5462 178.415 32.6362 178.48 32.7062C178.541 32.7712 178.612 32.8062 178.682 32.8062H178.748V32.9412H177.252V32.8062H177.318C177.434 32.8062 177.55 32.7362 177.661 32.6012C177.773 32.4662 177.864 32.3012 177.939 32.1162L181.023 23.9912L184.04 32.0362C184.101 32.2162 184.192 32.3862 184.303 32.5562C184.414 32.7262 184.561 32.8112 184.743 32.8112H184.809V32.9462H182.817V32.8112V32.8012ZM179.734 28.5912H181.806L180.77 25.8062L179.734 28.5912Z" fill="white"/>
<path d="M11.9237 13.6558C11.6356 12.2958 11.6963 11.0408 11.767 10.3908C11.767 10.3508 11.7923 10.3208 11.8176 10.3008C11.8378 10.2858 11.8631 10.2808 11.8833 10.2808C11.8934 10.2808 11.9086 10.2808 11.9187 10.2808C12.6263 10.4708 14.0416 10.9408 15.3457 11.8708C15.371 11.7058 15.4013 11.5408 15.4367 11.3808C14.1275 10.4858 12.7476 10.0308 12.04 9.84084C11.8732 9.79584 11.6963 9.82584 11.5598 9.92084C11.4183 10.0158 11.3323 10.1658 11.3121 10.3358C11.2464 10.9858 11.1857 12.2158 11.4435 13.5708C11.6002 13.5908 11.762 13.6158 11.9237 13.6458V13.6558Z" fill="white"/>
<path d="M17.2769 17.1657C17.3982 17.3207 17.5094 17.4557 17.6004 17.5657C17.6257 17.5957 17.6611 17.6257 17.6914 17.6507C17.7318 17.6807 17.7773 17.7007 17.8279 17.7207C17.8835 17.7407 17.9391 17.7507 17.9947 17.7507C18.0503 17.7507 18.1059 17.7407 18.1615 17.7207C18.2423 17.6907 18.3232 17.6457 18.3839 17.5757C18.3839 17.5757 18.3889 17.5707 18.394 17.5657C18.5052 17.4357 18.6417 17.2657 18.7933 17.0657C19.137 16.6107 19.5464 15.9857 19.8801 15.2407C20.249 14.4207 20.5321 13.4607 20.5321 12.4307C20.5321 12.1507 20.5119 11.8807 20.4714 11.6107C20.4512 11.4557 20.426 11.3007 20.3906 11.1507C20.0064 9.34566 18.9146 7.90066 18.3889 7.29066C18.1918 7.06066 17.7975 7.06066 17.6004 7.29066C17.0798 7.89566 16.0031 9.32066 15.6089 11.1007C15.5735 11.2507 15.5482 11.4007 15.5229 11.5557C15.4825 11.8407 15.4572 12.1307 15.4572 12.4257C15.4572 13.4607 15.7403 14.4207 16.1093 15.2407C16.4732 16.0407 16.918 16.7007 17.2719 17.1607L17.2769 17.1657ZM15.9172 11.8557C15.9324 11.6957 15.9576 11.5357 15.988 11.3757C16.3266 9.60566 17.4083 8.16566 17.9239 7.56566C17.9492 7.53566 17.9795 7.53066 17.9947 7.53066C18.0098 7.53066 18.0402 7.53066 18.0654 7.56566C18.5861 8.17066 19.688 9.63566 20.0115 11.4357C20.0418 11.5957 20.062 11.7557 20.0772 11.9207C20.0923 12.0857 20.1025 12.2557 20.1025 12.4257C20.1025 14.0357 19.3695 15.4657 18.7276 16.4107C18.5962 16.6057 18.4698 16.7807 18.3485 16.9307C18.2423 17.0707 18.1413 17.1907 18.0604 17.2857C18.0098 17.3457 17.9694 17.3457 17.9188 17.2857C17.8531 17.2107 17.7824 17.1207 17.7066 17.0257C17.5903 16.8807 17.4589 16.7107 17.3224 16.5107C16.6653 15.5657 15.8818 14.0857 15.8818 12.4207C15.8818 12.2257 15.897 12.0357 15.9172 11.8507V11.8557Z" fill="white"/>
<path d="M16.5645 30.2256C15.1998 30.6856 14.7954 31.6356 14.7803 31.6806L14.6286 32.0456H21.508L21.4625 31.7406C21.4574 31.6906 21.2805 30.6006 19.658 30.1606V25.4256C25.3849 24.9006 27.432 21.5006 27.9274 20.4606C27.9981 20.3156 27.988 20.1506 27.8971 20.0156C27.7859 19.8406 27.5584 19.7306 27.3107 19.7306H24.01C24.3032 19.6256 24.5913 19.5106 24.8744 19.3656C27.3158 18.1156 28.5491 15.6306 28.9636 14.6206C29.0242 14.4656 29.0192 14.3006 28.9383 14.1556C28.8574 14.0056 28.7109 13.9006 28.539 13.8706C27.7909 13.7206 26.2492 13.5006 24.5863 13.7456C24.5964 13.6856 24.6115 13.6256 24.6267 13.5706C24.8845 12.2206 24.8238 10.9956 24.7531 10.3456C24.7379 10.1756 24.6469 10.0256 24.5054 9.93061C24.3639 9.83561 24.192 9.80561 24.0252 9.85061C23.3024 10.0456 21.8871 10.5156 20.5527 11.4456C20.588 11.6056 20.6133 11.7706 20.6386 11.9356C21.9629 10.9606 23.4186 10.4806 24.1465 10.2856C24.1617 10.2856 24.1718 10.2856 24.1819 10.2856C24.2122 10.2856 24.2375 10.2956 24.2476 10.3056C24.2628 10.3156 24.2931 10.3456 24.2981 10.3956C24.3639 11.0406 24.4245 12.2906 24.1465 13.6456C24.1313 13.7106 24.1162 13.7706 24.101 13.8356C23.4338 13.9706 22.7615 14.1856 22.1145 14.5156C19.6731 15.7656 18.4398 18.2506 18.0253 19.2606C18.0203 19.2756 18.0253 19.2856 18.0203 19.3006C18.0152 19.2856 18.0102 19.2756 18.0051 19.2606C17.5906 18.2506 16.3573 15.7656 13.9159 14.5156C11.4796 13.2706 8.60853 13.6556 7.49145 13.8806C7.31959 13.9156 7.17301 14.0206 7.09214 14.1656C7.01632 14.3106 7.00621 14.4806 7.06686 14.6306C7.48134 15.6406 8.71468 18.1306 11.1561 19.3756C11.4391 19.5206 11.7272 19.6406 12.0204 19.7406H8.9017C8.65402 19.7406 8.42656 19.8506 8.31536 20.0306C8.22943 20.1706 8.21932 20.3356 8.29009 20.4806C8.80566 21.5206 10.9084 24.9056 16.5544 25.4356V30.2356L16.5645 30.2256ZM11.3734 18.9656C9.0685 17.7856 7.89583 15.4156 7.49651 14.4506C7.48134 14.4156 7.49145 14.3856 7.49651 14.3706C7.51167 14.3406 7.542 14.3206 7.58244 14.3106C8.07274 14.2106 8.91181 14.0806 9.90252 14.0806C11.0752 14.0806 12.4551 14.2656 13.7087 14.9056C16.0136 16.0856 17.1863 18.4556 17.5856 19.4206C17.6007 19.4556 18.0102 19.6956 18.0658 19.6906C18.1264 19.6956 18.4398 19.4556 18.4499 19.4206C18.8492 18.4556 20.0219 16.0856 22.3268 14.9056C24.6368 13.7256 27.3815 14.0956 28.4531 14.3106C28.4935 14.3206 28.5238 14.3406 28.539 14.3706C28.5491 14.3856 28.5542 14.4156 28.539 14.4506C28.1397 15.4156 26.967 17.7856 24.6621 18.9656C23.823 19.3956 22.3319 19.6356 21.6192 19.7356H14.0928C13.1981 19.6456 12.2479 19.4206 11.3633 18.9656H11.3734ZM8.80566 20.2856C8.80566 20.2856 8.86126 20.2656 8.90675 20.2656H27.3158C27.3613 20.2656 27.3966 20.2756 27.4219 20.2856C26.9114 21.3306 24.9098 24.5006 19.3749 24.9206L19.1272 24.9406V30.5856L19.3395 30.6306C20.2393 30.8256 20.6386 31.2306 20.8104 31.5106H15.5233C15.7558 31.2356 16.1854 30.8806 16.9083 30.6756L17.1054 30.6206V24.9356L16.8577 24.9156C11.3936 24.4906 9.34145 21.3256 8.81072 20.2856H8.80566Z" fill="white"/>
<path d="M18.0958 39.9507L17.9138 39.8657C6.2679 34.4257 0.63702 26.3757 0.197266 14.5307V0.0556641H6.53074V2.35566H7.56188V0.0556641H13.8954V2.35566H14.9265V0.0556641H21.26V2.35566H22.2911V0.0556641H28.6246V2.35566H29.6557V0.0556641H35.9892V14.5157C35.5292 26.2657 29.7366 34.5507 18.2676 39.8657L18.0857 39.9507H18.0958ZM1.05656 0.905664V14.5107C1.4862 26.0807 6.74809 33.6457 18.0958 39.0007C29.1199 33.8307 34.6952 25.8107 35.135 14.4907V0.900663H30.5251V3.20066H27.7653V0.900663H23.1555V3.20066H20.3956V0.900663H15.7858V3.20066H13.026V0.900663H8.41612V3.20066H5.65628V0.900663H1.04645L1.05656 0.905664Z" fill="white"/>
<path d="M18.0949 37.3663L17.9989 37.3213C8.16252 32.6063 3.41115 25.6263 3.03711 15.3613V4.90625H33.1476V15.3513C32.7584 25.5263 27.8655 32.7113 18.1859 37.3213L18.0898 37.3663H18.0949ZM3.47181 5.33625V15.3562C3.8408 25.5462 8.3546 32.1913 18.0949 36.8963C27.5572 32.3613 32.3389 25.3113 32.718 15.3513V5.34125H3.47181V5.33625Z" fill="white"/>
</g>
<defs>
<clipPath id="clip0_172_3546">
<rect width="185" height="40" fill="white"/>
</clipPath>
</defs>
</svg>
