<svg width="165" height="36" viewBox="0 0 165 36" fill="none" xmlns="http://www.w3.org/2000/svg">
<path d="M48.7455 17.56H48.8629C48.9713 17.56 49.0752 17.5194 49.1701 17.4291C49.265 17.3434 49.3463 17.2351 49.4186 17.0997C49.4909 16.9644 49.5406 16.8245 49.5722 16.6756C49.6038 16.5267 49.6219 16.3914 49.6219 16.2651V9.85824H42.0728V16.2651C42.0728 16.3914 42.0864 16.5267 42.1225 16.6756C42.1541 16.8245 42.1993 16.9644 42.2625 17.0862C42.3258 17.2125 42.3981 17.3208 42.4884 17.4156C42.5743 17.5103 42.6827 17.5554 42.8092 17.5554H42.9267V17.7901H39.6242V17.5554H39.7417C39.8501 17.5554 39.954 17.5148 40.0489 17.4246C40.1437 17.3389 40.2251 17.2306 40.2973 17.0952C40.3696 16.9599 40.4193 16.82 40.4509 16.6711C40.4826 16.5222 40.5006 16.3869 40.5006 16.2605V3.70409C40.5006 3.5958 40.4826 3.46947 40.4509 3.32509C40.4193 3.18522 40.3741 3.04987 40.3109 2.92354C40.2477 2.79721 40.1708 2.69343 40.076 2.60771C39.9811 2.52198 39.8727 2.47686 39.7462 2.47686H39.6287V2.24225H42.9312V2.47686H42.8137C42.6872 2.47686 42.5788 2.52198 42.4839 2.60771C42.389 2.69343 42.3168 2.80172 42.258 2.92354C42.2038 3.04987 42.1586 3.18071 42.127 3.32509C42.0954 3.46496 42.0773 3.59129 42.0773 3.70409V9.02806H49.6264V3.70409C49.6264 3.5958 49.6083 3.46947 49.5767 3.32509C49.5451 3.18522 49.4999 3.04987 49.4367 2.92354C49.3734 2.79721 49.2966 2.69343 49.2017 2.60771C49.1069 2.52198 48.9985 2.47686 48.872 2.47686H48.7545V2.24225H52.0569V2.47686H51.9395C51.813 2.47686 51.7046 2.52198 51.6097 2.60771C51.5148 2.69343 51.4425 2.80172 51.3838 2.92354C51.3296 3.04987 51.2844 3.18071 51.2528 3.32509C51.2212 3.46496 51.2031 3.59129 51.2031 3.70409V16.2605C51.2031 16.3869 51.2212 16.5222 51.2618 16.6711C51.3025 16.82 51.3522 16.9599 51.4154 17.0817C51.4787 17.208 51.551 17.3163 51.6413 17.4111C51.7271 17.5058 51.8265 17.5509 51.935 17.5509H52.0524V17.7855H48.75V17.5509L48.7455 17.56Z" fill="black"/>
<path d="M56.3667 17.56H56.4842C56.6107 17.56 56.7191 17.5194 56.814 17.4291C56.9088 17.3434 56.9901 17.2351 57.0624 17.1088C57.1347 16.9824 57.1889 16.8516 57.2296 16.7072C57.2702 16.5674 57.2883 16.432 57.2883 16.3057V3.69958C57.2883 3.59129 57.2702 3.46496 57.2296 3.32058C57.1889 3.18071 57.1347 3.04536 57.0624 2.91903C56.9901 2.7927 56.9088 2.68892 56.814 2.6032C56.7191 2.51747 56.6107 2.47236 56.4842 2.47236H56.3667V2.23774H65.4473V4.4305H65.2124C65.1808 4.06955 65.0407 3.75372 64.7877 3.4785C64.5347 3.20327 64.1417 3.06792 63.6086 3.06792H58.865V9.02806H62.7818C63.1433 9.02806 63.4459 8.91978 63.6899 8.6987C63.9339 8.47762 64.0558 8.22044 64.0558 7.92266H64.2908V10.8689H64.0558C64.0558 10.5847 63.9384 10.341 63.7035 10.138C63.4685 9.93495 63.1613 9.83117 62.7818 9.83117H58.865V16.9689H64.0333C64.3314 16.9689 64.5935 16.8967 64.8103 16.7569C65.0317 16.617 65.2169 16.4455 65.366 16.2515C65.5151 16.053 65.6235 15.8409 65.6958 15.6154C65.7681 15.3898 65.7997 15.1958 65.7997 15.0378H66.0346V17.7946H56.3622V17.56H56.3667Z" fill="black"/>
<path d="M82.8589 17.56H82.9763C83.0848 17.56 83.1887 17.5148 83.2835 17.4201C83.3784 17.3253 83.4597 17.2171 83.532 17.0907C83.6043 16.9644 83.654 16.829 83.6856 16.6802C83.7172 16.5313 83.7308 16.3959 83.7308 16.2696V3.87554L77.6454 18.0608L71.8673 4.60646V16.2696C71.8673 16.3959 71.8809 16.5313 71.9125 16.6802C71.9441 16.829 71.9938 16.9689 72.0661 17.0907C72.1384 17.2171 72.2197 17.3253 72.3146 17.4201C72.4094 17.5148 72.5178 17.56 72.6443 17.56H72.7618V17.7946H70.1912V17.56H70.3087C70.4171 17.56 70.521 17.5148 70.6159 17.4201C70.7108 17.3253 70.7876 17.2171 70.8508 17.0907C70.9141 16.9644 70.9592 16.829 70.9909 16.6802C71.0225 16.5313 71.036 16.3959 71.036 16.2696V3.71311C71.036 3.60483 71.0225 3.4785 70.9909 3.33412C70.9592 3.19425 70.9141 3.05889 70.8508 2.93256C70.7876 2.80623 70.7108 2.70246 70.6159 2.61673C70.521 2.53101 70.4171 2.48589 70.3087 2.48589H70.1912V2.25127H72.5992L78.0701 15.1371L83.541 2.25127H86.2065V2.48589H86.089C85.9625 2.48589 85.8541 2.53101 85.7592 2.61673C85.6644 2.70246 85.5831 2.81074 85.5108 2.93256C85.4385 3.05889 85.3888 3.18974 85.3572 3.33412C85.3255 3.47398 85.312 3.60032 85.312 3.71311V16.2696C85.312 16.3959 85.3255 16.5313 85.3572 16.6802C85.3888 16.829 85.4385 16.9689 85.5108 17.0907C85.5831 17.2171 85.6644 17.3253 85.7592 17.4201C85.8541 17.5148 85.9625 17.56 86.089 17.56H86.2065V17.7946H82.8589V17.56Z" fill="black"/>
<path d="M90.8551 17.56H90.9726C91.0991 17.56 91.2075 17.5194 91.3024 17.4292C91.3972 17.3434 91.4785 17.2352 91.5508 17.1088C91.6231 16.9825 91.6773 16.8517 91.718 16.7073C91.7586 16.5674 91.7767 16.4321 91.7767 16.3057V3.69963C91.7767 3.59135 91.7586 3.46501 91.718 3.32064C91.6773 3.18077 91.6231 3.04541 91.5508 2.91908C91.4785 2.79275 91.3972 2.68898 91.3024 2.60325C91.2075 2.51753 91.0991 2.47241 90.9726 2.47241H90.8551V2.23779H99.9357V4.43055H99.7008C99.6691 4.0696 99.5291 3.75377 99.2761 3.47855C99.0231 3.20333 98.6301 3.06797 98.097 3.06797H93.3534V9.02812H97.2702C97.6317 9.02812 97.9344 8.91983 98.1783 8.69875C98.4223 8.47767 98.5442 8.2205 98.5442 7.92272H98.7792V10.8689H98.5442C98.5442 10.5847 98.4268 10.3411 98.1919 10.138C97.9569 9.935 97.6497 9.83123 97.2702 9.83123H93.3534V16.969H98.5217C98.8198 16.969 99.0818 16.8968 99.2987 16.7569C99.5201 16.617 99.7053 16.4456 99.8544 16.2516C100.003 16.0531 100.112 15.841 100.184 15.6154C100.256 15.3898 100.288 15.1958 100.288 15.0379H100.523V17.7946H90.8506V17.56H90.8551Z" fill="black"/>
<path d="M104.63 17.56H104.747C104.887 17.56 105.005 17.5148 105.099 17.4201C105.194 17.3253 105.267 17.2171 105.325 17.0907C105.38 16.9644 105.42 16.829 105.443 16.6802C105.465 16.5313 105.479 16.3959 105.479 16.2696V3.78079C105.479 3.6725 105.465 3.53715 105.443 3.37924C105.42 3.22132 105.38 3.08145 105.325 2.95512C105.271 2.82879 105.194 2.72051 105.099 2.62576C105.005 2.53101 104.887 2.48589 104.747 2.48589H104.63V2.25127H107.955V2.48589H107.72C107.593 2.50394 107.489 2.55808 107.399 2.65283C107.313 2.74758 107.245 2.85586 107.2 2.98219C107.155 3.10852 107.119 3.24388 107.092 3.39277C107.069 3.54166 107.056 3.6725 107.056 3.78079V16.9734H114.157V3.78079C114.157 3.6725 114.144 3.54166 114.121 3.39277C114.099 3.24388 114.058 3.10852 114.004 2.98219C113.95 2.85586 113.873 2.74758 113.778 2.65283C113.683 2.55808 113.575 2.50394 113.448 2.48589H113.308V2.25127H116.588V2.48589H116.376C116.249 2.50394 116.15 2.55808 116.068 2.65283C115.992 2.74758 115.928 2.85586 115.879 2.98219C115.829 3.10852 115.797 3.24388 115.77 3.39277C115.748 3.54166 115.734 3.6725 115.734 3.78079V15.7011C115.734 16.0169 115.815 16.3057 115.983 16.5719C116.15 16.8381 116.421 16.9734 116.796 16.9734H117.975V19.9197H117.74C117.722 19.7166 117.672 19.491 117.586 19.2474C117.501 19.0037 117.374 18.7782 117.211 18.5661C117.044 18.354 116.841 18.1736 116.597 18.0247C116.353 17.8758 116.068 17.7991 115.734 17.7991H104.625V17.5645L104.63 17.56Z" fill="black"/>
<path d="M121.761 17.56H121.878C122.005 17.56 122.113 17.5148 122.208 17.4201C122.303 17.3253 122.384 17.2171 122.456 17.0907C122.529 16.9644 122.578 16.829 122.61 16.6802C122.642 16.5313 122.66 16.3959 122.66 16.2696V3.71311C122.66 3.60483 122.642 3.4785 122.61 3.33412C122.578 3.19425 122.529 3.05889 122.456 2.93256C122.384 2.80623 122.303 2.70246 122.208 2.61673C122.113 2.53101 122.009 2.48589 121.901 2.48589H121.783V2.25127H125.131V2.48589H125.013C124.887 2.48589 124.778 2.53101 124.684 2.61673C124.589 2.70246 124.507 2.81074 124.435 2.93256C124.363 3.05889 124.309 3.18974 124.268 3.33412C124.227 3.47398 124.209 3.60032 124.209 3.71311V8.59042L129.68 3.14913C129.807 3.0228 129.87 2.87391 129.87 2.70246C129.87 2.56259 129.807 2.4904 129.68 2.4904V2.25579H132.228V2.4904C131.912 2.50845 131.636 2.6032 131.392 2.77465C131.148 2.9461 130.886 3.1762 130.602 3.46045L125.009 9.06416C126.03 9.09574 126.857 9.31682 127.484 9.72289C128.112 10.129 128.609 10.6929 128.971 11.4148L130.837 15.1732C130.945 15.4078 131.094 15.665 131.275 15.9357C131.456 16.2109 131.659 16.4681 131.889 16.7117C132.115 16.9554 132.373 17.1584 132.657 17.3208C132.942 17.4833 133.24 17.569 133.552 17.569V17.8036H132.373C131.916 17.8036 131.523 17.7359 131.194 17.6051C130.864 17.4697 130.575 17.2892 130.331 17.0637C130.087 16.8381 129.874 16.5809 129.694 16.2966C129.513 16.0124 129.35 15.7327 129.21 15.4484L127.299 11.654C127.001 11.0719 126.585 10.6298 126.061 10.323C125.533 10.0162 124.918 9.84922 124.209 9.81764V16.2741C124.209 16.4004 124.223 16.5313 124.259 16.6756C124.29 16.8155 124.336 16.9554 124.399 17.0862C124.462 17.2216 124.539 17.3299 124.634 17.4156C124.729 17.5013 124.828 17.5554 124.941 17.569H125.108V17.8036H121.761V17.569V17.56Z" fill="black"/>
<path d="M146.342 17.56H146.459C146.839 17.56 147.024 17.3885 147.024 17.0411C147.024 16.9148 147.002 16.7839 146.952 16.6395L144.829 10.914H140.699L138.648 16.5448C138.599 16.6711 138.576 16.7884 138.576 16.8967C138.576 17.0998 138.63 17.2622 138.743 17.3795C138.852 17.4968 138.969 17.5555 139.096 17.5555H139.213V17.7901H136.593V17.5555H136.71C136.914 17.5555 137.117 17.4336 137.311 17.19C137.51 16.9464 137.668 16.6621 137.794 16.3282L143.198 1.95801L148.483 16.1884C148.592 16.5042 148.745 16.811 148.944 17.1088C149.138 17.4066 149.396 17.5555 149.712 17.5555H149.83V17.7901H146.337V17.5555L146.342 17.56ZM140.939 10.1154H144.571L142.755 5.193L140.939 10.1154Z" fill="black"/>
<path d="M161.228 17.56H161.345C161.453 17.56 161.562 17.5148 161.661 17.4201C161.765 17.3253 161.846 17.2171 161.91 17.0907C161.973 16.9644 162.023 16.829 162.063 16.6801C162.104 16.5313 162.122 16.3959 162.122 16.2696V9.88531C161.774 9.91689 161.449 10.0252 161.142 10.2147C160.834 10.4042 160.545 10.6523 160.27 10.9682C159.994 11.284 159.737 11.6359 159.493 12.0284C159.249 12.421 159.018 12.8315 158.797 13.2557C158.625 13.5715 158.436 13.9054 158.232 14.2573C158.029 14.6092 157.821 14.9702 157.618 15.3311C157.238 16.0214 156.746 16.608 156.132 17.0862C155.517 17.5645 154.812 17.8036 154.008 17.8036H152.757V17.569C153.118 17.569 153.462 17.4923 153.782 17.3344C154.103 17.1764 154.401 16.9824 154.668 16.7433C154.934 16.5087 155.174 16.247 155.386 15.9673C155.598 15.683 155.775 15.4168 155.915 15.1642L157.781 11.8164C158.002 11.4374 158.241 11.0719 158.499 10.72C158.756 10.3681 159.154 10.0793 159.692 9.85824C159.032 9.81312 158.44 9.68679 157.921 9.47924C157.401 9.27621 156.963 9.01001 156.601 8.67614C156.24 8.34677 155.964 7.97229 155.775 7.5572C155.585 7.14211 155.49 6.70446 155.49 6.24876C155.49 5.66674 155.626 5.12983 155.892 4.63353C156.159 4.13722 156.538 3.71311 157.026 3.36119C157.514 3.00926 158.106 2.73404 158.806 2.53552C159.506 2.34151 160.288 2.24225 161.155 2.24225H164.553V2.47686H164.435C164.327 2.47686 164.223 2.52198 164.128 2.60771C164.033 2.69343 163.956 2.80172 163.893 2.92354C163.83 3.04987 163.785 3.18071 163.753 3.32509C163.721 3.46496 163.703 3.59129 163.703 3.70409V16.2605C163.703 16.3869 163.717 16.5222 163.753 16.6711C163.785 16.82 163.83 16.9599 163.893 17.0817C163.956 17.208 164.033 17.3163 164.128 17.4111C164.223 17.5058 164.327 17.5509 164.435 17.5509H164.553V17.7855H161.228V17.5509V17.56ZM157.003 5.89684C157.003 6.35254 157.098 6.77214 157.284 7.15565C157.473 7.53915 157.731 7.87303 158.061 8.15727C158.39 8.44152 158.774 8.65809 159.213 8.816C159.651 8.97392 160.13 9.05062 160.645 9.05062H162.127V3.04085H161.774C160.256 3.04085 159.082 3.29351 158.25 3.79432C157.419 4.29514 157.008 4.99447 157.008 5.89233L157.003 5.89684Z" fill="black"/>
<path d="M43.0396 22.0492C42.4433 22.0492 41.9283 22.1575 41.4946 22.3696C41.0564 22.5816 40.6949 22.8569 40.4058 23.1998C40.1167 23.5382 39.9043 23.9217 39.7643 24.3458C39.6242 24.7699 39.552 25.1895 39.552 25.6091C39.552 26.0828 39.6423 26.543 39.8275 26.9987C40.0128 27.4499 40.2658 27.8515 40.591 28.1989C40.9163 28.5463 41.2958 28.826 41.7295 29.0381C42.1632 29.2501 42.633 29.3584 43.139 29.3584C43.2836 29.3584 43.4553 29.3404 43.6495 29.3088C43.8438 29.2772 44.0426 29.2141 44.2323 29.1238C44.4266 29.0336 44.6028 28.9027 44.7699 28.7313C44.9325 28.5643 45.059 28.3433 45.1494 28.068H45.2714V29.4035C45.1494 29.4035 45.0229 29.4216 44.8919 29.4532C44.7609 29.4848 44.6118 29.5209 44.4537 29.5615C44.2458 29.6156 44.0154 29.6697 43.7625 29.7194C43.5095 29.769 43.2429 29.7916 42.9628 29.7916C42.2671 29.7916 41.6527 29.6697 41.1196 29.4306C40.591 29.1915 40.1483 28.8802 39.7959 28.4922C39.4435 28.1086 39.1815 27.6755 39.0053 27.1882C38.8291 26.701 38.7433 26.2137 38.7433 25.7174C38.7433 25.2211 38.8291 24.7293 39.0053 24.2375C39.1815 23.7502 39.448 23.308 39.8049 22.92C40.1664 22.532 40.6181 22.2162 41.1648 21.9771C41.7114 21.7379 42.3529 21.6161 43.0893 21.6161C43.3559 21.6161 43.5908 21.6387 43.8076 21.6883C44.02 21.7379 44.2097 21.783 44.3814 21.8327C44.5034 21.8733 44.6118 21.9049 44.7112 21.9229C44.8106 21.941 44.91 21.9545 45.0048 21.9545V23.29H44.8829C44.8332 23.0418 44.7473 22.8343 44.6163 22.6719C44.4898 22.5095 44.3362 22.3831 44.1645 22.2929C43.9929 22.2026 43.8076 22.144 43.6134 22.1079C43.4146 22.0718 43.2249 22.0538 43.0396 22.0538V22.0492Z" fill="black"/>
<path d="M47.3223 29.5479H47.381C47.4442 29.5479 47.503 29.5254 47.5482 29.4802C47.5978 29.4351 47.6385 29.381 47.6746 29.3178C47.7108 29.2546 47.7379 29.187 47.7605 29.1148C47.7786 29.0426 47.7921 28.9749 47.7921 28.9117V22.4824C47.7921 22.4282 47.7831 22.3605 47.7605 22.2884C47.7424 22.2162 47.7108 22.1485 47.6746 22.0853C47.6385 22.0222 47.5978 21.968 47.5482 21.9229C47.4985 21.8778 47.4442 21.8552 47.381 21.8552H47.3223V21.7334H51.9574V22.8523H51.8355C51.8174 22.6674 51.7451 22.5049 51.6186 22.3651C51.4921 22.2252 51.2888 22.153 51.0178 22.153H48.6008V25.194H50.5976C50.7828 25.194 50.9364 25.1398 51.0629 25.027C51.1849 24.9142 51.2482 24.7834 51.2482 24.63H51.3701V26.1324H51.2482C51.2482 25.9881 51.1894 25.8617 51.0674 25.758C50.9455 25.6542 50.7919 25.6 50.5976 25.6H48.6008V29.2411H51.2346C51.3882 29.2411 51.5192 29.205 51.6322 29.1328C51.7451 29.0606 51.84 28.9749 51.9168 28.8756C51.9936 28.7764 52.0478 28.6681 52.0839 28.5508C52.1201 28.4335 52.1381 28.3387 52.1381 28.2575H52.2601V29.6652H47.3268V29.5434L47.3223 29.5479Z" fill="black"/>
<path d="M60.6451 29.5479H60.7039C60.7581 29.5479 60.8123 29.5254 60.862 29.4757C60.9117 29.4261 60.9523 29.372 60.9885 29.3088C61.0246 29.2456 61.0517 29.1735 61.0653 29.0967C61.0834 29.02 61.0879 28.9524 61.0879 28.8847V22.5636L57.9842 29.8006L55.0341 22.9381V28.8892C55.0341 28.9524 55.0432 29.0246 55.0567 29.1013C55.0748 29.178 55.0974 29.2456 55.1335 29.3133C55.1697 29.3765 55.2103 29.4351 55.26 29.4803C55.3097 29.5254 55.3639 29.5524 55.4272 29.5524H55.4859V29.6743H54.1758V29.5524H54.2345C54.2887 29.5524 54.3429 29.5299 54.3926 29.4803C54.4423 29.4306 54.483 29.3765 54.5146 29.3133C54.5462 29.2502 54.5688 29.178 54.5869 29.1013C54.605 29.0246 54.6095 28.9569 54.6095 28.8892V22.4824C54.6095 22.4282 54.6004 22.3606 54.5869 22.2884C54.5688 22.2162 54.5462 22.1485 54.5146 22.0853C54.483 22.0222 54.4423 21.968 54.3926 21.9229C54.3429 21.8778 54.2932 21.8552 54.2345 21.8552H54.1758V21.7334H55.4046L58.1965 28.3072L60.9885 21.7334H62.3483V21.8552H62.2896C62.2263 21.8552 62.1676 21.8778 62.1224 21.9229C62.0727 21.968 62.0321 22.0222 61.9959 22.0853C61.9598 22.1485 61.9327 22.2162 61.9191 22.2884C61.9011 22.3606 61.8965 22.4237 61.8965 22.4824V28.8892C61.8965 28.9524 61.9056 29.0246 61.9191 29.1013C61.9372 29.178 61.9598 29.2456 61.9959 29.3133C62.0321 29.3765 62.0727 29.4351 62.1224 29.4803C62.1721 29.5254 62.2263 29.5524 62.2896 29.5524H62.3483V29.6743H60.6406V29.5524L60.6451 29.5479Z" fill="black"/>
<path d="M64.5349 29.5479H64.5936C64.6569 29.5479 64.7156 29.5254 64.7608 29.4803C64.8105 29.4351 64.8512 29.381 64.8873 29.3178C64.9234 29.2547 64.9505 29.187 64.9731 29.1148C64.9912 29.0426 65.0048 28.9749 65.0048 28.9118V22.4824C65.0048 22.4282 64.9957 22.3606 64.9731 22.2884C64.9551 22.2162 64.9234 22.1485 64.8873 22.0853C64.8512 22.0222 64.8105 21.968 64.7608 21.9229C64.7111 21.8778 64.6569 21.8552 64.5936 21.8552H64.5349V21.7334H69.1701V22.8524H69.0481C69.03 22.6674 68.9577 22.5049 68.8312 22.3651C68.7048 22.2252 68.5015 22.153 68.2304 22.153H65.8134V25.194H67.8102C67.9955 25.194 68.1491 25.1399 68.2756 25.0271C68.3976 24.9143 68.4608 24.7834 68.4608 24.63H68.5828V26.1325H68.4608C68.4608 25.9881 68.4021 25.8618 68.2801 25.758C68.1581 25.6542 68.0045 25.6001 67.8102 25.6001H65.8134V29.2411H68.4472C68.6008 29.2411 68.7319 29.205 68.8448 29.1328C68.9577 29.0607 69.0526 28.9749 69.1294 28.8757C69.2062 28.7764 69.2604 28.6681 69.2966 28.5508C69.3327 28.4335 69.3508 28.3388 69.3508 28.2575H69.4728V29.6652H64.5394V29.5434L64.5349 29.5479Z" fill="black"/>
<path d="M76.1727 29.5479H76.2314C76.2947 29.5479 76.3534 29.5254 76.3986 29.4803C76.4483 29.4351 76.4889 29.381 76.5251 29.3133C76.5612 29.2456 76.5883 29.1735 76.6019 29.0968C76.6199 29.0201 76.6245 28.9524 76.6245 28.8847V23.3802L72.6263 28.7764V28.8847C72.6263 28.9479 72.6353 29.0201 72.6579 29.0968C72.676 29.1735 72.7031 29.2411 72.7347 29.3088C72.7663 29.372 72.807 29.4306 72.8567 29.4757C72.9064 29.5254 72.9606 29.5479 73.0238 29.5479H73.0826V29.6698H71.3749V29.5479H71.4336C71.4969 29.5479 71.5556 29.5254 71.6008 29.4803C71.6505 29.4351 71.6911 29.381 71.7273 29.3133C71.7634 29.2456 71.7905 29.1735 71.8041 29.0968C71.8221 29.0201 71.8266 28.9524 71.8266 28.8847V22.4779C71.8266 22.4237 71.8176 22.3561 71.8041 22.2839C71.786 22.2117 71.7634 22.144 71.7273 22.0808C71.6911 22.0177 71.6505 21.9635 71.6008 21.9184C71.5511 21.8733 71.4969 21.8507 71.4336 21.8507H71.3749V21.7289H73.0826V21.8507H72.9877C72.9335 21.8598 72.8793 21.8868 72.8386 21.9365C72.7934 21.9861 72.7573 22.0402 72.7257 22.0989C72.694 22.1575 72.6715 22.2252 72.6534 22.2929C72.6353 22.3606 72.6308 22.4237 72.6308 22.4779V28.032L76.629 22.6358V22.4779C76.629 22.4237 76.6199 22.3561 76.6064 22.2839C76.5883 22.2117 76.5657 22.144 76.5296 22.0808C76.4934 22.0177 76.4528 21.9635 76.4031 21.9184C76.3534 21.8733 76.2992 21.8507 76.2359 21.8507H76.1772V21.7289H77.8849V21.8507H77.8262C77.7629 21.8507 77.7042 21.8733 77.659 21.9184C77.6093 21.9635 77.5687 22.0177 77.537 22.0808C77.5054 22.144 77.4783 22.2117 77.4602 22.2839C77.4422 22.3561 77.4286 22.4192 77.4286 22.4779V28.8847C77.4286 28.9479 77.4376 29.0155 77.4602 29.0877C77.4783 29.1599 77.5054 29.2321 77.537 29.2998C77.5687 29.3675 77.6093 29.4261 77.659 29.4757C77.7087 29.5254 77.7629 29.5479 77.8262 29.5479H77.8849V29.6698H76.1772V29.5479H76.1727ZM75.9694 20.1588C75.9694 20.2941 75.9378 20.434 75.8745 20.5784C75.8113 20.7228 75.7209 20.8581 75.6035 20.989C75.486 21.1153 75.3459 21.2236 75.1833 21.3003C75.0207 21.3815 74.8354 21.4221 74.6367 21.4221C74.4379 21.4221 74.2662 21.386 74.0991 21.3093C73.9364 21.2326 73.7919 21.1333 73.6699 21.016C73.5479 20.8942 73.453 20.7589 73.3807 20.6055C73.3085 20.4521 73.2723 20.3032 73.2723 20.1588H73.3446C73.3536 20.2084 73.3762 20.2761 73.4214 20.3618C73.4666 20.4521 73.5343 20.5378 73.6337 20.628C73.7286 20.7183 73.8596 20.7904 74.0177 20.8581C74.1804 20.9213 74.3791 20.9529 74.6186 20.9529C74.858 20.9529 75.0704 20.9213 75.2285 20.8581C75.3866 20.795 75.5131 20.7183 75.608 20.628C75.7028 20.5378 75.7706 20.4521 75.8113 20.3618C75.8519 20.2716 75.879 20.2039 75.8971 20.1588H75.9694Z" fill="black"/>
<path d="M84.8377 29.5479H84.8965C84.9507 29.5479 85.0049 29.5254 85.0546 29.4803C85.1043 29.4351 85.145 29.381 85.1811 29.3133C85.2172 29.2456 85.2443 29.1734 85.2579 29.0967C85.276 29.02 85.2805 28.9524 85.2805 28.8847V25.6136H81.4269V28.8847C81.4269 28.9479 81.4359 29.02 81.4495 29.0967C81.4675 29.1734 81.4901 29.2411 81.5217 29.3088C81.5534 29.372 81.594 29.4306 81.6347 29.4757C81.6799 29.5254 81.7341 29.5479 81.7973 29.5479H81.8561V29.6698H80.171V29.5479H80.2297C80.2839 29.5479 80.3381 29.5254 80.3878 29.4803C80.4375 29.4351 80.4782 29.381 80.5143 29.3133C80.5504 29.2456 80.5775 29.1734 80.5911 29.0967C80.6092 29.02 80.6137 28.9524 80.6137 28.8847V22.4779C80.6137 22.4237 80.6047 22.3561 80.5911 22.2839C80.573 22.2117 80.5504 22.144 80.5188 22.0808C80.4872 22.0177 80.4465 21.9635 80.3968 21.9184C80.3472 21.8733 80.2929 21.8507 80.2297 21.8507H80.171V21.7289H81.8561V21.8507H81.7973C81.7341 21.8507 81.6754 21.8733 81.6302 21.9184C81.5805 21.9635 81.5443 22.0177 81.5172 22.0808C81.4901 22.144 81.4675 22.2117 81.4495 22.2839C81.4314 22.3561 81.4269 22.4192 81.4269 22.4779V25.194H85.2805V22.4779C85.2805 22.4237 85.2714 22.3561 85.2579 22.2839C85.2398 22.2117 85.2172 22.144 85.1856 22.0808C85.154 22.0177 85.1133 21.9635 85.0636 21.9184C85.0139 21.8733 84.9597 21.8507 84.8965 21.8507H84.8377V21.7289H86.5229V21.8507H86.4641C86.4009 21.8507 86.3421 21.8733 86.297 21.9184C86.2473 21.9635 86.2111 22.0177 86.184 22.0808C86.1569 22.144 86.1343 22.2117 86.1163 22.2839C86.0982 22.3561 86.0937 22.4192 86.0937 22.4779V28.8847C86.0937 28.9479 86.1027 29.02 86.1253 29.0967C86.1434 29.1734 86.1705 29.2411 86.2021 29.3088C86.2337 29.372 86.2744 29.4306 86.315 29.4757C86.3602 29.5254 86.4099 29.5479 86.4641 29.5479H86.5229V29.6698H84.8377V29.5479Z" fill="black"/>
<path d="M93.1322 29.548H93.1909C93.3852 29.548 93.4801 29.4623 93.4801 29.2818C93.4801 29.2186 93.4665 29.151 93.4439 29.0788L92.3597 26.1596H90.2544L89.2063 29.0337C89.1837 29.0968 89.1702 29.16 89.1702 29.2141C89.1702 29.3179 89.1973 29.3991 89.256 29.4623C89.3102 29.5209 89.3735 29.5525 89.4367 29.5525H89.4954V29.6743H88.1582V29.5525H88.2169C88.3208 29.5525 88.4247 29.4894 88.5241 29.3675C88.6235 29.2457 88.7048 29.0968 88.7726 28.9299L91.5284 21.5981L94.2255 28.8577C94.2797 29.0201 94.361 29.1735 94.4604 29.3269C94.5598 29.4803 94.6908 29.557 94.8534 29.557H94.9122V29.6789H93.1322V29.557V29.548ZM90.3764 25.749H92.2287L91.3025 23.2359L90.3764 25.749Z" fill="black"/>
<path d="M100.536 29.5478H100.595C100.649 29.5478 100.703 29.5252 100.757 29.4756C100.812 29.426 100.852 29.3718 100.884 29.3086C100.915 29.2455 100.943 29.1733 100.961 29.0966C100.979 29.0199 100.992 28.9522 100.992 28.8845V25.627C100.816 25.645 100.649 25.6992 100.491 25.7939C100.333 25.8887 100.184 26.0195 100.044 26.1774C99.9035 26.3399 99.7725 26.5203 99.646 26.7189C99.5195 26.9174 99.402 27.1294 99.2891 27.346C99.1987 27.5084 99.1039 27.6754 98.9999 27.8558C98.896 28.0363 98.7921 28.2168 98.6882 28.4018C98.494 28.7537 98.241 29.0515 97.9293 29.2951C97.6175 29.5388 97.2561 29.6606 96.845 29.6606H96.208V29.5388C96.3932 29.5388 96.5694 29.4981 96.7321 29.4169C96.8947 29.3357 97.0483 29.2365 97.1838 29.1146C97.3194 28.9928 97.4413 28.862 97.5498 28.7176C97.6582 28.5732 97.7485 28.4379 97.8208 28.307L98.7695 26.6015C98.8825 26.4075 99.0045 26.2225 99.1355 26.0421C99.2665 25.8616 99.4698 25.7172 99.7454 25.6044C99.4065 25.5819 99.1084 25.5142 98.8418 25.4104C98.5753 25.3066 98.3539 25.1713 98.1687 24.9998C97.9835 24.8329 97.8434 24.6389 97.7485 24.4268C97.6537 24.2148 97.604 23.9937 97.604 23.7591C97.604 23.4613 97.6717 23.1861 97.8073 22.9379C97.9428 22.6853 98.1371 22.4687 98.3855 22.2882C98.634 22.1077 98.9367 21.9679 99.2936 21.8686C99.6505 21.7694 100.048 21.7197 100.491 21.7197H102.226V21.8415H102.167C102.113 21.8415 102.058 21.8641 102.009 21.9092C101.959 21.9543 101.918 22.0085 101.887 22.0716C101.855 22.1348 101.833 22.2025 101.814 22.2747C101.796 22.3469 101.792 22.41 101.792 22.4687V28.8755C101.792 28.9387 101.801 29.0109 101.814 29.0876C101.833 29.1643 101.855 29.2319 101.887 29.2996C101.918 29.3628 101.959 29.4214 102.009 29.4666C102.058 29.5162 102.108 29.5388 102.167 29.5388H102.226V29.6606H100.527V29.5388L100.536 29.5478ZM98.381 23.5967C98.381 23.8313 98.4307 24.0433 98.5256 24.2418C98.6205 24.4359 98.7515 24.6073 98.9231 24.7517C99.0903 24.8961 99.2846 25.0089 99.5105 25.0901C99.7318 25.1713 99.9758 25.2119 100.242 25.2119H100.997V22.1484H100.816C100.039 22.1484 99.4427 22.2747 99.018 22.5319C98.5934 22.789 98.381 23.1455 98.381 23.6012V23.5967Z" fill="black"/>
<path d="M108.529 29.5479H108.587C108.651 29.5479 108.709 29.5254 108.754 29.4757C108.8 29.4261 108.845 29.372 108.881 29.3088C108.917 29.2456 108.944 29.1734 108.958 29.0967C108.976 29.02 108.98 28.9524 108.98 28.8847V22.4779C108.98 22.4237 108.971 22.3561 108.958 22.2839C108.94 22.2117 108.917 22.144 108.881 22.0808C108.845 22.0177 108.804 21.9635 108.754 21.9184C108.705 21.8733 108.655 21.8507 108.596 21.8507H108.538V21.7289H110.245V21.8507H110.187C110.123 21.8507 110.065 21.8733 110.019 21.9184C109.97 21.9635 109.929 22.0177 109.893 22.0808C109.857 22.144 109.83 22.2117 109.807 22.2839C109.789 22.3561 109.775 22.4192 109.775 22.4779V24.9684L112.567 22.1936C112.631 22.1305 112.662 22.0538 112.662 21.9635C112.662 21.8913 112.631 21.8552 112.567 21.8552V21.7334H113.868V21.8552C113.71 21.8643 113.566 21.9094 113.444 21.9996C113.317 22.0899 113.186 22.2027 113.042 22.3515L110.191 25.212C110.711 25.2301 111.135 25.3384 111.456 25.5459C111.777 25.7535 112.03 26.0422 112.215 26.4077L113.164 28.3252C113.218 28.447 113.295 28.5734 113.385 28.7132C113.475 28.8531 113.579 28.9839 113.697 29.1103C113.814 29.2321 113.945 29.3359 114.09 29.4216C114.234 29.5073 114.388 29.5479 114.546 29.5479V29.6698H113.945C113.71 29.6698 113.512 29.6382 113.344 29.566C113.177 29.4983 113.028 29.4036 112.906 29.2908C112.78 29.1734 112.671 29.0426 112.581 28.8982C112.491 28.7538 112.405 28.6095 112.332 28.4651L111.357 26.5295C111.203 26.2317 110.995 26.0061 110.724 25.8482C110.453 25.6903 110.141 25.6046 109.78 25.591V28.8847C109.78 28.9479 109.789 29.0155 109.803 29.0877C109.821 29.1599 109.843 29.2321 109.875 29.2998C109.906 29.3675 109.947 29.4261 109.997 29.4667C110.047 29.5118 110.096 29.5389 110.155 29.5434H110.241V29.6652H108.533V29.5434L108.529 29.5479Z" fill="black"/>
<path d="M117.302 28.8261C117.23 29.0337 117.117 29.2277 116.963 29.4037C116.81 29.5796 116.588 29.6699 116.29 29.6699H115.915V29.548C115.965 29.548 116.028 29.5345 116.109 29.5074C116.191 29.4804 116.272 29.4352 116.362 29.3676C116.453 29.3044 116.538 29.2232 116.629 29.1194C116.719 29.0201 116.791 28.8938 116.859 28.7404L119.132 22.5141C119.172 22.3922 119.19 22.302 119.19 22.2388C119.19 22.117 119.154 22.0268 119.086 21.9546C119.019 21.8869 118.946 21.8508 118.874 21.8508V21.729H119.859L122.556 29.0833C122.597 29.1961 122.674 29.2999 122.786 29.3901C122.899 29.4849 123.021 29.5345 123.161 29.539V29.6608H121.44V29.539C121.503 29.539 121.571 29.5119 121.639 29.4623C121.707 29.4082 121.743 29.3405 121.743 29.2502C121.743 29.2277 121.734 29.1916 121.72 29.142L119.457 22.9156L117.302 28.8171V28.8261Z" fill="black"/>
<path d="M129.852 29.5479H129.91C129.974 29.5479 130.032 29.5254 130.078 29.4803C130.127 29.4351 130.168 29.381 130.204 29.3133C130.24 29.2456 130.267 29.1734 130.281 29.0967C130.299 29.02 130.303 28.9524 130.303 28.8847V23.3802L126.305 28.7764V28.8847C126.305 28.9479 126.314 29.02 126.337 29.0967C126.355 29.1734 126.382 29.2411 126.414 29.3088C126.445 29.372 126.486 29.4306 126.536 29.4757C126.585 29.5254 126.64 29.5479 126.703 29.5479H126.762V29.6698H125.054V29.5479H125.113C125.176 29.5479 125.235 29.5254 125.28 29.4803C125.329 29.4351 125.37 29.381 125.406 29.3133C125.442 29.2456 125.47 29.1734 125.483 29.0967C125.501 29.02 125.506 28.9524 125.506 28.8847V22.4779C125.506 22.4237 125.497 22.3561 125.483 22.2839C125.465 22.2117 125.442 22.144 125.406 22.0808C125.37 22.0177 125.329 21.9635 125.28 21.9184C125.23 21.8733 125.176 21.8507 125.113 21.8507H125.054V21.7289H126.762V21.8507H126.667C126.612 21.8598 126.558 21.8868 126.518 21.9365C126.472 21.9861 126.436 22.0402 126.405 22.0989C126.373 22.1575 126.35 22.2252 126.332 22.2929C126.314 22.3606 126.31 22.4237 126.31 22.4779V28.032L130.308 22.6358V22.4779C130.308 22.4237 130.299 22.3561 130.285 22.2839C130.267 22.2117 130.245 22.144 130.209 22.0808C130.172 22.0177 130.132 21.9635 130.082 21.9184C130.032 21.8733 129.978 21.8507 129.915 21.8507H129.856V21.7289H131.564V21.8507H131.505C131.442 21.8507 131.383 21.8733 131.338 21.9184C131.288 21.9635 131.248 22.0177 131.216 22.0808C131.184 22.144 131.157 22.2117 131.139 22.2839C131.121 22.3561 131.108 22.4192 131.108 22.4779V28.8847C131.108 28.9479 131.117 29.0155 131.139 29.0877C131.157 29.1599 131.184 29.2321 131.216 29.2998C131.248 29.3675 131.288 29.4261 131.338 29.4757C131.388 29.5254 131.442 29.5479 131.505 29.5479H131.564V29.6698H129.856V29.5479H129.852Z" fill="black"/>
<path d="M138.521 29.5479H138.58C138.634 29.5479 138.688 29.5254 138.738 29.4803C138.788 29.4351 138.828 29.381 138.865 29.3133C138.901 29.2456 138.928 29.1734 138.941 29.0967C138.959 29.02 138.964 28.9524 138.964 28.8847V25.6136H135.11V28.8847C135.11 28.9479 135.119 29.02 135.133 29.0967C135.151 29.1734 135.174 29.2411 135.205 29.3088C135.237 29.372 135.277 29.4306 135.318 29.4757C135.363 29.5254 135.417 29.5479 135.481 29.5479H135.539V29.6698H133.854V29.5479H133.913C133.967 29.5479 134.022 29.5254 134.071 29.4803C134.121 29.4351 134.162 29.381 134.198 29.3133C134.234 29.2456 134.261 29.1734 134.275 29.0967C134.293 29.02 134.297 28.9524 134.297 28.8847V22.4779C134.297 22.4237 134.288 22.3561 134.275 22.2839C134.256 22.2117 134.234 22.144 134.202 22.0808C134.171 22.0177 134.13 21.9635 134.08 21.9184C134.031 21.8733 133.976 21.8507 133.913 21.8507H133.854V21.7289H135.539V21.8507H135.481C135.417 21.8507 135.359 21.8733 135.314 21.9184C135.264 21.9635 135.228 22.0177 135.201 22.0808C135.174 22.144 135.151 22.2117 135.133 22.2839C135.115 22.3561 135.11 22.4192 135.11 22.4779V25.194H138.964V22.4779C138.964 22.4237 138.955 22.3561 138.941 22.2839C138.923 22.2117 138.901 22.144 138.869 22.0808C138.837 22.0177 138.797 21.9635 138.747 21.9184C138.697 21.8733 138.643 21.8507 138.58 21.8507H138.521V21.7289H140.206V21.8507H140.148C140.084 21.8507 140.026 21.8733 139.98 21.9184C139.931 21.9635 139.895 22.0177 139.867 22.0808C139.84 22.144 139.818 22.2117 139.8 22.2839C139.782 22.3561 139.777 22.4192 139.777 22.4779V28.8847C139.777 28.9479 139.786 29.02 139.809 29.0967C139.827 29.1734 139.854 29.2411 139.886 29.3088C139.917 29.372 139.958 29.4306 139.998 29.4757C140.044 29.5254 140.093 29.5479 140.148 29.5479H140.206V29.6698H138.521V29.5479Z" fill="black"/>
<path d="M147.006 29.5479H147.065C147.128 29.5479 147.187 29.5254 147.232 29.4803C147.281 29.4351 147.322 29.381 147.358 29.3133C147.394 29.2456 147.421 29.1734 147.435 29.0967C147.453 29.02 147.458 28.9524 147.458 28.8847V23.3802L143.459 28.7764V28.8847C143.459 28.9479 143.468 29.02 143.491 29.0967C143.509 29.1734 143.536 29.2411 143.568 29.3088C143.599 29.372 143.64 29.4306 143.69 29.4757C143.74 29.5254 143.794 29.5479 143.857 29.5479H143.916V29.6698H142.208V29.5479H142.267C142.33 29.5479 142.389 29.5254 142.434 29.4803C142.484 29.4351 142.524 29.381 142.56 29.3133C142.597 29.2456 142.624 29.1734 142.637 29.0967C142.655 29.02 142.66 28.9524 142.66 28.8847V22.4779C142.66 22.4237 142.651 22.3561 142.637 22.2839C142.619 22.2117 142.597 22.144 142.56 22.0808C142.524 22.0177 142.484 21.9635 142.434 21.9184C142.384 21.8733 142.33 21.8507 142.267 21.8507H142.208V21.7289H143.916V21.8507H143.821C143.767 21.8598 143.712 21.8868 143.672 21.9365C143.627 21.9861 143.59 22.0402 143.559 22.0989C143.527 22.1575 143.505 22.2252 143.487 22.2929C143.468 22.3606 143.464 22.4237 143.464 22.4779V28.032L147.462 22.6358V22.4779C147.462 22.4237 147.453 22.3561 147.44 22.2839C147.421 22.2117 147.399 22.144 147.363 22.0808C147.327 22.0177 147.286 21.9635 147.236 21.9184C147.187 21.8733 147.132 21.8507 147.069 21.8507H147.01V21.7289H148.718V21.8507H148.659C148.596 21.8507 148.537 21.8733 148.492 21.9184C148.442 21.9635 148.402 22.0177 148.37 22.0808C148.339 22.144 148.311 22.2117 148.293 22.2839C148.275 22.3561 148.262 22.4192 148.262 22.4779V28.8847C148.262 28.9479 148.271 29.0155 148.293 29.0877C148.311 29.1599 148.339 29.2321 148.37 29.2998C148.402 29.3675 148.442 29.4261 148.492 29.4757C148.542 29.5254 148.596 29.5479 148.659 29.5479H148.718V29.6698H147.01V29.5479H147.006Z" fill="black"/>
<path d="M150.868 29.5479H150.927C150.99 29.5479 151.049 29.5254 151.094 29.4757C151.144 29.4261 151.184 29.372 151.221 29.3088C151.257 29.2456 151.284 29.1734 151.297 29.0967C151.315 29.02 151.32 28.9524 151.32 28.8847V22.4779C151.32 22.4237 151.311 22.3561 151.297 22.2839C151.279 22.2117 151.257 22.144 151.221 22.0808C151.184 22.0177 151.144 21.9635 151.094 21.9184C151.044 21.8733 150.995 21.8507 150.936 21.8507H150.877V21.7289H152.585V21.8507H152.526C152.463 21.8507 152.404 21.8733 152.359 21.9184C152.309 21.9635 152.269 22.0177 152.233 22.0808C152.196 22.144 152.169 22.2117 152.147 22.2839C152.129 22.3561 152.115 22.4192 152.115 22.4779V24.9684L154.907 22.1936C154.97 22.1305 155.002 22.0538 155.002 21.9635C155.002 21.8913 154.97 21.8552 154.907 21.8552V21.7334H156.208V21.8552C156.05 21.8643 155.905 21.9094 155.783 21.9996C155.657 22.0899 155.526 22.2027 155.381 22.3515L152.531 25.212C153.05 25.2301 153.475 25.3384 153.796 25.5459C154.116 25.7535 154.369 26.0422 154.555 26.4077L155.503 28.3252C155.558 28.447 155.634 28.5734 155.725 28.7132C155.815 28.8531 155.923 28.9839 156.036 29.1103C156.154 29.2321 156.285 29.3359 156.429 29.4216C156.574 29.5073 156.728 29.5479 156.886 29.5479V29.6698H156.285C156.05 29.6698 155.851 29.6382 155.684 29.566C155.517 29.4983 155.368 29.4036 155.246 29.2908C155.119 29.1734 155.011 29.0426 154.921 28.8982C154.83 28.7538 154.744 28.6095 154.672 28.4651L153.696 26.5295C153.543 26.2317 153.335 26.0061 153.064 25.8482C152.793 25.6903 152.481 25.6046 152.12 25.591V28.8847C152.12 28.9479 152.129 29.0155 152.142 29.0877C152.16 29.1599 152.183 29.2321 152.214 29.2998C152.246 29.3675 152.287 29.4261 152.336 29.4667C152.386 29.5118 152.436 29.5389 152.495 29.5434H152.58V29.6652H150.873V29.5434L150.868 29.5479Z" fill="black"/>
<path d="M163.219 29.548H163.278C163.472 29.548 163.567 29.4623 163.567 29.2818C163.567 29.2186 163.553 29.151 163.531 29.0788L162.447 26.1596H160.341L159.293 29.0337C159.271 29.0968 159.257 29.16 159.257 29.2141C159.257 29.3179 159.284 29.3991 159.343 29.4623C159.397 29.5209 159.46 29.5525 159.524 29.5525H159.582V29.6743H158.245V29.5525H158.304C158.408 29.5525 158.512 29.4894 158.611 29.3675C158.71 29.2457 158.792 29.0968 158.86 28.9299L161.615 21.5981L164.312 28.8577C164.367 29.0201 164.448 29.1735 164.547 29.3269C164.647 29.4803 164.778 29.557 164.94 29.557H164.999V29.6789H163.219V29.557V29.548ZM160.463 25.749H162.316L161.389 23.2359L160.463 25.749Z" fill="black"/>
<path d="M10.4815 12.2721C10.224 11.0449 10.2782 9.9124 10.3414 9.32586C10.3414 9.28977 10.364 9.2627 10.3866 9.24465C10.4047 9.23111 10.4273 9.2266 10.4453 9.2266C10.4544 9.2266 10.4679 9.2266 10.477 9.2266C11.1094 9.39805 12.3744 9.82217 13.54 10.6614C13.5625 10.5125 13.5897 10.3636 13.6213 10.2192C12.4512 9.41159 11.2179 9.00101 10.5854 8.82956C10.4363 8.78895 10.2782 8.81602 10.1562 8.90175C10.0297 8.98747 9.9529 9.12283 9.93483 9.27623C9.8761 9.86277 9.82189 10.9727 10.0523 12.1954C10.1923 12.2134 10.3369 12.236 10.4815 12.2631V12.2721Z" fill="#1C2472"/>
<path d="M15.2652 15.4395C15.3736 15.5794 15.473 15.7012 15.5543 15.8005C15.5769 15.8275 15.6085 15.8546 15.6356 15.8772C15.6718 15.9042 15.7124 15.9223 15.7576 15.9403C15.8073 15.9584 15.857 15.9674 15.9067 15.9674C15.9564 15.9674 16.0061 15.9584 16.0558 15.9403C16.128 15.9133 16.2003 15.8727 16.2545 15.8095C16.2545 15.8095 16.2591 15.805 16.2636 15.8005C16.363 15.6832 16.4849 15.5298 16.6205 15.3493C16.9277 14.9387 17.2936 14.3747 17.5918 13.7025C17.9216 12.9625 18.1746 12.0963 18.1746 11.1668C18.1746 10.9141 18.1565 10.6705 18.1204 10.4269C18.1023 10.287 18.0797 10.1471 18.0481 10.0118C17.7047 8.383 16.7289 7.07908 16.2591 6.52864C16.0829 6.32109 15.7305 6.32109 15.5543 6.52864C15.089 7.07457 14.1267 8.36044 13.7743 9.96666C13.7427 10.102 13.7201 10.2374 13.6975 10.3772C13.6614 10.6344 13.6388 10.8961 13.6388 11.1623C13.6388 12.0963 13.8918 12.9625 14.2216 13.7025C14.5469 14.4244 14.9444 15.0199 15.2606 15.435L15.2652 15.4395ZM14.0499 10.6479C14.0635 10.5036 14.086 10.3592 14.1132 10.2148C14.4158 8.61762 15.3826 7.31821 15.8434 6.77679C15.866 6.74972 15.8931 6.74521 15.9067 6.74521C15.9202 6.74521 15.9473 6.7452 15.9699 6.77679C16.4353 7.32272 17.4201 8.64469 17.7092 10.269C17.7364 10.4133 17.7544 10.5577 17.768 10.7066C17.7815 10.8555 17.7906 11.0089 17.7906 11.1623C17.7906 12.6151 17.1355 13.9055 16.5618 14.7582C16.4443 14.9342 16.3313 15.0921 16.2229 15.2275C16.1281 15.3538 16.0377 15.4621 15.9654 15.5478C15.9202 15.602 15.8841 15.602 15.8389 15.5478C15.7802 15.4801 15.7169 15.3989 15.6492 15.3132C15.5453 15.1824 15.4278 15.0289 15.3058 14.8485C14.7185 13.9957 14.0183 12.6602 14.0183 11.1578C14.0183 10.9818 14.0318 10.8104 14.0499 10.6434V10.6479Z" fill="#1C2472"/>
<path d="M14.6286 27.2245C13.4088 27.6396 13.0474 28.4968 13.0339 28.5374L12.8983 28.8668H19.0469L19.0063 28.5916C19.0017 28.5464 18.8436 27.5629 17.3934 27.1658V22.8931C22.512 22.4193 24.3417 19.3513 24.7844 18.4128C24.8477 18.282 24.8386 18.1331 24.7573 18.0113C24.6579 17.8534 24.4546 17.7541 24.2332 17.7541H21.2832C21.5452 17.6594 21.8027 17.5556 22.0557 17.4247C24.2378 16.2968 25.3401 14.0544 25.7105 13.143C25.7647 13.0031 25.7602 12.8542 25.6879 12.7234C25.6157 12.588 25.4846 12.4933 25.331 12.4662C24.6624 12.3309 23.2845 12.1323 21.7982 12.3534C21.8072 12.2993 21.8208 12.2451 21.8343 12.1955C22.0647 10.9773 22.0105 9.87191 21.9473 9.28537C21.9337 9.13197 21.8524 8.99661 21.7259 8.91089C21.5994 8.82516 21.4458 8.79809 21.2967 8.8387C20.6507 9.01466 19.3857 9.43877 18.1931 10.278C18.2247 10.4224 18.2473 10.5712 18.2699 10.7201C19.4535 9.84033 20.7546 9.40719 21.4052 9.23123C21.4187 9.23123 21.4277 9.23123 21.4368 9.23123C21.4639 9.23123 21.4865 9.24025 21.4955 9.24928C21.5091 9.2583 21.5362 9.28537 21.5407 9.33049C21.5994 9.91252 21.6536 11.0405 21.4052 12.2632C21.3916 12.3218 21.3781 12.376 21.3645 12.4346C20.7682 12.5565 20.1673 12.7505 19.589 13.0482C17.407 14.1762 16.3047 16.4186 15.9342 17.33C15.9297 17.3435 15.9342 17.3525 15.9297 17.3661C15.9252 17.3525 15.9207 17.3435 15.9161 17.33C15.5457 16.4186 14.4434 14.1762 12.2613 13.0482C10.0838 11.9248 7.51773 12.2722 6.51932 12.4752C6.36571 12.5068 6.2347 12.6016 6.16242 12.7324C6.09465 12.8633 6.08562 13.0167 6.13983 13.152C6.51028 14.0634 7.6126 16.3103 9.79465 17.4338C10.0476 17.5646 10.3052 17.6729 10.5672 17.7631H7.77976C7.55839 17.7631 7.35509 17.8624 7.2557 18.0248C7.1789 18.1511 7.16987 18.3 7.23312 18.4309C7.69392 19.3693 9.57329 22.4239 14.6196 22.9021V27.2335L14.6286 27.2245ZM9.98892 17.0638C7.92884 15.999 6.88073 13.8604 6.52384 12.9896C6.51028 12.958 6.51932 12.9309 6.52384 12.9174C6.53739 12.8903 6.56449 12.8723 6.60064 12.8633C7.03885 12.773 7.78879 12.6557 8.67426 12.6557C9.72237 12.6557 10.9557 12.8227 12.0761 13.4002C14.1362 14.465 15.1843 16.6036 15.5412 17.4744C15.5547 17.506 15.9207 17.7225 15.9704 17.718C16.0246 17.7225 16.3047 17.506 16.3137 17.4744C16.6706 16.6036 17.7187 14.465 19.7788 13.4002C21.8434 12.3354 24.2965 12.6693 25.2542 12.8633C25.2904 12.8723 25.3175 12.8903 25.331 12.9174C25.3401 12.9309 25.3446 12.958 25.331 12.9896C24.9741 13.8604 23.926 15.999 21.866 17.0638C21.116 17.4518 19.7833 17.6684 19.1463 17.7586H12.4194C11.6198 17.6774 10.7705 17.4744 9.97988 17.0638H9.98892ZM7.69392 18.2549C7.69392 18.2549 7.74362 18.2369 7.78427 18.2369H24.2378C24.2784 18.2369 24.31 18.2459 24.3326 18.2549C23.8763 19.1979 22.0873 22.0584 17.1404 22.4374L16.9191 22.4554V27.5493L17.1088 27.5899C17.913 27.7659 18.2699 28.1313 18.4235 28.384H13.698C13.9058 28.1359 14.2898 27.8155 14.9358 27.6305L15.112 27.5809V22.4509L14.8906 22.4329C10.007 22.0494 8.1728 19.1934 7.69844 18.2549H7.69392Z" fill="#1C2472"/>
<path d="M15.9972 36L15.8346 35.9233C5.42577 31.0144 0.39304 23.7503 0 13.0618V0H5.66069V2.07545H6.5823V0H12.243V2.07545H13.1646V0H18.8253V2.07545H19.7469V0H25.4076V2.07545H26.3292V0H31.9899V13.0483C31.5788 23.6511 26.4015 31.1272 16.1508 35.9233L15.9882 36H15.9972ZM0.76801 0.767013V13.0437C1.15202 23.4841 5.85495 30.3106 15.9972 35.1427C25.8503 30.4775 30.8333 23.2405 31.2264 13.0257V0.762501H27.1062V2.83795H24.6396V0.762501H20.5194V2.83795H18.0528V0.762501H13.9326V2.83795H11.4659V0.762501H7.34579V2.83795H4.87912V0.762501H0.758975L0.76801 0.767013Z" fill="#1C2472"/>
<path d="M15.9972 33.6674L15.9114 33.6268C7.1199 29.3721 2.87325 23.0736 2.53894 13.8108V4.37649H29.4509V13.8017C29.1031 22.9833 24.7299 29.4669 16.0785 33.6268L15.9927 33.6674H15.9972ZM2.92746 4.76451V13.8062C3.25726 23.0014 7.29157 28.9976 15.9972 33.2433C24.4543 29.151 28.7281 22.7893 29.0669 13.8017V4.76902H2.92746V4.76451Z" fill="#1C2472"/>
</svg>
