<svg width="12" height="12" viewBox="0 0 12 12" fill="none" xmlns="http://www.w3.org/2000/svg">
<path d="M6 0C9.3136 0 12 2.6864 12 6C12 9.3136 9.3136 12 6 12C2.6864 12 0 9.3136 0 6C6.44303e-08 2.6864 2.6864 6.44324e-08 6 0ZM6 2.40039C5.70522 2.40039 5.4668 2.63881 5.4668 2.93359V6.66699C5.46693 6.85746 5.5684 7.03366 5.7334 7.12891L8.04297 8.46191C8.29814 8.60914 8.62413 8.52174 8.77148 8.2666C8.91879 8.01147 8.83123 7.68552 8.57617 7.53809L6.5332 6.3584V2.93359C6.5332 2.63881 6.29479 2.40039 6 2.40039Z" fill="white"/>
</svg>
