<svg width="9" height="12" viewBox="0 0 9 12" fill="none" xmlns="http://www.w3.org/2000/svg">
<path d="M1.63636 3C1.63636 1.34578 2.92141 0 4.49999 0C6.07856 0 7.36362 1.34571 7.36362 3C7.36362 4.65429 6.07856 6 4.49999 6C2.92141 6 1.63636 4.65429 1.63636 3ZM4.90908 6.42857H4.0909C1.83534 6.42857 0 8.35131 0 10.7143C0 11.1723 0.310908 11.5639 0.739425 11.6454C1.97794 11.8805 3.24305 12 4.50004 12C5.75702 12 7.02409 11.8805 8.26262 11.6454C8.6896 11.5645 9 11.1729 9 10.7143C9 8.35131 7.16463 6.42857 4.90908 6.42857Z" fill="#1C2472"/>
</svg>
