<svg width="12" height="12" viewBox="0 0 12 12" fill="none" xmlns="http://www.w3.org/2000/svg">
<path d="M8.23919 7.6123C8.23919 7.9579 7.95805 8.23905 7.61246 8.23905C7.26687 8.23905 6.98573 7.9579 6.98573 7.6123C6.98573 7.26669 7.26687 6.98554 7.61246 6.98554C7.95805 6.98554 8.23919 7.26669 8.23919 7.6123ZM11.7918 6.91392C11.9467 7.42785 12.107 7.95969 11.9055 8.44587C11.6951 8.95353 11.1946 9.21857 10.7103 9.47554C10.4193 9.63043 10.1444 9.77637 9.96001 9.95993C9.77647 10.1435 9.63054 10.4184 9.47564 10.7102C9.21868 11.1946 8.95368 11.6951 8.44602 11.9055C7.95897 12.107 7.42715 11.9467 6.91323 11.7918C6.60166 11.6978 6.27846 11.6002 6 11.6002C5.72065 11.6002 5.39835 11.6978 5.08677 11.7918C4.74565 11.8948 4.39648 11.9995 4.05715 11.9995C3.88614 11.9995 3.71782 11.9727 3.55398 11.9046C3.04635 11.6942 2.78132 11.1937 2.52436 10.7093C2.37036 10.4184 2.22443 10.1435 2.03999 9.95903C1.85645 9.77549 1.58158 9.62954 1.28972 9.47464C0.805346 9.21767 0.304861 8.95266 0.0944769 8.44498C-0.106971 7.9588 0.0532925 7.42696 0.208182 6.91302C0.302192 6.60143 0.399781 6.27822 0.399781 5.99975C0.399781 5.72039 0.302192 5.39807 0.208182 5.08648C0.0532925 4.57254 -0.106971 4.04071 0.0944769 3.55453C0.304877 3.04687 0.805369 2.78183 1.28972 2.52486C1.58069 2.36997 1.85557 2.22402 2.03999 2.04047C2.22353 1.85692 2.36947 1.58205 2.52436 1.29017C2.78132 0.805777 3.04632 0.305271 3.55398 0.0948783C4.04014 -0.107472 4.57196 0.0536913 5.08677 0.208588C5.39835 0.302601 5.72154 0.400195 6 0.400195C6.27935 0.400195 6.60166 0.302601 6.91323 0.208588C7.42715 0.0536913 7.95897 -0.106578 8.44602 0.0948783C8.95366 0.305287 9.21868 0.8058 9.47564 1.29017C9.62964 1.58115 9.77558 1.85605 9.96001 2.04047C10.1436 2.22402 10.4184 2.36996 10.7103 2.52486C11.1947 2.78183 11.6951 3.04685 11.9055 3.55453C12.107 4.04071 11.9467 4.57254 11.7918 5.08648C11.6978 5.39807 11.6002 5.72128 11.6002 5.99975C11.6002 6.27911 11.6978 6.60143 11.7918 6.91302V6.91392ZM3.2254 4.38892C3.2254 5.0309 3.74736 5.55288 4.38931 5.55288C5.03126 5.55288 5.55322 5.0309 5.55322 4.38892C5.55322 3.74695 5.03126 3.22497 4.38931 3.22497C3.74736 3.22497 3.2254 3.74695 3.2254 4.38892ZM8.77644 7.61209C8.77644 6.97012 8.25448 6.44813 7.61253 6.44813C6.97058 6.44813 6.44862 6.97012 6.44862 7.61209C6.44862 8.25407 6.97058 8.77605 7.61253 8.77605C8.25448 8.77605 8.77644 8.25407 8.77644 7.61209ZM8.69765 3.30361C8.5929 3.19885 8.42279 3.19885 8.31805 3.30361L3.30426 8.31761C3.1995 8.42236 3.1995 8.59248 3.30426 8.69723C3.35708 8.75005 3.42512 8.77602 3.49406 8.77602C3.563 8.77602 3.63194 8.75005 3.68387 8.69723L8.69766 3.68323C8.80241 3.57847 8.8024 3.40836 8.69765 3.30361ZM4.38934 5.01554C4.73493 5.01554 5.01607 4.73439 5.01607 4.38879C5.01607 4.04318 4.73493 3.76203 4.38934 3.76203C4.04375 3.76203 3.76261 4.04318 3.76261 4.38879C3.76261 4.73439 4.04375 5.01554 4.38934 5.01554Z" fill="white"/>
</svg>
