<svg width="49" height="40" viewBox="0 0 49 40" fill="none" xmlns="http://www.w3.org/2000/svg">
<path d="M46.008 23.8333C46.0038 23.827 46.0018 23.8207 45.9976 23.8145L33.5021 10.0583C33.4563 10.0082 28.7794 5.04891 23.6739 9.04267C21.0899 11.0636 20.3701 13.3639 20.2203 14.9363C20.0372 16.855 20.6198 18.7966 21.7786 20.1292C22.4673 20.9217 24.0755 22.7674 25.8876 24.8445H3.06645C2.85632 24.8445 2.66699 24.9676 2.58169 25.1594C2.49639 25.3513 2.52968 25.5744 2.66699 25.7309L15.0149 39.8186C15.1148 39.9333 15.2625 40 15.4144 40H39.0115C45.9104 40 49 35.2763 49 30.5966C49 28.7051 48.076 25.8353 46.008 23.8333ZM21.2812 15.0385C21.4123 13.6746 22.0468 11.6725 24.3312 9.88523C28.6566 6.49835 32.5573 10.6068 32.7177 10.7799L42.8436 21.9313C42.055 21.681 41.1833 21.5392 40.2242 21.5392C34.919 21.5392 32.0583 25.8291 32.0583 29.8647C32.0583 30.019 32.0708 30.1712 32.0853 30.3256C29.0957 26.8991 23.9716 21.0241 22.5815 19.4267C21.612 18.311 21.1252 16.6694 21.2812 15.0385ZM39.0112 38.9322H15.6553L4.24155 25.9122H26.8193C30.0315 29.5952 33.4891 33.5575 33.4891 33.5575L33.4953 33.5513C34.7332 34.9757 36.6431 35.9121 38.7486 35.9121C42.3624 35.9121 44.3117 33.3073 44.3117 30.8568C44.3117 28.3291 43.2839 25.6263 40.3961 25.6263C37.6312 25.6263 36.3933 27.2926 36.3933 28.9422C36.3933 29.9621 36.3933 32.0851 38.8337 32.0851C39.5265 32.0851 40.0737 31.8682 40.4627 31.4386C41.0931 30.742 41.0224 29.7806 41.0119 29.6743C40.9849 29.3823 40.729 29.1717 40.4357 29.1946C40.1444 29.2196 39.928 29.4782 39.953 29.7723C39.953 29.7785 39.9988 30.3708 39.6721 30.7254C39.4911 30.9214 39.2165 31.0173 38.8358 31.0173C37.6582 31.0173 37.4606 30.3771 37.4606 28.9423C37.4606 27.9058 38.2304 26.6941 40.3982 26.6941C42.9718 26.6941 43.2485 29.6055 43.2485 30.8568C43.2485 32.7901 41.6715 34.8443 38.7505 34.8443C35.7005 34.8443 33.123 32.5649 33.123 29.8662C33.123 26.348 35.6113 22.6085 40.2237 22.6085C45.6723 22.6064 47.9342 27.8098 47.9342 30.596C47.9342 34.7441 45.1755 38.9317 39.011 38.9317L39.0112 38.9322Z" fill="white"/>
<path d="M7.42914 10.5004C9.18301 10.5004 10.6102 9.06978 10.6102 7.31169C10.6102 5.55359 9.18301 4.12292 7.42914 4.12292C5.67527 4.12292 4.24805 5.55359 4.24805 7.31169C4.24805 9.06978 5.67527 10.5004 7.42914 10.5004ZM7.42914 5.18867C8.5963 5.18867 9.54503 6.13964 9.54503 7.30966C9.54503 8.47962 8.59635 9.43064 7.42914 9.43064C6.26199 9.43064 5.31326 8.47968 5.31326 7.30966C5.31326 6.13969 6.26194 5.18867 7.42914 5.18867Z" fill="white"/>
<path d="M6.75922 11.5682V14.0875C6.75922 14.3816 6.99847 14.6214 7.29182 14.6214C7.58517 14.6214 7.82443 14.3816 7.82443 14.0875V11.5682C7.82443 11.2741 7.58517 11.0343 7.29182 11.0343C6.99847 11.0343 6.75922 11.2741 6.75922 11.5682Z" fill="white"/>
<path d="M7.29182 3.5871C7.58517 3.5871 7.82443 3.34726 7.82443 3.05321V0.533889C7.82443 0.239834 7.58517 0 7.29182 0C6.99847 0 6.75922 0.239834 6.75922 0.533889V3.05321C6.75922 3.34726 6.99847 3.5871 7.29182 3.5871Z" fill="white"/>
<path d="M3.57634 7.3094C3.57634 7.01535 3.33709 6.77551 3.04374 6.77551H0.532606C0.239257 6.77551 0 7.01535 0 7.3094C0 7.60346 0.239257 7.84329 0.532606 7.84329H3.04374C3.33917 7.84329 3.57634 7.60555 3.57634 7.3094Z" fill="white"/>
<path d="M11.0078 7.3094C11.0078 7.60346 11.2471 7.84329 11.5404 7.84329H14.0516C14.3449 7.84329 14.5842 7.60346 14.5842 7.3094C14.5842 7.01535 14.3449 6.77551 14.0516 6.77551H11.5404C11.245 6.77551 11.0078 7.01535 11.0078 7.3094Z" fill="white"/>
<path d="M3.91135 4.67786C4.01538 4.78213 4.15061 4.83427 4.28792 4.83427C4.42523 4.83427 4.56047 4.78214 4.66449 4.67786C4.87254 4.46931 4.87254 4.13148 4.66449 3.92289L2.88777 2.14188C2.67972 1.93334 2.3427 1.93334 2.13461 2.14188C1.92657 2.35043 1.92657 2.68827 2.13461 2.89686L3.91135 4.67786Z" fill="white"/>
<path d="M9.91971 9.94364C9.71166 10.1522 9.71166 10.49 9.91971 10.6986L11.6964 12.4796C11.8005 12.5839 11.9357 12.636 12.073 12.636C12.2103 12.636 12.3455 12.5839 12.4496 12.4796C12.6576 12.2711 12.6576 11.9332 12.4496 11.7246L10.6728 9.94364C10.4648 9.73509 10.1278 9.73509 9.91971 9.94364Z" fill="white"/>
<path d="M4.66449 10.6986C4.87254 10.49 4.87254 10.1522 4.66449 9.94358C4.45644 9.73503 4.11942 9.73503 3.91133 9.94358L2.13669 11.7246C1.92864 11.9331 1.92864 12.271 2.13669 12.4796C2.24071 12.5838 2.37594 12.636 2.51326 12.636C2.65057 12.636 2.7858 12.5838 2.88982 12.4796L4.66449 10.6986Z" fill="white"/>
<path d="M10.2963 4.83429C10.4336 4.83429 10.5688 4.78215 10.6729 4.67788L12.4496 2.89687C12.6576 2.68833 12.6576 2.35049 12.4496 2.1419C12.2415 1.93331 11.9045 1.93335 11.6964 2.1419L9.91971 3.9229C9.71166 4.13145 9.71166 4.46929 9.91971 4.67788C10.0237 4.78215 10.159 4.83429 10.2963 4.83429Z" fill="white"/>
</svg>
