<svg width="48" height="40" viewBox="0 0 48 40" fill="none" xmlns="http://www.w3.org/2000/svg">
<path d="M14.9351 16.6886C16.9078 18.2896 19.331 18.6631 21.1649 18.6631C22.4631 18.6631 23.4555 18.4773 23.7938 18.4046C24.1321 18.4773 25.1266 18.6631 26.4228 18.6631C28.2569 18.6631 30.6821 18.2896 32.651 16.6886C36.2357 13.7694 36.8165 7.97761 36.8389 7.73315C36.8634 7.47878 36.6942 7.2446 36.4436 7.18403C36.358 7.16384 34.4484 6.71364 32.1374 7.00032C32.0437 4.39398 31.3487 2.33481 31.3161 2.24194C31.2264 1.97949 30.9411 1.83413 30.6721 1.91287C30.5865 1.93911 28.7238 2.50437 26.8 3.9216C25.6608 1.67663 24.2282 0.215002 24.1629 0.148383C23.9673 -0.0494612 23.6147 -0.0494612 23.4191 0.148383C23.3539 0.215007 21.9212 1.67663 20.7861 3.9216C18.8622 2.51041 16.9955 1.93912 16.9119 1.91287C16.645 1.83211 16.3576 1.97747 16.2679 2.24194C16.2353 2.3348 15.5404 4.39403 15.4467 7.00032C13.1397 6.71162 11.2282 7.16182 11.1405 7.18403C10.8898 7.2446 10.7207 7.47878 10.7451 7.73315C10.7676 7.97945 11.3504 13.7696 14.9351 16.6886ZM35.7404 8.10061C35.5285 9.49562 34.6848 13.6968 31.9907 15.8891C30.0424 17.4719 27.5051 17.6839 25.7974 17.6051C25.7995 17.6051 25.7995 17.6031 25.8015 17.6031C25.9951 17.5062 26.2009 17.3952 26.4129 17.2761C26.474 17.2417 26.5372 17.2034 26.5983 17.167C26.7532 17.0762 26.9101 16.9813 27.0711 16.8804C27.1486 16.8319 27.224 16.7814 27.3014 16.731C27.4583 16.626 27.6173 16.515 27.7763 16.3999C27.8496 16.3474 27.921 16.2949 27.9964 16.2404C28.2165 16.0749 28.4345 15.8992 28.6505 15.7095C28.6607 15.6994 28.6709 15.6933 28.6831 15.6832C28.9073 15.4854 29.1254 15.2734 29.3414 15.0513C29.4066 14.9827 29.4698 14.91 29.5329 14.8413C29.6838 14.6778 29.8285 14.5103 29.9711 14.3326C30.0424 14.2438 30.1097 14.1549 30.179 14.0641C30.3155 13.8824 30.4459 13.6926 30.5723 13.4968C30.6294 13.4079 30.6885 13.3211 30.7435 13.2303C30.9167 12.9416 31.0818 12.6408 31.2265 12.3218C31.3732 11.9948 31.5016 11.6536 31.6137 11.3023C31.6524 11.1832 31.6769 11.058 31.7115 10.9369C31.7788 10.6966 31.846 10.4584 31.897 10.2081C31.9275 10.0587 31.9479 9.90119 31.9724 9.74574C32.0111 9.51358 32.0478 9.28141 32.0722 9.03914C32.0906 8.86957 32.0987 8.69594 32.1089 8.52232C32.1191 8.36082 32.1395 8.20537 32.1436 8.03982C33.6781 7.83188 35.0537 7.98958 35.7404 8.10061ZM31.1062 7.59792C31.1062 9.22509 30.825 10.6706 30.2706 11.898C30.1585 12.1443 30.0363 12.3805 29.9038 12.6067C29.859 12.6854 29.806 12.756 29.7591 12.8307C29.6674 12.9761 29.5777 13.1215 29.4799 13.2587C29.4188 13.3435 29.3535 13.4223 29.2883 13.505C29.1966 13.6241 29.107 13.7453 29.0112 13.8583C28.9398 13.9411 28.8644 14.0178 28.7911 14.0986C28.6973 14.2015 28.6036 14.3065 28.5078 14.4034C28.4304 14.4821 28.3488 14.5548 28.2694 14.6295C28.1736 14.7204 28.0778 14.8112 27.98 14.898C27.8964 14.9707 27.8129 15.0373 27.7293 15.106C27.6315 15.1867 27.5357 15.2675 27.4379 15.3422C27.3523 15.4088 27.2667 15.4693 27.1831 15.5319C27.0874 15.6026 26.9916 15.6733 26.8958 15.7399C26.8102 15.7984 26.7246 15.8549 26.639 15.9094C26.5453 15.97 26.4515 16.0326 26.3598 16.0891C26.2763 16.1416 26.1927 16.1901 26.1112 16.2385C26.0215 16.291 25.9318 16.3455 25.8442 16.394C25.7627 16.4404 25.6853 16.4808 25.6058 16.5232C25.5772 16.5373 25.5508 16.5514 25.5243 16.5676C26.6574 14.9686 28.1022 12.3724 28.1695 9.43906C28.1756 9.36235 28.1756 9.27958 28.1756 9.1968C28.1756 7.79978 27.8618 6.35227 27.2484 4.88661C28.516 3.91757 29.8019 3.34018 30.4826 3.07773C30.7067 3.90145 31.1103 5.64366 31.1062 7.59792ZM23.7918 1.28494C24.3359 1.91888 25.3651 3.23713 26.1334 4.93298C26.7937 6.39057 27.1279 7.826 27.1279 9.19475C27.1279 9.25329 27.1279 9.31184 27.1238 9.39058C27.0423 12.9498 24.7455 15.9863 23.7959 17.0943C22.8645 15.982 20.6228 12.9517 20.4618 9.38231C20.4577 9.31973 20.4577 9.25714 20.4577 9.19456C20.4577 7.8258 20.792 6.3924 21.4543 4.93279C22.2206 3.23901 23.2497 1.91888 23.7918 1.28494ZM17.1055 3.07769C17.7862 3.34014 19.0701 3.91753 20.3438 4.88657C19.7304 6.35223 19.4166 7.79974 19.4166 9.19475C19.4166 9.27348 19.4186 9.35222 19.4227 9.42893C19.5552 12.3926 20.9919 14.991 22.1127 16.5895C22.0516 16.5572 21.9925 16.5269 21.9293 16.4926C21.8539 16.4522 21.7785 16.4098 21.7031 16.3674C21.6114 16.317 21.5197 16.2624 21.428 16.2079C21.3485 16.1615 21.2711 16.1131 21.1896 16.0626C21.0938 16.004 21 15.9415 20.9022 15.8768C20.8207 15.8223 20.7392 15.7678 20.6577 15.7113C20.5598 15.6427 20.462 15.572 20.3642 15.4993C20.2827 15.4388 20.2012 15.3782 20.1196 15.3156C20.0218 15.2389 19.922 15.1581 19.8262 15.0754C19.7467 15.0087 19.6652 14.9421 19.5857 14.8715C19.4879 14.7847 19.3901 14.6918 19.2943 14.6009C19.2168 14.5283 19.1394 14.4556 19.064 14.3809C18.9662 14.282 18.8724 14.177 18.7787 14.072C18.7073 13.9933 18.636 13.9186 18.5667 13.8378C18.4709 13.7248 18.3792 13.6036 18.2875 13.4825C18.2264 13.4018 18.1632 13.325 18.1041 13.2423C18.0063 13.105 17.9146 12.9576 17.8249 12.8102C17.7801 12.7376 17.7291 12.6689 17.6863 12.5942C17.5559 12.3681 17.4336 12.1359 17.3215 11.8917C16.7693 10.6803 16.486 9.23286 16.4819 7.59154C16.4758 5.64136 16.8793 3.9014 17.1055 3.07769ZM15.4446 8.04001C15.4507 8.20758 15.4711 8.36505 15.4813 8.52857C15.4935 8.70219 15.5017 8.87783 15.52 9.04741C15.5465 9.29169 15.5832 9.52789 15.624 9.76207C15.6484 9.91348 15.6688 10.0689 15.6994 10.2163C15.7524 10.4707 15.8196 10.7129 15.8869 10.9552C15.9195 11.0723 15.946 11.1954 15.9826 11.3085C16.0947 11.6598 16.2231 11.9989 16.3698 12.3219C16.5145 12.6409 16.6796 12.9417 16.8528 13.2304C16.9079 13.3213 16.967 13.4081 17.024 13.4949C17.1504 13.6907 17.2808 13.8805 17.4173 14.0642C17.4846 14.1551 17.5539 14.2419 17.6232 14.3307C17.7658 14.5083 17.9146 14.6779 18.0654 14.8435C18.1286 14.9121 18.1897 14.9848 18.2549 15.0514C18.471 15.2735 18.689 15.4875 18.9132 15.6833C18.9274 15.6954 18.9397 15.7055 18.9539 15.7156C19.1679 15.9014 19.3839 16.075 19.6 16.2405C19.6733 16.297 19.7467 16.3475 19.8201 16.402C19.979 16.5171 20.136 16.6281 20.2929 16.7331C20.3703 16.7856 20.4478 16.8341 20.5232 16.8845C20.6842 16.9855 20.839 17.0824 20.996 17.1712C21.0571 17.2075 21.1203 17.2459 21.1814 17.2802C21.3913 17.3993 21.5972 17.5084 21.7908 17.6073C21.7928 17.6093 21.7949 17.6093 21.7969 17.6113C20.0932 17.6941 17.5539 17.4821 15.5974 15.8933C12.9032 13.6988 12.0596 9.49968 11.8476 8.10478C12.5323 7.98971 13.9121 7.83207 15.4446 8.04001Z" fill="white"/>
<path d="M47.5687 11.6254C47.1876 11.0803 46.5844 10.7129 45.9118 10.618C45.1598 10.5231 44.3997 10.7835 43.878 11.3145C43.6008 11.5951 43.4011 11.9262 43.287 12.2976L40.6683 20.9523C40.3931 20.8433 40.0935 20.7828 39.7838 20.7747C39.1317 20.7666 38.502 20.9867 38.021 21.4066L35.8037 23.3286C33.5864 25.301 31.6096 24.8629 31.5302 24.8467C31.4976 24.8386 31.4629 24.8326 31.4283 24.8326C30.2382 24.7801 28.9767 25.194 27.6785 26.0742C26.1032 27.1421 24.8295 28.7027 24 30.5338C23.1685 28.7006 21.8969 27.1421 20.3215 26.0742C19.0233 25.194 17.7598 24.7781 16.5717 24.8326C16.5391 24.8346 16.5045 24.8386 16.4719 24.8467C16.3883 24.8649 14.4135 25.303 12.1902 23.3265L9.979 21.4107C9.49601 20.9887 8.86833 20.7566 8.21212 20.7767C7.90235 20.7848 7.60683 20.8454 7.3297 20.9544L4.71097 12.2997C4.59684 11.9282 4.39916 11.5971 4.12201 11.3186C3.6003 10.7876 2.83813 10.5272 2.07998 10.622C1.4136 10.7149 0.812376 11.0823 0.429231 11.6274C0.0440619 12.1786 -0.088406 12.8428 0.0583253 13.5009L3.35977 28.3916C3.86925 30.7011 5.58925 32.6049 7.84732 33.3599L11.6745 34.648C13.8042 35.3626 15.4304 37.1554 15.9175 39.3276L15.9725 39.584C16.0255 39.8263 16.2415 39.9918 16.482 39.9918C16.5187 39.9918 16.5554 39.9878 16.5921 39.9797C16.8733 39.9191 17.0526 39.6446 16.9935 39.366L16.9365 39.1056C16.37 36.58 14.4808 34.4965 12.0088 33.6686L8.18154 32.3806C6.2679 31.7406 4.81081 30.1275 4.37873 28.1693L1.66015 15.9051C2.17574 15.7638 2.86253 15.3701 3.04185 14.5161C3.21711 13.6783 2.71782 12.352 2.40807 11.6433C2.77286 11.6474 3.12339 11.7826 3.37814 12.0411C3.5371 12.2005 3.64919 12.3883 3.71237 12.5962L6.42688 21.5657C5.96223 22.0441 5.70342 22.6679 5.70342 23.3342C5.70342 24.0287 5.98058 24.6767 6.48192 25.1633C8.41794 27.0247 11.2242 29.4796 13.5986 30.6142C13.6719 30.6485 13.7494 30.6647 13.8248 30.6647C14.0184 30.6647 14.2059 30.5577 14.2956 30.3719C14.4199 30.1155 14.3119 29.8066 14.051 29.6815C12.4329 28.9083 10.5763 27.4608 8.96025 26.0355C9.27205 25.6357 9.52881 25.0341 9.28428 24.3235C9.00712 23.516 7.90461 22.6277 7.27282 22.1714C7.29728 22.1573 7.32377 22.1452 7.34618 22.127C7.59685 21.9271 7.90457 21.8181 8.23471 21.81C8.63618 21.804 9.00303 21.9352 9.29034 22.1876L11.4974 24.0994C13.9531 26.2838 16.254 25.9466 16.6615 25.8639C17.6071 25.8295 18.6404 26.1889 19.7307 26.9278C21.4283 28.0786 22.7427 29.8672 23.4479 31.9648L22.0763 36.1256C21.9867 36.3962 22.1354 36.6889 22.4106 36.7777C22.6836 36.8665 22.9791 36.7171 23.0688 36.4466L24.5239 32.0314C25.2229 29.9035 26.5516 28.0906 28.2676 26.9278C29.3579 26.1889 30.3993 25.8376 31.3367 25.8639C31.7443 25.9466 34.0451 26.2838 36.4968 24.1055L38.71 22.1876C38.9973 21.9373 39.3702 21.802 39.7615 21.8121C40.0957 21.8202 40.4035 21.9312 40.6541 22.1311C40.6765 22.1472 40.701 22.1614 40.7234 22.1735C40.0917 22.6297 38.9871 23.52 38.7099 24.3296C38.4654 25.0402 38.7242 25.6459 39.036 26.0436C37.4219 27.4669 35.5654 28.9144 33.9493 29.6856C33.6905 29.8087 33.5804 30.1176 33.7047 30.376C33.7944 30.5597 33.9819 30.6687 34.1755 30.6687C34.2509 30.6687 34.3284 30.6526 34.4017 30.6183C36.778 29.4837 39.5842 27.0288 41.5205 25.1653C42.0218 24.6808 42.2969 24.0307 42.2969 23.3382C42.2969 22.672 42.0381 22.0482 41.5735 21.5697L44.288 12.6002C44.3512 12.3903 44.4653 12.2046 44.6242 12.0431C44.8749 11.7867 45.2295 11.6514 45.5862 11.6474C45.2764 12.358 44.7751 13.6824 44.9524 14.5222C45.1317 15.3802 45.8226 15.7719 46.3403 15.9132L43.6217 28.1758C43.1896 30.1321 41.7325 31.7451 39.8168 32.3871L35.9896 33.6751C33.5176 34.5049 31.6284 36.5883 31.0619 39.1178L31.0069 39.3741C30.9478 39.6527 31.1271 39.9273 31.4083 39.9879C31.445 39.9959 31.4817 40 31.5184 40C31.7589 40 31.9769 39.8344 32.0279 39.5902L32.0829 39.3398C32.572 37.1656 34.1962 35.3708 36.3279 34.6561L40.1551 33.3681C42.4131 32.6111 44.1332 30.7093 44.6427 28.3997L47.9441 13.5091C48.0868 12.8408 47.9538 12.1765 47.5687 11.6254ZM2.01702 14.3044C1.93957 14.6778 1.63796 14.8313 1.43416 14.8938L1.07549 13.2747C0.991928 12.9013 1.06733 12.5258 1.28539 12.2128C1.33226 12.1482 1.38525 12.0897 1.44028 12.0352C1.77653 12.8104 2.11484 13.8481 2.01702 14.3044ZM8.29581 24.6568C8.39363 24.9415 8.30193 25.1757 8.1878 25.3412C7.84339 25.0242 7.51323 24.7154 7.20756 24.4206C6.91002 24.1319 6.74495 23.7443 6.74495 23.3304C6.74495 23.2497 6.75514 23.1689 6.7694 23.0902C7.42358 23.5828 8.15312 24.241 8.29581 24.6568ZM40.7906 24.4206C40.4829 24.7154 40.1527 25.0283 39.8063 25.3453C39.6901 25.1797 39.5964 24.9435 39.6942 24.6568C39.8369 24.241 40.5705 23.5788 41.2267 23.0882C41.239 23.1689 41.2512 23.2497 41.2512 23.3325C41.2512 23.7463 41.0861 24.1319 40.7906 24.4206ZM45.971 14.3043C45.8753 13.8461 46.2156 12.8064 46.5519 12.0311C46.6089 12.0877 46.6639 12.1462 46.7108 12.2149C46.9289 12.5258 47.0043 12.9033 46.9207 13.2768L46.562 14.8979C46.3542 14.8333 46.0505 14.6818 45.971 14.3043Z" fill="white"/>
</svg>
