<svg width="41" height="47" viewBox="0 0 41 47" fill="none" xmlns="http://www.w3.org/2000/svg">
<path d="M40.9936 39.241C40.9142 38.3629 40.5097 38.1294 40.1428 38.0436C40.0833 37.8899 39.9802 37.7622 39.8394 37.6764C39.4448 37.4289 38.9154 37.5726 38.4493 37.6983C38.3323 37.7303 38.2312 37.7602 38.1777 37.7662C38.1082 37.7662 37.9655 37.7602 37.785 37.7542C36.9383 37.7203 36.3592 37.7083 35.9964 37.7422C35.4014 37.0737 33.4303 33.8368 32.5598 32.4061C31.8737 31.2786 31.6674 30.9453 31.5683 30.8116C31.4097 30.3745 31.0626 27.8421 30.9496 26.6068C30.8584 25.6009 30.4003 21.029 29.4306 19.061C29.4425 18.9992 29.4464 18.9313 29.4345 18.8655C29.2878 18.0612 29.3314 17.5763 29.5714 17.3827C30.5609 16.5825 31.128 15.4769 31.1697 14.2695C31.2173 12.8547 30.5292 11.4098 29.2323 10.2025C28.1178 9.16476 28.1158 9.07096 28.1079 7.48641C28.1059 6.98551 28.102 6.36089 28.0603 5.54067C27.9869 4.05794 26.9082 2.62905 25.0223 1.5115C22.6209 0.090637 19.6463 -0.406297 18.1076 0.35604C17.5523 0.629443 17.245 1.03653 16.9455 1.42971C16.5093 2.00246 16.0988 2.54328 14.8098 2.85461C12.7832 3.34354 12.6622 6.78998 12.92 8.28681C13.0271 8.91346 12.7633 9.26867 12.3667 9.80551C12.0396 10.2485 11.6667 10.7515 11.4962 11.4818C11.3336 12.1843 11.6192 12.8029 11.8948 13.4016C12.1883 14.0362 12.4917 14.6927 12.3192 15.5369C11.9979 16.5268 11.7243 17.7421 12.0118 18.4027L12.0098 18.4047C10.7387 19.6839 10.1577 25.4594 10.0546 26.6048C9.94351 27.8381 9.59648 30.3726 9.43583 30.8096C9.33469 30.9453 9.12846 31.2766 8.44235 32.4041C7.57183 33.835 5.60067 37.0719 5.0058 37.7403C4.64291 37.7064 4.06385 37.7183 3.21714 37.7523C3.03668 37.7603 2.8939 37.7642 2.8364 37.7662C2.76898 37.7603 2.66784 37.7283 2.55084 37.6964C2.08285 37.5707 1.55341 37.427 1.16074 37.6744C1.02193 37.7623 0.916826 37.89 0.857335 38.0416C0.492459 38.1294 0.0859566 38.3609 0.00661047 39.239C-0.126252 40.7158 1.78141 41.9631 2.33267 42.1846C2.50322 42.2524 2.71738 42.2903 2.96328 42.2903C3.04062 42.2903 3.12391 42.2824 3.20521 42.2764C3.16753 43.0726 3.42929 43.831 3.97659 44.4835C5.40832 46.1938 9.1384 46.99 15.716 46.99H20.741C20.7569 46.994 20.7688 47 20.7826 47C20.8025 47 20.8223 46.998 20.8421 46.996C20.8461 46.996 20.8501 46.992 20.854 46.992H33.0951C34.1242 46.992 34.9928 46.092 35.199 45.4693C35.2565 45.2957 35.2605 45.156 35.2407 45.0363C36.2738 44.8028 37.2534 44.4157 37.8245 43.8409C38.1676 43.4957 38.3599 42.9249 38.3818 42.2624C38.4869 42.2444 38.584 42.2185 38.6693 42.1846C39.2186 41.967 41.1264 40.7157 40.9936 39.241ZM12.8128 12.9704C12.5807 12.4695 12.3983 12.0744 12.4816 11.7152C12.6045 11.1904 12.8822 10.8132 13.1776 10.414C13.6099 9.83133 14.0997 9.16877 13.9173 8.11109C13.6555 6.58443 13.9728 4.10589 15.0437 3.84641C16.6817 3.45127 17.2726 2.67297 17.7485 2.05036C18.0083 1.7111 18.2105 1.44169 18.5536 1.27407C19.7731 0.669392 22.4443 1.17229 24.5068 2.39362C26.0655 3.3156 26.9895 4.48103 27.0451 5.5926C27.0847 6.39085 27.0887 7.00151 27.0907 7.49247C27.1006 9.24265 27.1502 9.65973 28.5403 10.9529C29.6171 11.9567 30.1902 13.1201 30.1525 14.2337C30.1208 15.1377 29.6885 15.9739 28.933 16.5866C28.5185 16.9218 28.3717 17.4128 28.344 17.9157C26.9361 17.0356 24.3244 16.1516 23.321 15.8303V15.1537C23.5253 14.9702 23.7275 14.7646 23.912 14.5092C24.9789 13.0384 25.1613 11.0348 25.187 10.1687C25.3298 10.1248 25.4865 10.0689 25.6689 9.99305C25.9287 9.88729 26.0536 9.58794 25.9485 9.32651C25.8414 9.06508 25.546 8.93936 25.2862 9.04512C24.8817 9.21076 24.7131 9.24269 24.6774 9.24668C24.6734 9.24668 24.6695 9.24868 24.6655 9.24868C24.6615 9.24868 24.6576 9.24668 24.6536 9.24668C19.4304 9.54004 18.2186 5.58867 18.1709 5.42304C18.1055 5.19155 17.8853 5.04188 17.6474 5.05385C17.4075 5.06981 17.2131 5.25341 17.1794 5.49289C16.991 6.8479 16.5865 7.78787 15.9797 8.2868C15.8587 8.38658 15.7893 8.54423 15.7933 8.70189C15.8012 9.05312 15.8071 9.42831 15.8151 9.89929C15.8349 11.1585 16.0669 13.4535 17.3956 14.6769C17.4987 14.7726 17.6058 14.8605 17.7109 14.9483V15.8163C16.757 16.1217 14.3477 16.9359 12.8941 17.7701C12.8941 17.3669 13.0527 16.5547 13.2907 15.8263C13.2966 15.8103 13.3006 15.7924 13.3046 15.7744C13.5604 14.587 13.1459 13.6909 12.8128 12.9704ZM20.8778 42.929C15.2023 41.6079 12.2579 40.3806 11.9919 40.185C11.8134 40.0134 11.5318 39.8877 11.2066 39.742C11.159 39.7221 11.1055 39.6981 11.0499 39.6722C11.4089 39.6442 11.9086 39.6762 12.4083 39.8278C12.9259 39.9835 13.6437 39.9715 14.4013 39.9575C15.0854 39.9476 16.0194 39.9296 16.2772 40.1132L16.4418 40.2329C17.0843 40.6999 17.3619 40.8656 18.4506 40.9614C19.0911 41.0172 20.3681 41.0132 21.8455 41.0093L22.139 41.0073C22.1429 41.0252 22.1449 41.0432 22.1469 41.0611C22.1647 41.1649 22.1806 41.2707 22.1945 41.3784C22.2004 41.4184 22.2044 41.4603 22.2084 41.5002C22.2183 41.594 22.2282 41.6878 22.2342 41.7816C22.2361 41.8155 22.2401 41.8494 22.2421 41.8833C22.25 42.0071 22.254 42.1288 22.254 42.2485C22.254 42.2725 22.252 42.2944 22.252 42.3184C22.252 42.4142 22.248 42.508 22.2421 42.5978C22.2401 42.6297 22.2381 42.6596 22.2361 42.6896C22.2282 42.7814 22.2183 42.8672 22.2044 42.947C22.2024 42.961 22.2004 42.9769 22.1985 42.9909C22.1826 43.0707 22.1628 43.1386 22.141 43.2044C21.7265 43.1206 21.3062 43.0288 20.8778 42.929ZM27.7271 38.0797C28.4013 38.3111 29.8806 38.7801 31.2826 38.9358C31.586 38.9697 31.9826 38.9957 32.3713 39.0196C32.4308 39.0236 32.4883 39.0276 32.5478 39.0316C31.9033 39.3429 31.0982 39.7221 29.6526 39.9974C28.0979 40.2928 26.8883 40.189 25.7183 40.0853C25.4645 40.0633 25.2186 40.0414 24.9767 40.0254C25.3752 39.8378 25.7342 39.6582 25.9602 39.5245C26.7455 39.0635 27.3364 38.5785 27.7271 38.0797ZM31.3937 37.92C29.8965 37.7524 28.2347 37.1776 27.8163 37.028C27.5189 36.7126 26.3152 35.3097 26.2339 33.2023C26.1645 31.3823 26.3747 29.7219 26.6523 28.6463C26.6959 28.8558 26.7415 29.0634 26.7852 29.2709C27.158 31.0271 27.3721 32.0329 27.4514 32.2724C27.6914 32.9948 30.3268 36.9361 31.4908 37.9299C31.4591 37.9279 31.4235 37.924 31.3937 37.92ZM26.5016 26.6689C25.5854 27.4591 25.1234 30.696 25.2206 33.2424C25.3019 35.3737 26.3509 36.8784 26.8843 37.511C26.575 37.8842 26.0931 38.2654 25.4467 38.6446C24.8736 38.9818 23.1939 39.7342 22.4583 39.9856L21.8416 39.9876C20.4475 39.9916 19.1328 39.9956 18.5359 39.9437C17.6713 39.8679 17.5622 39.7881 17.0348 39.4049L16.8662 39.2832C16.6738 39.1455 16.426 39.0617 16.1424 39.0078C16.0274 38.9419 15.9024 38.8681 15.7597 38.7883C15.2282 38.4849 14.2446 37.9242 13.735 37.5091C14.4251 36.8525 15.7061 35.3578 15.7854 33.2424C15.8826 30.696 15.4206 27.4592 14.5044 26.6689C14.0325 26.2618 13.9036 24.5276 14.4093 23.6794C15.0617 22.5838 15.7359 20.0394 15.7835 17.5805C16.0274 17.4867 16.2673 17.3969 16.5053 17.3111C16.5628 18.2191 16.7552 19.7757 17.4135 20.52C18.3416 21.5717 20.287 21.6017 20.505 21.6017C20.7232 21.6017 22.6685 21.5717 23.5965 20.52C24.2549 19.7737 24.4473 18.2191 24.5048 17.3111C24.7408 17.3969 24.9827 17.4867 25.2266 17.5805C25.2742 20.0391 25.9465 22.5836 26.6008 23.6794C27.1025 24.5276 26.9716 26.2617 26.5016 26.6689ZM12.7772 36.9984C12.4104 37.0862 11.1234 37.3935 9.71146 37.7488C10.9528 36.5235 13.3245 32.9572 13.5506 32.2726C13.6517 31.9673 14.0206 30.3828 14.3795 28.7563C14.6432 29.834 14.8376 31.4444 14.7701 33.2026C14.6928 35.29 13.1302 36.705 12.7772 36.9984ZM23.0907 13.907C22.355 14.9228 21.3476 15.1503 20.6338 15.1603C20.3442 15.1703 19.3448 15.0884 18.0797 13.925C16.993 12.9252 16.8423 10.7659 16.8284 9.88585C16.8224 9.51266 16.8165 9.19932 16.8105 8.912C17.2686 8.46897 17.6196 7.86429 17.8655 7.088C18.7301 8.43704 20.5644 10.289 24.1101 10.289H24.1637C24.126 11.1072 23.9355 12.7456 23.0907 13.907ZM18.728 16.1941V15.6393C19.3725 15.9885 20.017 16.1821 20.6079 16.1821H20.6535C21.066 16.1761 21.6748 16.0983 22.3074 15.8169V16.2041C22.3074 16.4276 22.4521 16.6271 22.6663 16.693C22.8864 16.7608 23.1779 16.8546 23.5051 16.9644C23.4694 17.9323 23.277 19.3452 22.8368 19.8441C22.3053 20.4468 20.9727 20.5805 20.5047 20.5824C20.0368 20.5805 18.7022 20.4467 18.1707 19.8441C17.7305 19.3472 17.5401 17.9323 17.5024 16.9644C17.8415 16.8506 18.141 16.7548 18.367 16.683C18.5812 16.6171 18.728 16.4196 18.728 16.1941ZM2.71108 41.239C2.2768 41.0654 0.952166 40.0835 1.01958 39.3331C1.03743 39.1396 1.06916 39.0538 1.06321 39.0418C1.08106 39.0358 1.10089 39.0338 1.11873 39.0298C1.25952 39.0019 1.6006 38.934 1.75726 38.5648C1.91391 38.5808 2.15585 38.6467 2.28872 38.6826C2.50289 38.7404 2.67342 38.7863 2.82414 38.7863C2.90147 38.7863 3.05814 38.7804 3.25644 38.7724C3.67287 38.7564 4.77741 38.7125 5.00941 38.7704C5.50715 38.8941 5.65586 38.934 9.30659 32.9371C9.72698 32.2446 10.1633 31.5302 10.2128 31.4584C10.663 31.0074 11.0596 26.7387 11.0636 26.6948C11.2896 24.1863 11.9421 19.9139 12.7253 19.1256C12.8443 19.0059 13.0208 18.8801 13.233 18.7484H13.235L13.2369 18.7464C13.6335 18.503 14.1689 18.2455 14.754 17.9941C14.6409 20.305 13.9925 22.3905 13.5404 23.1509C12.9078 24.2126 12.89 26.314 13.6693 27.2579C13.2132 29.3713 12.6916 31.6363 12.5885 31.9457C12.416 32.4605 9.85395 36.3281 8.83073 37.1705C8.4599 37.4758 8.02163 37.7731 7.56159 38.0885C7.36527 38.2222 7.16698 38.3599 6.96866 38.4976L6.96667 38.4996C6.27063 38.9885 5.5885 39.5153 5.04714 40.1699C4.18255 41.2176 3.01059 41.3613 2.71112 41.2396L2.71108 41.239ZM4.75555 43.8293C4.30739 43.2945 4.13682 42.6938 4.25186 42.0432C4.25384 42.0312 4.24988 42.0193 4.24988 42.0073C4.7952 41.7758 5.35443 41.3966 5.82639 40.8299C6.27852 40.2831 6.87541 39.8161 7.49809 39.377C9.33041 38.8801 11.944 38.2495 12.8183 38.0399C13.0939 38.3253 13.5084 38.6246 14.016 38.944C13.4945 38.9499 12.9968 38.94 12.6993 38.8502C11.7197 38.5548 10.0857 38.4889 9.68907 39.2872C9.6038 39.4588 9.5919 39.6504 9.65734 39.83C9.8021 40.2371 10.286 40.4527 10.7956 40.6802C10.9681 40.756 11.2259 40.8718 11.2894 40.9256C11.7395 41.3607 15.1979 42.6379 20.3159 43.8493C20.2465 44.5158 20.1989 45.2262 20.2386 45.9746H15.7193C9.6336 45.9726 5.94549 45.2502 4.75555 43.8293ZM33.0947 45.9726C31.2267 45.9706 25.6028 45.9706 21.2522 45.9726C21.2146 45.312 21.2522 44.6734 21.3117 44.0688C21.6449 44.1406 21.98 44.2164 22.3052 44.2803C26.2177 45.0446 29.5154 45.1863 31.2861 45.2622C31.6609 45.2781 31.9702 45.2921 32.2062 45.3081C32.3688 45.318 32.5433 45.324 32.7297 45.324C33.1759 45.324 33.6815 45.2901 34.203 45.2223C34.0761 45.4797 33.6103 45.9726 33.0947 45.9726ZM32.2738 44.2883C32.0318 44.2723 31.7145 44.2584 31.3298 44.2424C29.6839 44.1725 26.6995 44.0428 23.146 43.4002C23.146 43.3983 23.148 43.3943 23.148 43.3923C23.1658 43.3304 23.1777 43.2645 23.1916 43.1987C23.1995 43.1648 23.2074 43.1308 23.2134 43.0969C23.2273 43.0091 23.2392 42.9193 23.2471 42.8295C23.2511 42.7856 23.255 42.7397 23.257 42.6958C23.263 42.622 23.2669 42.5501 23.2709 42.4763C23.2729 42.4224 23.2709 42.3705 23.2709 42.3166C23.2709 42.2647 23.2729 42.2128 23.2709 42.161C23.2689 42.1011 23.2669 42.0432 23.263 41.9853C23.261 41.9414 23.259 41.8955 23.257 41.8536C23.2531 41.7918 23.2471 41.7319 23.2431 41.672C23.2392 41.6341 23.2372 41.5942 23.2332 41.5563C23.2273 41.4944 23.2193 41.4365 23.2134 41.3787C23.2094 41.3467 23.2055 41.3108 23.2015 41.2789C23.1936 41.215 23.1837 41.1552 23.1757 41.0973C23.1718 41.0753 23.1698 41.0514 23.1658 41.0314C23.1638 41.0234 23.1638 41.0135 23.1618 41.0055C23.5941 41.0075 23.9828 41.0095 24.2961 41.0175C24.7225 41.0254 25.1627 41.0634 25.6287 41.1053C26.8106 41.209 28.1491 41.3248 29.8407 41.0035C31.4509 40.6962 32.367 40.2552 33.0333 39.9318C33.3149 39.7961 33.5608 39.6804 33.8027 39.5985C34.3144 39.9737 34.7982 40.3728 35.175 40.8299C35.8274 41.6162 36.6503 42.0492 37.3702 42.2148C37.3602 42.6139 37.2631 42.9632 37.1044 43.1228C36.2458 43.9869 33.7134 44.3801 32.2738 44.2883ZM38.2905 41.2389C37.991 41.3607 36.8191 41.215 35.9564 40.1733C35.2604 39.3331 34.3363 38.7025 33.442 38.0919C32.9799 37.7765 32.5437 37.4792 32.1709 37.1739C31.1457 36.3317 28.5856 32.4622 28.4131 31.9491C28.3476 31.7515 28.0442 30.3206 27.7765 29.0574C27.6456 28.4388 27.5088 27.7961 27.3819 27.2015C28.1156 26.2316 28.0879 24.194 27.4672 23.1543C27.0151 22.3959 26.3666 20.3105 26.2536 17.9995C27.1499 18.3847 27.9372 18.7858 28.2763 19.129C29.0596 19.9173 29.712 24.1899 29.938 26.6982C29.942 26.7421 30.3406 31.0088 30.759 31.4279C30.8383 31.5316 31.2726 32.2481 31.695 32.9385C35.3438 38.9332 35.4965 38.8975 35.9922 38.7718C36.2262 38.7139 37.3307 38.7578 37.7471 38.7738C37.9474 38.7818 38.1041 38.7878 38.1794 38.7878C38.3302 38.7878 38.5007 38.7419 38.7149 38.684C38.8477 38.6481 39.0896 38.5822 39.2463 38.5662C39.403 38.9354 39.7441 39.0033 39.8848 39.0312C39.9047 39.0352 39.9245 39.0372 39.9205 39.0252C39.9324 39.0492 39.9661 39.133 39.984 39.3326C40.0494 40.083 38.7248 41.0648 38.2905 41.2384L38.2905 41.2389Z" fill="white"/>
</svg>
