<svg width="48" height="40" viewBox="0 0 48 40" fill="none" xmlns="http://www.w3.org/2000/svg">
<path d="M40.5735 29.7971C39.8745 29.3638 38.9594 29.1482 37.9934 28.9185C36.206 28.4933 34.3575 28.0539 33.8113 26.2241C33.2774 24.4427 32.2665 16.6377 31.4554 10.3644C30.7217 4.69372 30.2957 1.45493 30.0899 0.842563C29.8901 0.252121 29.3704 -0.0683017 28.7284 0.0122812C27.3568 0.181557 25.7019 2.0577 25.5226 4.48004C25.3025 7.42023 25.5817 13.8203 25.6327 14.9249C24.8928 15.0498 24.3834 15.4307 24.0409 15.9123C23.7312 15.4206 23.1972 15.0196 22.276 14.9108C22.329 13.7661 22.6062 7.41017 22.3861 4.48195C22.2047 2.05966 20.5498 0.181495 19.1802 0.0141897C18.5403 -0.0644019 18.0185 0.253999 17.8188 0.844472C17.613 1.45911 17.187 4.69553 16.4533 10.3664C15.6422 16.6376 14.6313 24.4446 14.0973 26.226C13.5491 28.0558 11.7006 28.4951 9.9153 28.9204C8.94721 29.1501 8.03417 29.3678 7.33514 29.799C7.09057 29.9501 7.0172 30.2686 7.17006 30.5104C7.26992 30.6676 7.43907 30.7522 7.61231 30.7522C7.70606 30.7522 7.80185 30.726 7.88745 30.6736C8.44383 30.331 9.27538 30.1315 10.1578 29.9219C12.039 29.4746 14.3786 28.9184 15.0981 26.5182C15.6565 24.6582 16.6287 17.1351 17.4867 10.4971C17.7231 8.67128 17.9615 6.82335 18.1735 5.25146C18.2998 5.27766 18.4405 5.29781 18.5994 5.29781C19.0967 5.29781 19.7061 5.13257 20.1219 4.54817C20.4806 4.04638 20.6191 3.17784 20.6701 2.44027C21.0125 3.00249 21.2815 3.71793 21.3427 4.56029C21.5587 7.45013 21.2693 14.0115 21.2286 14.9288C20.7517 15.0154 20.342 15.227 20.0098 15.5636C19.1274 16.4543 19.1436 17.8931 19.1436 17.9456V25.6737C19.1436 25.9578 19.378 26.1896 19.6654 26.1896C19.9527 26.1896 20.1871 25.9578 20.1871 25.6737L20.1912 20.1804C20.1973 20.1784 20.2034 20.1804 20.2075 20.1784C20.3074 20.1522 21.2062 19.8862 21.7421 18.7657C22.1905 17.8287 22.056 16.3595 22.001 15.9182C23.3216 16.0069 23.4296 16.819 23.4296 17.9395V27.9087C23.4296 27.9369 23.503 30.8207 22.1273 32.4832C20.448 34.5146 17.5214 35.9454 17.2381 36.0804C16.9262 36.1933 14.8148 37.0357 14.4357 39.4035C14.3909 39.6856 14.5845 39.9496 14.8699 39.994C14.8984 39.998 14.9249 40 14.9514 40C15.2041 40 15.4262 39.8186 15.467 39.5647C15.7666 37.6886 17.5295 37.0719 17.6029 37.0457C17.6212 37.0397 17.6416 37.0316 17.66 37.0235C17.7965 36.9611 21.0248 35.4436 22.9342 33.1362C23.403 32.5699 23.727 31.9008 23.9532 31.2358C24.1815 31.9049 24.5035 32.5739 24.9702 33.1362C26.8819 35.4416 30.1061 36.959 30.2424 37.0235C30.2587 37.0316 30.2791 37.0397 30.2974 37.0457C30.3728 37.0719 32.1357 37.6886 32.4353 39.5647C32.4761 39.8186 32.6982 40 32.9489 40C32.9754 40 33.004 39.998 33.0304 39.994C33.3158 39.9496 33.5094 39.6856 33.4645 39.4035C33.0855 37.0336 30.9761 36.1912 30.6622 36.0804C30.3789 35.9434 27.4564 34.5106 25.773 32.4832C24.4136 30.8449 24.4686 27.9349 24.4707 27.9047C24.4707 27.9026 24.4686 27.8986 24.4686 27.8966V27.8926L24.4747 17.9497C24.4747 17.9457 24.4768 17.9437 24.4768 17.9417C24.4768 17.4721 24.597 15.9566 26.095 15.9143C26.0665 15.9667 26.044 16.0211 26.0359 16.0816C26.0074 16.2751 25.7791 17.994 26.2805 19.042C26.6656 19.846 27.2771 20.1302 27.7193 20.1866V25.944C27.7193 26.2282 27.9537 26.4599 28.241 26.4599C28.5284 26.4599 28.7628 26.2282 28.7628 25.944V17.9497C28.7648 17.8893 28.7811 16.4484 27.8966 15.5577C27.5624 15.2211 27.1547 15.0095 26.6779 14.9229C26.6351 14.008 26.3477 7.44443 26.5637 4.55438C26.633 3.62536 26.9489 2.85151 27.3423 2.26711C27.383 3.03492 27.5155 4.00222 27.9007 4.54231C28.3185 5.12672 28.9258 5.29196 29.4231 5.29196C29.5352 5.29196 29.6392 5.28188 29.737 5.26778C29.9489 6.83362 30.1854 8.67552 30.4218 10.4933C31.2798 17.1313 32.254 24.6541 32.8103 26.5144C33.5298 28.9145 35.8695 29.4708 37.7506 29.9181C38.6331 30.1277 39.4666 30.3252 40.021 30.6698C40.1066 30.7222 40.2024 30.7484 40.2961 30.7484C40.4694 30.7484 40.6405 30.6617 40.7384 30.5066C40.8912 30.2668 40.8181 29.9483 40.5735 29.7971ZM19.272 3.9497C18.954 4.39506 18.3976 4.24997 18.3161 4.22579C18.5403 2.60355 18.7197 1.43268 18.8093 1.16869C18.842 1.07196 18.8725 1.01352 19.0519 1.03569C19.217 1.05584 19.4269 1.14854 19.651 1.30371C19.6775 2.16624 19.5838 3.51237 19.272 3.9497ZM20.7985 18.322C20.613 18.711 20.3705 18.9286 20.1891 19.0495V17.9311C20.1891 17.921 20.183 16.855 20.7598 16.2786C20.825 16.2121 20.8963 16.1577 20.9738 16.1093C21.0329 16.6413 21.0797 17.7356 20.7985 18.322ZM27.7199 17.9412V19.1261C27.5772 19.0677 27.3836 18.9306 27.2246 18.6002C26.9128 17.9493 27.0065 16.6656 27.0697 16.2262C27.0697 16.2222 27.0677 16.2182 27.0677 16.2121C27.0942 16.2343 27.1227 16.2524 27.1492 16.2786C27.726 16.855 27.7199 17.921 27.7199 17.9412ZM28.7511 3.94955C28.4332 3.50419 28.3394 2.09553 28.3741 1.23909C28.3741 1.23506 28.3721 1.23305 28.3721 1.22902C28.5514 1.11818 28.7185 1.05168 28.8571 1.03555C29.0365 1.0154 29.067 1.07183 29.0996 1.16856C29.1893 1.43255 29.3707 2.61549 29.5969 4.24985C29.3951 4.28612 28.9998 4.29819 28.7511 3.94955Z" fill="white"/>
<path d="M39.4424 9.87271C39.4995 9.87271 39.5586 9.86264 39.6177 9.84249L45.0307 7.93811C45.3018 7.8434 45.4445 7.54716 45.3466 7.27916C45.2488 7.01113 44.9513 6.87007 44.6802 6.9668L39.2672 8.87117C38.9961 8.96589 38.8534 9.26212 38.9513 9.53013C39.0267 9.73971 39.2284 9.87271 39.4424 9.87271Z" fill="white"/>
<path d="M47.4783 13.3895H40.9096C40.6222 13.3895 40.3878 13.6213 40.3878 13.9054C40.3878 14.1896 40.6222 14.4213 40.9096 14.4213H47.4783C47.7656 14.4213 48 14.1896 48 13.9054C48 13.6213 47.7656 13.3895 47.4783 13.3895Z" fill="white"/>
<path d="M45.0308 19.8744L39.6177 17.97C39.3467 17.8753 39.047 18.0144 38.9513 18.2824C38.8556 18.5504 38.9961 18.8467 39.2672 18.9413L44.6802 20.8457C44.7373 20.8659 44.7964 20.8759 44.8555 20.8759C45.0695 20.8759 45.2713 20.7429 45.3467 20.5334C45.4445 20.2633 45.3018 19.9691 45.0308 19.8744Z" fill="white"/>
<path d="M9.04902 18.2823C8.9512 18.0143 8.6516 17.8732 8.38261 17.97L2.96956 19.8743C2.6985 19.9691 2.55584 20.2653 2.65367 20.5333C2.72907 20.7449 2.93084 20.8759 3.14484 20.8759C3.2019 20.8759 3.26304 20.8658 3.32011 20.8457L8.73315 18.9413C9.00421 18.8466 9.14685 18.5503 9.04902 18.2823Z" fill="white"/>
<path d="M7.61217 13.9054C7.61217 13.6213 7.3778 13.3895 7.09044 13.3895H0.521739C0.234376 13.3895 0 13.6213 0 13.9054C0 14.1896 0.234376 14.4213 0.521739 14.4213H7.09044C7.3778 14.4213 7.61217 14.1916 7.61217 13.9054Z" fill="white"/>
<path d="M2.96941 7.93816L8.38246 9.84254C8.43953 9.86269 8.49863 9.87277 8.55773 9.87277C8.77173 9.87277 8.9735 9.73976 9.0489 9.53018C9.14469 9.26216 9.00406 8.9659 8.733 8.87123L3.31996 6.96685C3.0489 6.87214 2.74928 7.01119 2.65354 7.27921C2.55572 7.54723 2.69835 7.8435 2.96941 7.93816Z" fill="white"/>
</svg>
