<svg width="41" height="45" viewBox="0 0 41 45" fill="none" xmlns="http://www.w3.org/2000/svg">
<path d="M2.45992 17.8752C2.06757 17.8752 1.74924 17.5518 1.74924 17.1532V4.00679C1.74924 2.90307 2.19342 1.90092 2.9078 1.17703C3.62218 0.451258 4.60862 0 5.69317 0H35.3312C36.4065 0.00564085 37.3855 0.456899 38.0943 1.17703C38.8032 1.89716 39.2455 2.89181 39.2529 3.98421V41.0158C39.2473 41.9785 38.9031 42.866 38.3368 43.5541H40.2893C40.6817 43.5541 41 43.8775 41 44.2761C41 44.6747 40.6817 44.9981 40.2893 44.9981H35.4069L35.331 45H5.693L5.59121 44.9981H0.710687C0.318331 44.9981 0 44.6747 0 44.2761C0 43.8775 0.318331 43.5541 0.710687 43.5541H2.66323C2.09136 42.8603 1.74711 41.9634 1.74711 40.9932V21.8863C1.74711 21.4877 2.06544 21.1643 2.45779 21.1643C2.85015 21.1643 3.16848 21.4877 3.16848 21.8863V40.9932C3.16848 41.6964 3.45349 42.3376 3.91063 42.802C4.34925 43.2476 4.94889 43.5334 5.61144 43.5541H23.6785V1.44244H5.69104C4.99888 1.44244 4.36774 1.73199 3.91063 2.19641C3.45351 2.66083 3.16848 3.30201 3.16848 4.0052V16.4296H4.85821V6.54909C4.85821 6.15048 5.17654 5.82708 5.5689 5.82708H9.26485C10.5085 5.82708 11.6375 6.34226 12.4537 7.17147C13.1607 7.88973 13.6345 8.8449 13.7492 9.90722C14.645 10.0558 15.4482 10.492 16.0645 11.1181C16.8363 11.9021 17.3138 12.9814 17.3138 14.1659V14.9933C17.3138 15.3919 16.9954 15.7153 16.6031 15.7153H9.52747C9.13511 15.7153 8.81678 15.3919 8.81678 14.9933V14.1659C8.81678 12.9795 9.29427 11.9021 10.0642 11.12C10.6675 10.507 11.4467 10.0764 12.3165 9.91849C12.211 9.24913 11.8983 8.65121 11.4486 8.19244C10.8878 7.62272 10.116 7.26923 9.26466 7.26923H6.27939V17.1497C6.27939 17.5484 5.96106 17.8717 5.56871 17.8717H2.4576L2.45992 17.8752ZM25.1019 43.5538H35.3922C36.0511 43.5313 36.6507 43.2474 37.0893 42.8018C37.5428 42.3411 37.8259 41.7075 37.8315 41.0117V3.98787C37.8259 3.29219 37.5428 2.65855 37.0893 2.19786C36.6359 1.7372 36.0141 1.44951 35.3274 1.44388H25.102V43.5555L25.1019 43.5538ZM15.3968 18.1554C15.3968 17.7567 15.7151 17.4333 16.1075 17.4333C16.4998 17.4333 16.8182 17.7567 16.8182 18.1554V23.3996C16.8182 23.7982 16.4998 24.1216 16.1075 24.1216C15.7151 24.1216 15.3968 23.7982 15.3968 23.3996V18.1554ZM15.3968 26.0936C15.3968 25.695 15.7151 25.3716 16.1075 25.3716C16.4998 25.3716 16.8182 25.695 16.8182 26.0936V31.5578C16.8182 31.9565 16.4998 32.2799 16.1075 32.2799C15.7151 32.2799 15.3968 31.9565 15.3968 31.5578V26.0936ZM15.3968 34.2519C15.3968 33.8533 15.7151 33.5299 16.1075 33.5299C16.4998 33.5299 16.8182 33.8533 16.8182 34.2519V38.4204C16.8182 38.819 16.4998 39.1424 16.1075 39.1424C15.7151 39.1424 15.3968 38.819 15.3968 38.4204V34.2519ZM12.3597 18.1554C12.3597 17.7567 12.678 17.4333 13.0704 17.4333C13.4627 17.4333 13.7811 17.7567 13.7811 18.1554V23.3996C13.7811 23.7982 13.4627 24.1216 13.0704 24.1216C12.678 24.1216 12.3597 23.7982 12.3597 23.3996V18.1554ZM12.3597 26.0936C12.3597 25.695 12.678 25.3716 13.0704 25.3716C13.4627 25.3716 13.7811 25.695 13.7811 26.0936V31.5578C13.7811 31.9565 13.4627 32.2799 13.0704 32.2799C12.678 32.2799 12.3597 31.9565 12.3597 31.5578V26.0936ZM12.3597 34.2519C12.3597 33.8533 12.678 33.5299 13.0704 33.5299C13.4627 33.5299 13.7811 33.8533 13.7811 34.2519V38.4204C13.7811 38.819 13.4627 39.1424 13.0704 39.1424C12.678 39.1424 12.3597 38.819 12.3597 38.4204V34.2519ZM9.3226 18.1554C9.3226 17.7567 9.64093 17.4333 10.0333 17.4333C10.4256 17.4333 10.744 17.7567 10.744 18.1554V23.3996C10.744 23.7982 10.4256 24.1216 10.0333 24.1216C9.64093 24.1216 9.3226 23.7982 9.3226 23.3996V18.1554ZM9.3226 26.0936C9.3226 25.695 9.64093 25.3716 10.0333 25.3716C10.4256 25.3716 10.744 25.695 10.744 26.0936V31.5578C10.744 31.9565 10.4256 32.2799 10.0333 32.2799C9.64093 32.2799 9.3226 31.9565 9.3226 31.5578V26.0936ZM9.3226 34.2519C9.3226 33.8533 9.64093 33.5299 10.0333 33.5299C10.4256 33.5299 10.744 33.8533 10.744 34.2519V38.4204C10.744 38.819 10.4256 39.1424 10.0333 39.1424C9.64093 39.1424 9.3226 38.819 9.3226 38.4204V34.2519ZM13.0889 11.2977H13.0518C12.2801 11.3033 11.5805 11.6248 11.0715 12.14C10.5607 12.659 10.2424 13.3791 10.2424 14.1688V14.2741H15.8966V14.1688C15.8966 13.3791 15.5783 12.659 15.0675 12.14C14.5604 11.6248 13.8588 11.3033 13.0889 11.2977ZM34.7871 21.4564C34.7871 21.0578 35.1054 20.7344 35.4978 20.7344C35.8901 20.7344 36.2085 21.0578 36.2085 21.4564V23.5416C36.2085 23.9402 35.8901 24.2636 35.4978 24.2636C35.1054 24.2636 34.7871 23.9402 34.7871 23.5416V21.4564ZM3.17099 19.6702C3.17099 20.0688 2.85266 20.3922 2.4603 20.3922C2.06795 20.3922 1.74962 20.0688 1.74962 19.6702V19.3656C1.74962 18.967 2.06795 18.6436 2.4603 18.6436C2.85266 18.6436 3.17099 18.967 3.17099 19.3656V19.6702Z" fill="#202020"/>
</svg>
