<svg width="33" height="45" viewBox="0 0 33 45" fill="none" xmlns="http://www.w3.org/2000/svg">
<path fill-rule="evenodd" clip-rule="evenodd" d="M14.9214 2.30332L16.9865 4.57094L17.7126 3.8862L15.133 1.05261H2.35165V2.05283H14.3703C14.4743 2.05283 14.5765 2.0751 14.6714 2.11778C14.7662 2.16046 14.852 2.22355 14.9213 2.30149L14.9214 2.30332ZM25.6193 29.9898C26.526 29.9898 27.4236 30.1587 28.2682 30.4909V23.0069H15.7442V42.703C15.7424 42.7197 15.757 42.7346 15.7752 42.7346H20.3343C18.977 41.3168 18.2235 39.4111 18.2417 37.4311C18.2582 35.4511 19.0426 33.5602 20.4237 32.1666C21.8065 30.773 23.6727 29.9898 25.6193 29.9898ZM29.3063 30.9919V30.9901C31.1963 32.0997 32.508 34.0018 32.8875 36.1876C33.267 38.3734 32.6759 40.6171 31.273 42.3167C29.8719 44.0183 27.8012 45 25.6195 45C24.191 45.0019 22.7917 44.5806 21.595 43.7864H15.7752C15.4925 43.7864 15.2206 43.6713 15.0218 43.4672C14.8211 43.2649 14.708 42.9884 14.708 42.7008V20.3606C14.7098 19.3993 15.476 18.6218 16.4211 18.6199H16.9556V17.9129C16.9574 16.664 17.9499 15.6527 19.1776 15.649H24.8367H24.8349C26.0627 15.6527 27.057 16.664 27.0588 17.9111V18.6181H27.5933C28.5383 18.6218 29.3046 19.3993 29.3064 20.3606V30.9936L29.3063 30.9919ZM30.1035 32.9329C32.2435 35.1078 32.5737 38.5186 30.8916 41.0777C29.2114 43.6366 25.9878 44.6313 23.193 43.4529C20.3981 42.2764 18.8091 39.2536 19.4002 36.2364C19.9894 33.2173 22.5946 31.0441 25.6192 31.0422C27.3013 31.0404 28.9158 31.7212 30.1035 32.9329ZM24.2035 33.0034H27.0367C27.2173 33.0034 27.3906 33.0777 27.5183 33.2076L27.5219 33.2113C27.6496 33.3412 27.7208 33.5175 27.7226 33.7012V35.3583H29.3518L29.35 35.3564C29.5324 35.3583 29.7057 35.4306 29.8334 35.5624C29.963 35.6923 30.0341 35.8704 30.0341 36.056V38.936C30.0341 39.1197 29.963 39.296 29.8334 39.4259L29.8298 39.4296H29.8316C29.7039 39.5595 29.5306 39.6319 29.35 39.6319H27.7208V41.289C27.719 41.4727 27.6479 41.649 27.5202 41.7789L27.5165 41.7826C27.3888 41.9125 27.2155 41.9849 27.0349 41.9867H24.2035C24.0229 41.9849 23.8496 41.9125 23.7219 41.7826L23.7182 41.7789C23.5905 41.649 23.5176 41.4727 23.5176 41.289V39.6337H21.8902C21.7078 39.6337 21.5345 39.5595 21.4067 39.4296L21.4031 39.4259C21.2772 39.296 21.2042 39.1197 21.2042 38.936V36.056C21.2042 35.8723 21.2754 35.6942 21.4049 35.5643C21.4232 35.5457 21.4432 35.529 21.4651 35.5141C21.5855 35.4158 21.7351 35.3638 21.8902 35.3638H23.5194L23.5175 33.7012C23.5194 33.5174 23.5905 33.3412 23.7182 33.2113L23.7219 33.2076C23.8496 33.0777 24.0229 33.0053 24.2035 33.0034ZM26.6828 34.0593L26.6846 35.8872C26.6846 36.1785 26.9163 36.4142 27.2027 36.4142H28.9979V38.5798H27.2009C26.9163 38.5798 26.6828 38.8155 26.6828 39.1068V40.9328H24.5556V39.1068C24.5556 38.8155 24.322 38.5798 24.0374 38.5798H22.2404V36.4142H24.0374C24.3238 36.4142 24.5556 36.1786 24.5556 35.8872V34.0612L26.6828 34.0593ZM18.8963 12.1419L18.4767 11.5091L18.0571 12.1419C17.6777 12.7153 17.7324 13.0586 17.9477 13.2052L17.9495 13.2033C18.2761 13.3945 18.6792 13.3945 19.0058 13.2033C19.2211 13.0568 19.2758 12.7135 18.8963 12.14L18.8963 12.1419ZM18.9055 10.2714L19.7538 11.5536C20.5583 12.7673 20.2518 13.6227 19.5841 14.0792L19.5859 14.0773C18.9073 14.5097 18.048 14.5097 17.3693 14.0773C16.7016 13.619 16.3952 12.7654 17.1997 11.5518L18.0425 10.2788C18.1374 10.1303 18.298 10.0394 18.4731 10.0376C18.6464 10.0357 18.8088 10.1229 18.9073 10.2695L18.9055 10.2714ZM18.8963 7.36169L18.4767 6.72892L18.0571 7.36169C17.6777 7.93508 17.7324 8.27655 17.9477 8.425H17.9495C18.2761 8.61428 18.6792 8.61428 19.0058 8.425C19.2211 8.27469 19.2758 7.93513 18.8963 7.36169ZM18.9055 5.49118L19.7538 6.77344C20.5583 7.98705 20.2518 8.84252 19.5841 9.299L19.5859 9.29714C18.9073 9.72952 18.048 9.72952 17.3693 9.29714C16.7016 8.83879 16.3952 7.98519 17.1997 6.77158L18.0425 5.49858C18.0809 5.4392 18.1301 5.38724 18.1903 5.34827C18.4275 5.18683 18.7486 5.24992 18.9091 5.49116L18.9055 5.49118ZM15.7439 21.9508H28.2679V20.3604C28.2679 19.9819 27.965 19.6757 27.5929 19.6738H16.4186C16.0464 19.6757 15.7436 19.9819 15.7436 20.3604L15.7439 21.9508ZM1.03785 17.8905H13.0439L13.0421 16.5545H1.03789L1.03785 17.8905ZM13.0439 18.9446L1.03785 18.9464V42.7028C1.03603 42.7084 1.03785 42.7139 1.0415 42.7195L1.04697 42.7251C1.05245 42.7307 1.05974 42.7344 1.06704 42.7344H13.0129C13.022 42.7344 13.0293 42.7307 13.0348 42.7251C13.0402 42.7177 13.0439 42.7102 13.0439 42.701L13.0439 18.9446ZM1.03785 15.4986H13.0439L13.0421 11.3252C13.0403 11.1842 12.9308 11.071 12.7922 11.071H1.28768C1.15086 11.071 1.03957 11.1842 1.03957 11.3252V15.4986H1.03785ZM1.28779 10.0132H1.31515L1.31333 9.12432C1.31515 7.73256 2.42436 6.60246 3.79446 6.60061H5.212V3.11008H2.06498H2.0668C1.88984 3.10822 1.71835 3.04513 1.58333 2.93007C1.56508 2.91523 1.54866 2.90038 1.53407 2.88554C1.39177 2.7408 1.31332 2.54595 1.31332 2.34369V0.764529C1.31332 0.562261 1.39359 0.367414 1.53407 0.224538C1.67454 0.0797944 1.8661 0 2.06495 0H15.2531C15.4647 0 15.6636 0.0909297 15.8059 0.248661L18.6592 3.38661C18.7942 3.53692 18.8672 3.73362 18.858 3.93587C18.8507 4.13814 18.765 4.32927 18.6172 4.46845L17.4788 5.53917C17.3329 5.67649 17.1395 5.75071 16.9388 5.74329C16.74 5.73401 16.5521 5.6468 16.4171 5.49649L14.2497 3.11011H8.86623V6.6025H10.2838V6.60065C11.652 6.60436 12.7613 7.7326 12.7631 9.12436V10.0151H12.7904C13.5001 10.0169 14.0766 10.6015 14.0766 11.3252V42.7028C14.0766 42.9904 13.9635 43.2651 13.7646 43.4673C13.564 43.6715 13.2921 43.7865 13.0094 43.7865H1.06726C0.784483 43.7865 0.512653 43.6715 0.31379 43.4673C0.301019 43.4562 0.288248 43.4414 0.277302 43.4284C0.0985165 43.2298 0 42.97 0 42.701V11.3253C0.00182424 10.6016 0.576508 10.017 1.28617 10.0152L1.28779 10.0132ZM6.24817 3.11022H7.82806V6.60261L6.24817 6.60075V3.11022ZM2.35132 10.0151H11.7303V9.12437C11.7285 8.31531 11.0827 7.65841 10.2873 7.65656H3.79782C3.0006 7.65841 2.35478 8.31531 2.35291 9.12437V10.0151H2.35132ZM26.0226 18.6159V17.9126C26.0207 17.2464 25.4898 16.7064 24.8349 16.7045H19.1777C18.5228 16.7064 17.9918 17.2464 17.99 17.9126V18.6196L26.0226 18.6159Z" fill="#202020"/>
</svg>
