<svg width="45" height="45" viewBox="0 0 45 45" fill="none" xmlns="http://www.w3.org/2000/svg">
<path fill-rule="evenodd" clip-rule="evenodd" d="M19.8538 24.5193H4.2965C4.08404 24.5193 3.89125 24.6052 3.74962 24.7458C3.60995 24.8845 3.52143 25.0779 3.52143 25.2888V40.7346C3.52143 40.9456 3.60799 41.137 3.74962 41.2776C3.8893 41.4163 4.08406 41.5042 4.2965 41.5042H19.8538C20.0662 41.5042 20.259 41.4182 20.4006 41.2776C20.5403 41.1389 20.6288 40.9456 20.6288 40.7346V25.2888C20.6288 25.0779 20.5423 24.8864 20.4006 24.7458C20.261 24.6072 20.0662 24.5193 19.8538 24.5193ZM19.8538 6.48387H4.2965C4.08404 6.48387 3.89125 6.56981 3.74962 6.71044C3.60995 6.84911 3.52143 7.04247 3.52143 7.2534V22.6992C3.52143 22.9102 3.60799 23.1016 3.74962 23.2422C3.8893 23.3809 4.08406 23.4688 4.2965 23.4688H19.8538C20.0662 23.4688 20.259 23.3828 20.4006 23.2422C20.5403 23.1035 20.6288 22.9102 20.6288 22.6992V7.2534C20.6288 7.04246 20.5423 6.85104 20.4006 6.71044C20.261 6.57176 20.0662 6.48387 19.8538 6.48387ZM7.21043 30.1639C7.13371 30.0408 7.06682 29.908 7.00977 29.7713C6.89567 29.4881 6.83272 29.1775 6.83272 28.8494C6.83272 28.1619 7.11601 27.5349 7.5744 27.0817C8.0308 26.6286 8.66231 26.3454 9.35479 26.3454H14.7944C15.4868 26.3454 16.1183 26.6266 16.5748 27.0817C17.0312 27.5349 17.3164 28.1619 17.3164 28.8494C17.3164 29.1775 17.2535 29.488 17.1394 29.7713C17.0843 29.908 17.0174 30.0408 16.9407 30.1639C16.4922 29.8279 15.961 29.5955 15.3846 29.4998C15.4003 29.4647 15.4161 29.4295 15.4299 29.3944C15.5479 29.0721 15.5341 28.7283 15.3669 28.3982C15.2233 28.115 14.9656 27.8513 14.58 27.6346C13.6613 27.117 11.8652 26.8181 8.92035 27.2185C8.63116 27.2576 8.42656 27.5213 8.46591 27.8104C8.50526 28.0975 8.77084 28.3006 9.06199 28.2615C11.7453 27.8963 13.3093 28.1268 14.0588 28.5487C14.2516 28.658 14.3697 28.7674 14.4228 28.8709C14.4523 28.9276 14.4543 28.9842 14.4366 29.035C14.3834 29.1776 14.2084 29.3201 13.9349 29.4256L13.87 29.451H11.4168C11.4168 29.4256 11.4325 29.3827 11.468 29.3162C11.6057 29.0604 11.5093 28.742 11.2516 28.6033C10.9938 28.4666 10.6732 28.5623 10.5335 28.8182C10.4115 29.0408 10.3564 29.2518 10.3545 29.451H9.35707C8.5544 29.451 7.81081 29.7166 7.21276 30.162L7.21043 30.1639ZM14.7959 34.9765C15.4884 34.9765 16.1199 35.2578 16.5763 35.7129C17.0327 36.166 17.318 36.793 17.318 37.4805C17.318 38.168 17.0347 38.795 16.5763 39.2481C16.1199 39.7013 15.4884 39.9845 14.7959 39.9845H9.35635C8.66388 39.9845 8.03239 39.7033 7.57596 39.2481C7.11956 38.795 6.83428 38.168 6.83428 37.4805C6.83428 36.793 7.11757 36.166 7.57596 35.7129C8.03236 35.2597 8.66388 34.9765 9.35635 34.9765H14.7959ZM17.5796 35.2441C18.0793 35.8554 18.3802 36.6347 18.3802 37.4805C18.3802 38.459 17.9769 39.3497 17.3278 39.9942C16.6786 40.6388 15.7835 41.0391 14.7959 41.0391H9.35635C8.37077 41.0391 7.47368 40.6387 6.82451 39.9942C6.1753 39.3496 5.77205 38.461 5.77205 37.4805C5.77205 36.6348 6.07305 35.8574 6.5727 35.2441C6.37204 34.9999 6.20483 34.7304 6.07695 34.4413C5.88219 34.0019 5.77203 33.5174 5.77203 33.0116C5.77203 32.2362 6.02581 31.5174 6.45272 30.9314C6.28157 30.6951 6.13796 30.4392 6.02779 30.1658C5.86254 29.7576 5.77205 29.3143 5.77205 28.8533C5.77205 27.8748 6.17533 26.9841 6.82451 26.3396C7.47372 25.695 8.3688 25.2947 9.35635 25.2947H14.7959C15.7815 25.2947 16.6786 25.6951 17.3278 26.3396C17.977 26.9842 18.3802 27.8728 18.3802 28.8533C18.3802 29.3142 18.2897 29.7576 18.1245 30.1658C18.0143 30.4393 17.8707 30.6951 17.6976 30.9314C18.1264 31.5174 18.3802 32.2381 18.3802 33.0135C18.3802 33.5213 18.272 34.0038 18.0753 34.4433C17.9455 34.7323 17.7783 35.0019 17.5796 35.246L17.5796 35.2441ZM9.3565 33.9218C8.61679 33.9218 7.92829 34.1464 7.35578 34.5312C7.23381 34.373 7.13151 34.2011 7.04888 34.0156C6.91118 33.709 6.83642 33.3671 6.83642 33.0097C6.83642 32.3222 7.1197 31.6953 7.5781 31.2421C8.0345 30.789 8.66601 30.5057 9.35849 30.5057H14.7981C15.4905 30.5057 16.122 30.787 16.5785 31.2421C17.0349 31.6952 17.3201 32.3222 17.3201 33.0097C17.3201 33.3672 17.2434 33.7089 17.1077 34.0156C17.025 34.1992 16.9227 34.373 16.8008 34.5312C16.3365 34.2187 15.7955 34.0117 15.2132 33.9453C15.3096 33.8242 15.3844 33.6913 15.4355 33.5566C15.5536 33.2343 15.5398 32.8906 15.3726 32.5605C15.229 32.2772 14.9712 32.0135 14.5857 31.7968C13.667 31.2792 11.8709 30.9804 8.92601 31.3808C8.63682 31.4198 8.43223 31.6835 8.47157 31.9726C8.51092 32.2597 8.7765 32.4628 9.06766 32.4238C11.751 32.0585 13.315 32.289 14.0645 32.7109C14.2573 32.8203 14.3753 32.9296 14.4284 33.0331C14.458 33.0898 14.4599 33.1464 14.4422 33.1972C14.3891 33.3398 14.214 33.4824 13.9406 33.5878C13.3091 33.832 12.5635 33.914 11.9949 33.832C11.7785 33.8007 11.6035 33.748 11.4874 33.6757C11.4481 33.6503 11.4225 33.6308 11.4225 33.621C11.4205 33.5917 11.4343 33.5449 11.4717 33.4785C11.6094 33.2226 11.513 32.9043 11.2553 32.7655C10.9975 32.6288 10.6769 32.7245 10.5372 32.9804C10.3956 33.2402 10.3424 33.4843 10.3621 33.7128C10.368 33.7851 10.3818 33.8554 10.4015 33.9218H9.3565ZM9.06141 36.8926C8.77222 36.9316 8.50466 36.7285 8.46533 36.4414C8.42598 36.1543 8.63058 35.8886 8.91976 35.8496C11.8648 35.4492 13.6609 35.748 14.5794 36.2656C14.965 36.4824 15.2227 36.7461 15.3663 37.0293C15.5335 37.3594 15.5473 37.7012 15.4293 38.0254C15.2739 38.4492 14.8824 38.8203 14.3178 39.0391C13.5191 39.3477 12.5689 39.4512 11.8371 39.3457C11.479 39.293 11.1583 39.1895 10.9105 39.0332C10.5899 38.8301 10.3872 38.5469 10.3557 38.1836C10.3361 37.9551 10.3892 37.7109 10.5308 37.4512C10.6685 37.1953 10.9912 37.0996 11.2489 37.2363C11.5066 37.373 11.603 37.6934 11.4653 37.9492C11.4279 38.0176 11.4141 38.0645 11.4161 38.0918C11.4181 38.1016 11.4417 38.1211 11.481 38.1465C11.5951 38.2188 11.7722 38.2715 11.9886 38.3028C12.5571 38.3848 13.3027 38.3028 13.9342 38.0586C14.2076 37.9531 14.3827 37.8106 14.4358 37.668C14.4535 37.6172 14.4516 37.5606 14.4221 37.5039C14.3689 37.4004 14.2509 37.2891 14.0581 37.1816C13.3086 36.7598 11.7446 36.5293 9.06128 36.8945L9.06141 36.8926ZM18.0243 11.0735C17.8649 11.3509 17.739 11.5696 17.7115 11.7942C17.6859 12.0071 17.7941 12.2044 17.9672 12.3059C19.002 13.011 18.6184 13.6732 18.3273 14.1771C18.0735 14.6126 17.859 14.9857 18.0263 15.431C18.0695 15.5462 18.1482 15.6361 18.2446 15.6947C18.3017 15.7337 18.3509 15.7943 18.3882 15.8685C18.4807 16.0443 18.5141 16.2806 18.4945 16.5287C18.4748 16.7845 18.4 17.0365 18.2761 17.2298C18.2033 17.3431 18.1148 17.433 18.0125 17.4857C17.7528 17.6185 17.6505 17.9369 17.7843 18.1947C17.8177 18.2611 17.8649 18.3158 17.9181 18.3588C18.04 18.476 18.2761 18.8685 18.3804 19.3276C18.4197 19.4994 18.4374 19.6733 18.4138 19.8334C18.3941 19.9662 18.345 20.0912 18.2564 20.1948C18.1305 20.3373 17.9181 20.4565 17.5837 20.5326C17.3771 20.5795 17.2256 20.7416 17.1843 20.935C17.1174 21.2241 17.0348 21.4213 16.9443 21.5503C16.8794 21.6421 16.8204 21.6772 16.7672 21.6792C16.6708 21.6831 16.5469 21.6323 16.421 21.5581C16.1456 21.396 15.9056 21.1479 15.7993 21.0288C15.6065 20.81 15.2721 20.7885 15.0518 20.9799C15.0006 21.0249 14.9593 21.0776 14.9298 21.1342C14.8983 21.1948 14.8393 21.2514 14.7665 21.2983C14.5619 21.4292 14.259 21.4936 13.9422 21.4975C13.6176 21.5014 13.293 21.4409 13.0531 21.3178C12.9468 21.2631 12.8662 21.2026 12.8249 21.1362L12.8229 21.1323C12.4865 20.6186 12.3075 20.769 11.9888 21.0561C11.9455 21.0932 11.859 21.1713 11.7547 21.2417C11.4026 21.478 10.6806 21.7358 9.9035 20.5893C9.83268 20.4838 9.73038 20.4116 9.61628 20.3783V20.3764C9.34676 20.2963 9.26217 20.3666 9.09891 20.4936C8.9553 20.6049 8.39072 21.0405 7.80839 21.2143C7.35592 21.3491 6.86804 21.2807 6.64181 20.5287C6.5946 20.3744 6.48443 20.2572 6.34672 20.1967C5.37489 19.769 5.38471 19.1557 5.59719 18.6791C5.79195 18.2455 6.12639 17.8841 6.21885 17.7845C6.36837 17.6243 6.45099 17.5423 6.36837 17.2513C6.32902 17.1165 6.24049 17.0071 6.12836 16.9427C5.25489 16.345 5.44767 15.6751 5.75458 15.2219C5.96115 14.9173 6.22279 14.679 6.32115 14.5911C6.67723 14.2688 6.86803 14.0891 6.29558 13.718L6.27591 13.7063C6.05754 13.5637 5.86278 13.3411 5.73688 13.1008C5.66803 12.968 5.62278 12.8352 5.61491 12.7161C5.60901 12.6321 5.61885 12.5598 5.65032 12.509C5.67393 12.4739 5.71327 12.4387 5.77426 12.4075C6.03393 12.2746 6.13623 11.9563 6.00246 11.6984C5.96901 11.634 5.92377 11.5793 5.87065 11.5344C5.77622 11.4406 5.61687 11.1301 5.52441 10.7375C5.47917 10.5382 5.45753 10.3292 5.48507 10.1359C5.50867 9.96792 5.56769 9.80972 5.68179 9.6808C5.82146 9.5226 6.04967 9.39174 6.39985 9.31166C6.60641 9.26478 6.75789 9.10267 6.7992 8.9093C6.89756 8.49132 7.03724 8.23739 7.19659 8.10068C7.27725 8.03037 7.36971 7.99131 7.46414 7.97373C7.57233 7.9542 7.6884 7.96396 7.80054 7.98935C8.11136 8.05966 8.36711 8.22764 8.45368 8.32725C8.64647 8.54601 8.98092 8.56749 9.20125 8.37608C9.2524 8.33115 9.29371 8.27842 9.32322 8.22178C9.34093 8.18662 9.36257 8.16318 9.38814 8.14756C9.46093 8.10068 9.5829 8.09092 9.72651 8.10849C9.92127 8.13193 10.1357 8.2042 10.3403 8.30967C10.6393 8.46397 10.901 8.67296 11.0348 8.87998C11.3495 9.37023 11.5285 9.22764 11.859 8.97373C11.9161 8.93076 12.0164 8.85264 12.1462 8.7667C12.7285 8.37802 14.0289 7.70418 14.865 8.93858C14.9358 9.04405 15.0401 9.11632 15.1542 9.14952V9.15148C15.404 9.2257 15.4965 9.16124 15.6558 9.04405C15.8781 8.87999 17.3044 7.82918 18.166 8.78428C18.8802 9.57335 18.347 10.5011 18.0205 11.0695L18.0243 11.0735ZM18.9588 8.08709C20.1824 9.44257 19.4152 10.7727 18.945 11.593L18.8938 11.6829C20.324 12.8391 19.7161 13.89 19.244 14.7025C19.1673 14.8353 19.0925 14.9408 19.0512 15.0033C19.1634 15.1165 19.2558 15.2455 19.3306 15.39C19.5135 15.7435 19.5863 16.1791 19.5529 16.6068C19.5214 17.0267 19.3896 17.4525 19.1673 17.7982C19.1102 17.8881 19.0473 17.9721 18.9765 18.0483C19.1496 18.3354 19.3227 18.7084 19.4132 19.0952C19.4801 19.3823 19.5057 19.687 19.4644 19.9838C19.4171 20.3061 19.2912 20.6167 19.0532 20.8882C18.8388 21.1304 18.5417 21.3335 18.1365 21.4702C18.046 21.7554 17.9358 21.98 17.8119 22.1558C17.5286 22.5542 17.1764 22.7144 16.8046 22.73C16.4761 22.7417 16.1614 22.6284 15.882 22.4644C15.7128 22.3648 15.5535 22.2456 15.4177 22.1265C15.3902 22.146 15.3646 22.1636 15.3351 22.1812C14.9574 22.4195 14.4557 22.5386 13.956 22.5464C13.4662 22.5523 12.9606 22.4527 12.5691 22.2515C12.4885 22.2105 12.4137 22.1655 12.3429 22.1148C11.7271 22.5249 10.5468 22.9956 9.35855 21.6089C9.04576 21.8179 8.59724 22.0777 8.11522 22.2222C7.19456 22.4957 6.205 22.3921 5.70531 21.0581C4.16495 20.2827 4.2279 19.1518 4.62923 18.2553C4.76497 17.9506 4.94399 17.6811 5.10137 17.4741C4.01149 16.476 4.36166 15.3979 4.87514 14.638C4.99121 14.4662 5.11514 14.3158 5.22728 14.1908C5.05613 14.0072 4.90661 13.8001 4.79645 13.5853C4.66464 13.3314 4.57808 13.0599 4.55841 12.7962C4.5348 12.4974 4.59382 12.2044 4.76103 11.9466C4.78267 11.9134 4.80628 11.8802 4.83185 11.849C4.69808 11.6048 4.57021 11.2982 4.49545 10.9759C4.42463 10.6673 4.39316 10.3294 4.4384 9.99932C4.48758 9.63994 4.62529 9.29226 4.8889 8.9915C5.11514 8.73563 5.42792 8.52079 5.85091 8.37819C6.00829 7.88599 6.23649 7.54222 6.50209 7.31176C6.74406 7.10082 7.0116 6.98559 7.2831 6.93871C7.54081 6.89379 7.79654 6.91137 8.03853 6.96606C8.31788 7.03051 8.58148 7.14965 8.79788 7.28052L8.82346 7.26489C9.12248 7.07543 9.48249 7.02075 9.85628 7.06567C10.1789 7.10473 10.5173 7.21802 10.8301 7.37817C11.0996 7.51685 11.3553 7.69459 11.5678 7.89379C12.3704 7.36057 14.0859 6.49141 15.4196 7.93871C16.1711 7.47385 17.7548 6.75313 18.9607 8.08715L18.9588 8.08709ZM10.5922 12.7434C10.3325 12.8782 10.0138 12.7786 9.87803 12.5208C9.74229 12.263 9.84262 11.9466 10.1023 11.8118L11.021 11.3352C11.2807 11.2004 11.5993 11.3 11.7351 11.5579C11.8709 11.8157 11.7705 12.1321 11.5109 12.2669L10.5922 12.7434ZM14.2946 15.9877C14.0073 15.9349 13.8165 15.6615 13.8696 15.3763C13.9227 15.0911 14.1982 14.9017 14.4854 14.9544L15.6028 15.1614C15.89 15.2142 16.0809 15.4876 16.0278 15.7728C15.9746 16.058 15.6992 16.2474 15.412 16.1947L14.2946 15.9877ZM9.0811 17.8139C8.80569 17.7162 8.66011 17.4135 8.75848 17.14C8.85684 16.8665 9.16176 16.722 9.4372 16.8197L10.6313 17.2435C10.9067 17.3412 11.0523 17.6439 10.954 17.9174C10.8556 18.1908 10.5507 18.3354 10.2752 18.2377L9.0811 17.8139ZM41.2537 14.5228V39.0408C41.2537 40.3885 40.697 41.6151 39.8019 42.5038C38.9068 43.3925 37.6713 43.9452 36.3139 43.9452H6.00219C4.64478 43.9452 3.40936 43.3925 2.51423 42.5038C1.61915 41.6151 1.0624 40.3885 1.0624 39.0408V8.94265C1.0624 7.59497 1.61915 6.3684 2.51423 5.47968C3.40931 4.59101 4.64478 4.03825 6.00219 4.03825H25.0747C24.9331 4.18669 24.8209 4.36052 24.7403 4.55781C24.6321 4.81758 24.5789 5.11057 24.5868 5.42698H22.4642C21.9586 5.42698 21.5002 5.63206 21.1678 5.96214L21.1599 5.96995L21.152 5.96214C20.8195 5.63205 20.3612 5.42698 19.8556 5.42698H4.29633C3.79075 5.42698 3.33236 5.63206 2.99992 5.96214C2.66745 6.29223 2.4609 6.74731 2.4609 7.24927V22.6951C2.4609 23.1971 2.66746 23.6522 2.99992 23.9822L3.00779 23.99L2.99992 23.9979C2.66745 24.3279 2.4609 24.783 2.4609 25.285V40.7308C2.4609 41.2328 2.66746 41.6879 2.99992 42.018C3.33238 42.348 3.79075 42.5531 4.29633 42.5531H19.8536C20.3592 42.5531 20.8176 42.348 21.15 42.018L21.1579 42.0101L21.1657 42.018C21.4982 42.348 21.9566 42.5531 22.4622 42.5531H38.0194C38.525 42.5531 38.9834 42.348 39.3158 42.018C39.6483 41.6879 39.8548 41.2328 39.8548 40.7308V15.2223C40.4116 14.9957 40.8739 14.7594 41.2535 14.5192L41.2537 14.5228ZM34.7243 4.01655C34.8581 3.73334 35.0155 3.47944 35.1905 3.25678C35.5112 2.85248 35.8928 2.55166 36.2942 2.37591C36.727 2.18645 37.1814 2.13763 37.6122 2.25286C37.8877 2.32513 38.1473 2.46381 38.3795 2.66889C38.5604 2.46576 38.7277 2.27435 38.8772 2.10053C40.0359 0.764546 40.3487 0.403238 41.7612 0.9501C42.8609 1.37589 42.8491 2.68649 42.8392 3.72751C42.8373 3.96189 42.8353 4.17869 42.8491 4.34667C43.5258 4.35644 44.0393 4.55176 44.3973 4.87014C44.7514 5.1846 44.9442 5.6065 44.9894 6.08306C45.0308 6.51471 44.9501 6.99323 44.7593 7.47174C44.358 8.48347 43.451 9.55579 42.1723 10.2472L42.2038 10.298C42.4045 10.63 42.6602 11.0558 42.7861 11.5734C42.9396 12.2023 42.8943 12.9113 42.314 13.6184V39.0389C42.314 40.6776 41.6392 42.1679 40.5513 43.248C39.4634 44.3281 37.9624 44.998 36.3118 44.998L6.00212 45C4.35161 45 2.85058 44.3301 1.76266 43.25C0.674747 42.1698 0 40.6796 0 39.0409V8.94271C0 7.30402 0.674747 5.81374 1.76266 4.73362C2.85058 3.65349 4.35156 2.98358 6.00212 2.98358H26.4027C26.4282 1.6398 26.804 0.83898 27.3391 0.409321C27.6794 0.13588 28.0768 0.0128271 28.49 0.00110689C28.8696 -0.0106119 29.2572 0.0714183 29.6192 0.214001C30.2428 0.456192 30.8212 0.899567 31.1812 1.34488C31.4901 1.13198 31.7989 1.00698 32.0999 0.962058C32.5838 0.887836 33.0324 1.01284 33.4239 1.28824C33.776 1.53629 34.0731 1.91325 34.2973 2.37421C34.5216 2.83906 34.6731 3.40158 34.7282 4.01485L34.7243 4.01655ZM31.1498 35.4487C31.0947 34.8823 30.9039 34.3296 30.5793 33.8433C30.5655 33.8257 30.5537 33.8081 30.5419 33.7886C30.357 33.521 30.1327 33.2749 29.8691 33.06C29.694 32.9175 29.5091 32.7944 29.3183 32.6889C29.3006 32.6811 29.2829 32.6714 29.2652 32.6596C28.6376 32.3315 27.9392 32.2026 27.2605 32.2671C26.3654 32.353 25.5037 32.771 24.8801 33.5054C24.8644 33.5288 24.8467 33.5503 24.827 33.5698C24.2211 34.3179 23.9693 35.2398 24.0558 36.1285C24.1424 37.0172 24.5634 37.8727 25.3031 38.4918C25.3267 38.5075 25.3484 38.5251 25.368 38.5446C26.1215 39.1461 27.05 39.3962 27.9451 39.3102C28.795 39.2301 29.6134 38.8473 30.2271 38.1813C30.2389 38.1656 30.2527 38.152 30.2665 38.1383C30.296 38.1071 30.3235 38.0738 30.3511 38.0406C30.9767 37.2867 31.2363 36.3512 31.1498 35.4507L31.1498 35.4487ZM30.7504 39.148C31.618 39.5211 32.5702 39.6129 33.4731 39.4371C34.4843 39.2398 35.4384 38.7066 36.1466 37.8531V37.8511C36.9591 36.8745 37.2954 35.6616 37.1814 34.4936C37.0673 33.3237 36.5066 32.1987 35.521 31.392L35.519 31.3901C34.563 30.6068 33.3865 30.2709 32.2416 30.3529C31.2166 30.4272 30.2193 30.8393 29.4284 31.5698C28.7045 31.2592 27.9215 31.144 27.1563 31.2182C25.9779 31.3315 24.8448 31.8901 24.0323 32.8667C23.2198 33.8452 22.8854 35.0562 22.9975 36.2241C23.1116 37.3941 23.6742 38.5191 24.6579 39.3258C25.6415 40.1324 26.8632 40.4644 28.0396 40.3531C29.0271 40.2594 29.9832 39.8512 30.7445 39.1461L30.7504 39.148ZM31.681 33.6264C31.9702 34.1655 32.1472 34.7514 32.2043 35.3491C32.2397 35.7202 32.2318 36.0952 32.1748 36.4663C32.4089 36.5269 32.6528 36.5327 32.8889 36.4878C33.241 36.4194 33.5696 36.2358 33.8135 35.9429C34.0948 35.605 34.2109 35.1851 34.1715 34.7808C34.1322 34.3764 33.9374 33.9878 33.5991 33.7104C33.2686 33.4409 32.8614 33.3237 32.464 33.353C32.1866 33.3725 31.9151 33.4643 31.681 33.6264ZM30.5419 32.2475C30.7367 32.4057 30.9137 32.5776 31.0751 32.7592C31.4685 32.4916 31.921 32.3373 32.3833 32.3021C33.0404 32.2533 33.7191 32.4467 34.2699 32.8979C34.8365 33.3608 35.1591 34.0092 35.224 34.6811C35.2889 35.353 35.0961 36.0483 34.6299 36.6089C34.2207 37.1011 33.6719 37.4077 33.0915 37.521C32.7 37.5972 32.2908 37.5855 31.8993 37.4819C31.7872 37.7632 31.6456 38.0347 31.4744 38.2964C32.0587 38.4859 32.6784 38.5191 33.2705 38.4038C34.0397 38.2534 34.7617 37.855 35.3047 37.2183C35.3204 37.1948 35.3381 37.1733 35.3578 37.1538C35.9637 36.4057 36.2155 35.4839 36.1289 34.5951C36.0424 33.7064 35.6214 32.851 34.8817 32.2318C34.8581 32.2162 34.8364 32.1986 34.8167 32.1791C34.0869 31.595 33.1918 31.3431 32.3203 31.4075C31.6357 31.4583 30.9649 31.7044 30.4022 32.138C30.4494 32.1732 30.4967 32.2103 30.5439 32.2493L30.5419 32.2475ZM28.6475 34.5913C28.6258 34.5756 28.6062 34.56 28.5865 34.5424C28.2521 34.2807 27.8428 34.1733 27.4475 34.2124C27.054 34.2495 26.6723 34.4331 26.395 34.7514C26.3793 34.7729 26.3635 34.7924 26.3458 34.812C26.0822 35.144 25.974 35.5503 26.0133 35.9428C26.0507 36.3335 26.2357 36.7124 26.5563 36.9878C26.5779 37.0034 26.5976 37.019 26.6173 37.0366C26.9517 37.2983 27.3609 37.4057 27.7563 37.3667C28.1498 37.3296 28.5314 37.146 28.8088 36.8276C28.8245 36.8061 28.8403 36.7866 28.858 36.7671C29.1216 36.435 29.2298 36.0288 29.1904 35.6362C29.153 35.2456 28.9681 34.8666 28.6475 34.5913ZM29.3301 33.7885L29.2908 33.7553C28.7262 33.2924 28.0239 33.101 27.3491 33.1654C26.6881 33.2279 26.0507 33.5365 25.5864 34.0737L25.553 34.1127C25.0867 34.6733 24.8939 35.3705 24.9589 36.0405C25.0218 36.6968 25.3326 37.3296 25.8736 37.7905L25.913 37.8237C26.4776 38.2867 27.1799 38.4781 27.8547 38.4136C28.5157 38.3511 29.1531 38.0425 29.6173 37.5054L29.6508 37.4663C30.117 36.9058 30.3098 36.2085 30.2449 35.5385C30.1819 34.8823 29.8711 34.2495 29.3301 33.7885ZM27.3924 12.944C27.416 12.9362 27.4396 12.9304 27.4632 12.9245C28.5471 12.5905 29.7334 12.4479 30.8547 12.5632C31.1931 12.5983 31.5256 12.6354 31.8522 12.6804C31.6495 11.8209 31.4902 10.903 31.3938 10.028C31.2738 8.92833 31.2541 7.88731 31.3682 7.09039C31.4646 6.42438 31.864 5.80131 32.3735 5.40091C32.6568 5.17825 32.9794 5.01808 33.3099 4.95168C33.4279 4.92824 33.5479 4.91457 33.6679 4.91652C33.7329 4.1196 33.5991 3.38329 33.3355 2.83247C33.1899 2.53169 33.0089 2.29536 32.8023 2.15081C32.6351 2.03362 32.4482 1.97893 32.2515 2.00823C32.0076 2.04534 31.7301 2.2055 31.4312 2.51604C31.3426 2.6176 31.2148 2.68792 31.0672 2.69768C30.7761 2.71917 30.5203 2.50236 30.4987 2.21134C30.479 1.9418 29.8967 1.45937 29.2259 1.19767C28.9839 1.10392 28.738 1.04922 28.5157 1.05508C28.3268 1.06094 28.1478 1.11368 28.0003 1.23282C27.6363 1.5258 27.4022 2.18989 27.4593 3.43992C27.4632 3.46336 27.4652 3.48875 27.4652 3.51219V3.53172C27.4731 3.68602 27.4868 3.84813 27.5045 4.02001C27.5144 4.08837 27.5124 4.15868 27.4947 4.22705C27.4239 4.5083 27.1347 4.68018 26.8514 4.60986C26.4914 4.52002 26.2082 4.5376 26.0094 4.63721C25.8757 4.70557 25.7734 4.8169 25.7143 4.96144C25.6416 5.13527 25.6219 5.35597 25.6632 5.61575C25.673 5.67435 25.6848 5.73489 25.7006 5.79739C25.7065 5.81497 25.7104 5.83255 25.7143 5.85013C25.8619 6.39309 26.2475 7.02401 26.9183 7.65292C27.0875 7.80527 27.1426 8.05527 27.0383 8.27013C26.9104 8.53186 26.5937 8.64124 26.3301 8.51428C26.0921 8.39904 25.9032 8.38146 25.7537 8.42834C25.6081 8.47521 25.4803 8.59435 25.376 8.75451C25.2481 8.95178 25.1576 9.20569 25.1124 9.47523C25.0219 10.0026 25.0907 10.5651 25.3406 10.9089C25.5963 11.2585 25.9504 11.6472 26.3695 12.0456C26.6803 12.3425 27.0265 12.6432 27.3924 12.9402L27.3924 12.944ZM33.9908 13.0925C34.0085 13.0964 34.0242 13.1003 34.0419 13.1062C34.2544 13.1648 34.4609 13.2292 34.6616 13.2995C35.0767 12.1178 35.838 10.4772 36.6741 9.02988C36.8472 8.73104 37.0223 8.44002 37.2014 8.16266C37.2387 7.5943 37.0577 7.11574 36.9161 6.73878C36.8 6.43018 36.7017 6.17042 36.7017 5.90086C36.7017 5.60984 36.9397 5.3735 37.2328 5.3735C37.526 5.3735 37.764 5.60983 37.764 5.90086C37.764 5.99071 37.8289 6.16454 37.9076 6.37158C37.9686 6.53173 38.0335 6.70557 38.0925 6.89699C38.4132 6.49268 38.7279 6.15867 39.0231 5.92627C39.2513 5.74462 39.5857 5.78368 39.7687 6.01025C39.9516 6.23682 39.9123 6.56886 39.6841 6.75052C39.0703 7.23295 38.3109 8.31695 37.5968 9.55138C37.3962 9.89904 37.1995 10.2584 37.0106 10.6198C37.5516 10.3776 38.0434 10.2955 38.8303 10.3424C39.1214 10.358 39.3457 10.6061 39.33 10.8971C39.3142 11.1862 39.0644 11.4088 38.7713 11.3932C37.7503 11.3346 37.3431 11.5846 36.1981 12.3034C35.9699 12.819 35.7771 13.3015 35.6354 13.7175C35.7161 13.7604 35.7948 13.8034 35.8715 13.8483C36.3929 14.1569 36.8315 14.53 37.166 14.9831C37.8978 14.7976 38.5194 14.6101 39.0486 14.4186C39.1018 14.3874 39.1627 14.364 39.2277 14.3522C40.292 13.9518 40.9451 13.5456 41.3267 13.153C41.3602 13.0983 41.4035 13.0515 41.4546 13.0104C41.8028 12.5846 41.8422 12.1764 41.7556 11.8171C41.669 11.4616 41.4585 11.1119 41.2933 10.8385C41.1182 10.5475 40.9785 10.317 40.9687 10.0651C40.951 9.66467 41.1202 9.42445 41.5766 9.36975C42.6704 8.80529 43.4395 7.91857 43.7701 7.08845C43.9019 6.75836 43.9589 6.44584 43.9334 6.18218C43.9137 5.96343 43.833 5.77983 43.6894 5.65287C43.4947 5.47904 43.1661 5.38138 42.6841 5.39896C42.1274 5.47318 41.8913 5.15091 41.8087 4.59619C41.7733 4.35791 41.7753 4.05323 41.7792 3.71727C41.7851 2.99851 41.793 2.09029 41.3739 1.92818C40.6637 1.65279 40.4552 1.89303 39.6801 2.7856C39.4401 3.06295 39.1548 3.39107 38.7653 3.81102C38.7319 3.85009 38.6906 3.88525 38.6434 3.91454C38.3955 4.06884 38.067 3.99267 37.9135 3.74462C37.7463 3.47703 37.5457 3.32273 37.3371 3.26804C37.1463 3.21726 36.9319 3.24265 36.7194 3.3364C36.4755 3.44383 36.2355 3.63719 36.023 3.90477C35.5843 4.45948 35.2873 5.3091 35.3325 6.36382C35.3482 6.59234 35.2125 6.81305 34.9843 6.89508C34.7089 6.99469 34.4059 6.85211 34.3056 6.58062C34.1954 6.27983 34.0557 6.10209 33.9023 6.02006C33.8885 6.0142 33.8767 6.00834 33.8649 6.00248C33.7626 5.95756 33.6446 5.9517 33.5226 5.97709C33.3573 6.01029 33.1882 6.09623 33.0308 6.22123C32.72 6.46538 32.476 6.8404 32.419 7.23491C32.3167 7.94392 32.3383 8.89509 32.4485 9.91271C32.5547 10.8932 32.7455 11.9264 32.9895 12.86C33.3357 12.9264 33.6702 13.0026 33.9908 13.0905L33.9908 13.0925ZM33.9908 18.0242C34.0085 18.0282 34.0262 18.0321 34.0439 18.0379C34.6458 18.2039 35.2006 18.4129 35.6885 18.6766C36.0288 18.6531 36.3102 18.5906 36.5049 18.4676C36.678 18.3582 36.7882 18.1727 36.8138 17.8797C36.9574 16.321 36.3633 15.362 35.3324 14.7527C35.0275 14.573 34.6872 14.4206 34.3134 14.2898V14.3015C34.3213 14.6355 34.3783 14.9773 34.4255 15.1316C34.5121 15.4089 34.3567 15.7039 34.0773 15.7898C33.798 15.8758 33.5009 15.7214 33.4144 15.4441C33.3455 15.2253 33.2668 14.7585 33.257 14.3249C33.2531 14.2116 33.255 14.1003 33.2629 13.989C33.017 13.9323 32.7632 13.8816 32.5016 13.8366C32.4839 13.8347 32.4662 13.8308 32.4504 13.8269C32.055 13.7585 31.6419 13.7019 31.2189 13.653C31.217 13.7233 31.2209 13.7995 31.2268 13.8776C31.2602 14.3191 31.3822 14.7449 31.4393 14.8738C31.5553 15.1394 31.4314 15.448 31.1638 15.5632C30.8963 15.6785 30.5855 15.5554 30.4694 15.2898C30.3887 15.1023 30.2117 14.5144 30.1704 13.9558C30.1605 13.8268 30.1566 13.696 30.1625 13.5671C29.474 13.5573 28.7736 13.6491 28.1087 13.8249C28.1146 13.9811 28.1264 14.1276 28.15 14.2761C28.1913 14.5476 28.2661 14.8425 28.4038 15.2312C28.5002 15.5046 28.3546 15.8054 28.0772 15.9011C27.8018 15.9968 27.4989 15.8523 27.4025 15.5769C27.2392 15.114 27.1487 14.7605 27.0995 14.4265C27.0858 14.3405 27.0759 14.2565 27.0681 14.1745C26.7749 14.2956 26.4956 14.4343 26.2359 14.5866C25.7186 14.8894 25.2779 15.2468 24.9572 15.6413C24.6601 16.0085 24.4693 16.405 24.428 16.8133C24.3886 17.1922 24.4772 17.5926 24.7231 18.0066H24.7211L24.7231 18.0086C24.8588 18.2371 25.0123 18.4012 25.1815 18.5164C25.2975 18.5945 25.4254 18.6531 25.5651 18.6941C25.6103 18.6668 25.6556 18.6395 25.7028 18.6121C26.2044 18.3191 26.7651 18.0711 27.3592 17.8797C27.3927 17.8641 27.43 17.8543 27.4674 17.8465C28.5514 17.5125 29.7376 17.3699 30.859 17.4852C31.9784 17.6004 33.0446 17.7566 33.9948 18.0145L33.9908 18.0242ZM37.8682 27.8955C37.7108 29.6064 36.259 29.7764 34.4137 29.6084C34.0006 29.5713 33.5697 29.5166 33.1271 29.4619C32.3107 29.3584 31.4608 29.2529 30.6917 29.251C29.83 29.249 28.9782 29.3955 28.1952 29.5283C26.3145 29.8486 24.7821 30.1104 23.8063 28.4697H23.8043C23.4365 27.8505 23.3066 27.2314 23.3696 26.6337C23.4345 26.0126 23.704 25.4325 24.127 24.911C24.2804 24.7216 24.4535 24.5419 24.6443 24.37C24.6345 24.3641 24.6266 24.3583 24.6168 24.3524C24.306 24.1513 24.0345 23.868 23.8043 23.4833C23.4364 22.8641 23.3066 22.2449 23.3695 21.6473C23.4345 21.0262 23.704 20.4461 24.1269 19.9246C24.2705 19.7468 24.4319 19.5769 24.6109 19.4148C24.601 19.409 24.5932 19.4031 24.5833 19.3972C24.2863 19.1961 24.0246 18.9226 23.8062 18.5535H23.8043C23.4364 17.9343 23.3066 17.3151 23.3695 16.7175C23.4344 16.0964 23.7039 15.5163 24.1269 14.9948C24.5282 14.5006 25.0673 14.0592 25.6948 13.692C25.8797 13.5846 26.0706 13.483 26.2712 13.3873C26.0469 13.194 25.8325 13.0025 25.6319 12.8092C25.1715 12.3697 24.7742 11.9342 24.479 11.5279C24.06 10.9537 23.9322 10.0845 24.0639 9.30718C24.1328 8.90092 24.2744 8.51026 24.481 8.18995C24.6974 7.85791 24.9827 7.59814 25.3407 7.45949C25.1066 7.1294 24.9295 6.80127 24.8056 6.48486H22.4547C22.2422 6.48486 22.0494 6.57081 21.9078 6.71143C21.7681 6.8501 21.6796 7.04347 21.6796 7.25439V40.7376C21.6796 40.9486 21.7662 41.14 21.9078 41.2806C22.0475 41.4193 22.2423 41.5072 22.4547 41.5072H38.012C38.2244 41.5072 38.4172 41.4212 38.5588 41.2806C38.6985 41.1419 38.787 40.9486 38.787 40.7376V15.6141C38.4408 15.7254 38.067 15.8348 37.6657 15.9422C37.8644 16.5184 37.9391 17.1903 37.8663 17.9794C37.8073 18.6337 37.524 19.0712 37.0755 19.3583C36.9909 19.413 36.9004 19.4598 36.806 19.5009C37.5968 20.2978 38.008 21.3896 37.8664 22.913C37.8054 23.5869 37.5064 24.0303 37.0342 24.3154C36.9496 24.3662 36.8591 24.4111 36.7667 24.4502C37.5831 25.2491 38.01 26.3545 37.8664 27.9014L37.8682 27.8955ZM34.3134 24.2118V24.2235C34.3212 24.5575 34.3783 24.9013 34.4255 25.0536C34.5121 25.331 34.3567 25.6259 34.0773 25.7118C33.798 25.7978 33.5009 25.6435 33.4143 25.3661C33.3455 25.1474 33.2668 24.6806 33.257 24.2469C33.253 24.1337 33.255 24.0223 33.2629 23.911C32.6294 23.7665 31.9409 23.661 31.2189 23.577C31.2169 23.6473 31.2208 23.7235 31.2268 23.8016C31.2602 24.243 31.3822 24.6688 31.4392 24.7977C31.5553 25.0634 31.4313 25.372 31.1638 25.4872C30.8963 25.6024 30.5854 25.4794 30.4694 25.2138C30.3887 25.0263 30.2116 24.4383 30.1703 23.8797C30.1605 23.7508 30.1566 23.62 30.1625 23.4911C29.4739 23.4813 28.7736 23.5731 28.1087 23.7489C28.1146 23.9051 28.1264 24.0516 28.15 24.2001C28.1913 24.4715 28.266 24.7665 28.4038 25.1552C28.5002 25.4286 28.3546 25.7294 28.0772 25.8251C27.8018 25.9208 27.4988 25.7763 27.4024 25.5009C27.2392 25.038 27.1487 24.6844 27.0995 24.3504C27.0857 24.2645 27.0759 24.1805 27.068 24.0985C26.7749 24.2196 26.4955 24.3582 26.2359 24.5106C25.7185 24.8133 25.2778 25.1708 24.9571 25.5653C24.6601 25.9325 24.4693 26.329 24.4279 26.7372C24.3886 27.1162 24.4771 27.5166 24.723 27.9306H24.7211L24.723 27.9326C25.325 28.9462 26.5349 28.7392 28.0221 28.4853C28.8405 28.3467 29.7317 28.1943 30.6976 28.1943C31.5337 28.1963 32.417 28.3076 33.2649 28.4131C33.6957 28.4678 34.1167 28.5205 34.5141 28.5557C35.7653 28.6689 36.743 28.6123 36.8178 27.7939C36.9614 26.2353 36.3673 25.2763 35.3364 24.6669C35.0315 24.4872 34.6912 24.3349 34.3174 24.204L34.3134 24.2118ZM33.9907 23.0126C34.0084 23.0165 34.0262 23.0223 34.0439 23.0262C34.6085 23.1825 35.1298 23.3739 35.594 23.6161C35.9659 23.6005 36.2747 23.5419 36.4872 23.413C36.6682 23.3036 36.7862 23.1161 36.8137 22.8153C36.9573 21.2567 36.3632 20.2976 35.3324 19.6883C35.0275 19.5086 34.6872 19.3562 34.3134 19.2254V19.2371C34.3212 19.5711 34.3783 19.9129 34.4255 20.0672C34.5121 20.3446 34.3567 20.6395 34.0773 20.7254C33.7979 20.8114 33.5009 20.6571 33.4143 20.3797C33.3455 20.161 33.2668 19.6942 33.257 19.2605C33.253 19.1473 33.255 19.0359 33.2629 18.9246C32.6294 18.7801 31.9409 18.6746 31.2189 18.5906C31.2169 18.6609 31.2208 18.7371 31.2267 18.8152C31.2602 19.2566 31.3822 19.6824 31.4392 19.8113C31.5553 20.077 31.4313 20.3856 31.1638 20.5008C30.8962 20.616 30.5854 20.493 30.4694 20.2274C30.3887 20.0399 30.2116 19.4519 30.1703 18.8933C30.1605 18.7644 30.1566 18.6336 30.1625 18.5047C29.4739 18.4949 28.7736 18.5867 28.1087 18.7625C28.1146 18.9187 28.1264 19.0652 28.15 19.2136C28.1913 19.4851 28.266 19.7801 28.4038 20.1688C28.5001 20.4422 28.3546 20.743 28.0772 20.8387C27.8018 20.9344 27.4988 20.7899 27.4024 20.5145C27.2392 20.0516 27.1487 19.698 27.0995 19.364C27.0857 19.2781 27.0759 19.1941 27.068 19.1121C26.7749 19.2332 26.4955 19.3718 26.2359 19.5242C25.7185 19.8269 25.2778 20.1844 24.9571 20.5789C24.6601 20.9461 24.4693 21.3426 24.4279 21.7508C24.3886 22.1298 24.4752 22.5321 24.723 22.9481C24.8627 23.1825 25.024 23.3505 25.203 23.4677C25.3329 23.5517 25.4745 23.6103 25.628 23.6493C25.6535 23.6337 25.6771 23.62 25.7027 23.6044C26.2044 23.3114 26.767 23.0634 27.3592 22.872C27.3926 22.8564 27.43 22.8466 27.4654 22.8388C28.5493 22.5048 29.7356 22.3622 30.8589 22.4774C31.9783 22.5927 33.0445 22.7489 33.9928 23.0068L33.9907 23.0126Z" fill="#202020"/>
</svg>
