<svg width="45" height="45" viewBox="0 0 45 45" fill="none" xmlns="http://www.w3.org/2000/svg">
<path d="M0.775391 8.86694H5.81836C6.02839 8.86694 6.19605 8.93702 6.31055 9.05151C6.42494 9.16593 6.49501 9.33293 6.49512 9.54272V20.5056H14.7412C16.6256 20.5057 18.21 22.09 18.21 23.9744V24.2771L18.3467 24.2224C18.7206 24.0728 19.1735 23.9968 19.6289 23.9968H38.5039V21.3367C38.5039 21.1266 38.574 20.959 38.6885 20.8445C38.803 20.73 38.9706 20.6599 39.1807 20.6599H44.2227C44.4327 20.6599 44.6003 20.73 44.7148 20.8445C44.8294 20.959 44.8994 21.1267 44.8994 21.3367V44.2244C44.8993 44.4342 44.8293 44.6011 44.7148 44.7156C44.6004 44.83 44.4335 44.9001 44.2236 44.9001H39.1807C38.9706 44.9001 38.803 44.8301 38.6885 44.7156C38.5741 44.6011 38.5049 44.4341 38.5049 44.2244V40.865H6.49512V44.2244C6.49505 44.4342 6.42492 44.6011 6.31055 44.7156C6.19605 44.8301 6.02839 44.9001 5.81836 44.9001H0.775391C0.565577 44.9 0.398592 44.83 0.28418 44.7156C0.169787 44.6011 0.0996759 44.4342 0.0996094 44.2244V9.54272C0.099712 9.33291 0.169767 9.16593 0.28418 9.05151C0.398592 8.9371 0.565577 8.86705 0.775391 8.86694ZM1.45117 43.5486H5.14258V10.2195H1.45117V43.5486ZM39.8564 43.5486H43.5479V22.0125H39.8564V43.5486ZM6.49414 39.5134H38.5049V35.2791H17.0684C16.8584 35.2791 16.6907 35.2099 16.5762 35.0955C16.4617 34.981 16.3926 34.8133 16.3926 34.6033V27.9089H6.49414V39.5134ZM19.6289 25.2712C18.5596 25.2712 17.7441 26.175 17.7441 27.2332V33.9275H38.5039V25.2712H19.6289ZM14.6406 21.9343H6.49414V26.6345H16.4521L16.4678 26.5544C16.5424 26.1814 16.6921 25.8823 16.8477 25.571L16.8584 25.5496V23.9744C16.8584 22.8329 15.8817 21.8572 14.7402 21.8572H14.6416L14.6406 21.9343Z" fill="#202020" stroke="#F8F7F3" stroke-width="0.2"/>
<path d="M22.4994 0.0996094C25.654 0.0996094 28.6541 1.33148 30.8851 3.5625C31.1563 3.83379 31.1564 4.23558 30.8851 4.50684C30.7501 4.64177 30.5439 4.70979 30.4135 4.70996C30.283 4.70996 30.076 4.64194 29.9408 4.50684C27.9823 2.54819 25.3186 1.45222 22.4994 1.45215C19.8564 1.45215 17.3498 2.41514 15.433 4.14941L15.058 4.50684C14.7867 4.77797 14.3849 4.77796 14.1136 4.50684C13.8424 4.23558 13.8425 3.83379 14.1136 3.5625C16.3446 1.33148 19.3448 0.0996109 22.4994 0.0996094Z" fill="#202020" stroke="#F8F7F3" stroke-width="0.2"/>
<path d="M16.2856 5.73486C19.7378 2.28259 25.2601 2.28259 28.7124 5.73486C28.9837 6.00615 28.9837 6.40792 28.7124 6.6792C28.6408 6.75083 28.5734 6.80106 28.5005 6.8335C28.428 6.86573 28.3445 6.8833 28.2397 6.8833C28.0382 6.88321 27.9041 6.81884 27.6782 6.66846C24.7679 3.77029 20.1358 3.77335 17.23 6.6792C16.9587 6.95048 16.5569 6.95046 16.2856 6.6792C16.0144 6.40791 16.0144 6.00615 16.2856 5.73486Z" fill="#202020" stroke="#F8F7F3" stroke-width="0.2"/>
<path d="M18.458 7.98413C20.6688 5.77356 24.2521 5.77342 26.4629 7.98413C26.7342 8.25542 26.7342 8.65815 26.4629 8.92944C26.3912 9.00113 26.323 9.05033 26.25 9.08276C26.1775 9.11497 26.0949 9.13257 25.9902 9.13257C25.8598 9.13255 25.6528 9.06462 25.5176 8.92944C23.8493 7.26121 21.0706 7.26115 19.4023 8.92944C19.1311 9.20048 18.7292 9.20047 18.458 8.92944C18.1867 8.65815 18.1867 8.25542 18.458 7.98413Z" fill="#202020" stroke="#F8F7F3" stroke-width="0.2"/>
<path d="M22.4989 10.762C21.8231 10.7621 21.3134 11.2726 21.3134 11.9485C21.3135 12.6242 21.8232 13.1339 22.4989 13.134C23.1747 13.134 23.6853 12.6243 23.6854 11.9485C23.6854 11.2726 23.1748 10.762 22.4989 10.762ZM21.8231 14.3606L21.7567 14.3372C20.7068 13.9622 19.9608 12.9883 19.9608 11.8704C19.9609 10.4517 21.0802 9.33239 22.4989 9.33228C23.9177 9.33228 25.0369 10.4515 25.037 11.8704C25.037 13.0686 24.2895 14.0375 23.2479 14.3352L23.1747 14.3557V18.3879C23.1746 18.5977 23.1054 18.7647 22.9911 18.8792C22.8766 18.9936 22.7089 19.0637 22.4989 19.0637C22.289 19.0637 22.1221 18.9936 22.0077 18.8792C21.8932 18.7647 21.8232 18.5979 21.8231 18.3879V14.3606Z" fill="#202020" stroke="#F8F7F3" stroke-width="0.2"/>
</svg>
