<svg width="252" height="55" viewBox="0 0 252 55" fill="none" xmlns="http://www.w3.org/2000/svg">
<path d="M74.448 26.819H74.6274C74.793 26.819 74.9517 26.757 75.0966 26.6192C75.2415 26.4883 75.3657 26.3229 75.4761 26.1162C75.5865 25.9094 75.6624 25.6958 75.7107 25.4684C75.759 25.241 75.7866 25.0343 75.7866 24.8414V15.0563H64.257V24.8414C64.257 25.0343 64.2777 25.241 64.3329 25.4684C64.3812 25.6958 64.4502 25.9094 64.5468 26.0955C64.6434 26.2884 64.7538 26.4538 64.8918 26.5985C65.0229 26.7432 65.1885 26.8121 65.3817 26.8121H65.5611V27.1705H60.5173V26.8121H60.6967C60.8623 26.8121 61.021 26.7501 61.1659 26.6123C61.3108 26.4814 61.435 26.316 61.5454 26.1093C61.6558 25.9025 61.7317 25.6889 61.78 25.4615C61.8283 25.2341 61.8559 25.0274 61.8559 24.8345V5.6572C61.8559 5.49182 61.8283 5.29887 61.78 5.07837C61.7317 4.86475 61.6627 4.65802 61.5661 4.46508C61.4695 4.27214 61.3522 4.11365 61.2073 3.98272C61.0624 3.85179 60.8968 3.78289 60.7036 3.78289H60.5242V3.42456H65.568V3.78289H65.3886C65.1954 3.78289 65.0298 3.85179 64.8849 3.98272C64.74 4.11365 64.6296 4.27903 64.5399 4.46508C64.4571 4.65802 64.3881 4.85786 64.3398 5.07837C64.2915 5.29198 64.2639 5.48493 64.2639 5.6572V13.7884H75.7935V5.6572C75.7935 5.49182 75.7659 5.29887 75.7176 5.07837C75.6693 4.86475 75.6003 4.65802 75.5037 4.46508C75.4071 4.27214 75.2898 4.11365 75.1449 3.98272C75 3.85179 74.8344 3.78289 74.6412 3.78289H74.4618V3.42456H79.5056V3.78289H79.3262C79.133 3.78289 78.9674 3.85179 78.8225 3.98272C78.6776 4.11365 78.5672 4.27903 78.4775 4.46508C78.3947 4.65802 78.3257 4.85786 78.2774 5.07837C78.2291 5.29198 78.2015 5.48493 78.2015 5.6572V24.8345C78.2015 25.0274 78.2291 25.2341 78.2912 25.4615C78.3533 25.6889 78.4292 25.9025 78.5258 26.0886C78.6224 26.2815 78.7328 26.4469 78.8708 26.5916C79.0019 26.7363 79.1537 26.8052 79.3193 26.8052H79.4987V27.1636H74.4549V26.8052L74.448 26.819Z" fill="white"/>
<path d="M86.0879 26.819H86.2673C86.4605 26.819 86.6261 26.757 86.771 26.6192C86.9159 26.4883 87.0401 26.3229 87.1505 26.1299C87.2609 25.937 87.3437 25.7372 87.4058 25.5166C87.4679 25.303 87.4955 25.0963 87.4955 24.9034V5.6503C87.4955 5.48492 87.4679 5.29198 87.4058 5.07147C87.3437 4.85785 87.2609 4.65113 87.1505 4.45818C87.0401 4.26524 86.9159 4.10675 86.771 3.97582C86.6261 3.8449 86.4605 3.77599 86.2673 3.77599H86.0879V3.41766H99.9565V6.76662H99.5978C99.5495 6.21535 99.3356 5.73299 98.9492 5.31265C98.5628 4.89231 97.9625 4.68558 97.1483 4.68558H89.9035V13.7884H95.8856C96.4376 13.7884 96.8999 13.623 97.2725 13.2854C97.6451 12.9477 97.8314 12.5549 97.8314 12.1001H98.1902V16.5999H97.8314C97.8314 16.1658 97.652 15.7936 97.2932 15.4836C96.9344 15.1735 96.4652 15.015 95.8856 15.015H89.9035V25.9163H97.7969C98.2523 25.9163 98.6525 25.8061 98.9837 25.5924C99.3218 25.3788 99.6046 25.117 99.8323 24.8207C100.06 24.5175 100.226 24.1936 100.336 23.8491C100.446 23.5045 100.495 23.2082 100.495 22.967H100.854V27.1773H86.081V26.819H86.0879Z" fill="white"/>
<path d="M126.549 26.819H126.728C126.894 26.819 127.053 26.7501 127.197 26.6054C127.342 26.4607 127.467 26.2953 127.577 26.1024C127.687 25.9094 127.763 25.7027 127.812 25.4753C127.86 25.2479 127.881 25.0412 127.881 24.8482V5.91906L118.586 27.5839L109.762 7.03538V24.8482C109.762 25.0412 109.782 25.2479 109.831 25.4753C109.879 25.7027 109.955 25.9163 110.065 26.1024C110.176 26.2953 110.3 26.4607 110.445 26.6054C110.59 26.7501 110.755 26.819 110.948 26.819H111.128V27.1774H107.202V26.819H107.381C107.547 26.819 107.705 26.7501 107.85 26.6054C107.995 26.4607 108.113 26.2953 108.209 26.1024C108.306 25.9094 108.375 25.7027 108.423 25.4753C108.471 25.2479 108.492 25.0412 108.492 24.8482V5.67099C108.492 5.50561 108.471 5.31267 108.423 5.09216C108.375 4.87854 108.306 4.67182 108.209 4.47887C108.113 4.28593 107.995 4.12744 107.85 3.99651C107.705 3.86559 107.547 3.79668 107.381 3.79668H107.202V3.43835H110.879L119.235 23.1186L127.591 3.43835H131.662V3.79668H131.482C131.289 3.79668 131.123 3.86559 130.979 3.99651C130.834 4.12744 130.709 4.29282 130.599 4.47887C130.489 4.67182 130.413 4.87165 130.364 5.09216C130.316 5.30578 130.295 5.49872 130.295 5.67099V24.8482C130.295 25.0412 130.316 25.2479 130.364 25.4753C130.413 25.7027 130.489 25.9163 130.599 26.1024C130.709 26.2953 130.834 26.4607 130.979 26.6054C131.123 26.7501 131.289 26.819 131.482 26.819H131.662V27.1774H126.549V26.819Z" fill="white"/>
<path d="M138.761 26.8191H138.941C139.134 26.8191 139.3 26.7571 139.444 26.6193C139.589 26.4884 139.714 26.323 139.824 26.13C139.934 25.9371 140.017 25.7372 140.079 25.5167C140.141 25.3031 140.169 25.0964 140.169 24.9035V5.65039C140.169 5.48501 140.141 5.29207 140.079 5.07156C140.017 4.85794 139.934 4.65122 139.824 4.45827C139.714 4.26533 139.589 4.10684 139.444 3.97591C139.3 3.84499 139.134 3.77608 138.941 3.77608H138.761V3.41776H152.63V6.76671H152.271C152.223 6.21544 152.009 5.73308 151.623 5.31274C151.236 4.8924 150.636 4.68567 149.822 4.68567H142.577V13.7885H148.559C149.111 13.7885 149.573 13.6231 149.946 13.2855C150.319 12.9478 150.505 12.555 150.505 12.1002H150.864V16.6H150.505C150.505 16.1658 150.325 15.7937 149.967 15.4837C149.608 15.1736 149.139 15.0151 148.559 15.0151H142.577V25.9164H150.47C150.926 25.9164 151.326 25.8062 151.657 25.5925C151.995 25.3789 152.278 25.1171 152.506 24.8208C152.734 24.5176 152.899 24.1937 153.009 23.8492C153.12 23.5046 153.168 23.2083 153.168 22.9671H153.527V27.1774H138.754V26.8191H138.761Z" fill="white"/>
<path d="M159.799 26.819H159.978C160.192 26.819 160.372 26.7501 160.516 26.6054C160.661 26.4607 160.772 26.2953 160.861 26.1024C160.944 25.9094 161.006 25.7027 161.041 25.4753C161.075 25.2479 161.096 25.0412 161.096 24.8483V5.77436C161.096 5.60897 161.075 5.40225 161.041 5.16107C161.006 4.91989 160.944 4.70627 160.861 4.51333C160.779 4.32038 160.661 4.155 160.516 4.0103C160.372 3.86559 160.192 3.79668 159.978 3.79668H159.799V3.43835H164.877V3.79668H164.518C164.325 3.82424 164.166 3.90693 164.028 4.05164C163.897 4.19635 163.794 4.36173 163.725 4.55467C163.656 4.74762 163.601 4.95434 163.559 5.18174C163.525 5.40914 163.504 5.60897 163.504 5.77436V25.9232H174.351V5.77436C174.351 5.60897 174.33 5.40914 174.295 5.18174C174.261 4.95434 174.199 4.74762 174.116 4.55467C174.033 4.36173 173.916 4.19635 173.771 4.05164C173.626 3.90693 173.461 3.82424 173.267 3.79668H173.053V3.43835H178.063V3.79668H177.738C177.545 3.82424 177.393 3.90693 177.269 4.05164C177.152 4.19635 177.055 4.36173 176.979 4.55467C176.904 4.74762 176.855 4.95434 176.814 5.18174C176.779 5.40914 176.759 5.60897 176.759 5.77436V23.98C176.759 24.4624 176.883 24.9034 177.138 25.3099C177.393 25.7165 177.807 25.9232 178.38 25.9232H180.181V30.423H179.822C179.795 30.1129 179.719 29.7683 179.588 29.3962C179.456 29.0241 179.263 28.6796 179.015 28.3557C178.76 28.0318 178.449 27.7562 178.076 27.5288C177.704 27.3014 177.269 27.1843 176.759 27.1843H159.792V26.8259L159.799 26.819Z" fill="white"/>
<path d="M185.963 26.819H186.142C186.335 26.819 186.501 26.7501 186.646 26.6054C186.791 26.4607 186.915 26.2953 187.025 26.1024C187.136 25.9094 187.212 25.7027 187.26 25.4753C187.308 25.2479 187.336 25.0412 187.336 24.8483V5.67099C187.336 5.50561 187.308 5.31267 187.26 5.09216C187.212 4.87854 187.136 4.67182 187.025 4.47887C186.915 4.28593 186.791 4.12744 186.646 3.99651C186.501 3.86559 186.342 3.79668 186.177 3.79668H185.997V3.43835H191.11V3.79668H190.931C190.737 3.79668 190.572 3.86559 190.427 3.99651C190.282 4.12744 190.158 4.29282 190.047 4.47887C189.937 4.67182 189.854 4.87165 189.792 5.09216C189.73 5.30578 189.702 5.49872 189.702 5.67099V13.12L198.058 4.80964C198.251 4.61669 198.348 4.38929 198.348 4.12744C198.348 3.91382 198.251 3.80357 198.058 3.80357V3.44525H201.95V3.80357C201.467 3.83113 201.046 3.97584 200.673 4.23769C200.301 4.49955 199.9 4.85098 199.466 5.2851L190.924 13.8436C192.483 13.8918 193.746 14.2294 194.705 14.8496C195.664 15.4698 196.423 16.3312 196.975 17.4337L199.824 23.1738C199.99 23.5321 200.218 23.9249 200.494 24.3383C200.77 24.7587 201.08 25.1515 201.432 25.5236C201.777 25.8957 202.17 26.2058 202.605 26.4538C203.04 26.7019 203.495 26.8328 203.971 26.8328V27.1911H202.17C201.474 27.1911 200.873 27.0878 200.37 26.8879C199.866 26.6812 199.424 26.4056 199.052 26.061C198.679 25.7165 198.355 25.3237 198.079 24.8896C197.803 24.4555 197.554 24.0282 197.341 23.5941L194.422 17.7989C193.967 16.91 193.332 16.2347 192.531 15.7661C191.724 15.2975 190.786 15.0426 189.702 14.9943V24.8551C189.702 25.0481 189.723 25.2479 189.778 25.4684C189.827 25.682 189.896 25.8957 189.992 26.0955C190.089 26.3022 190.206 26.4676 190.351 26.5985C190.496 26.7295 190.648 26.8121 190.82 26.8328H191.076V27.1911H185.963V26.8328V26.819Z" fill="white"/>
<path d="M223.506 26.819H223.685C224.264 26.819 224.547 26.5572 224.547 26.0266C224.547 25.8336 224.513 25.6338 224.437 25.4133L221.194 16.6688H214.888L211.755 25.2686C211.679 25.4615 211.645 25.6407 211.645 25.8061C211.645 26.1162 211.728 26.3642 211.9 26.5434C212.066 26.7226 212.245 26.8121 212.438 26.8121H212.618V27.1705H208.616V26.8121H208.795C209.106 26.8121 209.416 26.6261 209.713 26.254C210.016 25.8819 210.258 25.4478 210.451 24.9378L218.703 2.99045L226.776 24.7242C226.942 25.2066 227.176 25.6752 227.48 26.1299C227.777 26.5847 228.17 26.8121 228.653 26.8121H228.832V27.1705H223.499V26.8121L223.506 26.819ZM215.253 15.4491H220.801L218.027 7.93119L215.253 15.4491Z" fill="white"/>
<path d="M246.24 26.819H246.419C246.585 26.819 246.751 26.7501 246.902 26.6054C247.061 26.4607 247.185 26.2953 247.282 26.1024C247.378 25.9094 247.454 25.7027 247.516 25.4753C247.579 25.2479 247.606 25.0412 247.606 24.8482V15.0977C247.075 15.1459 246.578 15.3113 246.109 15.6007C245.64 15.8901 245.198 16.2691 244.777 16.7515C244.356 17.2338 243.963 17.7713 243.59 18.3708C243.218 18.9703 242.866 19.5974 242.528 20.2451C242.266 20.7275 241.976 21.2374 241.665 21.7749C241.355 22.3124 241.037 22.8637 240.727 23.4149C240.147 24.4692 239.395 25.3651 238.457 26.0955C237.519 26.8259 236.442 27.1911 235.214 27.1911H233.303V26.8328C233.855 26.8328 234.379 26.7157 234.869 26.4745C235.359 26.2333 235.814 25.937 236.221 25.5718C236.629 25.2135 236.994 24.8138 237.318 24.3866C237.643 23.9524 237.912 23.5459 238.126 23.16L240.975 18.047C241.313 17.4681 241.679 16.91 242.072 16.3725C242.466 15.835 243.073 15.394 243.894 15.0563C242.887 14.9874 241.983 14.7945 241.189 14.4775C240.396 14.1674 239.727 13.7608 239.175 13.2509C238.623 12.7479 238.202 12.176 237.912 11.542C237.622 10.908 237.477 10.2396 237.477 9.54364C237.477 8.65472 237.684 7.83471 238.091 7.07672C238.498 6.31872 239.078 5.67098 239.823 5.13349C240.568 4.59601 241.472 4.17566 242.542 3.87247C243.611 3.57616 244.805 3.42456 246.13 3.42456H251.318V3.78289H251.139C250.973 3.78289 250.815 3.85179 250.67 3.98272C250.525 4.11365 250.407 4.27903 250.311 4.46508C250.214 4.65802 250.145 4.85786 250.097 5.07837C250.049 5.29198 250.021 5.48493 250.021 5.6572V24.8345C250.021 25.0274 250.042 25.2341 250.097 25.4615C250.145 25.6889 250.214 25.9025 250.311 26.0886C250.407 26.2815 250.525 26.4469 250.67 26.5916C250.815 26.7363 250.973 26.8052 251.139 26.8052H251.318V27.1636H246.24V26.8052V26.819ZM239.789 9.00616C239.789 9.70213 239.934 10.343 240.216 10.9287C240.506 11.5144 240.9 12.0244 241.403 12.4585C241.907 12.8926 242.493 13.2234 243.163 13.4645C243.832 13.7057 244.563 13.8229 245.35 13.8229H247.613V4.64424H247.075C244.757 4.64424 242.963 5.03013 241.693 5.79502C240.423 6.5599 239.796 7.62798 239.796 8.99926L239.789 9.00616Z" fill="white"/>
<path d="M65.7336 33.6755C64.8229 33.6755 64.0363 33.8408 63.3739 34.1647C62.7046 34.4886 62.1526 34.9089 61.711 35.4326C61.2695 35.9494 60.9452 36.5352 60.7313 37.1829C60.5174 37.8306 60.407 38.4715 60.407 39.1123C60.407 39.8359 60.545 40.5387 60.8279 41.2347C61.1108 41.9238 61.4971 42.5371 61.9939 43.0677C62.4907 43.5983 63.0703 44.0255 63.7327 44.3494C64.3951 44.6733 65.1126 44.8386 65.8854 44.8386C66.1062 44.8386 66.3684 44.8111 66.6651 44.7628C66.9618 44.7146 67.2654 44.6181 67.5552 44.4803C67.8519 44.3425 68.121 44.1427 68.3763 43.8808C68.6247 43.6259 68.8179 43.2882 68.9558 42.8679H69.1421V44.9076C68.9559 44.9076 68.7626 44.9351 68.5626 44.9834C68.3625 45.0316 68.1348 45.0867 67.8933 45.1487C67.5759 45.2314 67.224 45.3141 66.8376 45.3899C66.4512 45.4657 66.0441 45.5002 65.6163 45.5002C64.5538 45.5002 63.6154 45.3141 62.8012 44.9489C61.9939 44.5837 61.3178 44.1082 60.7796 43.5156C60.2414 42.9299 59.8412 42.2684 59.5721 41.5241C59.303 40.7799 59.1719 40.0357 59.1719 39.2777C59.1719 38.5197 59.303 37.7686 59.5721 37.0175C59.8412 36.2733 60.2483 35.598 60.7934 35.0054C61.3454 34.4128 62.0353 33.9304 62.8702 33.5652C63.7051 33.2 64.6849 33.0139 65.8095 33.0139C66.2166 33.0139 66.5754 33.0484 66.9066 33.1242C67.2309 33.2 67.5207 33.2689 67.7829 33.3447C67.9692 33.4067 68.1348 33.4549 68.2866 33.4825C68.4384 33.5101 68.5902 33.5307 68.735 33.5307V35.5704H68.5488C68.4729 35.1914 68.3418 34.8745 68.1417 34.6264C67.9485 34.3783 67.7139 34.1854 67.4517 34.0476C67.1895 33.9097 66.9066 33.8202 66.6099 33.765C66.3063 33.7099 66.0165 33.6823 65.7336 33.6823V33.6755Z" fill="white"/>
<path d="M72.2745 45.128H72.3642C72.4608 45.128 72.5505 45.0936 72.6195 45.0247C72.6953 44.9557 72.7574 44.8731 72.8126 44.7766C72.8678 44.6801 72.9092 44.5768 72.9437 44.4665C72.9713 44.3562 72.992 44.2529 72.992 44.1564V34.3369C72.992 34.2542 72.9782 34.1509 72.9437 34.0406C72.9161 33.9304 72.8678 33.827 72.8126 33.7305C72.7574 33.6341 72.6953 33.5514 72.6195 33.4825C72.5436 33.4136 72.4608 33.3791 72.3642 33.3791H72.2745V33.1931H79.3537V34.902H79.1674C79.1398 34.6195 79.0294 34.3714 78.8362 34.1578C78.643 33.9442 78.3325 33.8339 77.9185 33.8339H74.2271V38.4783H77.2768C77.5597 38.4783 77.7943 38.3957 77.9875 38.2234C78.1738 38.0511 78.2704 37.8513 78.2704 37.617H78.4567V39.9116H78.2704C78.2704 39.6911 78.1807 39.4982 77.9944 39.3397C77.8081 39.1812 77.5735 39.0985 77.2768 39.0985H74.2271V44.6594H78.2497C78.4843 44.6594 78.6844 44.6043 78.8569 44.4941C79.0294 44.3838 79.1743 44.2529 79.2916 44.1013C79.4089 43.9497 79.4917 43.7843 79.5469 43.6051C79.6021 43.426 79.6297 43.2813 79.6297 43.1572H79.816V45.3072H72.2814V45.1211L72.2745 45.128Z" fill="white"/>
<path d="M92.6223 45.1281H92.7119C92.7947 45.1281 92.8775 45.0936 92.9534 45.0178C93.0293 44.942 93.0914 44.8593 93.1466 44.7629C93.2018 44.6664 93.2432 44.5561 93.2639 44.439C93.2915 44.3218 93.2984 44.2185 93.2984 44.1151V34.461L88.5583 45.514L84.0527 35.033V44.122C84.0527 44.2185 84.0665 44.3287 84.0872 44.4459C84.1148 44.563 84.1493 44.6664 84.2045 44.7697C84.2597 44.8662 84.3218 44.9558 84.3977 45.0247C84.4736 45.0936 84.5564 45.135 84.653 45.135H84.7427V45.321H82.7417V45.135H82.8314C82.9142 45.135 82.997 45.1005 83.0729 45.0247C83.1488 44.9489 83.2109 44.8662 83.2592 44.7697C83.3075 44.6733 83.342 44.563 83.3696 44.4459C83.3972 44.3287 83.4041 44.2254 83.4041 44.122V34.337C83.4041 34.2543 83.3903 34.1509 83.3696 34.0407C83.342 33.9304 83.3075 33.8271 83.2592 33.7306C83.2109 33.6341 83.1488 33.5514 83.0729 33.4825C82.997 33.4136 82.9211 33.3792 82.8314 33.3792H82.7417V33.1931H84.6185L88.8826 43.2331L93.1466 33.1931H95.2235V33.3792H95.1338C95.0372 33.3792 94.9475 33.4136 94.8785 33.4825C94.8026 33.5514 94.7405 33.6341 94.6853 33.7306C94.6301 33.8271 94.5887 33.9304 94.568 34.0407C94.5404 34.1509 94.5335 34.2474 94.5335 34.337V44.122C94.5335 44.2185 94.5473 44.3287 94.568 44.4459C94.5956 44.563 94.6301 44.6664 94.6853 44.7697C94.7405 44.8662 94.8026 44.9558 94.8785 45.0247C94.9544 45.0936 95.0372 45.135 95.1338 45.135H95.2235V45.321H92.6153V45.135L92.6223 45.1281Z" fill="white"/>
<path d="M98.563 45.1281H98.6527C98.7493 45.1281 98.839 45.0936 98.908 45.0247C98.9839 44.9558 99.046 44.8731 99.1012 44.7766C99.1564 44.6802 99.1978 44.5768 99.2323 44.4665C99.2599 44.3563 99.2806 44.2529 99.2806 44.1565V34.337C99.2806 34.2543 99.2668 34.1509 99.2323 34.0407C99.2047 33.9304 99.1564 33.8271 99.1012 33.7306C99.046 33.6341 98.9839 33.5514 98.908 33.4825C98.8321 33.4136 98.7493 33.3792 98.6527 33.3792H98.563V33.1931H105.642V34.902H105.456C105.428 34.6195 105.318 34.3714 105.125 34.1578C104.932 33.9442 104.621 33.834 104.207 33.834H100.516V38.4784H103.565C103.848 38.4784 104.083 38.3957 104.276 38.2234C104.462 38.0512 104.559 37.8513 104.559 37.617H104.745V39.9117H104.559C104.559 39.6912 104.469 39.4982 104.283 39.3397C104.097 39.1813 103.862 39.0986 103.565 39.0986H100.516V44.6595H104.538C104.773 44.6595 104.973 44.6044 105.145 44.4941C105.318 44.3839 105.463 44.2529 105.58 44.1013C105.697 43.9497 105.78 43.7844 105.835 43.6052C105.891 43.426 105.918 43.2813 105.918 43.1573H106.105V45.3072H98.5699V45.1212L98.563 45.1281Z" fill="white"/>
<path d="M116.337 45.128H116.427C116.523 45.128 116.613 45.0936 116.682 45.0247C116.758 44.9558 116.82 44.8731 116.875 44.7697C116.931 44.6664 116.972 44.5561 116.993 44.439C117.02 44.3218 117.027 44.2184 117.027 44.1151V35.7082L110.921 43.9497V44.1151C110.921 44.2116 110.935 44.3218 110.969 44.439C110.997 44.5561 111.038 44.6595 111.086 44.7628C111.135 44.8593 111.197 44.9489 111.273 45.0178C111.349 45.0936 111.431 45.128 111.528 45.128H111.618V45.3141H109.01V45.128H109.099C109.196 45.128 109.286 45.0936 109.355 45.0247C109.43 44.9558 109.493 44.8731 109.548 44.7697C109.603 44.6664 109.644 44.5561 109.665 44.439C109.693 44.3218 109.7 44.2184 109.7 44.1151V34.3301C109.7 34.2474 109.686 34.144 109.665 34.0338C109.637 33.9235 109.603 33.8201 109.548 33.7237C109.493 33.6272 109.43 33.5445 109.355 33.4756C109.279 33.4067 109.196 33.3722 109.099 33.3722H109.01V33.1862H111.618V33.3722H111.473C111.39 33.386 111.307 33.4274 111.245 33.5032C111.176 33.579 111.121 33.6616 111.073 33.7512C111.024 33.8408 110.99 33.9442 110.962 34.0475C110.935 34.1509 110.928 34.2474 110.928 34.3301V42.8127L117.034 34.5712V34.3301C117.034 34.2474 117.02 34.144 117 34.0338C116.972 33.9235 116.937 33.8201 116.882 33.7237C116.827 33.6272 116.765 33.5445 116.689 33.4756C116.613 33.4067 116.53 33.3722 116.434 33.3722H116.344V33.1862H118.952V33.3722H118.863C118.766 33.3722 118.676 33.4067 118.607 33.4756C118.531 33.5445 118.469 33.6272 118.421 33.7237C118.373 33.8201 118.331 33.9235 118.304 34.0338C118.276 34.144 118.255 34.2405 118.255 34.3301V44.1151C118.255 44.2116 118.269 44.3149 118.304 44.4252C118.331 44.5354 118.373 44.6457 118.421 44.749C118.469 44.8524 118.531 44.942 118.607 45.0178C118.683 45.0936 118.766 45.128 118.863 45.128H118.952V45.3141H116.344V45.128H116.337ZM116.027 30.7882C116.027 30.9949 115.978 31.2085 115.882 31.429C115.785 31.6495 115.647 31.8562 115.468 32.0561C115.288 32.249 115.074 32.4144 114.826 32.5315C114.578 32.6556 114.295 32.7176 113.991 32.7176C113.688 32.7176 113.425 32.6625 113.17 32.5453C112.922 32.4282 112.701 32.2766 112.515 32.0974C112.328 31.9114 112.183 31.7046 112.073 31.4704C111.963 31.2361 111.907 31.0087 111.907 30.7882H112.018C112.032 30.864 112.066 30.9673 112.135 31.0982C112.204 31.2361 112.308 31.367 112.459 31.5048C112.604 31.6426 112.804 31.7529 113.046 31.8562C113.294 31.9527 113.598 32.001 113.964 32.001C114.329 32.001 114.654 31.9527 114.895 31.8562C115.137 31.7598 115.33 31.6426 115.475 31.5048C115.62 31.367 115.723 31.2361 115.785 31.0982C115.847 30.9604 115.889 30.8571 115.916 30.7882H116.027Z" fill="white"/>
<path d="M129.571 45.1281H129.661C129.744 45.1281 129.826 45.0936 129.902 45.0247C129.978 44.9558 130.04 44.8731 130.096 44.7697C130.151 44.6664 130.192 44.5561 130.213 44.439C130.24 44.3218 130.247 44.2185 130.247 44.1151V39.1192H124.362V44.1151C124.362 44.2116 124.376 44.3218 124.396 44.439C124.424 44.5561 124.458 44.6595 124.507 44.7628C124.555 44.8593 124.617 44.9489 124.679 45.0178C124.748 45.0936 124.831 45.1281 124.928 45.1281H125.017V45.3141H122.444V45.1281H122.533C122.616 45.1281 122.699 45.0936 122.775 45.0247C122.851 44.9558 122.913 44.8731 122.968 44.7697C123.023 44.6664 123.065 44.5561 123.085 44.439C123.113 44.3218 123.12 44.2185 123.12 44.1151V34.3301C123.12 34.2474 123.106 34.144 123.085 34.0338C123.058 33.9235 123.023 33.8202 122.975 33.7237C122.927 33.6272 122.865 33.5445 122.789 33.4756C122.713 33.4067 122.63 33.3723 122.533 33.3723H122.444V33.1862H125.017V33.3723H124.928C124.831 33.3723 124.741 33.4067 124.672 33.4756C124.596 33.5445 124.541 33.6272 124.5 33.7237C124.458 33.8202 124.424 33.9235 124.396 34.0338C124.369 34.144 124.362 34.2405 124.362 34.3301V38.4784H130.247V34.3301C130.247 34.2474 130.234 34.144 130.213 34.0338C130.185 33.9235 130.151 33.8202 130.102 33.7237C130.054 33.6272 129.992 33.5445 129.916 33.4756C129.84 33.4067 129.757 33.3723 129.661 33.3723H129.571V33.1862H132.145V33.3723H132.055C131.959 33.3723 131.869 33.4067 131.8 33.4756C131.724 33.5445 131.669 33.6272 131.627 33.7237C131.586 33.8202 131.551 33.9235 131.524 34.0338C131.496 34.144 131.489 34.2405 131.489 34.3301V44.1151C131.489 44.2116 131.503 44.3218 131.538 44.439C131.565 44.5561 131.607 44.6595 131.655 44.7628C131.703 44.8593 131.765 44.9489 131.827 45.0178C131.896 45.0936 131.972 45.1281 132.055 45.1281H132.145V45.3141H129.571V45.1281Z" fill="white"/>
<path d="M142.239 45.1282H142.329C142.626 45.1282 142.77 44.9972 142.77 44.7216C142.77 44.6251 142.75 44.5218 142.715 44.4115L141.059 39.9531H137.844L136.243 44.3426C136.209 44.4391 136.188 44.5356 136.188 44.6182C136.188 44.7767 136.229 44.9008 136.319 44.9972C136.402 45.0868 136.499 45.1351 136.595 45.1351H136.685V45.3211H134.642V45.1351H134.732C134.891 45.1351 135.05 45.0386 135.201 44.8525C135.353 44.6665 135.477 44.4391 135.581 44.1841L139.79 32.9865L143.909 44.0739C143.992 44.3219 144.116 44.5562 144.268 44.7905C144.419 45.0248 144.62 45.142 144.868 45.142H144.958V45.328H142.239V45.142V45.1282ZM138.03 39.3261H140.859L139.445 35.4879L138.03 39.3261Z" fill="white"/>
<path d="M153.547 45.1278H153.637C153.719 45.1278 153.802 45.0934 153.885 45.0176C153.968 44.9418 154.03 44.8591 154.078 44.7626C154.126 44.6661 154.168 44.5559 154.195 44.4387C154.223 44.3216 154.244 44.2182 154.244 44.1148V39.1397C153.975 39.1672 153.719 39.2499 153.478 39.3946C153.236 39.5393 153.009 39.7392 152.795 39.9803C152.581 40.2284 152.381 40.504 152.188 40.8072C151.994 41.1104 151.815 41.4343 151.642 41.7651C151.504 42.0131 151.36 42.2681 151.201 42.5437C151.042 42.8194 150.883 43.095 150.725 43.3775C150.428 43.915 150.042 44.3698 149.566 44.7419C149.09 45.114 148.538 45.3001 147.91 45.3001H146.937V45.114C147.22 45.114 147.489 45.052 147.737 44.928C147.986 44.8039 148.22 44.6523 148.427 44.4663C148.634 44.2802 148.82 44.0804 148.986 43.8599C149.152 43.6394 149.29 43.4327 149.4 43.2328L150.849 40.6281C151.021 40.3318 151.208 40.0492 151.408 39.7736C151.608 39.498 151.918 39.2775 152.339 39.1052C151.822 39.0707 151.366 38.9674 150.959 38.8089C150.552 38.6504 150.214 38.4437 149.931 38.1818C149.648 37.9269 149.435 37.6306 149.29 37.3067C149.145 36.9828 149.069 36.6452 149.069 36.2868C149.069 35.832 149.172 35.4117 149.379 35.0327C149.586 34.6468 149.883 34.316 150.263 34.0404C150.642 33.7648 151.104 33.5512 151.649 33.3996C152.194 33.248 152.802 33.1722 153.478 33.1722H156.127V33.3582H156.038C155.955 33.3582 155.872 33.3927 155.796 33.4616C155.72 33.5305 155.658 33.6132 155.61 33.7097C155.562 33.8061 155.527 33.9095 155.499 34.0197C155.472 34.13 155.465 34.2265 155.465 34.3161V44.1011C155.465 44.1975 155.479 44.3078 155.499 44.4249C155.527 44.5421 155.562 44.6454 155.61 44.7488C155.658 44.8453 155.72 44.9349 155.796 45.0038C155.872 45.0796 155.948 45.114 156.038 45.114H156.127V45.3001H153.533V45.114L153.547 45.1278ZM150.256 36.0388C150.256 36.3971 150.331 36.721 150.476 37.0242C150.621 37.3205 150.821 37.5823 151.084 37.8028C151.339 38.0233 151.636 38.1956 151.981 38.3196C152.319 38.4437 152.691 38.5057 153.098 38.5057H154.251V33.8268H153.975C152.788 33.8268 151.877 34.0197 151.228 34.4125C150.58 34.8053 150.256 35.3497 150.256 36.0457V36.0388Z" fill="white"/>
<path d="M165.754 45.1281H165.843C165.94 45.1281 166.03 45.0936 166.099 45.0178C166.168 44.942 166.237 44.8593 166.292 44.7628C166.347 44.6664 166.389 44.5561 166.409 44.439C166.437 44.3218 166.444 44.2185 166.444 44.1151V34.3301C166.444 34.2474 166.43 34.144 166.409 34.0338C166.382 33.9235 166.347 33.8202 166.292 33.7237C166.237 33.6272 166.175 33.5445 166.099 33.4756C166.023 33.4067 165.947 33.3723 165.857 33.3723H165.768V33.1862H168.376V33.3723H168.286C168.189 33.3723 168.1 33.4067 168.031 33.4756C167.955 33.5445 167.893 33.6272 167.837 33.7237C167.782 33.8202 167.741 33.9235 167.706 34.0338C167.679 34.144 167.658 34.2405 167.658 34.3301V38.1338L171.922 33.896C172.019 33.7995 172.067 33.6823 172.067 33.5445C172.067 33.4343 172.019 33.3792 171.922 33.3792V33.1931H173.909V33.3792C173.668 33.3929 173.447 33.4618 173.261 33.5997C173.068 33.7375 172.867 33.9097 172.647 34.1371L168.293 38.5059C169.086 38.5335 169.735 38.6989 170.225 39.0159C170.715 39.3329 171.101 39.7739 171.384 40.332L172.833 43.2606C172.916 43.4467 173.033 43.6396 173.171 43.8533C173.309 44.0669 173.468 44.2667 173.647 44.4596C173.827 44.6457 174.027 44.8042 174.247 44.9351C174.468 45.066 174.703 45.1281 174.944 45.1281V45.3141H174.027C173.668 45.3141 173.364 45.2659 173.109 45.1556C172.854 45.0523 172.626 44.9076 172.44 44.7353C172.246 44.5561 172.081 44.3563 171.943 44.1358C171.805 43.9153 171.674 43.6948 171.563 43.4743L170.073 40.5181C169.838 40.0633 169.521 39.7187 169.107 39.4776C168.693 39.2364 168.217 39.1055 167.665 39.0848V44.1151C167.665 44.2116 167.679 44.3149 167.699 44.4252C167.727 44.5355 167.762 44.6457 167.81 44.7491C167.858 44.8524 167.92 44.942 167.996 45.004C168.072 45.0729 168.148 45.1143 168.238 45.1212H168.369V45.3072H165.761V45.1212L165.754 45.1281Z" fill="white"/>
<path d="M179.153 44.0257C179.043 44.3426 178.87 44.6389 178.636 44.9077C178.401 45.1764 178.063 45.3143 177.608 45.3143H177.035V45.1282C177.111 45.1282 177.207 45.1075 177.332 45.0662C177.456 45.0248 177.58 44.9559 177.718 44.8526C177.856 44.7561 177.987 44.6321 178.125 44.4736C178.263 44.322 178.374 44.129 178.477 43.8947L181.948 34.3854C182.01 34.1993 182.037 34.0615 182.037 33.965C182.037 33.779 181.982 33.6411 181.879 33.5309C181.775 33.4275 181.665 33.3724 181.554 33.3724V33.1863H183.059L187.178 44.4184C187.24 44.5907 187.357 44.7492 187.53 44.887C187.702 45.0317 187.888 45.1075 188.102 45.1144V45.3005H185.473V45.1144C185.57 45.1144 185.674 45.0731 185.777 44.9973C185.881 44.9146 185.936 44.8112 185.936 44.6734C185.936 44.639 185.922 44.5838 185.901 44.508L182.444 34.9986L179.153 44.0119V44.0257Z" fill="white"/>
<path d="M198.32 45.1281H198.41C198.506 45.1281 198.596 45.0936 198.665 45.0247C198.741 44.9558 198.803 44.8731 198.858 44.7697C198.914 44.6664 198.955 44.5561 198.976 44.439C199.003 44.3218 199.01 44.2185 199.01 44.1151V35.7083L192.904 43.9497V44.1151C192.904 44.2116 192.918 44.3218 192.952 44.439C192.98 44.5561 193.021 44.6595 193.069 44.7628C193.118 44.8593 193.18 44.9489 193.256 45.0178C193.332 45.0936 193.414 45.1281 193.511 45.1281H193.601V45.3141H190.993V45.1281H191.082C191.179 45.1281 191.269 45.0936 191.338 45.0247C191.413 44.9558 191.476 44.8731 191.531 44.7697C191.586 44.6664 191.627 44.5561 191.648 44.439C191.676 44.3218 191.683 44.2185 191.683 44.1151V34.3301C191.683 34.2474 191.669 34.144 191.648 34.0338C191.62 33.9235 191.586 33.8202 191.531 33.7237C191.476 33.6272 191.413 33.5445 191.338 33.4756C191.262 33.4067 191.179 33.3723 191.082 33.3723H190.993V33.1862H193.601V33.3723H193.456C193.373 33.386 193.29 33.4274 193.228 33.5032C193.159 33.579 193.104 33.6617 193.056 33.7513C193.007 33.8408 192.973 33.9442 192.945 34.0476C192.918 34.1509 192.911 34.2474 192.911 34.3301V42.8127L199.017 34.5713V34.3301C199.017 34.2474 199.003 34.144 198.983 34.0338C198.955 33.9235 198.92 33.8202 198.865 33.7237C198.81 33.6272 198.748 33.5445 198.672 33.4756C198.596 33.4067 198.513 33.3723 198.417 33.3723H198.327V33.1862H200.935V33.3723H200.846C200.749 33.3723 200.659 33.4067 200.59 33.4756C200.514 33.5445 200.452 33.6272 200.404 33.7237C200.356 33.8202 200.314 33.9235 200.287 34.0338C200.259 34.144 200.238 34.2405 200.238 34.3301V44.1151C200.238 44.2116 200.252 44.3149 200.287 44.4252C200.314 44.5355 200.356 44.6457 200.404 44.7491C200.452 44.8524 200.514 44.942 200.59 45.0178C200.666 45.0936 200.749 45.1281 200.846 45.1281H200.935V45.3141H198.327V45.1281H198.32Z" fill="white"/>
<path d="M211.561 45.1281H211.651C211.733 45.1281 211.816 45.0936 211.892 45.0247C211.968 44.9558 212.03 44.8731 212.085 44.7697C212.141 44.6664 212.182 44.5561 212.203 44.439C212.23 44.3218 212.237 44.2185 212.237 44.1151V39.1192H206.352V44.1151C206.352 44.2116 206.365 44.3218 206.386 44.439C206.414 44.5561 206.448 44.6595 206.496 44.7628C206.545 44.8593 206.607 44.9489 206.669 45.0178C206.738 45.0936 206.821 45.1281 206.917 45.1281H207.007V45.3141H204.433V45.1281H204.523C204.606 45.1281 204.689 45.0936 204.765 45.0247C204.841 44.9558 204.903 44.8731 204.958 44.7697C205.013 44.6664 205.054 44.5561 205.075 44.439C205.103 44.3218 205.11 44.2185 205.11 44.1151V34.3301C205.11 34.2474 205.096 34.144 205.075 34.0338C205.048 33.9235 205.013 33.8202 204.965 33.7237C204.916 33.6272 204.854 33.5445 204.778 33.4756C204.703 33.4067 204.62 33.3723 204.523 33.3723H204.433V33.1862H207.007V33.3723H206.917C206.821 33.3723 206.731 33.4067 206.662 33.4756C206.586 33.5445 206.531 33.6272 206.49 33.7237C206.448 33.8202 206.414 33.9235 206.386 34.0338C206.359 34.144 206.352 34.2405 206.352 34.3301V38.4784H212.237V34.3301C212.237 34.2474 212.223 34.144 212.203 34.0338C212.175 33.9235 212.141 33.8202 212.092 33.7237C212.044 33.6272 211.982 33.5445 211.906 33.4756C211.83 33.4067 211.747 33.3723 211.651 33.3723H211.561V33.1862H214.135V33.3723H214.045C213.948 33.3723 213.859 33.4067 213.79 33.4756C213.714 33.5445 213.658 33.6272 213.617 33.7237C213.576 33.8202 213.541 33.9235 213.514 34.0338C213.486 34.144 213.479 34.2405 213.479 34.3301V44.1151C213.479 44.2116 213.493 44.3218 213.527 44.439C213.555 44.5561 213.596 44.6595 213.645 44.7628C213.693 44.8593 213.755 44.9489 213.817 45.0178C213.886 45.0936 213.962 45.1281 214.045 45.1281H214.135V45.3141H211.561V45.1281Z" fill="white"/>
<path d="M224.519 45.1281H224.609C224.706 45.1281 224.795 45.0936 224.864 45.0247C224.94 44.9558 225.002 44.8731 225.058 44.7697C225.113 44.6664 225.154 44.5561 225.175 44.439C225.202 44.3218 225.209 44.2185 225.209 44.1151V35.7083L219.103 43.9497V44.1151C219.103 44.2116 219.117 44.3218 219.151 44.439C219.179 44.5561 219.22 44.6595 219.269 44.7628C219.317 44.8593 219.379 44.9489 219.455 45.0178C219.531 45.0936 219.614 45.1281 219.71 45.1281H219.8V45.3141H217.192V45.1281H217.281C217.378 45.1281 217.468 45.0936 217.537 45.0247C217.613 44.9558 217.675 44.8731 217.73 44.7697C217.785 44.6664 217.827 44.5561 217.847 44.439C217.875 44.3218 217.882 44.2185 217.882 44.1151V34.3301C217.882 34.2474 217.868 34.144 217.847 34.0338C217.82 33.9235 217.785 33.8202 217.73 33.7237C217.675 33.6272 217.613 33.5445 217.537 33.4756C217.461 33.4067 217.378 33.3723 217.281 33.3723H217.192V33.1862H219.8V33.3723H219.655C219.572 33.386 219.489 33.4274 219.427 33.5032C219.358 33.579 219.303 33.6617 219.255 33.7513C219.207 33.8408 219.172 33.9442 219.144 34.0476C219.117 34.1509 219.11 34.2474 219.11 34.3301V42.8127L225.216 34.5713V34.3301C225.216 34.2474 225.202 34.144 225.182 34.0338C225.154 33.9235 225.12 33.8202 225.064 33.7237C225.009 33.6272 224.947 33.5445 224.871 33.4756C224.795 33.4067 224.713 33.3723 224.616 33.3723H224.526V33.1862H227.134V33.3723H227.045C226.948 33.3723 226.858 33.4067 226.789 33.4756C226.713 33.5445 226.651 33.6272 226.603 33.7237C226.555 33.8202 226.513 33.9235 226.486 34.0338C226.458 34.144 226.438 34.2405 226.438 34.3301V44.1151C226.438 44.2116 226.451 44.3149 226.486 44.4252C226.513 44.5355 226.555 44.6457 226.603 44.7491C226.651 44.8524 226.713 44.942 226.789 45.0178C226.865 45.0936 226.948 45.1281 227.045 45.1281H227.134V45.3141H224.526V45.1281H224.519Z" fill="white"/>
<path d="M230.418 45.1281H230.508C230.605 45.1281 230.694 45.0936 230.763 45.0178C230.839 44.942 230.901 44.8593 230.956 44.7628C231.012 44.6664 231.053 44.5561 231.074 44.439C231.101 44.3218 231.108 44.2185 231.108 44.1151V34.3301C231.108 34.2474 231.094 34.144 231.074 34.0338C231.046 33.9235 231.012 33.8202 230.956 33.7237C230.901 33.6272 230.839 33.5445 230.763 33.4756C230.687 33.4067 230.611 33.3723 230.522 33.3723H230.432V33.1862H233.04V33.3723H232.951C232.854 33.3723 232.764 33.4067 232.695 33.4756C232.619 33.5445 232.557 33.6272 232.502 33.7237C232.447 33.8202 232.405 33.9235 232.371 34.0338C232.343 34.144 232.323 34.2405 232.323 34.3301V38.1338L236.587 33.896C236.683 33.7995 236.732 33.6823 236.732 33.5445C236.732 33.4343 236.683 33.3792 236.587 33.3792V33.1931H238.574V33.3792C238.332 33.3929 238.112 33.4618 237.925 33.5997C237.732 33.7375 237.532 33.9097 237.311 34.1371L232.957 38.5059C233.751 38.5335 234.399 38.6989 234.889 39.0159C235.379 39.3329 235.766 39.7739 236.049 40.332L237.497 43.2606C237.58 43.4467 237.698 43.6396 237.836 43.8533C237.974 44.0669 238.139 44.2667 238.312 44.4596C238.491 44.6457 238.691 44.8042 238.912 44.9351C239.133 45.066 239.367 45.1281 239.609 45.1281V45.3141H238.691C238.332 45.3141 238.029 45.2659 237.773 45.1556C237.518 45.0523 237.29 44.9076 237.104 44.7353C236.911 44.5561 236.745 44.3563 236.607 44.1358C236.469 43.9153 236.338 43.6948 236.228 43.4743L234.738 40.5181C234.503 40.0633 234.186 39.7187 233.772 39.4776C233.358 39.2364 232.881 39.1055 232.33 39.0848V44.1151C232.33 44.2116 232.343 44.3149 232.364 44.4252C232.392 44.5355 232.426 44.6457 232.474 44.7491C232.523 44.8524 232.585 44.942 232.661 45.004C232.737 45.0729 232.813 45.1143 232.902 45.1212H233.033V45.3072H230.425V45.1212L230.418 45.1281Z" fill="white"/>
<path d="M249.282 45.1282H249.371C249.668 45.1282 249.813 44.9972 249.813 44.7216C249.813 44.6251 249.792 44.5218 249.758 44.4115L248.102 39.9531H244.886L243.286 44.3426C243.251 44.4391 243.231 44.5356 243.231 44.6182C243.231 44.7767 243.272 44.9008 243.362 44.9972C243.444 45.0868 243.541 45.1351 243.638 45.1351H243.727V45.3211H241.685V45.1351H241.775C241.933 45.1351 242.092 45.0386 242.244 44.8525C242.396 44.6665 242.52 44.4391 242.623 44.1841L246.832 32.9865L250.951 44.0739C251.034 44.3219 251.158 44.5562 251.31 44.7905C251.462 45.0248 251.662 45.142 251.91 45.142H252V45.328H249.282V45.142V45.1282ZM245.073 39.3261H247.902L246.487 35.4879L245.073 39.3261Z" fill="white"/>
<path d="M16.0082 18.743C15.6149 16.8686 15.6977 15.139 15.7943 14.2432C15.7943 14.1881 15.8288 14.1468 15.8633 14.1192C15.8909 14.0985 15.9254 14.0916 15.953 14.0916C15.9668 14.0916 15.9875 14.0916 16.0013 14.0916C16.9672 14.3535 18.8992 15.0012 20.6793 16.2829C20.7138 16.0555 20.7552 15.8281 20.8035 15.6076C19.0165 14.3742 17.1328 13.7471 16.1669 13.4852C15.9392 13.4232 15.6977 13.4646 15.5114 13.5955C15.3182 13.7264 15.2009 13.9331 15.1733 14.1674C15.0836 15.0632 15.0008 16.7584 15.3527 18.6258C15.5666 18.6534 15.7874 18.6878 16.0082 18.7292V18.743Z" fill="white"/>
<path d="M23.3142 23.5805C23.4798 23.7941 23.6316 23.9802 23.7558 24.1318C23.7903 24.1731 23.8386 24.2145 23.88 24.2489C23.9352 24.2903 23.9973 24.3179 24.0663 24.3454C24.1422 24.373 24.2181 24.3868 24.294 24.3868C24.3699 24.3868 24.4458 24.373 24.5217 24.3454C24.6321 24.3041 24.7425 24.2421 24.8253 24.1456C24.8253 24.1456 24.8322 24.1387 24.8391 24.1318C24.9909 23.9526 25.1772 23.7183 25.3842 23.4427C25.8534 22.8156 26.4122 21.9543 26.8676 20.9276C27.3713 19.7974 27.7577 18.4744 27.7577 17.0549C27.7577 16.669 27.7301 16.2969 27.6749 15.9248C27.6473 15.7112 27.6128 15.4976 27.5645 15.2908C27.0401 12.8032 25.5498 10.8118 24.8322 9.97109C24.5631 9.65411 24.0249 9.65411 23.7558 9.97109C23.0451 10.8049 21.5755 12.7688 21.0373 15.2219C20.989 15.4286 20.9545 15.6354 20.92 15.849C20.8648 16.2418 20.8303 16.6414 20.8303 17.048C20.8303 18.4744 21.2167 19.7974 21.7204 20.9276C22.2172 22.0301 22.8243 22.9397 23.3073 23.5736L23.3142 23.5805ZM21.4582 16.2624C21.4789 16.0419 21.5134 15.8214 21.5548 15.6009C22.0171 13.1616 23.4936 11.177 24.1974 10.3501C24.2319 10.3087 24.2733 10.3018 24.294 10.3018C24.3147 10.3018 24.3561 10.3018 24.3906 10.3501C25.1013 11.1839 26.6054 13.2029 27.047 15.6836C27.0884 15.9041 27.116 16.1246 27.1367 16.352C27.1574 16.5794 27.1712 16.8137 27.1712 17.048C27.1712 19.2669 26.1707 21.2376 25.2945 22.54C25.1151 22.8088 24.9426 23.0499 24.777 23.2567C24.6321 23.4496 24.4941 23.615 24.3837 23.7459C24.3147 23.8286 24.2595 23.8286 24.1905 23.7459C24.1008 23.6425 24.0042 23.5185 23.9007 23.3876C23.742 23.1878 23.5626 22.9535 23.3763 22.6778C22.4793 21.3755 21.4099 19.3358 21.4099 17.0411C21.4099 16.7724 21.4306 16.5105 21.4582 16.2555V16.2624Z" fill="white"/>
<path d="M22.342 41.5795C20.479 42.2134 19.9271 43.5227 19.9064 43.5847L19.6994 44.0877H29.09L29.0279 43.6674C29.021 43.5985 28.7795 42.0963 26.5647 41.4899V34.9642C34.3822 34.2407 37.1766 29.5549 37.8528 28.1216C37.9494 27.9218 37.9356 27.6944 37.8114 27.5083C37.6596 27.2671 37.3491 27.1155 37.011 27.1155H32.5054C32.9056 26.9708 33.2989 26.8123 33.6853 26.6125C37.0179 24.8898 38.7014 21.465 39.2672 20.0731C39.35 19.8595 39.3431 19.6321 39.2327 19.4322C39.1223 19.2255 38.9222 19.0808 38.6876 19.0395C37.6665 18.8327 35.562 18.5295 33.292 18.8672C33.3058 18.7845 33.3265 18.7018 33.3472 18.626C33.6991 16.7655 33.6163 15.0772 33.5197 14.1814C33.499 13.9471 33.3748 13.7404 33.1816 13.6095C32.9884 13.4785 32.7538 13.4372 32.5261 13.4992C31.5394 13.768 29.6075 14.4157 27.7859 15.6974C27.8342 15.9179 27.8687 16.1453 27.9032 16.3727C29.711 15.029 31.6981 14.3675 32.6917 14.0987C32.7124 14.0987 32.7262 14.0987 32.74 14.0987C32.7814 14.0987 32.8159 14.1125 32.8297 14.1263C32.8504 14.1401 32.8918 14.1814 32.8987 14.2503C32.9884 15.1392 33.0712 16.8619 32.6917 18.7294C32.671 18.819 32.6503 18.9016 32.6296 18.9912C31.7188 19.1773 30.8012 19.4736 29.918 19.9284C26.5854 21.6511 24.9018 25.0759 24.336 26.4678C24.3291 26.4885 24.336 26.5023 24.3291 26.5229C24.3222 26.5023 24.3153 26.4885 24.3084 26.4678C23.7427 25.0759 22.0591 21.6511 18.7265 19.9284C15.4008 18.2126 11.4817 18.7432 9.95682 19.0532C9.72223 19.1015 9.52213 19.2462 9.41173 19.446C9.30824 19.6459 9.29444 19.8801 9.37724 20.0869C9.94302 21.4788 11.6266 24.9105 14.9592 26.6263C15.3456 26.8261 15.7389 26.9915 16.1391 27.1293H11.8819C11.5438 27.1293 11.2333 27.2809 11.0815 27.529C10.9642 27.7219 10.9504 27.9493 11.047 28.1492C11.7508 29.5825 14.6211 34.2476 22.3282 34.978V41.5932L22.342 41.5795ZM15.2559 26.0612C12.1096 24.435 10.5088 21.1687 9.96372 19.8388C9.94302 19.7906 9.95682 19.7492 9.96372 19.7285C9.98442 19.6872 10.0258 19.6596 10.081 19.6459C10.7503 19.508 11.8957 19.3289 13.248 19.3289C14.8488 19.3289 16.7324 19.5838 18.4436 20.4659C21.5899 22.0921 23.1907 25.3584 23.7357 26.6883C23.7564 26.7365 24.3153 27.0673 24.3912 27.0604C24.474 27.0673 24.9018 26.7365 24.9156 26.6883C25.4607 25.3584 27.0615 22.0921 30.2078 20.4659C33.361 18.8396 37.1076 19.3495 38.5704 19.6459C38.6255 19.6596 38.6669 19.6872 38.6876 19.7285C38.7014 19.7492 38.7083 19.7906 38.6876 19.8388C38.1426 21.1687 36.5418 24.435 33.3955 26.0612C32.2501 26.6539 30.2147 26.9846 29.2418 27.1224H18.968C17.7467 26.9984 16.4495 26.6883 15.2421 26.0612H15.2559ZM11.7508 27.8804C11.7508 27.8804 11.8267 27.8529 11.8888 27.8529H37.0179C37.08 27.8529 37.1283 27.8666 37.1628 27.8804C36.4659 29.3206 33.7336 33.6894 26.1783 34.2683L25.8402 34.2958V42.0756L26.13 42.1376C27.3582 42.4064 27.9032 42.9645 28.1378 43.3504H20.9206C21.238 42.9714 21.8245 42.4822 22.8112 42.1996L23.0803 42.1238V34.2889L22.7422 34.2614C15.2835 33.6756 12.4822 29.3137 11.7577 27.8804H11.7508Z" fill="white"/>
<path d="M24.4322 54.9822L24.1838 54.865C8.28668 47.3678 0.600284 36.2735 0 19.949V0H8.64546V3.16979H10.053V0H18.6985V3.16979H20.1061V0H28.7515V3.16979H30.1591V0H38.8046V3.16979H40.2121V0H48.8576V19.9284C48.2297 36.1219 40.3225 47.54 24.6668 54.865L24.4184 54.9822H24.4322ZM1.17297 1.17145V19.9215C1.75945 35.8669 8.94216 46.2928 24.4322 53.6729C39.4807 46.5478 47.0912 35.4948 47.6915 19.8939V1.16455H41.3989V4.33435H37.6316V1.16455H31.339V4.33435H27.5717V1.16455H21.279V4.33435H17.5117V1.16455H11.2191V4.33435H7.4518V1.16455H1.15917L1.17297 1.17145Z" fill="white"/>
<path d="M24.4322 51.4196L24.3011 51.3576C10.8741 44.8595 4.38826 35.2399 3.87768 21.0929V6.68414H44.9799V21.0791C44.4486 35.102 37.7696 45.0042 24.5564 51.3576L24.4253 51.4196H24.4322ZM4.47106 7.27676V21.086C4.97475 35.1296 11.1363 44.2876 24.4322 50.7719C37.3487 44.5219 43.8759 34.8057 44.3934 21.0791V7.28365H4.47106V7.27676Z" fill="white"/>
</svg>
