<svg width="83" height="30" viewBox="0 0 83 30" fill="none" xmlns="http://www.w3.org/2000/svg">
<g clip-path="url(#clip0_684_702)">
<path fill-rule="evenodd" clip-rule="evenodd" d="M29.4759 11.701C28.5888 7.88735 26.1248 4.46804 22.7788 2.43929C19.4536 0.348274 15.2725 -0.258796 11.4649 0.649214C8.04632 1.46383 4.94938 3.54447 2.90032 6.4034C0.524443 9.64111 -0.414495 13.8698 0.316943 17.8132C1.03801 21.9174 3.58507 25.6428 7.1385 27.8117C10.4222 29.8819 14.5359 30.5201 18.3072 29.6588C22.0941 28.8131 25.4971 26.4004 27.5617 23.1108C29.7093 19.7745 30.3889 15.5561 29.4759 11.701ZM23.4688 16.4901C21.4819 17.0297 19.6041 18.0519 18.2501 19.624C16.3204 21.7617 15.4229 24.5895 14.982 27.3758C14.5566 25.0773 13.9756 22.732 12.6061 20.7915C11.2211 18.6278 8.95413 17.1231 6.47969 16.4953C5.90388 12.5779 8.78294 8.81612 12.4868 7.7732C16.6835 6.38784 21.6946 8.86281 23.1264 13.0448C23.5466 14.1396 23.531 15.3382 23.4739 16.4901H23.4688Z" fill="#202020"/>
<path fill-rule="evenodd" clip-rule="evenodd" d="M35.855 6.89116C36.7576 6.00391 38.0389 5.54731 39.2943 5.56806C40.6431 5.55768 42.0437 6.04023 42.9619 7.06239C43.5169 7.66427 43.8438 8.45294 43.9112 9.26755C43.0812 9.26755 42.2564 9.26755 41.4264 9.26755C41.0114 7.8303 39.0246 7.36851 37.8781 8.20907C36.7213 9.03406 36.4879 10.8086 37.2556 11.9708C37.7381 12.7387 38.677 13.2109 39.5848 13.0604C40.4667 12.9826 41.2759 12.3185 41.4264 11.426C42.246 11.4105 43.0656 11.426 43.8853 11.4156C43.8956 12.5779 43.2835 13.7038 42.3446 14.3784C41.4419 15.0477 40.3007 15.3227 39.1906 15.3071C37.9819 15.3071 36.7576 14.8661 35.8861 14.0203C33.9512 12.1888 33.9408 8.73831 35.8446 6.88078L35.855 6.89116Z" fill="#202020"/>
<path fill-rule="evenodd" clip-rule="evenodd" d="M54.7472 9.31416C54.4567 8.0637 53.6527 6.94814 52.5529 6.284C51.4635 5.5991 50.094 5.40193 48.849 5.69768C47.7285 5.9623 46.717 6.6472 46.0478 7.58115C45.2697 8.63963 44.9636 10.025 45.2022 11.317C45.4357 12.6608 46.2709 13.8801 47.4329 14.591C48.5067 15.2707 49.8554 15.4782 51.09 15.1981C52.3299 14.9231 53.4452 14.1292 54.1195 13.0552C54.825 11.9604 55.0429 10.5802 54.7472 9.31934V9.31416ZM52.7812 10.8811C52.1327 11.0575 51.5154 11.3948 51.0745 11.9085C50.4416 12.6089 50.1511 13.5325 50.0059 14.4457C49.8658 13.6934 49.679 12.9254 49.2277 12.2924C48.7712 11.5816 48.0346 11.0939 47.2202 10.8863C47.0334 9.60472 47.9724 8.36983 49.1862 8.03256C50.5609 7.57597 52.2002 8.39058 52.667 9.76038C52.8019 10.1184 52.7967 10.5127 52.7812 10.8863V10.8811Z" fill="#202020"/>
<path fill-rule="evenodd" clip-rule="evenodd" d="M75.2807 6.6057C76.1211 5.92081 77.2364 5.68732 78.2998 5.68732C79.3166 5.69769 80.3956 5.86373 81.2256 6.50193C81.8429 6.96891 82.2008 7.7472 82.149 8.52031C82.1282 9.29341 81.6665 10.0146 80.9973 10.3934C81.5835 10.6321 82.1178 11.0991 82.289 11.7269C82.5328 12.6505 82.2268 13.7141 81.4694 14.3108C80.6135 14.9957 79.4722 15.1773 78.4036 15.1929C77.226 15.2084 75.9551 14.9957 75.0473 14.1967C74.3158 13.5637 73.9787 12.5726 74.0098 11.6231C74.845 11.6231 75.6853 11.6231 76.5205 11.6231C76.5309 12.0901 76.6502 12.5986 77.0393 12.8995C77.5528 13.3042 78.2687 13.325 78.886 13.2056C79.3892 13.1122 79.8405 12.666 79.799 12.1264C79.8509 11.6491 79.467 11.234 79.0053 11.1769C78.3984 11.0939 77.7811 11.125 77.169 11.1458C77.1482 10.6009 77.1638 10.051 77.1586 9.50615C77.7396 9.50615 78.3206 9.51652 78.8964 9.48539C79.4048 9.44388 79.7575 8.9354 79.6693 8.44767C79.633 7.97031 79.1506 7.72126 78.7252 7.67456C78.1909 7.62268 77.584 7.6123 77.1378 7.96513C76.7799 8.24012 76.6658 8.71229 76.6554 9.14294C75.815 9.1637 74.9747 9.14294 74.1291 9.15332C74.1032 8.19342 74.5233 7.21796 75.2807 6.61608V6.6057Z" fill="#202020"/>
<path fill-rule="evenodd" clip-rule="evenodd" d="M72.5685 14.9496C72.5633 11.9454 72.5685 8.94122 72.5685 5.94219C71.7022 5.94219 70.8359 5.94738 69.9747 5.94219C69.9747 6.26389 69.9747 6.58558 69.9747 6.90727C69.539 6.39879 68.9683 5.98889 68.3095 5.8488C66.9452 5.54785 65.4305 5.97332 64.4397 6.97473C63.62 7.77378 63.1791 8.9049 63.1117 10.036C63.0079 11.4058 63.4074 12.8586 64.3826 13.86C65.2074 14.7213 66.4109 15.1831 67.5989 15.1313C68.5119 15.1313 69.4041 14.7006 69.9695 13.9794C69.9695 14.3063 69.9695 14.628 69.9695 14.9548C70.8359 14.9548 71.7022 14.9548 72.5685 14.9548V14.9496ZM69.9125 11.5459C69.6012 12.2308 68.9424 12.7549 68.1902 12.8742C67.3291 13.0299 66.4109 12.6251 65.9233 11.8987C65.2489 10.9492 65.3423 9.52753 66.1619 8.69216C66.4317 8.41717 66.7689 8.20443 67.1424 8.08509C67.9464 7.82047 68.8802 8.06953 69.456 8.68179C70.1822 9.41857 70.3534 10.6171 69.9125 11.5459Z" fill="#202020"/>
<path fill-rule="evenodd" clip-rule="evenodd" d="M56.1538 5.9375C58.2703 5.95307 60.392 5.9375 62.5085 5.94788C62.5085 6.6691 62.5137 7.38513 62.5085 8.10635C61.2531 8.10635 59.9977 8.10635 58.7475 8.10635C58.7475 10.3893 58.7475 12.6723 58.7475 14.9553C57.8812 14.9553 57.0149 14.9553 56.1538 14.9553C56.1538 11.9511 56.1434 8.9469 56.159 5.94269L56.1538 5.9375Z" fill="#202020"/>
<path d="M35.0621 20.4376H35.8143V22.9282C36.1566 22.9282 36.4005 22.8607 36.5405 22.7258C36.6806 22.5909 36.857 22.2744 37.0748 21.7659C37.2305 21.3923 37.3601 21.1277 37.4639 20.9772C37.5676 20.8216 37.7129 20.6919 37.8996 20.5881C38.0864 20.4843 38.2939 20.4324 38.5221 20.4324C38.8126 20.4324 38.9631 20.4324 38.9786 20.4376V21.0914C38.9527 21.0914 38.9008 21.0914 38.8282 21.0914C38.7452 21.0914 38.6933 21.0914 38.6778 21.0914C38.4391 21.0914 38.2576 21.1485 38.1434 21.2678C38.0241 21.382 37.8893 21.631 37.7336 22.015C37.5417 22.4975 37.3809 22.7984 37.2512 22.923C37.1215 23.0475 36.9607 23.1513 36.7791 23.2239C37.1475 23.3225 37.5106 23.6649 37.8633 24.2409L39.0357 26.1347H38.1019L37.1526 24.5885C36.8933 24.1631 36.6754 23.8673 36.499 23.7116C36.3226 23.5508 36.0944 23.473 35.8143 23.473V26.1347H35.0621V20.448V20.4376Z" fill="#202020"/>
<path d="M39.929 22.0048H43.1712V26.1245H42.476V22.5807H40.6241V24.6354C40.6241 25.1127 40.6085 25.4293 40.5774 25.5797C40.5463 25.7302 40.4633 25.8651 40.3232 25.9792C40.1832 26.0934 39.9808 26.1505 39.7163 26.1505C39.5555 26.1505 39.3635 26.1401 39.156 26.1193V25.5382H39.4621C39.6073 25.5382 39.7111 25.5226 39.7733 25.4915C39.8356 25.4604 39.8771 25.4137 39.8978 25.3514C39.9186 25.284 39.929 25.0764 39.929 24.7184V22.0048Z" fill="#202020"/>
<path d="M44.2244 22.0048H44.9247V25.1491L46.8596 22.0048H47.6118V26.1245H46.9115V23.001L44.9766 26.1245H44.2244V22.0048Z" fill="#202020"/>
<path d="M48.6621 22.0047H49.3624V23.7221H51.2973V22.0047H51.9976V26.1245H51.2973V24.2981H49.3624V26.1245H48.6621V22.0047Z" fill="#202020"/>
<path d="M53.0489 22.0047H53.7492V25.149L55.6841 22.0047H56.4363V26.1245H55.736V23.0009L53.801 26.1245H53.0489V22.0047Z" fill="#202020"/>
<path d="M57.4835 22.0048H58.1838V23.7845C58.4069 23.7845 58.5625 23.743 58.6507 23.6547C58.7389 23.5717 58.8737 23.3227 59.0449 22.9076C59.1798 22.5807 59.2939 22.368 59.3769 22.2642C59.4599 22.1604 59.5585 22.093 59.6726 22.0566C59.7815 22.0203 59.9631 22.0048 60.2069 22.0048H60.347V22.5807H60.1551C59.9735 22.5807 59.8542 22.6015 59.8023 22.6585C59.7504 22.7156 59.6674 22.8868 59.5533 23.167C59.4496 23.4368 59.351 23.6236 59.2628 23.7274C59.1746 23.8312 59.0397 23.9246 58.853 24.0128C59.1539 24.0906 59.4496 24.3708 59.7401 24.8533L60.5026 26.1297H59.7349L58.9879 24.8533C58.8374 24.5991 58.7026 24.4278 58.5884 24.3448C58.4743 24.2618 58.3394 24.2255 58.1786 24.2255V26.1297H57.4783V22.0099L57.4835 22.0048Z" fill="#202020"/>
<path d="M63.8266 25.6167C63.5672 25.8346 63.3182 25.9902 63.0796 26.0836C62.8409 26.1718 62.5816 26.2185 62.3118 26.2185C61.8605 26.2185 61.5129 26.1096 61.2691 25.8865C61.0253 25.6634 60.906 25.3832 60.906 25.0407C60.906 24.8384 60.9527 24.6568 61.0461 24.4855C61.1394 24.3195 61.2588 24.1846 61.404 24.086C61.5544 23.9874 61.7204 23.9096 61.9072 23.8577C62.0421 23.8214 62.2496 23.7851 62.5297 23.7539C63.0951 23.6865 63.5101 23.6087 63.7747 23.5153C63.7747 23.4219 63.7747 23.3596 63.7747 23.3337C63.7747 23.0483 63.7073 22.8459 63.5776 22.7318C63.4012 22.5761 63.1366 22.4931 62.7839 22.4931C62.4571 22.4931 62.2133 22.5502 62.0576 22.6643C61.902 22.7785 61.7879 22.9808 61.7101 23.2766L61.0253 23.1832C61.0876 22.8926 61.1913 22.654 61.3314 22.4724C61.4714 22.2908 61.6789 22.1559 61.9487 22.0573C62.2184 21.9587 62.5297 21.912 62.8824 21.912C63.2352 21.912 63.5205 21.9535 63.7384 22.0365C63.9563 22.1195 64.1223 22.2233 64.2208 22.3478C64.3246 22.4724 64.3972 22.6332 64.4387 22.8252C64.4594 22.9445 64.475 23.1573 64.475 23.4686V24.3973C64.475 25.0459 64.4906 25.4558 64.5217 25.627C64.5528 25.7983 64.6099 25.9643 64.6981 26.12H63.9666C63.894 25.9747 63.8473 25.8035 63.8266 25.6115V25.6167ZM63.7695 24.0549C63.5153 24.1587 63.1366 24.2469 62.6283 24.3195C62.3429 24.361 62.1406 24.4077 62.0213 24.4596C61.902 24.5115 61.8086 24.5841 61.7464 24.6879C61.6841 24.7865 61.6478 24.8954 61.6478 25.02C61.6478 25.2068 61.7204 25.3624 61.8605 25.487C62.0006 25.6115 62.2081 25.6737 62.4778 25.6737C62.7476 25.6737 62.9862 25.6167 63.1937 25.4973C63.4012 25.378 63.5568 25.2171 63.6554 25.0148C63.728 24.8591 63.7695 24.6256 63.7695 24.3143V24.0601V24.0549Z" fill="#202020"/>
<path d="M67.7634 22.0048H70.1341V22.5807H68.4637V26.1245H67.7634V22.0048Z" fill="#202020"/>
<path d="M70.2283 24.0653C70.2283 23.3025 70.441 22.737 70.8663 22.3686C71.2191 22.0625 71.6548 21.912 72.1632 21.912C72.7286 21.912 73.1903 22.0988 73.5535 22.4672C73.9114 22.8408 74.093 23.3492 74.093 24.003C74.093 24.5322 74.0151 24.9525 73.8543 25.2535C73.6935 25.5596 73.4653 25.7931 73.1592 25.9643C72.8531 26.1303 72.5263 26.2185 72.1632 26.2185C71.5874 26.2185 71.1205 26.0318 70.7626 25.6634C70.4046 25.295 70.2283 24.7605 70.2283 24.0653ZM70.9441 24.0653C70.9441 24.5945 71.0583 24.9888 71.2917 25.2483C71.52 25.5129 71.8105 25.6426 72.1632 25.6426C72.516 25.6426 72.7961 25.5129 73.0295 25.2483C73.263 24.9837 73.3771 24.5841 73.3771 24.0393C73.3771 23.5308 73.263 23.1417 73.0295 22.8823C72.7961 22.6176 72.5108 22.4879 72.1684 22.4879C71.826 22.4879 71.5303 22.6176 71.2969 22.8771C71.0686 23.1365 70.9493 23.5308 70.9493 24.0601L70.9441 24.0653Z" fill="#202020"/>
<path d="M75.2799 22.0048H78.1486V25.5538H78.5947V27.2972H78.0189V26.1297H74.7767V27.2972H74.2009V25.5538H74.5692C75.0621 24.8844 75.2955 23.7066 75.2747 22.0048H75.2799ZM75.8609 22.5807C75.8091 23.9194 75.6016 24.9052 75.2384 25.5486H77.4535V22.5807H75.8609Z" fill="#202020"/>
<path d="M82.057 25.6167C81.7977 25.8346 81.5487 25.9902 81.31 26.0836C81.0714 26.1718 80.812 26.2185 80.5423 26.2185C80.091 26.2185 79.7434 26.1096 79.4996 25.8865C79.2558 25.6634 79.1365 25.3832 79.1365 25.0407C79.1365 24.8384 79.1832 24.6568 79.2765 24.4855C79.3699 24.3195 79.4892 24.1846 79.6345 24.086C79.7849 23.9874 79.9509 23.9096 80.1377 23.8577C80.2725 23.8214 80.48 23.7851 80.7602 23.7539C81.3256 23.6865 81.7406 23.6087 82.0052 23.5153C82.0052 23.4219 82.0052 23.3596 82.0052 23.3337C82.0052 23.0483 81.9377 22.8459 81.808 22.7318C81.6317 22.5761 81.3671 22.4931 81.0143 22.4931C80.6875 22.4931 80.4437 22.5502 80.2881 22.6643C80.1325 22.7785 80.0184 22.9808 79.9405 23.2766L79.2558 23.1832C79.318 22.8926 79.4218 22.654 79.5618 22.4724C79.7019 22.2908 79.9094 22.1559 80.1792 22.0573C80.4489 21.9587 80.7602 21.912 81.1129 21.912C81.4657 21.912 81.751 21.9535 81.9688 22.0365C82.1867 22.1195 82.3527 22.2233 82.4513 22.3478C82.555 22.4724 82.6277 22.6332 82.6692 22.8252C82.6899 22.9445 82.7055 23.1573 82.7055 23.4686V24.3973C82.7055 25.0459 82.721 25.4558 82.7522 25.627C82.7833 25.7983 82.8403 25.9643 82.9285 26.12H82.1971C82.1245 25.9747 82.0778 25.8035 82.057 25.6115V25.6167ZM82 24.0549C81.7458 24.1587 81.3671 24.2469 80.8587 24.3195C80.5734 24.361 80.3711 24.4077 80.2518 24.4596C80.1325 24.5115 80.0391 24.5841 79.9768 24.6879C79.9146 24.7865 79.8783 24.8954 79.8783 25.02C79.8783 25.2068 79.9509 25.3624 80.091 25.487C80.231 25.6115 80.4385 25.6737 80.7083 25.6737C80.978 25.6737 81.2167 25.6167 81.4242 25.4973C81.6317 25.378 81.7873 25.2171 81.8859 25.0148C81.9585 24.8591 82 24.6256 82 24.3143V24.0601V24.0549Z" fill="#202020"/>
</g>
<defs>
<clipPath id="clip0_684_702">
<rect width="83" height="30" fill="white"/>
</clipPath>
</defs>
</svg>
