<svg width="108" height="30" viewBox="0 0 108 30" fill="none" xmlns="http://www.w3.org/2000/svg">
<path d="M17.7426 20.6945C17.5115 20.6945 17.3117 20.5546 17.2367 20.3417L14.4391 12.4088L12.2972 18.4679C12.2223 18.6809 12.0224 18.8208 11.7914 18.8208C11.5603 18.8208 11.3605 18.6809 11.2856 18.4679L10.7485 16.9471H10.4675C10.2365 16.9471 10.0366 16.8072 9.9617 16.5942L9.78685 16.1015L9.61824 16.5517C9.54331 16.7585 9.34348 16.8923 9.11867 16.8923H5.89017C5.59667 16.8923 5.35938 16.6612 5.35938 16.3752C5.35938 16.0893 5.59667 15.8581 5.89017 15.8581H8.74399L9.30601 14.3799C9.38095 14.173 9.58077 14.0392 9.80558 14.0392C10.0304 14.0392 10.2302 14.1791 10.3052 14.392L10.8422 15.9129H11.1232C11.3543 15.9129 11.5541 16.0528 11.629 16.2657L11.7851 16.7098L13.9271 10.6507C14.002 10.4378 14.2018 10.2979 14.4329 10.2979C14.6639 10.2979 14.8638 10.4378 14.9387 10.6507L17.7363 18.5835L19.2163 14.3981C19.2912 14.1852 19.4911 14.0453 19.7221 14.0453C19.9532 14.0453 20.153 14.1852 20.2279 14.3981L21.046 16.7098L21.2021 16.2657C21.277 16.0528 21.4769 15.9129 21.7079 15.9129H25.1175C25.411 15.9129 25.6483 16.1441 25.6483 16.43C25.6483 16.7159 25.411 16.9471 25.1175 16.9471H22.0889L21.5518 18.4679C21.4769 18.6809 21.277 18.8208 21.046 18.8208C20.8149 18.8208 20.6151 18.6809 20.5402 18.4679L19.7221 16.1562L18.2421 20.3417C18.1672 20.5546 17.9674 20.6945 17.7363 20.6945H17.7426Z" fill="#202020"/>
<path d="M29.0351 7.31719C27.6363 5.09673 25.663 3.36294 23.1339 2.13408C20.5923 0.905222 17.6823 0.296875 14.3788 0.296875H0.546875L0.571854 29.9173H14.3851C17.6823 29.9173 20.5985 29.3028 23.1401 28.074C25.663 26.8451 27.6425 25.1174 29.0413 22.8909C30.4464 20.6643 31.152 18.0667 31.152 15.104C31.152 12.1414 30.4526 9.54982 29.0413 7.31719H29.0351ZM21.3104 21.808C19.4995 23.4627 17.0703 24.284 14.0291 24.284H10.0762L7.60336 27.2649V5.92408H14.0354C17.0765 5.92408 19.5057 6.75143 21.3167 8.40005C23.1214 10.0548 24.0268 12.2874 24.0268 15.104C24.0268 17.9207 23.1151 20.1594 21.3167 21.808H21.3104Z" fill="#202020"/>
<path fill-rule="evenodd" clip-rule="evenodd" d="M101.414 19.502H37.2188V23.6144C37.2188 25.9991 39.2046 27.9336 41.6525 27.9336H105.866V23.8455C105.866 21.4487 103.868 19.508 101.414 19.508V19.502ZM45.8114 25.0501V21.9049H44.9122V23.2737C44.7498 23.3467 44.5625 23.3832 44.3377 23.3832C43.9318 23.3832 43.7257 23.1824 43.7257 22.7749V21.9049H42.8265V22.8722C42.8265 23.2737 42.9451 23.5779 43.1824 23.7847C43.4197 23.9976 43.7632 24.1011 44.219 24.1011C44.4251 24.1011 44.6562 24.0585 44.9059 23.9794V25.0501H45.8052H45.8114ZM48.8276 24.4356H47.46L47.204 25.0501H46.2735L47.6973 21.9049H48.5965L50.0266 25.0501H49.0774L48.8214 24.4356H48.8276ZM48.5591 23.7786L48.1407 22.7688L47.7223 23.7786H48.5528H48.5591ZM50.4762 24.3201C50.6323 24.5695 50.8446 24.7642 51.1132 24.9041C51.3817 25.044 51.6877 25.1109 52.0249 25.1109C52.3184 25.1109 52.5869 25.0622 52.8242 24.9588C53.0615 24.8554 53.2551 24.7094 53.4174 24.5147L52.8367 24.0037C52.6244 24.2471 52.3746 24.3687 52.0748 24.3687C51.9 24.3687 51.7439 24.3322 51.6065 24.2592C51.4691 24.1862 51.3629 24.0767 51.288 23.9429C51.2131 23.809 51.1756 23.6509 51.1756 23.4745C51.1756 23.298 51.2131 23.1399 51.288 23.006C51.3629 22.8722 51.4691 22.7627 51.6065 22.6897C51.7439 22.6167 51.9 22.5741 52.0748 22.5741C52.3746 22.5741 52.6244 22.6958 52.8367 22.9452L53.4174 22.4342C53.2613 22.2395 53.0615 22.0935 52.8242 21.9901C52.5869 21.8867 52.3184 21.838 52.0249 21.838C51.6877 21.838 51.3817 21.9049 51.1132 22.0448C50.8446 22.1848 50.6323 22.3794 50.4762 22.6289C50.3201 22.8783 50.2451 23.1581 50.2451 23.4745C50.2451 23.7908 50.3201 24.0706 50.4762 24.3201ZM56.4898 22.6045H55.5032V25.044H54.6039V22.6045H53.611V21.8988H56.4898V22.6045ZM60.0743 25.044V21.8988H59.1625V23.079H57.9136V21.8988H57.0019V25.044H57.9136V23.8151H59.1625V25.044H60.0743ZM63.0904 24.4296H61.7229L61.4668 25.044H60.5364L61.9601 21.8988H62.8594L64.2894 25.044H63.3402L63.0842 24.4296H63.0904ZM62.8219 23.7725L62.4035 22.7627L61.9851 23.7725H62.8157H62.8219ZM67.2869 25.0379V21.8928H65.8319C65.5384 21.8928 65.2823 21.9414 65.0638 22.0388C64.8452 22.1361 64.6766 22.2699 64.5579 22.4524C64.4393 22.6349 64.3831 22.8479 64.3831 23.0912C64.3831 23.3345 64.4393 23.5414 64.5517 23.7178C64.6641 23.8942 64.8265 24.0281 65.045 24.1193L64.3893 25.0379H65.351L65.8818 24.2471H66.3814V25.0379H67.2806H67.2869ZM65.4447 23.438C65.351 23.3528 65.3073 23.2372 65.3073 23.0729C65.3073 22.7505 65.4884 22.5924 65.8443 22.5924H66.3814V23.5596H65.8381C65.6632 23.5596 65.5321 23.517 65.4447 23.438ZM72.42 25.0379V23.371L71.5832 24.7276H71.1773L70.3467 23.4075V25.0379H69.5037V21.8928H70.2531L71.3896 23.7117L72.5012 21.8928H73.2505L73.263 25.0379H72.42ZM76.6414 25.0379V24.3505H74.9491V23.7725H76.3854V23.1094H74.9491V22.5802H76.5789V21.8928H74.0436V25.0379H76.6414ZM80.7254 24.3322V25.6706H79.8886V25.0379H77.8216V25.6706H76.9786V24.3322H77.0972C77.2846 24.3322 77.422 24.2045 77.5032 23.949C77.5843 23.6995 77.628 23.3345 77.6468 22.86L77.6842 21.8867H80.2883V24.3261H80.7254V24.3322ZM78.3649 23.7908C78.3212 24.022 78.2588 24.2045 78.1651 24.3322H79.389V22.5984H78.4586L78.4461 22.9391C78.4336 23.2737 78.4086 23.5596 78.3649 23.7908ZM82.1617 21.8867H81.2624V25.0318H82.1242L83.4543 23.1885V25.0318H84.3536V21.8867H83.4918L82.1554 23.736V21.8867H82.1617ZM88.6249 24.3261V25.6767H87.7881V25.0318H85.1404V21.8867H86.0396V24.3261H87.2823V21.8867H88.1815V24.3261H88.6249ZM90.0487 21.8867H89.1495V25.0318H90.0112L91.3414 23.1885V25.0318H92.2406V21.8867H91.3851L90.0487 23.736V21.8867ZM96.0998 21.8867V25.0318H95.1881V23.803H93.9391V25.0318H93.0274V21.8867H93.9391V23.0669H95.1881V21.8867H96.0998ZM97.7484 24.4235H99.116L99.372 25.0379H100.321L98.8912 21.8928H97.9919L96.5681 25.0379H97.4986L97.7546 24.4235H97.7484ZM98.4291 22.7627L98.8412 23.7725H98.0107L98.4291 22.7627Z" fill="#202020"/>
<path d="M39.0007 3.10068H37.8704V4.97439H37.5645V2.83301H39.0007V3.10068Z" fill="#202020"/>
<path d="M39.9159 4.85872C39.7411 4.76138 39.5974 4.63363 39.4975 4.4633C39.3976 4.29904 39.3477 4.11045 39.3477 3.90362C39.3477 3.69678 39.3976 3.51428 39.4975 3.34394C39.5974 3.17968 39.7411 3.04585 39.9159 2.94851C40.0908 2.85118 40.2906 2.80859 40.5154 2.80859C40.7402 2.80859 40.9338 2.85726 41.1087 2.94851C41.2835 3.04585 41.4271 3.1736 41.5271 3.33785C41.627 3.50211 41.6769 3.6907 41.6769 3.89753C41.6769 4.10437 41.627 4.29296 41.5271 4.45721C41.4271 4.62147 41.2897 4.7553 41.1087 4.84655C40.9338 4.94389 40.734 4.98647 40.5154 4.98647C40.2968 4.98647 40.097 4.9378 39.9159 4.84655V4.85872ZM40.9463 4.62147C41.0774 4.54846 41.1773 4.45113 41.2523 4.32946C41.3272 4.20171 41.3647 4.06179 41.3647 3.9097C41.3647 3.75761 41.3272 3.61769 41.2523 3.48994C41.1773 3.36219 41.0774 3.26485 40.9463 3.19794C40.8152 3.12493 40.6715 3.08843 40.5092 3.08843C40.3468 3.08843 40.2032 3.12493 40.072 3.19794C39.9409 3.27094 39.841 3.36827 39.7661 3.48994C39.6911 3.61769 39.6536 3.75761 39.6536 3.9097C39.6536 4.06179 39.6911 4.20171 39.7661 4.32946C39.841 4.45721 39.9409 4.55455 40.072 4.62147C40.2032 4.69447 40.3468 4.73097 40.5092 4.73097C40.6715 4.73097 40.8152 4.69447 40.9463 4.62147Z" fill="#202020"/>
<path d="M44.1389 3.03451C44.3013 3.16835 44.3825 3.35085 44.3825 3.58203C44.3825 3.8132 44.3013 3.9957 44.1389 4.12954C43.9766 4.26337 43.7518 4.33029 43.4708 4.33029H42.9275V4.98122H42.6152V2.83984H43.4708C43.758 2.83984 43.9766 2.90676 44.1389 3.0406V3.03451ZM43.9141 3.93487C44.0203 3.8497 44.0702 3.73411 44.0702 3.58203C44.0702 3.42994 44.0203 3.30827 43.9141 3.22919C43.808 3.14402 43.6581 3.10752 43.4583 3.10752H42.9275V4.0687H43.4583C43.6581 4.0687 43.808 4.02612 43.9141 3.94703V3.93487Z" fill="#202020"/>
<path d="M45.6698 4.85872C45.495 4.76138 45.3514 4.63363 45.2514 4.4633C45.1515 4.29904 45.1016 4.11045 45.1016 3.90362C45.1016 3.69678 45.1515 3.51428 45.2514 3.34394C45.3514 3.17968 45.495 3.04585 45.6698 2.94851C45.8447 2.85118 46.0445 2.80859 46.2693 2.80859C46.4941 2.80859 46.6877 2.85726 46.8626 2.94851C47.0374 3.04585 47.181 3.1736 47.281 3.33785C47.3809 3.50211 47.4308 3.6907 47.4308 3.89753C47.4308 4.10437 47.3809 4.29296 47.281 4.45721C47.181 4.62147 47.0437 4.7553 46.8626 4.84655C46.6877 4.94389 46.4879 4.98647 46.2693 4.98647C46.0508 4.98647 45.8509 4.9378 45.6698 4.84655V4.85872ZM46.7002 4.62147C46.8313 4.54846 46.9313 4.45113 47.0062 4.32946C47.0811 4.20171 47.1186 4.06179 47.1186 3.9097C47.1186 3.75761 47.0811 3.61769 47.0062 3.48994C46.9313 3.36219 46.8313 3.26485 46.7002 3.19794C46.5691 3.12493 46.4254 3.08843 46.2631 3.08843C46.1007 3.08843 45.9571 3.12493 45.8259 3.19794C45.6948 3.27094 45.5949 3.36827 45.52 3.48994C45.445 3.61769 45.4076 3.75761 45.4076 3.9097C45.4076 4.06179 45.445 4.20171 45.52 4.32946C45.5949 4.45721 45.6948 4.55455 45.8259 4.62147C45.9571 4.69447 46.1007 4.73097 46.2631 4.73097C46.4254 4.73097 46.5691 4.69447 46.7002 4.62147Z" fill="#202020"/>
<path d="M50.3917 4.70747V5.44357H50.0982V4.97514H48.2935V5.44357H48V4.70747H48.1124C48.2498 4.70138 48.3497 4.59188 48.4059 4.39113C48.4621 4.18429 48.4996 3.89837 48.5121 3.52727L48.537 2.83984H50.0795V4.71355H50.4042L50.3917 4.70747ZM48.7056 4.29987C48.6682 4.49455 48.6057 4.63447 48.5183 4.70747H49.7548V3.10143H48.7931L48.7806 3.55161C48.7681 3.85578 48.7431 4.1052 48.7056 4.29987Z" fill="#202020"/>
<path d="M51.6366 4.85925C51.4618 4.76191 51.3244 4.63416 51.2182 4.46991C51.1183 4.30566 51.0684 4.11707 51.0684 3.91023C51.0684 3.70339 51.1183 3.5148 51.2182 3.35055C51.3181 3.1863 51.4555 3.05246 51.6366 2.96121C51.8115 2.86387 52.0113 2.82129 52.2299 2.82129C52.3985 2.82129 52.5608 2.85171 52.6982 2.90646C52.8418 2.96121 52.9605 3.04638 53.0604 3.15588L52.8543 3.35055C52.692 3.18021 52.4859 3.09505 52.2361 3.09505C52.0737 3.09505 51.9239 3.13155 51.7927 3.20455C51.6616 3.27755 51.5554 3.37488 51.4868 3.49655C51.4118 3.62431 51.3743 3.76423 51.3743 3.91631C51.3743 4.0684 51.4118 4.20832 51.4868 4.33607C51.5617 4.46382 51.6616 4.56116 51.7927 4.62808C51.9239 4.70108 52.0737 4.73758 52.2361 4.73758C52.4797 4.73758 52.6857 4.65241 52.8543 4.48208L53.0604 4.67675C52.9605 4.78625 52.8356 4.87142 52.692 4.92617C52.5483 4.98092 52.3922 5.01134 52.2174 5.01134C51.9988 5.01134 51.799 4.96267 51.6241 4.87142L51.6366 4.85925Z" fill="#202020"/>
<path d="M54.6915 4.03145H54.2357V4.97439H53.9297V2.83301H54.2357V3.76378H54.6978L55.3909 2.83301H55.7282L54.9413 3.8672L55.7656 4.9683H55.4097L54.6978 4.02537L54.6915 4.03145Z" fill="#202020"/>
<path d="M57.9099 4.43807H56.7422L56.4986 4.97341H56.1739L57.1668 2.83203H57.479L58.4782 4.97341H58.1472L57.9037 4.43807H57.9099ZM57.7975 4.19473L57.3229 3.14837L56.8483 4.19473H57.7975Z" fill="#202020"/>
<path d="M60.7868 2.83203V4.97341H60.4808V4.3529H59.8751C59.8376 4.3529 59.8064 4.3529 59.7876 4.3529L59.3505 4.97949H59.0195L59.5066 4.30423C59.3505 4.25556 59.2319 4.17039 59.1444 4.04872C59.0632 3.92705 59.0195 3.78105 59.0195 3.61072C59.0195 3.36738 59.1007 3.17879 59.2568 3.04495C59.4192 2.91112 59.6315 2.8442 59.9063 2.8442H60.7868V2.83203ZM59.4754 3.96356C59.5691 4.04872 59.7127 4.09131 59.9 4.09131H60.4808V3.0997H59.9188C59.7314 3.0997 59.5878 3.14229 59.4879 3.22746C59.388 3.31262 59.338 3.43429 59.338 3.59855C59.338 3.7628 59.388 3.87839 59.4816 3.96356H59.4754Z" fill="#202020"/>
<path d="M64.7643 4.70671V4.97439H63.1719V2.83301H64.7206V3.10068H63.4841V3.75769H64.5832V4.01928H63.4841V4.70671H64.7643Z" fill="#202020"/>
<path d="M67.4982 4.03145H67.0798V4.97439H66.7738V4.03145H66.3554L65.7434 4.97439H65.375L66.0994 3.86111L65.425 2.83301H65.7622L66.3492 3.76378H66.7738V2.83301H67.0798V3.76378H67.4982L68.0852 2.83301H68.4224L67.7542 3.8672L68.4786 4.97439H68.1102L67.4919 4.03145H67.4982Z" fill="#202020"/>
<path d="M70.8287 4.70574V4.97341H69.2363V2.83203H70.785V3.0997H69.5486V3.75672H70.6476V4.01831H69.5486V4.70574H70.8287Z" fill="#202020"/>
<path d="M73.1823 3.0997H72.052V4.97341H71.746V2.83203H73.1823V3.0997Z" fill="#202020"/>
<path d="M74.1015 4.85872C73.9204 4.76138 73.783 4.63363 73.6831 4.4633C73.5832 4.29904 73.5332 4.11045 73.5332 3.90362C73.5332 3.69678 73.5832 3.51428 73.6831 3.34394C73.783 3.17968 73.9204 3.04585 74.1015 2.94851C74.2763 2.85118 74.4761 2.80859 74.701 2.80859C74.9258 2.80859 75.1194 2.85726 75.2942 2.94851C75.4753 3.04585 75.6127 3.1736 75.7126 3.33785C75.8125 3.50211 75.8625 3.6907 75.8625 3.89753C75.8625 4.10437 75.8125 4.29296 75.7126 4.45721C75.6127 4.62147 75.4753 4.7553 75.2942 4.84655C75.1194 4.94389 74.9195 4.98647 74.701 4.98647C74.4824 4.98647 74.2826 4.9378 74.1015 4.84655V4.85872ZM75.1318 4.62147C75.263 4.54846 75.3629 4.45113 75.4378 4.32946C75.5128 4.20171 75.5502 4.06179 75.5502 3.9097C75.5502 3.75761 75.5128 3.61769 75.4378 3.48994C75.3629 3.36219 75.263 3.26485 75.1318 3.19794C75.0007 3.12493 74.8571 3.08843 74.6947 3.08843C74.5324 3.08843 74.3887 3.12493 74.2576 3.19794C74.1264 3.27094 74.0265 3.36827 73.9516 3.48994C73.8767 3.61769 73.8392 3.75761 73.8392 3.9097C73.8392 4.06179 73.8767 4.20171 73.9516 4.32946C74.0265 4.45721 74.1264 4.55455 74.2576 4.62147C74.3887 4.69447 74.5324 4.73097 74.6947 4.73097C74.8571 4.73097 75.0007 4.69447 75.1318 4.62147Z" fill="#202020"/>
<path d="M78.8273 4.70551V5.44161H78.5338V4.97319H76.729V5.44161H76.4355V4.70551H76.548C76.6853 4.69943 76.7853 4.58993 76.8415 4.38917C76.8977 4.18234 76.9351 3.89641 76.9476 3.52532L76.9663 2.83789H78.5088V4.7116H78.8335L78.8273 4.70551ZM77.1412 4.29792C77.1037 4.49259 77.0413 4.63251 76.9539 4.70551H78.1903V3.09948H77.2286L77.2161 3.54966C77.2036 3.85383 77.1787 4.10325 77.1412 4.29792Z" fill="#202020"/>
<path d="M81.5714 2.83301V4.97439H81.2592V4.01928H79.9978V4.97439H79.6855V2.83301H79.9978V3.75161H81.2592V2.83301H81.5714Z" fill="#202020"/>
<path d="M84.1052 4.43904H82.9374L82.6939 4.97439H82.3691L83.362 2.83301H83.6743L84.6734 4.97439H84.3425L84.0989 4.43904H84.1052ZM83.9928 4.1957L83.5182 3.14935L83.0436 4.1957H83.9928Z" fill="#202020"/>
<path d="M86.9879 2.83301V4.97439H86.682V4.35387H86.0762C86.0388 4.35387 86.0075 4.35387 85.9888 4.35387L85.5517 4.98047H85.2207L85.7078 4.30521C85.5517 4.25654 85.433 4.17137 85.3456 4.0497C85.2582 3.92803 85.2207 3.78203 85.2207 3.61169C85.2207 3.36835 85.3019 3.17977 85.458 3.04593C85.6204 2.91209 85.8327 2.84518 86.1074 2.84518H86.9879V2.83301ZM85.6766 3.96453C85.7702 4.0497 85.9139 4.09228 86.095 4.09228H86.6757V3.10068H86.1137C85.9263 3.10068 85.7827 3.14326 85.6828 3.22843C85.5829 3.3136 85.5329 3.43527 85.5329 3.59952C85.5329 3.76378 85.5829 3.87936 85.6766 3.96453Z" fill="#202020"/>
<path d="M91.2593 2.83203V4.97341H90.9533V3.0997H89.6794V4.97341H89.3672V2.83203H91.2593Z" fill="#202020"/>
<path d="M93.8967 3.03451C94.0591 3.16835 94.1403 3.35085 94.1403 3.58203C94.1403 3.8132 94.0591 3.9957 93.8967 4.12954C93.7344 4.26337 93.5096 4.33029 93.2286 4.33029H92.6853V4.98122H92.373V2.83984H93.2286C93.5158 2.83984 93.7344 2.90676 93.8967 3.0406V3.03451ZM93.6719 3.93487C93.7781 3.8497 93.8281 3.73411 93.8281 3.58203C93.8281 3.42994 93.7781 3.30827 93.6719 3.22919C93.5658 3.14402 93.4159 3.10752 93.2161 3.10752H92.6853V4.0687H93.2161C93.4159 4.0687 93.5658 4.02612 93.6719 3.94703V3.93487Z" fill="#202020"/>
<path d="M96.5983 4.70574V4.97341H95.0059V2.83203H96.5545V3.0997H95.3181V3.75672H96.4172V4.01831H95.3181V4.70574H96.5983Z" fill="#202020"/>
<path d="M99.5534 4.97341V3.41604L98.7541 4.71182H98.6105L97.8174 3.42213V4.97341H97.5176V2.83203H97.7737L98.6916 4.33465L99.5971 2.83203H99.8531V4.97341H99.5534Z" fill="#202020"/>
<path d="M100.967 2.83203H101.279V4.48065L102.578 2.83203H102.865V4.97341H102.559V3.32479L101.26 4.97341H100.973V2.83203H100.967Z" fill="#202020"/>
<path d="M105.578 2.83203V4.97341H105.272V4.3529H104.666C104.629 4.3529 104.597 4.3529 104.579 4.3529L104.142 4.97949H103.811L104.298 4.30423C104.142 4.25556 104.023 4.17039 103.935 4.04872C103.848 3.92705 103.811 3.78105 103.811 3.61072C103.811 3.36738 103.892 3.17879 104.048 3.04495C104.21 2.91112 104.423 2.8442 104.697 2.8442H105.578V2.83203ZM104.266 3.96356C104.36 4.04872 104.504 4.09131 104.691 4.09131H105.272V3.0997H104.71C104.522 3.0997 104.379 3.14229 104.279 3.22746C104.179 3.31262 104.129 3.43429 104.129 3.59855C104.129 3.7628 104.179 3.87839 104.273 3.96356H104.266Z" fill="#202020"/>
<path d="M37.4258 9.24414H40.0236C40.6231 9.24414 41.1601 9.35364 41.6222 9.57265C42.0905 9.79165 42.4465 10.1019 42.7088 10.5034C42.9648 10.9049 43.0959 11.3794 43.0959 11.9209C43.0959 12.4623 42.9648 12.9307 42.7088 13.3383C42.4527 13.7398 42.0905 14.0501 41.6222 14.2691C41.1538 14.4881 40.6231 14.5976 40.0236 14.5976H37.4258V9.24414ZM39.9611 13.3931C40.4295 13.3931 40.8104 13.2653 41.0976 13.0037C41.3849 12.7421 41.5223 12.3832 41.5223 11.9269C41.5223 11.4707 41.3787 11.1057 41.0976 10.8502C40.8104 10.5886 40.4357 10.4608 39.9611 10.4608H38.9807V13.3991H39.9611V13.3931Z" fill="#202020"/>
<path d="M45.2421 14.3481C44.78 14.1108 44.4178 13.7762 44.1493 13.3504C43.887 12.9245 43.7559 12.45 43.7559 11.9208C43.7559 11.3915 43.887 10.9109 44.1493 10.4912C44.4116 10.0653 44.78 9.7368 45.2421 9.49955C45.7042 9.26229 46.2288 9.14062 46.8095 9.14062C47.3903 9.14062 47.9148 9.26229 48.3769 9.49955C48.839 9.7368 49.2012 10.0714 49.4698 10.4912C49.732 10.917 49.8694 11.3915 49.8694 11.9208C49.8694 12.45 49.7383 12.9306 49.4698 13.3504C49.2075 13.7762 48.839 14.1047 48.3769 14.3481C47.9148 14.5853 47.3903 14.707 46.8095 14.707C46.2288 14.707 45.7042 14.5853 45.2421 14.3481ZM47.5651 13.2591C47.7899 13.1314 47.971 12.955 48.1022 12.7177C48.2333 12.4865 48.2958 12.2189 48.2958 11.9208C48.2958 11.6227 48.2271 11.355 48.1022 11.1238C47.971 10.8927 47.7962 10.7102 47.5651 10.5824C47.3403 10.4547 47.0905 10.3938 46.8095 10.3938C46.5285 10.3938 46.2787 10.4547 46.0539 10.5824C45.8291 10.7102 45.648 10.8927 45.5231 11.1238C45.392 11.355 45.3295 11.6227 45.3295 11.9208C45.3295 12.2189 45.392 12.4865 45.5231 12.7177C45.6543 12.9489 45.8291 13.1314 46.0539 13.2591C46.2787 13.3869 46.5285 13.4477 46.8095 13.4477C47.0905 13.4477 47.3403 13.3869 47.5651 13.2591Z" fill="#202020"/>
<path d="M53.0746 12.5533H52.369V14.6034H50.8203V9.25H52.369V11.3305H53.1121L54.4235 9.25H56.0596L54.3423 11.8355L56.0783 14.6034H54.3298L53.0809 12.5533H53.0746Z" fill="#202020"/>
<path d="M61.095 10.4484H59.4152V14.6034H57.8853V10.4484H56.1992V9.25H61.1013V10.4484H61.095Z" fill="#202020"/>
<path d="M63.0217 14.3481C62.5596 14.1108 62.1974 13.7762 61.9289 13.3504C61.6666 12.9245 61.5292 12.45 61.5292 11.9208C61.5292 11.3915 61.6604 10.9109 61.9289 10.4912C62.1912 10.0653 62.5596 9.7368 63.0217 9.49955C63.4838 9.26229 64.0084 9.14062 64.5891 9.14062C65.1699 9.14062 65.6944 9.26229 66.1565 9.49955C66.6186 9.7368 66.9808 10.0714 67.2493 10.4912C67.5116 10.917 67.649 11.3915 67.649 11.9208C67.649 12.45 67.5179 12.9306 67.2493 13.3504C66.9871 13.7762 66.6186 14.1047 66.1565 14.3481C65.6944 14.5853 65.1699 14.707 64.5891 14.707C64.0084 14.707 63.4838 14.5853 63.0217 14.3481ZM65.3447 13.2591C65.5695 13.1314 65.7444 12.955 65.8755 12.7177C66.0067 12.4865 66.0691 12.2189 66.0691 11.9208C66.0691 11.6227 66.0004 11.355 65.8755 11.1238C65.7444 10.8927 65.5695 10.7102 65.3447 10.5824C65.1199 10.4547 64.8701 10.3938 64.5891 10.3938C64.3081 10.3938 64.0583 10.4547 63.8335 10.5824C63.6087 10.7102 63.4276 10.8927 63.3027 11.1238C63.1716 11.355 63.1091 11.6227 63.1091 11.9208C63.1091 12.2189 63.1778 12.4865 63.3027 12.7177C63.4339 12.9489 63.6087 13.1314 63.8335 13.2591C64.0583 13.3869 64.3081 13.4477 64.5891 13.4477C64.8701 13.4477 65.1199 13.3869 65.3447 13.2591Z" fill="#202020"/>
<path d="M72.4382 9.48921C72.8066 9.64738 73.0876 9.87855 73.2874 10.1766C73.4873 10.4747 73.5872 10.8276 73.5872 11.2291C73.5872 11.6306 73.4873 11.9834 73.2874 12.2754C73.0876 12.5735 72.8066 12.7986 72.4382 12.9629C72.0697 13.121 71.6388 13.2062 71.1455 13.2062H70.1838V14.6054H68.6289V9.25195H71.1393C71.6388 9.25195 72.0697 9.33104 72.4319 9.49529L72.4382 9.48921ZM71.77 11.807C71.9323 11.6732 72.0135 11.4785 72.0135 11.2291C72.0135 10.9797 71.9323 10.785 71.77 10.6451C71.6076 10.5051 71.3641 10.4382 71.0456 10.4382H70.1838V12.0078H71.0456C71.3641 12.0078 71.6076 11.9408 71.77 11.807Z" fill="#202020"/>
<path d="M82.1187 9.24609V14.5995H80.5825V10.4445H78.4967V14.5995H76.9668V9.24609H82.1249H82.1187Z" fill="#202020"/>
<path d="M83.457 9.24609H84.987V12.3912L87.2538 9.24609H88.715V14.5995H87.1851V11.4605L84.9245 14.5995H83.457V9.24609Z" fill="#202020"/>
<path d="M94.4779 10.4504H92.798V14.6054H91.2681V10.4504H89.582V9.25195H94.4841V10.4504H94.4779Z" fill="#202020"/>
<path d="M99.7665 13.4296V14.5976H95.3516V9.24414H99.6604V10.4122H96.8877V11.3125H99.3294V12.444H96.8877V13.4235H99.7603L99.7665 13.4296Z" fill="#202020"/>
<path d="M104.616 9.48725C104.984 9.64542 105.265 9.8766 105.465 10.1747C105.665 10.4728 105.765 10.8256 105.765 11.2271C105.765 11.6286 105.665 11.9815 105.465 12.2735C105.265 12.5716 104.984 12.7967 104.616 12.9609C104.247 13.1191 103.816 13.2043 103.323 13.2043H102.367V14.6034H100.812V9.25H103.323C103.822 9.25 104.253 9.32908 104.616 9.49334V9.48725ZM103.947 11.8051C104.11 11.6712 104.191 11.4765 104.191 11.2271C104.191 10.9777 104.11 10.783 103.947 10.6431C103.785 10.5032 103.541 10.4363 103.223 10.4363H102.361V12.0058H103.223C103.541 12.0058 103.785 11.9389 103.947 11.8051Z" fill="#202020"/>
</svg>
