<svg width="252" height="70" viewBox="0 0 252 70" fill="none" xmlns="http://www.w3.org/2000/svg">
<g clip-path="url(#clip0_2114_3907)">
<path d="M94.2679 22.8106H94.4419C94.6014 22.8106 94.7465 22.7525 94.877 22.6219C95.0075 22.4912 95.138 22.3315 95.2396 22.1282C95.3411 21.9249 95.4136 21.7216 95.4571 21.5038C95.5151 21.286 95.5296 21.0828 95.5296 20.9085V11.5433H84.6815V20.923C84.6815 21.1118 84.696 21.3006 84.7541 21.5184C84.8121 21.7362 84.8701 21.9394 84.9571 22.1137C85.0441 22.3024 85.1456 22.4622 85.2907 22.6073C85.4212 22.7525 85.5662 22.8106 85.7547 22.8106H85.9143V23.1591H81.1719V22.8106H81.3459C81.5054 22.8106 81.6505 22.7525 81.781 22.6219C81.9115 22.4912 82.042 22.3315 82.1436 22.1282C82.2451 21.9249 82.3176 21.7216 82.3611 21.5038C82.4191 21.286 82.4336 21.0828 82.4336 20.9085V2.55549C82.4336 2.39578 82.4191 2.20702 82.3611 2.00374C82.3176 1.80046 82.2451 1.59719 82.1581 1.40843C82.071 1.21967 81.955 1.05995 81.8245 0.943795C81.694 0.813116 81.5344 0.755037 81.3459 0.755037H81.1719V0.421082H85.9143V0.769557H85.7547C85.5662 0.769557 85.4212 0.827636 85.2762 0.958314C85.1456 1.08899 85.0296 1.23419 84.9426 1.42295C84.8556 1.61171 84.7976 1.80046 84.7541 2.01826C84.7105 2.22154 84.6815 2.4103 84.6815 2.57001V10.3672H95.5296V2.55549C95.5296 2.39578 95.5151 2.20702 95.4571 2.00374C95.4136 1.80046 95.3411 1.59719 95.2541 1.40843C95.167 1.21967 95.051 1.05995 94.9205 0.943795C94.79 0.813116 94.6304 0.755037 94.4419 0.755037H94.2679V0.421082H99.0103V0.769557H98.8507C98.6622 0.769557 98.5172 0.827636 98.3722 0.958314C98.2416 1.08899 98.1256 1.23419 98.0531 1.42295C97.9661 1.61171 97.9081 1.80046 97.8646 2.01826C97.8211 2.22154 97.792 2.4103 97.792 2.57001V20.9376C97.792 21.1263 97.821 21.3151 97.8791 21.5329C97.9371 21.7507 98.0096 21.954 98.0966 22.1282C98.1836 22.317 98.2851 22.4767 98.4157 22.6219C98.5317 22.7671 98.6767 22.8251 98.8507 22.8251H99.0103V23.1736H94.2679V22.8106Z" fill="white"/>
<path d="M103.725 22.8106H103.899C104.087 22.8106 104.232 22.7525 104.377 22.6219C104.508 22.4912 104.638 22.346 104.74 22.1572C104.841 21.9685 104.928 21.7797 104.972 21.5619C105.03 21.3586 105.059 21.1554 105.059 20.9666V2.55549C105.059 2.39578 105.03 2.20702 104.972 2.00374C104.914 1.80046 104.841 1.59719 104.74 1.40843C104.638 1.21967 104.522 1.05995 104.377 0.943795C104.247 0.813116 104.087 0.755037 103.899 0.755037H103.725V0.421082H116.777V3.62996H116.444C116.4 3.10725 116.197 2.62809 115.834 2.23606C115.472 1.8295 114.906 1.64075 114.138 1.64075H107.321V10.3672H112.948C113.47 10.3672 113.906 10.2074 114.254 9.87348C114.602 9.53952 114.79 9.14749 114.79 8.71189H115.124V13.0243H114.79C114.79 12.6032 114.616 12.2547 114.283 11.9498C113.949 11.6449 113.514 11.4997 112.963 11.4997H107.321V21.954H114.747C115.182 21.954 115.559 21.8523 115.863 21.649C116.182 21.4458 116.444 21.1989 116.661 20.9085C116.879 20.6181 117.024 20.3132 117.14 19.9793C117.241 19.6453 117.299 19.3694 117.299 19.1371H117.633V23.1736H103.739L103.725 22.8106Z" fill="white"/>
<path d="M140.3 22.8106H140.474C140.633 22.8106 140.778 22.738 140.909 22.6073C141.039 22.4767 141.17 22.3024 141.271 22.1137C141.373 21.9249 141.445 21.7362 141.489 21.5184C141.547 21.3006 141.561 21.0973 141.561 20.9231V2.78781L132.816 23.5366L124.506 3.86228V20.9085C124.506 21.0973 124.521 21.286 124.579 21.5038C124.622 21.7216 124.695 21.9249 124.796 22.0992C124.898 22.2879 125.014 22.4476 125.159 22.5928C125.289 22.7235 125.449 22.7961 125.637 22.7961H125.811V23.1446H122.113V22.7961H122.287C122.447 22.7961 122.592 22.7235 122.722 22.5928C122.853 22.4622 122.969 22.2879 123.056 22.0992C123.143 21.9104 123.215 21.7216 123.259 21.5038C123.317 21.286 123.332 21.0828 123.332 20.9085V2.55549C123.332 2.39578 123.317 2.20702 123.259 2.00374C123.215 1.80046 123.143 1.59719 123.056 1.40843C122.969 1.21967 122.853 1.05995 122.722 0.943795C122.592 0.813116 122.432 0.755037 122.287 0.755037H122.113V0.421082H125.579L133.454 19.2678L141.329 0.421082H145.158V0.769557H144.984C144.796 0.769557 144.651 0.827636 144.506 0.958315C144.375 1.08899 144.245 1.23419 144.143 1.42295C144.041 1.61171 143.969 1.80046 143.925 2.01826C143.882 2.22154 143.853 2.4103 143.853 2.57001V20.9376C143.853 21.1263 143.867 21.3151 143.925 21.5329C143.983 21.7507 144.041 21.954 144.143 22.1282C144.245 22.317 144.361 22.4767 144.506 22.6219C144.636 22.7525 144.796 22.8251 144.984 22.8251H145.158V23.1736H140.343V22.8251L140.3 22.8106Z" fill="white"/>
<path d="M150.307 22.8106H150.481C150.669 22.8106 150.814 22.7525 150.959 22.6219C151.09 22.4912 151.22 22.346 151.322 22.1572C151.423 21.9685 151.51 21.7797 151.554 21.5619C151.612 21.3586 151.641 21.1554 151.641 20.9666V2.55549C151.641 2.39578 151.612 2.20702 151.554 2.00374C151.496 1.80046 151.423 1.59719 151.322 1.40843C151.22 1.21967 151.09 1.05995 150.959 0.943795C150.829 0.813116 150.669 0.755037 150.481 0.755037H150.307V0.421082H163.359V3.62996H163.026C162.982 3.10725 162.779 2.62809 162.416 2.23606C162.054 1.8295 161.488 1.64075 160.72 1.64075H153.903V10.3672H159.53C160.052 10.3672 160.488 10.2074 160.836 9.87348C161.184 9.55404 161.372 9.16201 161.372 8.72641H161.706V13.0388H161.372C161.372 12.6177 161.198 12.2692 160.865 11.9643C160.531 11.6594 160.096 11.5142 159.545 11.5142H153.918V21.9685H161.343C161.778 21.9685 162.155 21.8668 162.46 21.6636C162.779 21.4603 163.04 21.2134 163.258 20.9231C163.475 20.6327 163.62 20.3277 163.736 19.9938C163.838 19.6598 163.896 19.384 163.896 19.1516H164.229V23.1881H150.336L150.307 22.8106Z" fill="white"/>
<path d="M168.609 22.8106H168.783C168.986 22.8106 169.16 22.738 169.291 22.6073C169.422 22.4767 169.538 22.3024 169.61 22.1137C169.697 21.9249 169.741 21.7362 169.784 21.5184C169.813 21.3006 169.828 21.0973 169.828 20.923V2.65713C169.828 2.49741 169.813 2.30865 169.784 2.06181C169.755 1.8295 169.697 1.62622 169.61 1.43746C169.523 1.2487 169.422 1.08899 169.291 0.943788C169.16 0.81311 168.986 0.740511 168.783 0.740511H168.609V0.406555H173.395V0.755031H173.062C172.873 0.76955 172.728 0.856669 172.598 0.987348C172.482 1.11803 172.38 1.29226 172.308 1.48102C172.25 1.66978 172.192 1.85854 172.148 2.07633C172.119 2.29413 172.105 2.48289 172.105 2.64261V21.9394H182.314V2.65713C182.314 2.49741 182.3 2.30865 182.256 2.09085C182.227 1.87306 182.169 1.66978 182.082 1.49554C181.995 1.3213 181.894 1.14707 181.763 1.00187C181.633 0.856669 181.473 0.78407 181.285 0.76955H181.082V0.421075H185.795V0.76955H185.491C185.302 0.78407 185.157 0.871189 185.056 1.00187C184.939 1.13255 184.852 1.30678 184.78 1.49554C184.707 1.6843 184.664 1.87306 184.62 2.09085C184.591 2.30865 184.562 2.49741 184.562 2.65713V20.0954C184.562 20.5455 184.678 20.9811 184.925 21.3732C185.157 21.7652 185.549 21.9685 186.1 21.9685H187.797V26.2809H187.463C187.448 25.9759 187.376 25.6565 187.245 25.2935C187.129 24.945 186.941 24.5966 186.709 24.2916C186.477 23.9867 186.172 23.7254 185.824 23.5076C185.476 23.2898 185.056 23.1736 184.591 23.1736H168.624L168.609 22.8106Z" fill="white"/>
<path d="M191.74 22.8106H191.914C192.103 22.8106 192.248 22.738 192.393 22.6073C192.538 22.4767 192.654 22.3024 192.755 22.1137C192.857 21.9249 192.929 21.7362 192.973 21.5184C193.016 21.3006 193.045 21.0973 193.045 20.9231V2.55549C193.045 2.39578 193.031 2.20702 192.973 2.00374C192.929 1.80046 192.857 1.59719 192.755 1.40843C192.654 1.21967 192.538 1.05995 192.393 0.943795C192.262 0.813116 192.103 0.755037 191.958 0.755037H191.784V0.421082H196.599V0.769557H196.425C196.236 0.769557 196.091 0.827636 195.946 0.958315C195.816 1.08899 195.685 1.23419 195.583 1.42295C195.482 1.61171 195.395 1.80046 195.351 2.01826C195.293 2.22154 195.264 2.4103 195.264 2.57001V9.71376L203.139 1.7569C203.328 1.56815 203.415 1.35035 203.415 1.10351C203.415 0.900235 203.328 0.798597 203.139 0.798597V0.421082H206.809V0.769557C206.359 0.784077 205.953 0.929275 205.605 1.19063C205.257 1.43747 204.88 1.78594 204.474 2.1925L196.439 10.3817C197.904 10.4252 199.093 10.7447 200.007 11.34C200.92 11.9353 201.617 12.7629 202.139 13.8229L204.822 19.3259C204.981 19.6743 205.184 20.0373 205.445 20.4439C205.706 20.8505 205.996 21.228 206.33 21.5764C206.649 21.9249 207.026 22.2298 207.432 22.4622C207.838 22.6945 208.273 22.8251 208.723 22.8251V23.1736H207.026C206.374 23.1736 205.808 23.0865 205.329 22.8832C204.851 22.68 204.445 22.4331 204.097 22.0992C203.749 21.7652 203.444 21.3877 203.183 20.9811C202.922 20.5601 202.69 20.1535 202.487 19.7469L199.746 14.2004C199.311 13.3437 198.731 12.6903 197.976 12.2547C197.222 11.8046 196.338 11.5578 195.308 11.5142V20.9521C195.308 21.1409 195.322 21.3296 195.38 21.5474C195.424 21.7507 195.496 21.954 195.583 22.1427C195.67 22.346 195.786 22.4912 195.917 22.6364C196.048 22.7671 196.207 22.8397 196.352 22.8542H196.584V23.2027H191.769V22.8542L191.74 22.8106Z" fill="white"/>
<path d="M225.575 22.8106H225.749C226.286 22.8106 226.561 22.5638 226.561 22.0556C226.561 21.8668 226.532 21.6781 226.46 21.4603L223.414 13.0823H217.483L214.539 21.3151C214.466 21.5038 214.437 21.6636 214.437 21.8378C214.437 22.1427 214.524 22.375 214.669 22.5493C214.829 22.7235 214.988 22.8106 215.177 22.8106H215.351V23.1591H211.58V22.8106H211.754C212.044 22.8106 212.334 22.6364 212.624 22.2879C212.914 21.9394 213.132 21.5038 213.32 21.0392L221.079 0L228.679 20.8214C228.838 21.2715 229.056 21.7362 229.346 22.1717C229.636 22.6073 229.999 22.8251 230.448 22.8251H230.622V23.1736H225.604V22.8251L225.575 22.8106ZM217.802 11.9208H223.023L220.412 4.71894L217.802 11.9208Z" fill="white"/>
<path d="M245.474 22.8106H245.649C245.808 22.8106 245.953 22.738 246.113 22.6073C246.258 22.4767 246.374 22.3024 246.475 22.1137C246.562 21.9249 246.635 21.7362 246.693 21.5184C246.751 21.3006 246.78 21.0973 246.78 20.923V11.5723C246.287 11.6158 245.808 11.7756 245.373 12.066C244.938 12.3418 244.517 12.7048 244.111 13.1695C243.72 13.6196 243.343 14.1423 242.994 14.7231C242.646 15.2894 242.313 15.8992 241.994 16.5235C241.747 16.9737 241.472 17.4673 241.182 17.99C240.877 18.5128 240.587 19.021 240.297 19.5582C239.76 20.5601 239.035 21.4312 238.165 22.1282C237.28 22.8397 236.265 23.1736 235.105 23.1736H233.307V22.8251C233.829 22.8251 234.322 22.709 234.786 22.4767C235.25 22.2443 235.671 21.954 236.062 21.62C236.454 21.2715 236.787 20.894 237.092 20.4729C237.396 20.0519 237.657 19.6743 237.861 19.2968L240.544 14.4037C240.863 13.8519 241.211 13.3147 241.573 12.792C241.95 12.2692 242.516 11.8627 243.285 11.5432C242.342 11.4706 241.486 11.2964 240.747 10.9915C240.007 10.6866 239.369 10.2945 238.847 9.81539C238.325 9.33624 237.933 8.78448 237.657 8.17465C237.396 7.56482 237.251 6.92595 237.251 6.27256C237.251 5.41589 237.44 4.63182 237.832 3.90583C238.223 3.17984 238.76 2.55549 239.456 2.03277C240.166 1.51006 241.008 1.10351 242.023 0.82763C243.038 0.537233 244.155 0.406555 245.402 0.406555H250.275V0.755031H250.101C249.941 0.755031 249.796 0.81311 249.666 0.943788C249.535 1.07447 249.419 1.21966 249.332 1.40842C249.245 1.59718 249.173 1.78594 249.129 2.00373C249.086 2.20701 249.057 2.39577 249.057 2.55549V20.923C249.057 21.1118 249.071 21.3006 249.129 21.5184C249.173 21.7362 249.245 21.9394 249.332 22.1137C249.419 22.3024 249.535 22.4621 249.666 22.6073C249.796 22.7525 249.956 22.8106 250.101 22.8106H250.275V23.1591H245.503V22.8106H245.474ZM239.398 5.76437C239.398 6.43228 239.528 7.05663 239.804 7.60838C240.065 8.17465 240.442 8.65381 240.921 9.07488C241.385 9.49596 241.936 9.81539 242.574 10.0332C243.212 10.2655 243.894 10.3817 244.633 10.3817H246.751V1.58266H246.243C244.053 1.58266 242.371 1.94566 241.182 2.68617C239.992 3.42668 239.398 4.44306 239.398 5.76437Z" fill="white"/>
<path d="M87.9879 41.0475C87.8719 41.0475 87.7704 41.062 87.6689 41.1201C87.5674 41.1782 87.4513 41.2363 87.3353 41.3088C87.0888 41.454 86.7697 41.5992 86.3926 41.7444C86.0011 41.9042 85.508 41.9768 84.9134 41.9768C84.1882 41.9768 83.5356 41.8606 82.9265 41.6283C82.3174 41.396 81.8098 41.062 81.3602 40.6409C80.9251 40.2199 80.5915 39.7117 80.345 39.1599C80.0984 38.5936 79.9824 37.9838 79.9824 37.3304C79.9824 36.7061 80.0984 36.1253 80.316 35.5735C80.5335 35.0073 80.8526 34.5136 81.2587 34.0925C81.6647 33.6714 82.1723 33.3084 82.7669 33.0616C83.3761 32.8002 84.0577 32.6841 84.8118 32.6841C85.3339 32.6841 85.7545 32.7422 86.0881 32.8728C86.4216 33.0035 86.6972 33.1052 86.9147 33.2213C87.0308 33.2939 87.1613 33.352 87.2773 33.381C87.3933 33.4246 87.5239 33.4391 87.6399 33.4391V35.0798H87.4223C87.3498 34.804 87.2338 34.5717 87.0453 34.3539C86.8567 34.1506 86.6537 33.9763 86.4071 33.8311C86.1751 33.6859 85.9141 33.5843 85.624 33.5117C85.3339 33.4391 85.0584 33.4101 84.7973 33.4101C84.2172 33.4101 83.7096 33.5117 83.26 33.715C82.825 33.9183 82.4624 34.2087 82.1723 34.5281C81.8823 34.8766 81.6792 35.2541 81.5342 35.6752C81.3892 36.0962 81.3167 36.5464 81.3167 37.011C81.3167 37.5337 81.4037 38.0564 81.5632 38.5791C81.7228 39.0873 81.9548 39.5374 82.2739 39.944C82.5784 40.3505 82.941 40.67 83.3906 40.9023C83.8402 41.1491 84.3332 41.2653 84.8989 41.2653C85.2904 41.2653 85.6675 41.2072 86.0011 41.0911C86.3346 40.9749 86.6392 40.8152 86.8857 40.6409C87.1323 40.4522 87.3353 40.2489 87.4803 40.0311C87.6399 39.8133 87.7124 39.5955 87.7414 39.3922H87.9589L87.9879 41.0475Z" fill="white"/>
<path d="M91.1939 37.4901C91.2519 37.9838 91.368 38.463 91.5565 38.9276C91.745 39.3777 91.9916 39.7843 92.2961 40.1182C92.6007 40.4667 92.9633 40.7426 93.4128 40.9459C93.8479 41.1491 94.3555 41.2508 94.9501 41.2508C95.2547 41.2508 95.5883 41.1927 95.9363 41.1056C96.2844 41.0185 96.6034 40.8733 96.8935 40.7135C97.1836 40.5393 97.4591 40.336 97.6912 40.0747C97.9232 39.8278 98.0827 39.5374 98.1698 39.218H98.3583V40.8297C98.2713 40.8297 98.1698 40.8587 98.0682 40.9168C97.9667 40.9749 97.8362 41.0475 97.7057 41.1346C97.4156 41.3089 97.0385 41.4831 96.5599 41.6864C96.0814 41.8897 95.4432 41.9768 94.6456 41.9768C94.0075 41.9768 93.4128 41.8897 92.8327 41.7009C92.2671 41.5121 91.745 41.2217 91.3244 40.8442C90.8894 40.4667 90.5413 39.9585 90.2802 39.3632C90.0192 38.7679 89.8887 38.0419 89.8887 37.1998C89.8887 36.677 89.9757 36.1253 90.1497 35.5881C90.3238 35.0363 90.5993 34.5571 90.9619 34.1216C91.3244 33.686 91.7885 33.323 92.3541 33.0471C92.9198 32.7712 93.6014 32.6405 94.3845 32.6405C95.0952 32.6405 95.7043 32.7712 96.2409 33.0035C96.7775 33.2358 97.2126 33.5843 97.5606 34.0199C97.9087 34.441 98.1698 34.9637 98.3293 35.5445C98.4888 36.1398 98.5903 36.7787 98.5903 37.4901H91.2374H91.1939ZM94.2685 33.3375C93.7754 33.3375 93.3548 33.4391 92.9778 33.6424C92.6152 33.8457 92.3106 34.0925 92.0641 34.4265C91.803 34.7459 91.6145 35.0944 91.4695 35.5009C91.3244 35.9075 91.2374 36.314 91.1939 36.7061H97.2416C97.2271 36.285 97.1546 35.8785 97.024 35.4864C96.8935 35.0799 96.705 34.7314 96.4584 34.412C96.2119 34.0925 95.9218 33.8457 95.5447 33.6424C95.1822 33.4391 94.7471 33.3375 94.2685 33.3375Z" fill="white"/>
<path d="M110.655 40.4232C110.655 40.5393 110.67 40.6555 110.699 40.8007C110.728 40.9313 110.771 41.062 110.844 41.1782C110.902 41.2943 110.975 41.396 111.062 41.4831C111.149 41.5702 111.25 41.6138 111.352 41.6138V41.8316H108.596V41.6138C108.712 41.6138 108.814 41.5702 108.886 41.4976C108.973 41.4105 109.046 41.3234 109.104 41.1927C109.162 41.062 109.205 40.9459 109.22 40.8152C109.249 40.6845 109.263 40.5538 109.263 40.4377V34.6152L105.725 42.0203L102.331 35.0363V40.4232C102.331 40.5393 102.345 40.6555 102.374 40.8007C102.403 40.9313 102.447 41.062 102.49 41.1782C102.548 41.2943 102.606 41.396 102.708 41.4831C102.809 41.5702 102.896 41.6138 102.998 41.6138V41.8316H100.953V41.6138C101.069 41.6138 101.171 41.5702 101.243 41.4831C101.33 41.396 101.403 41.2943 101.446 41.1782C101.504 41.062 101.533 40.9459 101.562 40.8007C101.591 40.67 101.606 40.5393 101.606 40.4232V34.1216C101.606 33.8602 101.577 33.6134 101.519 33.3665C101.461 33.1197 101.258 33.0035 100.953 33.0035V32.7857H102.838L106.087 39.5229L109.336 32.7857H111.352V33.0035C111.134 33.0035 110.975 33.1342 110.844 33.3956C110.728 33.6714 110.655 33.9038 110.655 34.107V40.4232Z" fill="white"/>
<path d="M115.239 37.4901C115.297 37.9838 115.413 38.463 115.601 38.9276C115.79 39.3777 116.036 39.7843 116.341 40.1182C116.646 40.4667 117.008 40.7426 117.458 40.9459C117.893 41.1491 118.4 41.2508 118.995 41.2508C119.3 41.2508 119.633 41.1927 119.981 41.1056C120.329 41.0185 120.648 40.8733 120.938 40.7135C121.228 40.5393 121.504 40.336 121.736 40.0747C121.968 39.8278 122.128 39.5374 122.215 39.218H122.403V40.8297C122.316 40.8297 122.215 40.8587 122.113 40.9168C122.012 40.9749 121.881 41.0475 121.751 41.1346C121.461 41.3089 121.083 41.4831 120.605 41.6864C120.126 41.8897 119.488 41.9768 118.69 41.9768C118.052 41.9768 117.458 41.8897 116.878 41.7009C116.312 41.5121 115.79 41.2217 115.369 40.8442C114.934 40.4667 114.586 39.9585 114.325 39.3632C114.064 38.7679 113.934 38.0419 113.934 37.1998C113.934 36.677 114.021 36.1253 114.195 35.5881C114.369 35.0363 114.644 34.5571 115.007 34.1216C115.369 33.686 115.833 33.323 116.399 33.0471C116.965 32.7712 117.646 32.6405 118.429 32.6405C119.14 32.6405 119.749 32.7712 120.286 33.0035C120.822 33.2358 121.257 33.5843 121.606 34.0199C121.954 34.441 122.215 34.9637 122.374 35.5445C122.534 36.1398 122.635 36.7787 122.635 37.4901H115.282H115.239ZM118.313 33.3375C117.82 33.3375 117.4 33.4391 117.023 33.6424C116.66 33.8457 116.356 34.0925 116.109 34.4265C115.848 34.7459 115.659 35.0944 115.514 35.5009C115.369 35.9075 115.282 36.314 115.239 36.7061H121.286C121.272 36.285 121.199 35.8785 121.069 35.4864C120.938 35.0799 120.75 34.7314 120.503 34.412C120.257 34.0925 119.967 33.8457 119.59 33.6424C119.213 33.4391 118.792 33.3375 118.313 33.3375Z" fill="white"/>
<path d="M133.469 40.4232C133.469 40.5393 133.484 40.6555 133.527 40.8007C133.556 40.9314 133.614 41.062 133.672 41.1782C133.73 41.2943 133.803 41.396 133.89 41.4831C133.977 41.5702 134.078 41.6138 134.151 41.6138V41.8316H131.439V41.6138C131.54 41.6138 131.627 41.5702 131.714 41.4976C131.802 41.4105 131.874 41.3234 131.932 41.1927C131.99 41.062 132.034 40.9459 132.048 40.8152C132.077 40.6845 132.092 40.5538 132.092 40.4377V35.2686L127.045 40.2925V40.4522C127.045 40.5684 127.059 40.6845 127.088 40.8297C127.117 40.9604 127.161 41.0911 127.204 41.2072C127.262 41.3234 127.32 41.425 127.407 41.5121C127.494 41.5993 127.567 41.6428 127.668 41.6428V41.8606H124.971V41.6428C125.072 41.6428 125.159 41.5993 125.246 41.5267C125.333 41.4395 125.406 41.3524 125.464 41.2217C125.522 41.0911 125.565 40.9749 125.58 40.8442C125.609 40.7136 125.623 40.5829 125.623 40.4667V34.1651C125.623 34.0635 125.609 33.9473 125.58 33.8166C125.551 33.686 125.507 33.5698 125.464 33.4536C125.406 33.3375 125.348 33.2504 125.246 33.1633C125.159 33.0761 125.072 33.0471 124.971 33.0471V32.8293H127.668V33.0471C127.552 33.0471 127.465 33.0907 127.378 33.1633C127.291 33.2504 127.233 33.3375 127.19 33.4536C127.132 33.5698 127.103 33.686 127.074 33.8166C127.045 33.9473 127.03 34.0635 127.03 34.1651V39.3051L132.077 34.2813V34.1506C132.077 34.049 132.063 33.9328 132.034 33.8021C132.005 33.6714 131.961 33.5553 131.918 33.4391C131.86 33.323 131.802 33.2359 131.7 33.1487C131.613 33.0616 131.526 33.0326 131.424 33.0326V32.8148H134.136V33.0326C134.02 33.0326 133.919 33.0761 133.832 33.1487C133.745 33.2359 133.672 33.323 133.614 33.4391C133.556 33.5553 133.527 33.6714 133.498 33.8021C133.469 33.9328 133.455 34.049 133.455 34.1506V40.4522L133.469 40.4232ZM131.845 29.8818C131.845 30.1141 131.787 30.3609 131.671 30.6223C131.555 30.8982 131.395 31.1305 131.178 31.3628C130.96 31.5806 130.714 31.7693 130.424 31.9145C130.134 32.0597 129.815 32.1323 129.467 32.1323C129.133 32.1323 128.828 32.0597 128.553 31.9291C128.263 31.7984 128.016 31.6242 127.799 31.4064C127.581 31.1886 127.422 30.9562 127.291 30.6804C127.175 30.4045 127.103 30.1577 127.103 29.8963H127.219C127.233 29.9834 127.277 30.0996 127.364 30.2448C127.451 30.39 127.567 30.5497 127.726 30.7094C127.9 30.8691 128.118 30.9998 128.393 31.116C128.669 31.2321 129.017 31.2902 129.438 31.2902C129.873 31.2902 130.235 31.2321 130.525 31.116C130.815 30.9998 131.033 30.8691 131.192 30.7094C131.366 30.5497 131.482 30.4045 131.555 30.2448C131.627 30.0851 131.671 29.9689 131.714 29.8963H131.831H131.845V29.8818Z" fill="white"/>
<path d="M138.908 40.4231C138.908 40.5393 138.923 40.6555 138.952 40.8007C138.981 40.9313 139.024 41.062 139.068 41.1782C139.126 41.2943 139.184 41.396 139.271 41.4831C139.358 41.5702 139.43 41.6138 139.532 41.6138V41.8316H136.863V41.6138C136.965 41.6138 137.052 41.5702 137.124 41.4976C137.211 41.4105 137.269 41.3234 137.327 41.1927C137.385 41.062 137.429 40.9459 137.443 40.8152C137.472 40.6845 137.487 40.5538 137.487 40.4377V34.1361C137.487 34.0344 137.472 33.9183 137.443 33.7876C137.414 33.6569 137.371 33.5408 137.327 33.4246C137.269 33.3084 137.211 33.2213 137.124 33.1342C137.037 33.0471 136.965 33.018 136.863 33.018V32.8002H139.532V33.018C139.416 33.018 139.329 33.0616 139.242 33.1342C139.155 33.2213 139.097 33.3084 139.053 33.4246C138.995 33.5408 138.966 33.6569 138.937 33.7876C138.908 33.9183 138.894 34.0344 138.894 34.1361V36.7351H143.738V34.1361C143.738 34.0344 143.723 33.9183 143.694 33.7876C143.665 33.6569 143.622 33.5408 143.578 33.4246C143.52 33.3084 143.462 33.2213 143.39 33.1342C143.303 33.0471 143.215 33.018 143.099 33.018V32.8002H145.768V33.018C145.652 33.018 145.565 33.0616 145.478 33.1342C145.391 33.2068 145.333 33.3084 145.275 33.4246C145.217 33.5408 145.188 33.6569 145.159 33.7876C145.144 33.9183 145.13 34.0344 145.13 34.1361V40.4377C145.13 40.5538 145.144 40.67 145.173 40.8152C145.202 40.9459 145.246 41.0765 145.289 41.1927C145.347 41.3089 145.405 41.4105 145.492 41.4976C145.579 41.5847 145.652 41.6283 145.753 41.6283V41.8461H143.085V41.6283C143.186 41.6283 143.273 41.5847 143.346 41.5121C143.433 41.4395 143.491 41.3379 143.549 41.2072C143.607 41.0765 143.651 40.9604 143.665 40.8297C143.694 40.699 143.709 40.5683 143.709 40.4522V37.4466H138.865V40.4522V40.4231H138.908Z" fill="white"/>
<path d="M154.047 41.8316V40.7281L153.946 40.8297C153.583 41.1927 153.192 41.4686 152.728 41.6719C152.264 41.8751 151.713 41.9768 151.06 41.9768C150.567 41.9768 150.146 41.9187 149.798 41.8025C149.45 41.6864 149.16 41.5267 148.928 41.3089C148.71 41.1056 148.536 40.8587 148.435 40.5974C148.333 40.3215 148.275 40.0311 148.275 39.7407C148.275 39.247 148.406 38.8114 148.667 38.4485C148.928 38.0855 149.305 37.737 149.798 37.4466C150.291 37.1562 150.9 36.8948 151.611 36.6625C152.322 36.4302 153.148 36.1979 154.062 35.951C154.033 35.3848 153.917 34.9347 153.728 34.5862C153.54 34.2377 153.293 33.9764 153.032 33.7731C152.771 33.5698 152.481 33.4536 152.191 33.3956C151.901 33.3375 151.64 33.3084 151.422 33.3084C151.06 33.3084 150.726 33.3665 150.451 33.4682C150.161 33.5698 149.914 33.715 149.711 33.8892C149.494 34.0635 149.32 34.2667 149.189 34.4991C149.059 34.7314 148.957 34.9492 148.885 35.196H148.696V33.5117C148.812 33.5117 148.972 33.4682 149.146 33.3665C149.32 33.2649 149.508 33.1632 149.755 33.0616C149.987 32.9454 150.277 32.8438 150.596 32.7567C150.915 32.6696 151.335 32.626 151.785 32.626C152.554 32.626 153.192 32.7276 153.67 32.9309C154.149 33.1342 154.512 33.3956 154.787 33.7295C155.048 34.0635 155.222 34.441 155.309 34.8621C155.396 35.2831 155.425 35.7187 155.425 36.1688V40.4377C155.425 40.7281 155.498 41.0039 155.643 41.2508C155.788 41.4976 155.962 41.6283 156.208 41.6283V41.8461H154.047V41.8316ZM154.047 39.7843V36.7061L153.83 36.7496C153.496 36.8368 153.076 36.9529 152.583 37.0981C152.09 37.2433 151.64 37.4321 151.19 37.6644C150.755 37.8967 150.378 38.1726 150.074 38.4775C149.769 38.7824 149.61 39.1599 149.61 39.581C149.61 40.0311 149.798 40.4231 150.161 40.7281C150.523 41.033 151.002 41.1782 151.597 41.1782C152.061 41.1782 152.481 41.0765 152.815 40.8733C153.177 40.67 153.482 40.3941 153.786 40.0602L154.018 39.7988H154.047V39.7843Z" fill="white"/>
<path d="M165.548 40.4232C165.548 40.5393 165.563 40.6555 165.592 40.8007C165.621 40.9313 165.664 41.0765 165.737 41.1782C165.809 41.2943 165.867 41.396 165.954 41.4831C166.041 41.5702 166.128 41.5993 166.244 41.5993V41.8171H163.489V41.5993C163.59 41.5993 163.677 41.5557 163.764 41.4686C163.851 41.3815 163.924 41.2798 163.996 41.1637C164.054 41.0475 164.112 40.9313 164.141 40.7861C164.17 40.6555 164.185 40.5248 164.185 40.4086V37.3885C164.025 37.4176 163.866 37.5047 163.648 37.6353C163.46 37.766 163.257 37.9403 163.039 38.1581C162.822 38.3613 162.619 38.5937 162.43 38.826C162.242 39.0728 162.053 39.3196 161.879 39.5665C161.734 39.7698 161.618 39.9295 161.516 40.0602C161.415 40.1908 161.328 40.307 161.255 40.4232C161.11 40.6119 160.965 40.7861 160.82 40.9459C160.675 41.1056 160.53 41.2508 160.342 41.3815C160.168 41.5121 159.95 41.6138 159.718 41.6864C159.472 41.759 159.196 41.788 158.877 41.788H158.094V41.5702C158.268 41.5702 158.442 41.5121 158.616 41.4105C158.79 41.3089 158.964 41.1782 159.138 41.033C159.297 40.8878 159.472 40.7281 159.617 40.5393C159.776 40.3651 159.892 40.1908 160.008 40.0311L160.661 39.1019C160.907 38.7679 161.154 38.4485 161.4 38.129C161.661 37.8096 161.937 37.5482 162.271 37.3595C161.763 37.345 161.313 37.2724 160.907 37.1417C160.516 37.011 160.182 36.8368 159.907 36.619C159.646 36.4012 159.442 36.1543 159.297 35.8785C159.167 35.6026 159.094 35.2977 159.094 34.9927C159.094 34.6878 159.167 34.3974 159.297 34.1361C159.428 33.8602 159.646 33.6279 159.936 33.4246C160.226 33.2213 160.617 33.0471 161.067 32.9309C161.531 32.8003 162.082 32.7422 162.735 32.7422H166.23V32.96C166.114 32.96 166.012 33.0035 165.94 33.0761C165.853 33.1632 165.795 33.2504 165.722 33.3665C165.664 33.4827 165.606 33.5988 165.577 33.7295C165.548 33.8602 165.534 33.9764 165.534 34.078V40.3796V40.4232H165.548ZM160.458 34.9056C160.458 35.1234 160.516 35.3267 160.661 35.5445C160.791 35.7623 160.98 35.9511 161.212 36.1253C161.444 36.2995 161.705 36.4302 162.009 36.5464C162.3 36.6625 162.619 36.7061 162.952 36.7061H164.141V33.4536H162.764C161.922 33.4536 161.313 33.5843 160.98 33.8602C160.632 34.1506 160.458 34.4991 160.458 34.9056Z" fill="white"/>
<path d="M181.458 40.1473C181.545 40.307 181.647 40.4667 181.792 40.641C181.937 40.8152 182.082 40.9749 182.27 41.1201C182.444 41.2653 182.633 41.3815 182.807 41.4686C182.996 41.5557 183.17 41.6138 183.344 41.6138V41.8316H182.531C181.879 41.8316 181.371 41.7009 181.023 41.425C180.661 41.1491 180.385 40.8297 180.197 40.4667L179.196 38.5501C179.036 38.2452 178.775 37.9838 178.413 37.766C178.05 37.5482 177.659 37.4321 177.252 37.4321V40.4958C177.252 40.6119 177.267 40.7281 177.281 40.8587C177.296 40.9894 177.339 41.1056 177.397 41.2217C177.456 41.3379 177.514 41.425 177.615 41.5121C177.702 41.5993 177.804 41.6283 177.905 41.6283V41.8461H175.164V41.6283C175.266 41.6283 175.353 41.5847 175.454 41.5121C175.541 41.425 175.614 41.3379 175.672 41.2217C175.73 41.1056 175.773 40.9894 175.802 40.8587C175.831 40.7281 175.846 40.6119 175.846 40.4958V34.1651C175.846 34.0635 175.831 33.9473 175.802 33.8166C175.773 33.686 175.73 33.5553 175.686 33.4391C175.628 33.323 175.57 33.2358 175.483 33.1487C175.396 33.0616 175.295 33.0326 175.164 33.0326V32.8148H177.876V33.0326C177.775 33.0326 177.688 33.0761 177.615 33.1487C177.528 33.2213 177.47 33.323 177.412 33.4391C177.354 33.5553 177.31 33.6714 177.296 33.8166C177.267 33.9473 177.252 34.078 177.252 34.1651V36.3866C177.862 35.8349 178.456 35.3122 179.065 34.804C179.66 34.2958 180.255 33.7731 180.864 33.2213C180.864 33.2068 180.864 33.1923 180.878 33.1778C180.893 33.1632 180.893 33.1487 180.893 33.1342C180.893 33.0616 180.849 33.0326 180.791 33.0326V32.8148H182.633V33.0326C182.56 33.0326 182.473 33.0471 182.372 33.0907C182.27 33.1342 182.183 33.1778 182.082 33.2358C181.966 33.2939 181.864 33.3665 181.748 33.4536C181.11 34.0054 180.487 34.5572 179.834 35.1234C179.196 35.6897 178.558 36.2414 177.92 36.7932C178.529 36.7932 179.022 36.9094 179.413 37.1417C179.805 37.374 180.124 37.737 180.4 38.2452L181.444 40.1908L181.458 40.1473Z" fill="white"/>
<path d="M191.581 41.6138C191.683 41.6138 191.799 41.5702 191.915 41.4831C192.031 41.396 192.103 41.2798 192.103 41.1201C192.103 41.0911 192.103 41.033 192.074 40.9313C192.06 40.8442 192.016 40.7281 191.958 40.6264L189.261 34.1651L186.462 40.9459C186.215 41.5412 185.751 41.8316 185.04 41.8316H184.576V41.6138C184.765 41.6138 184.997 41.5121 185.214 41.3089C185.446 41.1056 185.635 40.8588 185.78 40.5684L188.651 33.715C188.724 33.5262 188.753 33.3665 188.753 33.2649C188.753 33.0907 188.637 33.0035 188.419 33.0035V32.7857H190.131L193.394 40.5393C193.495 40.7571 193.64 40.9894 193.829 41.2363C194.017 41.4831 194.192 41.6138 194.366 41.6138V41.8316H191.552V41.6138H191.581Z" fill="white"/>
<path d="M204.808 40.4232C204.808 40.5393 204.823 40.6555 204.866 40.8007C204.895 40.9313 204.953 41.062 205.011 41.1782C205.069 41.2943 205.142 41.396 205.229 41.4831C205.316 41.5702 205.417 41.6138 205.49 41.6138V41.8316H202.778V41.6138C202.879 41.6138 202.966 41.5702 203.054 41.4976C203.141 41.4105 203.213 41.3234 203.271 41.1927C203.329 41.062 203.373 40.9459 203.387 40.8152C203.416 40.6845 203.431 40.5538 203.431 40.4377V35.2686L198.384 40.2925V40.4522C198.384 40.5684 198.398 40.6845 198.427 40.8297C198.456 40.9604 198.5 41.0911 198.558 41.2072C198.616 41.3234 198.674 41.425 198.761 41.5121C198.848 41.5993 198.92 41.6428 199.022 41.6428V41.8606H196.324V41.6428C196.426 41.6428 196.513 41.5993 196.6 41.5267C196.687 41.4395 196.759 41.3524 196.817 41.2217C196.875 41.0911 196.919 40.9749 196.933 40.8442C196.962 40.7135 196.977 40.5829 196.977 40.4667V34.1651C196.977 34.0635 196.962 33.9473 196.933 33.8166C196.904 33.686 196.861 33.5698 196.817 33.4536C196.759 33.3375 196.701 33.2504 196.6 33.1632C196.513 33.0761 196.426 33.0471 196.324 33.0471V32.8293H199.022V33.0471C198.906 33.0471 198.819 33.0906 198.732 33.1632C198.645 33.2504 198.587 33.3375 198.543 33.4536C198.485 33.5698 198.456 33.686 198.427 33.8166C198.398 33.9473 198.384 34.0635 198.384 34.1651V39.3051L203.431 34.2813V34.1506C203.431 34.049 203.416 33.9328 203.387 33.8021C203.358 33.6714 203.315 33.5553 203.271 33.4391C203.213 33.323 203.155 33.2358 203.054 33.1487C202.966 33.0616 202.879 33.0326 202.778 33.0326V32.8148H205.49V33.0326C205.374 33.0326 205.272 33.0761 205.185 33.1487C205.098 33.2358 205.026 33.323 204.968 33.4391C204.924 33.5553 204.881 33.6714 204.852 33.8021C204.823 33.9328 204.808 34.049 204.808 34.1506V40.4522V40.4232Z" fill="white"/>
<path d="M210.232 40.4231C210.232 40.5393 210.247 40.6555 210.276 40.8007C210.305 40.9313 210.348 41.062 210.392 41.1782C210.45 41.2943 210.508 41.396 210.595 41.4831C210.682 41.5702 210.754 41.6138 210.856 41.6138V41.8316H208.188V41.6138C208.289 41.6138 208.376 41.5702 208.449 41.4976C208.536 41.4105 208.594 41.3234 208.652 41.1927C208.71 41.062 208.753 40.9459 208.768 40.8152C208.797 40.6845 208.811 40.5538 208.811 40.4377V34.1361C208.811 34.0344 208.797 33.9183 208.768 33.7876C208.739 33.6569 208.695 33.5408 208.652 33.4246C208.594 33.3084 208.521 33.2213 208.449 33.1342C208.362 33.0471 208.289 33.018 208.188 33.018V32.8002H210.856V33.018C210.74 33.018 210.653 33.0616 210.566 33.1342C210.479 33.2213 210.421 33.3084 210.377 33.4246C210.334 33.5408 210.29 33.6569 210.261 33.7876C210.232 33.9183 210.218 34.0344 210.218 34.1361V36.7351H215.062V34.1361C215.062 34.0344 215.047 33.9183 215.018 33.7876C214.989 33.6569 214.946 33.5408 214.902 33.4246C214.844 33.3084 214.786 33.2213 214.714 33.1342C214.627 33.0471 214.54 33.018 214.424 33.018V32.8002H217.092V33.018C216.976 33.018 216.889 33.0616 216.802 33.1342C216.715 33.2068 216.657 33.3084 216.599 33.4246C216.541 33.5408 216.512 33.6569 216.483 33.7876C216.469 33.9183 216.454 34.0344 216.454 34.1361V40.4377C216.454 40.5538 216.469 40.67 216.498 40.8152C216.527 40.9459 216.57 41.0765 216.614 41.1927C216.672 41.3089 216.73 41.4105 216.817 41.4976C216.904 41.5847 216.976 41.6283 217.078 41.6283V41.8461H214.409V41.6283C214.511 41.6283 214.598 41.5847 214.67 41.5121C214.757 41.4395 214.815 41.3379 214.873 41.2072C214.931 41.0765 214.975 40.9604 215.004 40.8297C215.033 40.699 215.047 40.5683 215.047 40.4522V37.4466H210.203V40.4522V40.4231H210.232Z" fill="white"/>
<path d="M228.288 40.4232C228.288 40.5393 228.302 40.6555 228.346 40.8007C228.375 40.9313 228.433 41.062 228.491 41.1782C228.549 41.2943 228.621 41.396 228.708 41.4831C228.795 41.5702 228.897 41.6138 228.969 41.6138V41.8316H226.257V41.6138C226.359 41.6138 226.446 41.5702 226.533 41.4976C226.62 41.4105 226.692 41.3234 226.75 41.1927C226.808 41.062 226.852 40.9459 226.866 40.8152C226.895 40.6845 226.91 40.5538 226.91 40.4377V35.2686L221.863 40.2925V40.4522C221.863 40.5684 221.877 40.6845 221.906 40.8297C221.935 40.9604 221.979 41.0911 222.022 41.2072C222.08 41.3234 222.138 41.425 222.226 41.5121C222.313 41.5993 222.385 41.6428 222.487 41.6428V41.8606H219.789V41.6428C219.891 41.6428 219.978 41.5993 220.065 41.5267C220.152 41.4395 220.224 41.3524 220.282 41.2217C220.34 41.0911 220.384 40.9749 220.413 40.8442C220.442 40.7135 220.456 40.5829 220.456 40.4667V34.1651C220.456 34.0635 220.442 33.9473 220.413 33.8166C220.384 33.686 220.34 33.5698 220.282 33.4536C220.224 33.3375 220.166 33.2504 220.065 33.1632C219.978 33.0761 219.891 33.0471 219.789 33.0471V32.8293H222.487V33.0471C222.371 33.0471 222.284 33.0906 222.197 33.1632C222.11 33.2504 222.051 33.3375 222.008 33.4536C221.95 33.5698 221.921 33.686 221.892 33.8166C221.863 33.9473 221.848 34.0635 221.848 34.1651V39.3051L226.895 34.2813V34.1506C226.895 34.049 226.881 33.9328 226.852 33.8021C226.823 33.6714 226.779 33.5553 226.736 33.4391C226.678 33.323 226.605 33.2358 226.518 33.1487C226.431 33.0616 226.344 33.0326 226.243 33.0326V32.8148H228.955V33.0326C228.839 33.0326 228.737 33.0761 228.65 33.1487C228.563 33.2358 228.491 33.323 228.433 33.4391C228.375 33.5553 228.346 33.6714 228.317 33.8021C228.288 33.9328 228.273 34.049 228.273 34.1506V40.4522L228.288 40.4232Z" fill="white"/>
<path d="M238.063 40.1473C238.15 40.307 238.251 40.4667 238.396 40.641C238.541 40.8152 238.687 40.9749 238.875 41.1201C239.049 41.2653 239.238 41.3815 239.412 41.4686C239.6 41.5557 239.774 41.6138 239.948 41.6138V41.8316H239.136C238.483 41.8316 237.99 41.7009 237.642 41.425C237.28 41.1491 237.004 40.8297 236.816 40.4667L235.815 38.5501C235.655 38.2452 235.394 37.9838 235.032 37.766C234.669 37.5482 234.278 37.4321 233.872 37.4321V40.4958C233.872 40.6119 233.886 40.7281 233.901 40.8587C233.915 40.9894 233.959 41.1056 234.017 41.2217C234.06 41.3379 234.133 41.425 234.234 41.5121C234.321 41.5993 234.423 41.6283 234.524 41.6283V41.8461H231.783V41.6283C231.885 41.6283 231.972 41.5847 232.073 41.5121C232.16 41.425 232.233 41.3379 232.291 41.2217C232.349 41.1056 232.392 40.9894 232.421 40.8587C232.45 40.7281 232.465 40.6119 232.465 40.4958V34.1651C232.465 34.0635 232.45 33.9473 232.421 33.8166C232.392 33.686 232.349 33.5553 232.305 33.4391C232.247 33.323 232.189 33.2358 232.102 33.1487C232.015 33.0616 231.914 33.0326 231.783 33.0326V32.8148H234.495V33.0326C234.394 33.0326 234.307 33.0761 234.234 33.1487C234.147 33.2213 234.089 33.323 234.031 33.4391C233.973 33.5553 233.93 33.6714 233.915 33.8166C233.886 33.9473 233.872 34.078 233.872 34.1651V36.3866C234.481 35.8349 235.075 35.3122 235.684 34.804C236.279 34.2958 236.874 33.7731 237.483 33.2213C237.483 33.2068 237.483 33.1923 237.497 33.1778C237.512 33.1632 237.512 33.1487 237.512 33.1342C237.512 33.0616 237.468 33.0326 237.41 33.0326V32.8148H239.252V33.0326C239.18 33.0326 239.093 33.0471 238.991 33.0907C238.89 33.1342 238.803 33.1778 238.701 33.2358C238.585 33.2939 238.483 33.3665 238.367 33.4536C237.729 34.0054 237.106 34.5572 236.453 35.1234C235.815 35.6897 235.177 36.2414 234.539 36.7932C235.148 36.7932 235.641 36.9094 236.033 37.1417C236.424 37.374 236.743 37.737 237.019 38.2452L238.063 40.1908V40.1473Z" fill="white"/>
<path d="M247.417 41.8316V40.7281L247.315 40.8297C246.953 41.1927 246.561 41.4686 246.097 41.6719C245.633 41.8751 245.082 41.9768 244.429 41.9768C243.936 41.9768 243.515 41.9187 243.167 41.8025C242.819 41.6864 242.529 41.5267 242.297 41.3089C242.08 41.1056 241.906 40.8587 241.804 40.5974C241.703 40.3215 241.645 40.0311 241.645 39.7407C241.645 39.247 241.775 38.8114 242.036 38.4485C242.297 38.0855 242.674 37.737 243.167 37.4466C243.66 37.1562 244.27 36.8948 244.98 36.6625C245.691 36.4302 246.517 36.1979 247.431 35.951C247.402 35.3848 247.286 34.9347 247.098 34.5862C246.909 34.2377 246.662 33.9764 246.401 33.7731C246.14 33.5698 245.85 33.4536 245.56 33.3956C245.27 33.3375 245.009 33.3084 244.792 33.3084C244.429 33.3084 244.095 33.3665 243.82 33.4682C243.53 33.5698 243.283 33.715 243.08 33.8892C242.863 34.0635 242.689 34.2667 242.558 34.4991C242.428 34.7314 242.326 34.9492 242.254 35.196H242.065V33.5117C242.181 33.5117 242.341 33.4682 242.515 33.3665C242.689 33.2649 242.877 33.1632 243.124 33.0616C243.356 32.9454 243.646 32.8438 243.965 32.7567C244.299 32.6696 244.705 32.626 245.154 32.626C245.923 32.626 246.561 32.7276 247.04 32.9309C247.518 33.1342 247.881 33.3956 248.156 33.7295C248.417 34.0635 248.591 34.441 248.678 34.8621C248.765 35.2831 248.794 35.7187 248.794 36.1688V40.4377C248.794 40.7281 248.867 41.0039 249.012 41.2508C249.157 41.4976 249.331 41.6283 249.578 41.6283V41.8461H247.417V41.8316ZM247.417 39.7843V36.7061L247.199 36.7496C246.866 36.8368 246.445 36.9529 245.952 37.0981C245.459 37.2433 245.009 37.4321 244.56 37.6644C244.125 37.8967 243.747 38.1726 243.443 38.4775C243.138 38.7824 242.979 39.1599 242.979 39.581C242.979 40.0311 243.167 40.4231 243.53 40.7281C243.892 41.033 244.371 41.1782 244.966 41.1782C245.43 41.1782 245.85 41.0765 246.198 40.8733C246.561 40.67 246.866 40.3941 247.17 40.0602L247.402 39.7988H247.417V39.7843Z" fill="white"/>
<path d="M88.0609 55.0156C86.9152 55.0156 85.9145 55.2188 85.0733 55.6399C84.2322 56.0465 83.5361 56.5837 82.9849 57.2371C82.4338 57.8905 82.0133 58.6165 81.7377 59.4441C81.4767 60.2717 81.3461 61.0848 81.3461 61.8834C81.3461 62.7982 81.5202 63.6984 81.8827 64.5841C82.2453 65.4553 82.7239 66.2249 83.3475 66.9073C83.9856 67.5752 84.7108 68.1124 85.5519 68.5335C86.3931 68.9401 87.2923 69.1433 88.264 69.1433C88.5395 69.1433 88.8731 69.1143 89.2356 69.0562C89.6272 68.9981 90.0043 68.882 90.3669 68.7077C90.7439 68.519 91.0775 68.2722 91.382 67.9382C91.7011 67.6188 91.9477 67.1832 92.1217 66.6605H92.3537V69.245C92.1217 69.245 91.8751 69.274 91.6141 69.3321C91.3675 69.3902 91.092 69.4628 90.7729 69.5354C90.3669 69.637 89.9173 69.7387 89.4242 69.8403C88.9456 69.9274 88.438 69.9855 87.8869 69.9855C86.5381 69.9855 85.3634 69.7532 84.3337 69.2885C83.304 68.8239 82.4628 68.2141 81.7812 67.4736C81.0996 66.7331 80.592 65.8909 80.2439 64.9616C79.9104 64.0178 79.7363 63.0595 79.7363 62.1012C79.7363 61.1429 79.9104 60.1846 80.2439 59.2408C80.5775 58.297 81.0996 57.4549 81.7957 56.7144C82.4919 55.9594 83.362 55.3495 84.4207 54.8849C85.4794 54.4203 86.7122 54.1879 88.1334 54.1879C88.641 54.1879 89.1051 54.2315 89.4967 54.3331C89.9173 54.4203 90.2798 54.5219 90.6134 54.609C90.8454 54.6816 91.0485 54.7542 91.237 54.7978C91.4401 54.8268 91.6286 54.8413 91.8171 54.8413V57.4259H91.5851C91.4981 56.9467 91.324 56.5547 91.0775 56.2352C90.8309 55.9158 90.5409 55.669 90.1928 55.4947C89.8738 55.3205 89.5112 55.2043 89.1196 55.1462C88.7716 55.0591 88.409 55.0156 88.0609 55.0156ZM100.664 69.5209H100.78V69.7532H97.4877V69.5209H97.6037C97.7343 69.5209 97.8358 69.4773 97.9228 69.3757C98.0098 69.2885 98.0968 69.1724 98.1548 69.0562C98.2274 68.9255 98.2854 68.7949 98.3144 68.6642C98.3434 68.5045 98.3579 68.3738 98.3579 68.2431V55.2769H95.6604C95.4138 55.2769 95.1963 55.335 95.0077 55.4366C94.8192 55.5383 94.6742 55.6835 94.5437 55.8577C94.4131 56.0174 94.3261 56.1917 94.2681 56.3949C94.2101 56.5837 94.1811 56.7725 94.1811 56.9467H93.949V54.4203H104.362V56.9467H104.13C104.13 56.7579 104.101 56.5692 104.043 56.3949C103.985 56.1917 103.883 56.0174 103.767 55.8577C103.637 55.6835 103.492 55.5528 103.303 55.4366C103.115 55.3205 102.897 55.2769 102.651 55.2769H99.9242V68.2431C99.9242 68.3738 99.9387 68.5045 99.9677 68.6642C99.9967 68.8094 100.04 68.9401 100.113 69.0562C100.185 69.1869 100.272 69.2885 100.345 69.3757C100.432 69.4773 100.533 69.5209 100.664 69.5209ZM112.933 54.1879C114.137 54.1879 115.225 54.4057 116.182 54.8413C117.139 55.2624 117.951 55.8287 118.618 56.5547C119.3 57.2661 119.822 58.1083 120.17 59.0666C120.547 60.0104 120.721 60.9977 120.721 62.0432C120.721 63.2047 120.504 64.2792 120.069 65.252C119.648 66.2249 119.068 67.067 118.328 67.764C117.589 68.4609 116.718 69.0127 115.732 69.4192C114.761 69.8113 113.716 70 112.6 70C111.41 70 110.337 69.7822 109.38 69.3466C108.437 68.911 107.625 68.3448 106.973 67.6333C106.32 66.9218 105.827 66.0942 105.464 65.1649C105.102 64.2356 104.928 63.2628 104.928 62.261C104.928 61.2736 105.102 60.3008 105.464 59.328C105.827 58.3551 106.334 57.4839 107.016 56.7289C107.712 55.9739 108.553 55.364 109.54 54.8994C110.54 54.4203 111.671 54.1879 112.933 54.1879ZM112.919 69.1724C113.948 69.1288 114.862 68.8965 115.631 68.4754C116.414 68.0398 117.081 67.5026 117.603 66.8492C118.125 66.1813 118.517 65.4553 118.763 64.6712C119.024 63.8872 119.155 63.1031 119.155 62.319C119.155 61.4624 118.995 60.6057 118.691 59.7345C118.386 58.8633 117.937 58.0792 117.371 57.3823C116.805 56.6708 116.109 56.09 115.312 55.669C114.528 55.2188 113.629 55.001 112.643 55.001C111.686 55.001 110.83 55.2188 110.062 55.6544C109.307 56.0755 108.655 56.6127 108.118 57.2807C107.596 57.9486 107.19 58.6891 106.915 59.5167C106.639 60.3443 106.494 61.1429 106.494 61.927C106.494 62.7837 106.653 63.6403 106.987 64.5115C107.306 65.3682 107.756 66.1377 108.336 66.8347C108.901 67.5316 109.583 68.0979 110.352 68.5335C111.12 68.9546 111.99 69.1724 112.919 69.1724ZM134.47 69.5209H134.586C134.687 69.5209 134.789 69.4773 134.89 69.3757C134.977 69.2885 135.064 69.1724 135.122 69.0562C135.195 68.9255 135.253 68.7949 135.282 68.6642C135.311 68.5045 135.325 68.3738 135.325 68.2431V56.0174L129.336 70L123.651 56.7289V68.2431C123.651 68.3738 123.665 68.5045 123.694 68.6642C123.723 68.8094 123.767 68.9401 123.839 69.0562C123.912 69.1869 123.999 69.2885 124.1 69.3757C124.187 69.4628 124.303 69.5209 124.419 69.5209H124.535V69.7532H122.012V69.5209H122.128C122.229 69.5209 122.331 69.4773 122.432 69.3757C122.519 69.2885 122.607 69.1724 122.665 69.0562C122.723 68.9255 122.766 68.7949 122.81 68.6642C122.839 68.5045 122.853 68.3738 122.853 68.2431V55.8577C122.853 55.7561 122.839 55.6254 122.81 55.4802C122.781 55.335 122.737 55.2043 122.665 55.0882C122.607 54.9575 122.519 54.8704 122.432 54.7832C122.345 54.6961 122.244 54.6381 122.128 54.6381H122.012V54.4057H124.376L129.756 67.1106L135.137 54.4057H137.776V54.6381H137.66C137.53 54.6381 137.428 54.6816 137.341 54.7832C137.254 54.8558 137.167 54.9575 137.08 55.0882C137.022 55.2188 136.979 55.3495 136.935 55.4802C136.906 55.6254 136.892 55.7416 136.892 55.8577V68.2431C136.892 68.3738 136.906 68.5045 136.935 68.6642C136.964 68.8094 137.008 68.9401 137.08 69.0562C137.153 69.1869 137.24 69.2885 137.341 69.3757C137.428 69.4628 137.544 69.5209 137.66 69.5209H137.776V69.7532H134.484V69.5209H134.47ZM149.596 69.5209H149.712C150.089 69.5209 150.263 69.3466 150.263 69.0127C150.263 68.882 150.234 68.7513 150.191 68.6206L148.102 62.9724H144.042L142.026 68.519C141.982 68.6497 141.953 68.7658 141.953 68.8675C141.953 69.0707 142.011 69.2305 142.113 69.3611C142.214 69.4628 142.33 69.5209 142.461 69.5209H142.577V69.7532H139.995V69.5209H140.111C140.314 69.5209 140.503 69.4047 140.691 69.1724C140.894 68.9255 141.054 68.6351 141.185 68.3157L146.493 54.1444L151.685 68.1705C151.786 68.4754 151.946 68.7803 152.12 69.0707C152.323 69.3611 152.569 69.5063 152.888 69.5063H153.004V69.7387H149.567V69.5209H149.596ZM144.274 62.1738H147.841L146.057 57.3242L144.274 62.1738ZM158.834 69.5209H158.95V69.7532H155.658V69.5209H155.774C155.89 69.5209 156.006 69.4773 156.093 69.3757C156.18 69.2885 156.267 69.1724 156.325 69.0562C156.398 68.9255 156.456 68.7949 156.485 68.6642C156.514 68.5045 156.528 68.3738 156.528 68.2431V55.2769H153.831C153.584 55.2769 153.367 55.335 153.178 55.4366C152.99 55.5383 152.83 55.6835 152.714 55.8577C152.584 56.0174 152.497 56.1917 152.439 56.3949C152.381 56.5837 152.352 56.7725 152.352 56.9467H152.12V54.4203H162.533V56.9467H162.301C162.301 56.7579 162.272 56.5692 162.214 56.3949C162.156 56.1917 162.054 56.0174 161.938 55.8577C161.807 55.6835 161.662 55.5528 161.474 55.4366C161.285 55.335 161.068 55.2769 160.821 55.2769H158.08V68.2431C158.08 68.3738 158.095 68.5045 158.124 68.6642C158.153 68.8094 158.196 68.9401 158.269 69.0562C158.341 69.1869 158.428 69.2885 158.501 69.3757C158.602 69.4773 158.704 69.5209 158.834 69.5209ZM171.104 54.1879C172.307 54.1879 173.395 54.4057 174.352 54.8413C175.31 55.2624 176.122 55.8287 176.789 56.5547C177.47 57.2661 177.993 58.1083 178.341 59.0666C178.718 60.0104 178.892 60.9977 178.892 62.0432C178.892 63.2047 178.674 64.2792 178.239 65.252C177.819 66.2249 177.238 67.067 176.499 67.764C175.759 68.4609 174.889 69.0127 173.903 69.4192C172.931 69.8113 171.887 70 170.77 70C169.581 70 168.508 69.7822 167.551 69.3466C166.608 68.911 165.81 68.3448 165.143 67.6333C164.49 66.9218 163.997 66.0942 163.635 65.1649C163.272 64.2356 163.098 63.2628 163.098 62.261C163.098 61.2736 163.272 60.3008 163.635 59.328C163.997 58.3551 164.505 57.4839 165.187 56.7289C165.883 55.9739 166.724 55.364 167.71 54.8994C168.711 54.4203 169.842 54.1879 171.104 54.1879ZM171.075 69.1724C172.119 69.1288 173.018 68.8965 173.787 68.4754C174.57 68.0398 175.237 67.5026 175.759 66.8492C176.281 66.1813 176.673 65.4553 176.919 64.6712C177.18 63.8872 177.311 63.1031 177.311 62.319C177.311 61.4624 177.151 60.6057 176.847 59.7345C176.542 58.8633 176.093 58.0792 175.527 57.3823C174.961 56.6708 174.265 56.09 173.468 55.669C172.685 55.2188 171.785 55.001 170.799 55.001C169.842 55.001 168.986 55.2188 168.218 55.6544C167.464 56.0755 166.811 56.6127 166.274 57.2807C165.752 57.9486 165.346 58.6891 165.071 59.5167C164.795 60.3443 164.65 61.1429 164.65 61.927C164.65 62.7837 164.81 63.6403 165.143 64.5115C165.462 65.3682 165.912 66.1377 166.492 66.8347C167.072 67.5316 167.739 68.0979 168.508 68.5335C169.291 68.9546 170.147 69.1724 171.075 69.1724ZM180.98 68.127C180.835 68.5335 180.618 68.8965 180.327 69.245C180.037 69.5789 179.602 69.7532 179.022 69.7532H178.297V69.5209C178.384 69.5209 178.515 69.4918 178.674 69.4483C178.834 69.3902 178.993 69.2885 179.167 69.1724C179.341 69.0417 179.501 68.8965 179.675 68.7077C179.849 68.5045 179.994 68.2576 180.11 67.9672L184.49 55.9303C184.562 55.698 184.606 55.5238 184.606 55.3931C184.606 55.1608 184.533 54.9865 184.403 54.8558C184.272 54.7106 184.142 54.6526 184.011 54.6526V54.4203H185.911L191.103 68.6351C191.176 68.8529 191.321 69.0562 191.538 69.245C191.756 69.4192 191.988 69.5063 192.263 69.5209V69.7532H188.942V69.5209C189.058 69.5209 189.189 69.4773 189.319 69.3757C189.464 69.274 189.522 69.1288 189.522 68.9546C189.522 68.911 189.508 68.8384 189.479 68.7513L185.113 56.7144L180.98 68.127ZM202.517 54.1879C203.72 54.1879 204.808 54.4057 205.765 54.8413C206.723 55.2624 207.535 55.8287 208.202 56.5547C208.883 57.2661 209.406 58.1083 209.754 59.0666C210.131 60.0104 210.305 60.9977 210.305 62.0432C210.305 63.2047 210.087 64.2792 209.652 65.252C209.232 66.2249 208.651 67.067 207.912 67.764C207.172 68.4609 206.302 69.0127 205.316 69.4192C204.344 69.8113 203.3 70 202.183 70C200.994 70 199.921 69.7822 198.964 69.3466C198.021 68.911 197.209 68.3448 196.556 67.6333C195.903 66.9218 195.41 66.0942 195.048 65.1649C194.7 64.2356 194.511 63.2628 194.511 62.261C194.511 61.2736 194.685 60.3008 195.048 59.328C195.41 58.3551 195.918 57.4839 196.6 56.7289C197.296 55.9739 198.137 55.364 199.123 54.8994C200.124 54.4203 201.255 54.1879 202.517 54.1879ZM202.502 69.1724C203.532 69.1288 204.446 68.8965 205.214 68.4754C205.997 68.0398 206.665 67.5026 207.187 66.8492C207.709 66.1813 208.1 65.4553 208.347 64.6712C208.608 63.8872 208.738 63.1031 208.738 62.319C208.738 61.4624 208.579 60.6057 208.274 59.7345C207.97 58.8633 207.52 58.0792 206.955 57.3823C206.389 56.6708 205.693 56.09 204.895 55.669C204.112 55.2188 203.213 55.001 202.227 55.001C201.27 55.001 200.414 55.2188 199.645 55.6544C198.891 56.0755 198.238 56.6127 197.702 57.2807C197.18 57.9486 196.774 58.6891 196.498 59.5167C196.223 60.3443 196.077 61.1429 196.077 61.927C196.077 62.7837 196.237 63.6403 196.571 64.5115C196.89 65.3682 197.339 66.1377 197.919 66.8347C198.499 67.5316 199.167 68.0979 199.935 68.5335C200.718 68.9546 201.574 69.1724 202.502 69.1724ZM216.28 69.5209H216.396V69.7532H213.06V69.5209H213.176C213.307 69.5209 213.408 69.4773 213.495 69.4047C213.582 69.3176 213.669 69.2014 213.727 69.0853C213.8 68.9546 213.858 68.8239 213.887 68.6932C213.916 68.548 213.93 68.4174 213.93 68.3012V55.8722C213.93 55.7706 213.916 55.6399 213.887 55.4947C213.858 55.3495 213.8 55.2188 213.727 55.1027C213.669 54.972 213.582 54.8849 213.495 54.7978C213.408 54.7107 213.292 54.6526 213.176 54.6526H213.06V54.4203H221.994V56.8886H221.762C221.762 56.3369 221.631 55.9158 221.385 55.6544C221.153 55.3786 220.776 55.2334 220.268 55.2334H215.511V68.2867C215.511 68.4173 215.526 68.548 215.555 68.6787C215.584 68.8239 215.627 68.9546 215.7 69.0707C215.772 69.2014 215.859 69.3031 215.961 69.3902C216.048 69.4773 216.149 69.5209 216.28 69.5209ZM233.321 69.5209H233.437C233.567 69.5209 233.669 69.4773 233.756 69.4047C233.843 69.3176 233.93 69.2014 233.988 69.0853C234.06 68.9401 234.118 68.8094 234.147 68.6642C234.176 68.5045 234.191 68.3738 234.191 68.2431V57.6001L226.49 68.0253V68.2431C226.49 68.3738 226.504 68.5045 226.533 68.6642C226.577 68.8094 226.635 68.9401 226.693 69.0562C226.751 69.1869 226.838 69.2885 226.925 69.3757C227.012 69.4628 227.128 69.5209 227.244 69.5209H227.36V69.7532H224.068V69.5209H224.184C224.314 69.5209 224.416 69.4773 224.503 69.4047C224.59 69.3176 224.677 69.2014 224.735 69.0853C224.807 68.9401 224.866 68.8094 224.895 68.6642C224.924 68.5045 224.938 68.3738 224.938 68.2431V55.8577C224.938 55.7561 224.924 55.6254 224.895 55.4802C224.866 55.335 224.807 55.2043 224.735 55.0882C224.677 54.9575 224.59 54.8704 224.503 54.7832C224.416 54.6961 224.3 54.6381 224.184 54.6381H224.068V54.4057H227.36V54.6381H227.171C227.07 54.6526 226.968 54.7107 226.867 54.7978C226.794 54.8849 226.722 55.001 226.664 55.1172C226.606 55.2188 226.562 55.3495 226.519 55.4947C226.49 55.6254 226.475 55.7416 226.475 55.8432V66.5733L234.176 56.1481V55.8432C234.176 55.7416 234.162 55.6109 234.133 55.4657C234.104 55.3205 234.046 55.1898 233.973 55.0736C233.915 54.943 233.828 54.8558 233.741 54.7687C233.654 54.6816 233.538 54.6235 233.422 54.6235H233.306V54.3912H236.598V54.6235H236.482C236.366 54.6235 236.25 54.6671 236.163 54.7687C236.076 54.8413 235.989 54.943 235.931 55.0736C235.873 55.2043 235.815 55.335 235.772 55.4657C235.743 55.6109 235.728 55.727 235.728 55.8432V68.2431C235.728 68.3738 235.743 68.5045 235.772 68.6351C235.815 68.7803 235.873 68.911 235.931 69.0562C235.989 69.1869 236.076 69.2885 236.163 69.3757C236.25 69.4628 236.366 69.5209 236.482 69.5209H236.598V69.7532H233.306V69.5209H233.321ZM246.997 69.5209H247.113C247.214 69.5209 247.316 69.4773 247.417 69.3757C247.519 69.2885 247.606 69.1724 247.678 69.0562C247.736 68.9255 247.78 68.7949 247.823 68.6642C247.867 68.5045 247.896 68.3738 247.896 68.2431V61.9415C247.548 61.9706 247.229 62.0867 246.924 62.261C246.634 62.4497 246.344 62.6965 246.069 63.0015C245.807 63.3064 245.546 63.6549 245.3 64.0469C245.068 64.4389 244.836 64.831 244.633 65.252C244.459 65.5569 244.27 65.8909 244.082 66.2539C243.879 66.5879 243.676 66.9363 243.473 67.2993C243.095 67.9818 242.617 68.5625 242.008 69.0417C241.399 69.5063 240.702 69.7387 239.919 69.7387H238.687V69.5063C239.035 69.5063 239.368 69.4337 239.687 69.274C240.006 69.1143 240.311 68.9255 240.572 68.6932C240.833 68.4609 241.065 68.1996 241.268 67.9237C241.486 67.6478 241.66 67.3864 241.805 67.1396L243.632 63.8436C243.85 63.4661 244.082 63.1176 244.328 62.7691C244.589 62.4061 244.981 62.1303 245.517 61.9125C244.865 61.8689 244.285 61.7382 243.777 61.535C243.269 61.3317 242.834 61.0703 242.472 60.7509C242.109 60.4315 241.848 60.0685 241.66 59.6619C241.471 59.2408 241.384 58.8052 241.384 58.3551C241.384 57.7888 241.515 57.2516 241.776 56.7725C242.037 56.2788 242.414 55.8577 242.892 55.5238C243.371 55.1608 243.951 54.8994 244.633 54.7107C245.329 54.5074 246.098 54.4057 246.953 54.4057H250.289V54.6381H250.173C250.071 54.6381 249.97 54.6816 249.868 54.7832C249.781 54.8558 249.694 54.9575 249.636 55.0882C249.578 55.2188 249.535 55.3495 249.491 55.4802C249.462 55.6254 249.448 55.7416 249.448 55.8577V68.2431C249.448 68.3738 249.462 68.5045 249.491 68.6642C249.52 68.8094 249.564 68.9401 249.636 69.0562C249.694 69.1869 249.781 69.2885 249.868 69.3757C249.955 69.4628 250.057 69.5209 250.173 69.5209H250.289V69.7532H247.011V69.5209H246.997ZM242.82 58.0212C242.82 58.4713 242.907 58.8924 243.095 59.2699C243.284 59.6474 243.531 59.9668 243.864 60.2427C244.183 60.5186 244.575 60.7364 244.995 60.8961C245.43 61.0558 245.895 61.1284 246.417 61.1284H247.881V55.2043H247.533C246.025 55.2043 244.865 55.4512 244.053 55.9448C243.226 56.453 242.82 57.1355 242.82 58.0212Z" fill="white"/>
<path d="M252 47.7121C194.366 49.7594 135.963 49.7594 78.3145 47.7121C135.948 45.6503 194.351 45.6648 252 47.7121Z" fill="white"/>
<mask id="mask0_2114_3907" style="mask-type:luminance" maskUnits="userSpaceOnUse" x="0" y="0" width="64" height="70">
<path d="M63.8122 0.058075H0V69.7532H63.8122V0.058075Z" fill="white"/>
</mask>
<g mask="url(#mask0_2114_3907)">
<path d="M53.8198 0.058075V4.16718H50.3536V0.058075H40.3612V4.16718H36.895V0.058075H26.9026V4.16718H23.4365V0.058075H13.4586V4.16718H9.9924V0.058075H0V25.1338C0.783149 45.6358 10.2825 59.8652 31.9061 69.7532C53.6892 59.8652 63.029 44.8081 63.8122 25.1338V0.058075H53.8198ZM60.0269 26.2373C59.3308 43.5594 51.1077 56.8451 31.9061 65.5569C12.8349 56.8451 4.46685 44.2999 3.77072 26.2228V7.75357H60.0124V26.2373H60.0269Z" fill="white"/>
<path d="M52.2823 25.9905C52.3114 25.9179 52.2969 25.8598 52.2823 25.8307C52.2533 25.7727 52.1953 25.7436 52.1228 25.7146C50.0489 25.308 44.7409 24.582 40.2596 26.8762C35.8072 29.1703 32.6601 35.7332 32.5731 35.8204H31.3114C31.1808 35.7332 28.0337 29.1703 23.5669 26.8762C21.1449 25.6275 18.4764 25.279 16.1995 25.279C14.2851 25.279 12.6608 25.5403 11.7036 25.7291C11.6311 25.7436 11.5731 25.7872 11.5441 25.8453C11.5296 25.8743 11.5151 25.9324 11.5441 26.005C12.3127 27.878 14.5752 32.4808 19.042 34.7749C19.7236 35.1234 21.1449 35.4864 22.8127 35.8204H13.9951C13.473 35.8204 13.0959 36.1688 13.2844 36.5173C14.3576 38.6808 18.4329 45.1276 29.4985 45.9842V56.2643C26.7285 57.0483 25.9598 58.9214 25.9598 58.9214H38.0261C38.0261 58.9214 37.7361 56.8741 34.4875 56.1626V45.9842C45.6981 45.1276 49.6864 38.6517 50.7015 36.5028C50.8611 36.1688 50.4985 35.8058 49.9764 35.8058H40.9412C42.6525 35.4719 44.1173 35.0944 44.7699 34.7604C49.2368 32.4663 51.5137 27.878 52.2823 25.9905Z" fill="white"/>
<path d="M23.973 26.0921C28.701 28.5169 31.0794 33.352 31.8771 35.3122C31.8771 35.3267 31.8916 35.3557 31.9061 35.3703C31.9061 35.3557 31.9061 35.3267 31.9206 35.3122C32.7327 33.352 35.1112 28.5169 39.8246 26.0921C41.0718 25.4532 42.3771 25.0467 43.6678 24.7708C43.6968 24.6401 43.7258 24.524 43.7548 24.3933C44.2914 21.7652 44.1754 19.3404 44.0594 18.0917C44.0449 17.99 44.0014 17.932 43.9579 17.9174C43.9434 17.9029 43.8853 17.8739 43.8273 17.8739C43.8128 17.8739 43.7838 17.8739 43.7548 17.8739C38.1277 19.3985 36.779 21.0682 36.7065 21.1554C36.721 21.4458 36.75 21.7507 36.75 22.0265C36.75 24.0303 36.2134 25.8888 35.4882 27.486C34.8356 28.9235 34.038 30.1431 33.3853 31.0288C33.0953 31.4209 32.8197 31.7548 32.6167 32.0017L32.6022 32.0162C32.4862 32.1469 32.3411 32.2485 32.1816 32.292C32.0801 32.3211 31.9786 32.3501 31.8626 32.3501C31.7465 32.3501 31.645 32.3356 31.5435 32.292C31.4565 32.263 31.355 32.2195 31.2824 32.1614C31.2244 32.1178 31.1519 32.0597 31.1084 32.0017C30.9344 31.7984 30.7168 31.5225 30.4848 31.2321C29.8032 30.3319 28.933 29.0541 28.2369 27.5005C27.5262 25.9179 26.9751 24.0303 26.9751 22.0265C26.9751 21.6926 26.9896 21.3732 27.0186 21.0392C26.9316 20.9666 25.9889 19.3985 20.1298 17.8594C20.1153 17.8594 20.0718 17.8594 20.0573 17.8594C19.9993 17.8594 19.9703 17.8739 19.9268 17.9029C19.8688 17.9465 19.8398 18.0046 19.8253 18.0772C19.6947 19.3404 19.5787 21.7797 20.1298 24.4223C19.8833 24.3642 22.5228 25.308 24.0021 26.0776H23.973V26.0921Z" fill="white"/>
<path d="M31.2979 30.9998C31.4574 31.1885 31.588 31.3628 31.7185 31.508C31.8055 31.6241 31.8925 31.6241 31.994 31.508C32.1536 31.3192 32.3421 31.0869 32.5596 30.811C32.7917 30.5206 33.0382 30.1867 33.2848 29.7946C34.5175 27.9652 35.9388 25.1773 35.9388 22.0556C35.9388 21.7216 35.9243 21.4022 35.8808 21.0682C35.8518 20.7488 35.8083 20.4294 35.7502 20.1245C35.1266 16.6252 32.9947 13.7938 31.994 12.6177C31.936 12.5596 31.8925 12.5596 31.8635 12.5596C31.8345 12.5596 31.7765 12.5596 31.733 12.6177C30.7323 13.7793 28.6294 16.5816 27.9913 20.0228C27.9333 20.3277 27.8897 20.6472 27.8607 20.9521C27.8172 21.3151 27.8027 21.6781 27.8027 22.0556C27.8027 25.2935 29.3255 28.1684 30.6018 29.9979C30.8338 30.3754 31.0804 30.7094 31.2979 30.9998Z" fill="white"/>
</g>
</g>
<defs>
<clipPath id="clip0_2114_3907">
<rect width="252" height="70" fill="white"/>
</clipPath>
</defs>
</svg>
